<?xml version="1.0" encoding="utf-8"?>
<!-- Generator: Adobe Illustrator 21.0.0, SVG Export Plug-In . SVG Version: 6.00 Build 0)  -->
<svg version="1.1" id="Capa_1" xmlns="http://www.w3.org/2000/svg" xmlns:xlink="http://www.w3.org/1999/xlink" x="0px" y="0px"
	 viewBox="0 0 512 512" style="enable-background:new 0 0 512 512;" xml:space="preserve">
<g>
	<g>
		<path d="M256,0C114.8,0,0,114.8,0,256s114.8,256,256,256s256-114.8,256-256S397.2,0,256,0z M256,480C132.5,480,32,379.5,32,256
			S132.5,32,256,32s224,100.5,224,224S379.5,480,256,480z"/>
	</g>
</g>
<g>
	<path d="M237.4,314.1c-3.3,0-5.9-2.6-5.9-5.9v-3.8c0-14,2.1-25.5,6.5-34.5c4.3-9,12.3-18.5,24-28.6c16.2-13.7,26.5-24.1,30.7-31
		c4.2-6.9,6.4-15.3,6.4-25.1c0-12.2-3.9-21.6-11.7-28.2c-7.8-6.6-19.1-9.9-33.8-9.9c-9.4,0-18.6,1.1-27.6,3.3
		c-7.5,1.9-16,5-25.4,9.4c-3,1.4-6.6,0.1-7.9-3l-5.9-13.4c-1.3-2.9,0-6.3,2.8-7.7c21-10.1,42.9-15.2,65.7-15.2
		c22.8,0,40.6,5.6,53.2,16.8c12.7,11.2,19,27.1,19,47.5c0,8.7-1.2,16.4-3.5,23c-2.3,6.6-5.8,12.9-10.3,18.8
		c-4.5,5.9-14.3,15.4-29.4,28.6c-12.1,10.3-20,18.8-23.9,25.6c-3.9,6.8-5.8,15.9-5.8,27.2l0,0c0,3.3-2.6,5.9-5.9,5.9H237.4z
		 M222.7,367.3c0-16.2,7.2-24.4,21.5-24.4c6.9,0,12.3,2.1,16,6.3c3.8,4.2,5.6,10.2,5.6,18.1c0,7.6-1.9,13.6-5.7,17.8
		c-3.8,4.2-9.1,6.4-15.9,6.4c-6.2,0-11.4-1.9-15.4-5.6C224.7,382.1,222.7,375.9,222.7,367.3z"/>
</g>
</svg>
