<svg id="Capa_1" data-name="Capa 1" xmlns="http://www.w3.org/2000/svg" xmlns:xlink="http://www.w3.org/1999/xlink" viewBox="0 0 117.96 117.96"><defs><style>.cls-1{fill:url(#New_Gradient_Swatch_1);}.cls-2{fill:url(#New_Gradient_Swatch_1-2);}</style><linearGradient id="New_Gradient_Swatch_1" x1="38.5" y1="59.98" x2="66.02" y2="59.98" gradientUnits="userSpaceOnUse"><stop offset="0" stop-color="#3fb0ff"/><stop offset="1" stop-color="#7e15ff"/></linearGradient><linearGradient id="New_Gradient_Swatch_1-2" x1="55.85" y1="47.53" x2="83.38" y2="47.53" xlink:href="#New_Gradient_Swatch_1"/></defs><path class="cls-1" d="M66,49.69a3,3,0,0,0-.22-.77l-.06-.12a2.57,2.57,0,0,0-.5-.7A10.09,10.09,0,0,0,51,48.1l-9.51,9.51A10.09,10.09,0,0,0,55.72,71.87l5.59-5.6A14,14,0,0,1,55.78,64l-4,4a4.69,4.69,0,0,1-6.48,0,4.6,4.6,0,0,1,0-6.48l5.2-5.21h0l4.3-4.3a4.64,4.64,0,0,1,1.5-1,5.24,5.24,0,0,1,.88-.26h0A4.6,4.6,0,0,1,61.33,52,2.75,2.75,0,0,0,66,50.68a.06.06,0,0,1,0,0,2.88,2.88,0,0,0,.05-.83A.49.49,0,0,1,66,49.69Z"/><path class="cls-2" d="M80.43,35.64a10.09,10.09,0,0,0-14.26,0l-5.61,5.61a14.25,14.25,0,0,1,5.54,2.24l4-4a4.69,4.69,0,0,1,6.48,0,4.59,4.59,0,0,1,1.34,3.25A4.55,4.55,0,0,1,76.54,46l-1.75,1.75h0L67,55.52a4.69,4.69,0,0,1-6.48,0,2.75,2.75,0,0,0-3.89,3.89,10.07,10.07,0,0,0,14.26,0l7.76-7.75h0l1.74-1.74a10.1,10.1,0,0,0,0-14.27Z"/></svg>