<svg id="Capa_1" data-name="Capa 1" xmlns="http://www.w3.org/2000/svg" viewBox="0 0 117.96 117.96"><defs><style>.cls-1{fill:#3283c5;}</style></defs><path class="cls-1" d="M64.81,64.76A8.64,8.64,0,0,1,63.47,66a11.24,11.24,0,0,1-1.84,1.12,11.9,11.9,0,0,1-2.25.8,10.88,10.88,0,0,1-2.59.3,9.65,9.65,0,0,1-3.41-.58A8.23,8.23,0,0,1,50.67,66a7.23,7.23,0,0,1-1.78-2.58A8.49,8.49,0,0,1,48.25,60,8.62,8.62,0,0,1,49,56.35a7.62,7.62,0,0,1,2.08-2.74,9.51,9.51,0,0,1,3.21-1.72,13.8,13.8,0,0,1,4.14-.59,19.48,19.48,0,0,1,3.18.22c.88.15,1.65.3,2.29.47V51a5.06,5.06,0,0,0-.3-1.72,3.94,3.94,0,0,0-1-1.46,4.76,4.76,0,0,0-1.74-1,8.08,8.08,0,0,0-2.63-.38,16.82,16.82,0,0,0-3.79.43,31.4,31.4,0,0,0-4.09,1.25V43.2a12.74,12.74,0,0,1,1.8-.71c.66-.21,1.37-.39,2.11-.55s1.52-.28,2.31-.37A19,19,0,0,1,59,41.43a15.9,15.9,0,0,1,4.88.67A9.86,9.86,0,0,1,67.33,44a7.82,7.82,0,0,1,2.09,2.83,8.84,8.84,0,0,1,.7,3.54V61.14a9.16,9.16,0,0,0,.07,1.11,2.42,2.42,0,0,0,.28.86,1.41,1.41,0,0,0,.56.55,1.93,1.93,0,0,0,.92.19,4.29,4.29,0,0,0,2.43-.77,6.6,6.6,0,0,0,2-2.2,12.76,12.76,0,0,0,1.32-3.47,20.09,20.09,0,0,0,.48-4.59A19.16,19.16,0,0,0,76.65,45a16,16,0,0,0-4.05-5.58,17,17,0,0,0-6-3.35A23.56,23.56,0,0,0,59.37,35a21.06,21.06,0,0,0-8.88,1.7,16.89,16.89,0,0,0-6.07,4.55,18.23,18.23,0,0,0-3.48,6.54,26.12,26.12,0,0,0-1.12,7.67,23.65,23.65,0,0,0,1.27,7.89,17.13,17.13,0,0,0,3.83,6.31,17.52,17.52,0,0,0,6.4,4.17,24.43,24.43,0,0,0,9,1.51,40.56,40.56,0,0,0,4.46-.24c1.45-.15,2.82-.36,4.11-.62s2.48-.55,3.58-.87a24.48,24.48,0,0,0,2.86-1V77a29.57,29.57,0,0,1-3,1c-1.15.32-2.4.61-3.73.86s-2.73.44-4.18.59a41.7,41.7,0,0,1-4.3.22,31.8,31.8,0,0,1-6.8-.7,25.39,25.39,0,0,1-6-2.11,23.15,23.15,0,0,1-5.09-3.42,20.36,20.36,0,0,1-3.89-4.71,23,23,0,0,1-2.49-5.93,27.45,27.45,0,0,1-.88-7.1,29.3,29.3,0,0,1,1.71-10.22,22.81,22.81,0,0,1,4.9-8,21.79,21.79,0,0,1,7.7-5.14,26.77,26.77,0,0,1,10.13-1.83,27.33,27.33,0,0,1,9.5,1.59,22.22,22.22,0,0,1,7.47,4.48,20.37,20.37,0,0,1,4.89,6.93,22.25,22.25,0,0,1,1.76,9,22.6,22.6,0,0,1-.92,6.74,14.41,14.41,0,0,1-2.54,4.94,10.62,10.62,0,0,1-3.86,3,11.49,11.49,0,0,1-4.85,1A9.2,9.2,0,0,1,68.52,68a5.53,5.53,0,0,1-1.67-.7,4.4,4.4,0,0,1-1.17-1.1,6.77,6.77,0,0,1-.76-1.41Zm-.91-8.1c-.59-.13-1.25-.25-2-.37a14.85,14.85,0,0,0-2.38-.18,6.5,6.5,0,0,0-3.61.88,3.13,3.13,0,0,0-1.34,2.8,3.45,3.45,0,0,0,.31,1.53,2.92,2.92,0,0,0,.81,1.07,3.59,3.59,0,0,0,1.2.62,5,5,0,0,0,1.44.21A6.56,6.56,0,0,0,60.13,63,8.13,8.13,0,0,0,63,61.47a8.37,8.37,0,0,0,.95-.91Z"/></svg>