<svg id="Capa_1" data-name="Capa 1" xmlns="http://www.w3.org/2000/svg" viewBox="0 0 117.96 117.96"><defs><style>.cls-1{fill:#00b1f3;}</style></defs><path class="cls-1" d="M71.82,83.34a9.83,9.83,0,0,1-4.9-1.29l-1.07-.61-1.2.21A19,19,0,0,1,42.38,63a18.13,18.13,0,0,1,.29-3.29l.21-1.21-.61-1.06a9.9,9.9,0,0,1,8.6-14.81,10,10,0,0,1,4.91,1.29l1.06.61,1.21-.21a19,19,0,0,1,22,22l-.21,1.21.61,1.06a9.9,9.9,0,0,1-8.61,14.81M83.37,66.85a22.4,22.4,0,0,0-25.9-25.91A13.31,13.31,0,0,0,37.58,52.5a13.12,13.12,0,0,0,1.75,6.58A22.66,22.66,0,0,0,39,63,22.41,22.41,0,0,0,65.23,85,13.3,13.3,0,0,0,83.37,66.85"/><path class="cls-1" d="M65.4,60.83l-5-1.12c-1.9-.45-4.06-1.06-4.06-2.88s1.47-3.12,4.25-3.12c5.61,0,5.15,3.9,7.94,3.9,1.46,0,2.72-.81,2.72-2.31,0-3.49-5.58-6.06-10.27-6.06-5.09,0-10.44,2.1-10.44,7.92,0,2.8,1,5.82,6.42,7.2l6.78,1.71c2,.51,2.65,1.68,2.65,2.73,0,1.75-1.82,3.6-4.93,3.6-6.09,0-5.24-4.86-8.5-4.86A2.46,2.46,0,0,0,50.33,70c0,2.83,3.48,6.7,11.11,6.7,7.25,0,10.93-3.65,10.93-8.38,0-3-1.47-6.25-7-7.49"/></svg>