<svg id="Capa_1" data-name="Capa 1" xmlns="http://www.w3.org/2000/svg" xmlns:xlink="http://www.w3.org/1999/xlink" viewBox="0 0 117.96 117.96"><defs><style>.cls-1{fill:#fff;stroke-linecap:round;stroke-linejoin:round;stroke-width:3px;fill-rule:evenodd;stroke:url(#New_Gradient_Swatch_1);}.cls-2{fill:url(#New_Gradient_Swatch_1-2);}.cls-3{fill:url(#New_Gradient_Swatch_1-3);}.cls-4{fill:url(#New_Gradient_Swatch_1-4);}</style><linearGradient id="New_Gradient_Swatch_1" x1="28.01" y1="60.15" x2="86.89" y2="60.15" gradientUnits="userSpaceOnUse"><stop offset="0" stop-color="#3fb0ff"/><stop offset="1" stop-color="#7e15ff"/></linearGradient><linearGradient id="New_Gradient_Swatch_1-2" x1="41.59" y1="56.32" x2="49.37" y2="56.32" xlink:href="#New_Gradient_Swatch_1"/><linearGradient id="New_Gradient_Swatch_1-3" x1="51.04" y1="56.32" x2="63.81" y2="56.32" xlink:href="#New_Gradient_Swatch_1"/><linearGradient id="New_Gradient_Swatch_1-4" x1="65.49" y1="56.32" x2="73.27" y2="56.32" xlink:href="#New_Gradient_Swatch_1"/></defs><path class="cls-1" d="M57.45,37.4c15.43,0,27.94,8.7,27.94,19.43a15.2,15.2,0,0,1-3.87,9.87A35.91,35.91,0,0,1,76.81,71,126.05,126.05,0,0,1,59,82a10.44,10.44,0,0,1-2.4.86c-1.15.17-1.78-.34-1.62-1.32l.57-3a2,2,0,0,0-1.29-2.41h0C40.31,75,29.51,66.81,29.51,56.83,29.51,46.1,42,37.4,57.45,37.4Z"/><path class="cls-2" d="M42.07,59.93a6,6,0,0,0,2.9.76c1.4,0,2.18-.65,2.18-1.63s-.6-1.44-2.13-2c-2-.71-3.23-1.76-3.23-3.48,0-2,1.63-3.45,4.23-3.45a6.29,6.29,0,0,1,2.87.61l-.53,1.75A5.11,5.11,0,0,0,46,51.94c-1.39,0-2,.74-2,1.43,0,.93.69,1.35,2.29,2,2.08.78,3.09,1.83,3.09,3.55,0,1.92-1.45,3.59-4.54,3.59a7.13,7.13,0,0,1-3.24-.75Z"/><path class="cls-3" d="M61.45,57.42c-.07-1.54-.16-3.41-.14-5h-.06c-.39,1.45-.88,3.07-1.42,4.58l-1.74,5.19H56.4l-1.59-5.12c-.47-1.53-.89-3.16-1.21-4.65h0c-.05,1.56-.12,3.46-.21,5.1l-.27,4.81H51l.8-12h2.88l1.56,4.81c.43,1.41.8,2.83,1.1,4.16h0c.32-1.3.73-2.77,1.2-4.18l1.65-4.79h2.84l.69,12H61.68Z"/><path class="cls-4" d="M66,59.93a6,6,0,0,0,2.9.76c1.4,0,2.18-.65,2.18-1.63s-.6-1.44-2.13-2c-2-.71-3.23-1.76-3.23-3.48,0-2,1.63-3.45,4.23-3.45a6.29,6.29,0,0,1,2.87.61l-.53,1.75a5.11,5.11,0,0,0-2.38-.56c-1.39,0-2,.74-2,1.43,0,.93.69,1.35,2.29,2,2.08.78,3.09,1.83,3.09,3.55,0,1.92-1.45,3.59-4.54,3.59a7.13,7.13,0,0,1-3.24-.75Z"/></svg>