<svg id="Capa_1" data-name="Capa 1" xmlns="http://www.w3.org/2000/svg" viewBox="0 0 117.96 117.96"><defs><style>.cls-1{fill:none;stroke:#00b1f3;stroke-miterlimit:10;stroke-width:3px;}</style></defs><path class="cls-1" d="M79.94,43.6,72.31,82.08a2.83,2.83,0,0,1-4,1.39L50.69,70l-6.4-3.09L33.51,63.24s-1.66-.59-1.82-1.87,1.87-2,1.87-2L76.42,42.58S79.94,41,79.94,43.6Z"/><path class="cls-1" d="M49.34,81.65s-.51-.05-1.15-2.08-3.9-12.7-3.9-12.7L70.17,50.43s1.5-.91,1.45,0c0,0,.26.16-.54.91s-20.33,18.3-20.33,18.3"/><path class="cls-1" d="M57.45,75.14l-7,6.35a1.24,1.24,0,0,1-1.14.16l1.33-11.8"/></svg>