<svg id="Capa_1" data-name="Capa 1" xmlns="http://www.w3.org/2000/svg" xmlns:xlink="http://www.w3.org/1999/xlink" viewBox="0 0 117.96 117.96"><defs><style>.cls-1{fill-rule:evenodd;fill:url(#linear-gradient);}</style><linearGradient id="linear-gradient" x1="34.27" y1="60.15" x2="83.69" y2="60.15" gradientUnits="userSpaceOnUse"><stop offset="0" stop-color="#25cf43"/><stop offset="1" stop-color="#61fd7d"/></linearGradient></defs><g id="WA_Logo" data-name="WA Logo"><path class="cls-1" d="M76.49,42.54A24.61,24.61,0,0,0,37.76,72.22L34.27,85l13-3.42a24.71,24.71,0,0,0,11.76,3h0a24.61,24.61,0,0,0,17.41-42ZM59.08,80.39h0a20.44,20.44,0,0,1-10.41-2.85l-.74-.44-7.74,2,2.06-7.55-.48-.77a20.45,20.45,0,1,1,17.32,9.58ZM70.3,65.08c-.61-.31-3.64-1.8-4.2-2s-1-.31-1.38.31-1.59,2-1.95,2.41-.72.46-1.33.15a16.89,16.89,0,0,1-4.95-3.05,18.4,18.4,0,0,1-3.42-4.26c-.36-.62,0-1,.27-1.25s.62-.72.92-1.08a4.34,4.34,0,0,0,.62-1,1.14,1.14,0,0,0-.05-1.07c-.16-.31-1.39-3.34-1.9-4.57s-1-1-1.38-1-.77,0-1.18,0a2.24,2.24,0,0,0-1.64.77,6.88,6.88,0,0,0-2.15,5.12c0,3,2.2,5.95,2.51,6.36s4.33,6.62,10.5,9.28a35.26,35.26,0,0,0,3.51,1.3,8.36,8.36,0,0,0,3.87.24c1.18-.18,3.64-1.49,4.15-2.92a5.19,5.19,0,0,0,.36-2.92C71.33,65.54,70.92,65.39,70.3,65.08Z"/></g></svg>