<svg xmlns="http://www.w3.org/2000/svg" width="512" height="512" viewBox="0 0 512 512" version="1.1">
	<rect x="0" y="0" width="100%" height="100%" fill="undefined" />
	<path fill-opacity="0.267" d="M 238.500 5.600 C 223.661 7.115, 207.873 9.631, 198.004 12.053 C 99.430 36.240, 26.114 115.100, 8.859 215.500 C 5.905 232.688, 5.177 268.792, 7.437 286 C 11.515 317.055, 19.089 342.025, 32.502 368.638 C 61.489 426.149, 109.979 469.249, 171.500 492.188 C 182.687 496.359, 207.248 502.460, 221.500 504.608 C 236.229 506.828, 273.707 507.159, 287.500 505.190 C 344.662 497.031, 393.603 473.191, 432.474 434.570 C 470.755 396.535, 494.478 351.128, 504.174 297.333 C 506.240 285.870, 506.485 281.458, 506.473 256 C 506.457 224.614, 505.378 215.347, 498.905 191.021 C 473.449 95.350, 392.107 22.732, 293.809 7.920 C 281.070 6, 248.115 4.618, 238.500 5.600 M 115.223 87.557 L 113 89.113 113 212.036 L 113 334.958 122.750 343.389 C 128.113 348.026, 160.175 375.254, 194 403.895 C 251.461 452.551, 255.748 455.972, 259.283 455.985 C 262.855 455.999, 265.906 453.497, 313.783 411.305 C 386.719 347.028, 398.412 336.658, 399.235 335.518 C 399.639 334.958, 399.976 279.273, 399.985 211.773 L 400 89.046 397.507 87.413 C 394.148 85.212, 390.233 86.282, 388.861 89.778 C 388.274 91.275, 368.088 144.925, 344.004 209 L 300.214 325.500 258.561 325.761 L 216.907 326.022 215.331 322.261 C 214.465 320.192, 193.537 266.750, 168.825 203.500 C 144.112 140.250, 123.156 87.938, 122.256 87.250 C 120.068 85.580, 117.910 85.675, 115.223 87.557 M 125 225.833 L 125 326 164.485 326 L 203.971 326 201.891 320.750 C 200.747 317.863, 183.176 272.985, 162.844 221.022 C 142.512 169.059, 125.680 126.347, 125.439 126.105 C 125.197 125.864, 125 170.742, 125 225.833 M 350.603 225.255 C 330.309 279.290, 313.498 324.063, 313.246 324.750 C 312.883 325.736, 320.729 326, 350.393 326 L 388 326 388 226.500 C 388 171.775, 387.887 127.002, 387.750 127.005 C 387.613 127.008, 370.896 171.220, 350.603 225.255 M 136.081 338.750 C 136.194 339.795, 243.288 430.045, 243.804 429.530 C 244.034 429.299, 236.210 408.611, 226.418 383.556 L 208.613 338 172.307 338 C 152.338 338, 136.036 338.337, 136.081 338.750 M 222.245 339.750 C 222.849 341.958, 258.166 432.352, 258.646 432.917 C 258.841 433.146, 259.265 433.068, 259.589 432.744 C 260.258 432.075, 294.971 339.904, 294.989 338.750 C 294.995 338.337, 278.523 338, 258.383 338 C 223.995 338, 221.796 338.106, 222.245 339.750 M 291.112 383.637 C 281.668 408.738, 274.076 429.410, 274.242 429.575 C 274.688 430.022, 376.430 340.210, 376.827 339.019 C 377.053 338.340, 365.676 338, 342.725 338 L 308.283 338 291.112 383.637 " stroke="none" fill="undefined" fill-rule="evenodd"/>
	<path fill-opacity="0.133" d="M 241 5.590 C 185.670 10.367, 139.468 28.368, 99.500 60.719 C 48.657 101.873, 16.399 159.397, 7.937 224 C 0.757 278.817, 12.491 335.951, 40.708 383.556 C 80.271 450.303, 147.299 494.284, 226 505.136 C 239.551 507.004, 276.585 506.732, 290.305 504.663 C 347.400 496.053, 396.414 471.324, 435.583 431.369 C 481.943 384.077, 507 322.547, 507 256 C 507 211.800, 496.058 169.920, 474.813 132.803 C 448.984 87.678, 412.748 53.605, 366.500 30.954 C 341.909 18.910, 319.340 11.874, 292.713 7.950 C 280.148 6.098, 250.688 4.754, 241 5.590 M 114.655 87.829 C 113.134 89.510, 113.001 99.555, 113.015 212.079 C 113.024 279.410, 113.361 334.998, 113.765 335.606 C 114.169 336.214, 146.225 363.570, 185 396.398 L 255.500 456.086 259.653 455.793 C 263.589 455.515, 267.229 452.481, 329.153 397.864 C 365.094 366.164, 395.738 339.073, 397.250 337.662 L 400 335.095 400 212.203 C 400 94.416, 399.924 89.241, 398.171 87.655 C 395.996 85.686, 393.014 85.524, 390.724 87.250 C 389.811 87.938, 369.881 139.575, 346.435 202 C 322.988 264.425, 302.914 317.867, 301.826 320.761 L 299.848 326.022 258.254 325.761 L 216.659 325.500 170.318 207 C 144.830 141.825, 123.221 87.938, 122.297 87.250 C 119.889 85.458, 116.574 85.709, 114.655 87.829 M 125 225.833 L 125 326 164.449 326 L 203.898 326 202.544 322.750 C 201.799 320.962, 184.221 276.075, 163.482 223 C 142.743 169.925, 125.600 126.313, 125.387 126.083 C 125.174 125.854, 125 170.742, 125 225.833 M 387 128.386 C 387 128.701, 315.795 318.393, 313.478 324.250 C 312.826 325.898, 314.980 326, 350.393 326 L 388 326 388 227 C 388 172.550, 387.775 128, 387.500 128 C 387.225 128, 387 128.174, 387 128.386 M 137.202 339.105 C 137.629 340.387, 243.306 430.027, 243.803 429.530 C 244.149 429.184, 210.688 343.155, 208.931 339.870 C 207.982 338.097, 206.086 338, 172.381 338 C 146.868 338, 136.937 338.312, 137.202 339.105 M 222.403 339.750 C 226.107 350.252, 258.647 432.960, 259.082 432.977 C 259.501 432.994, 290.983 350.351, 294.786 339.250 C 295.123 338.265, 287.433 338, 258.500 338 C 223.966 338, 221.823 338.104, 222.403 339.750 M 308.309 339.250 C 306.827 341.540, 274.234 429, 274.872 428.975 C 275.779 428.938, 376.435 340.049, 376.833 338.934 C 377.382 337.397, 309.305 337.711, 308.309 339.250 " stroke="none" fill="undefined" fill-rule="evenodd"/>
	<path fill-opacity="0.420" d="M 231 6.668 C 199.404 9.805, 162.524 21.460, 134.696 37.103 C 18.354 102.502, -26.878 246.388, 31.459 365.500 C 44.157 391.426, 56.733 409.405, 76.418 429.769 C 124.609 479.625, 187.346 506.280, 256.500 506.280 C 314.328 506.280, 365.837 488.401, 412.500 452.132 C 423.173 443.836, 447.697 418.716, 456.113 407.460 C 481.864 373.017, 498.180 334.009, 504.616 291.500 C 507.142 274.815, 507.173 237.263, 504.674 221 C 496.316 166.623, 473.799 120.733, 436.582 82.231 C 412.690 57.513, 384.662 38.114, 354.716 25.568 C 332.616 16.308, 306.808 9.489, 284.500 7.015 C 276.224 6.097, 239.172 5.856, 231 6.668 M 115.313 86.786 C 114.659 87.201, 113.647 88.798, 113.063 90.335 C 111.938 93.292, 111.490 329.499, 112.601 333.638 C 112.917 334.814, 118.423 340.241, 124.837 345.697 C 131.252 351.154, 163.170 378.204, 195.768 405.809 C 253.754 454.915, 255.127 456, 259.291 456 C 263.492 456, 264.386 455.261, 330.023 397.459 C 366.585 365.261, 397.518 337.780, 398.762 336.389 L 401.023 333.861 400.762 211.350 C 400.505 91.389, 400.460 88.809, 398.559 87.419 C 395.747 85.364, 391.360 85.648, 389.719 87.991 C 388.952 89.087, 368.370 143.087, 343.982 207.991 L 299.640 326 258.400 326 L 217.160 326 208.219 303.250 C 203.301 290.738, 182.495 237.525, 161.983 185 C 141.471 132.475, 124.014 88.713, 123.189 87.750 C 121.652 85.956, 117.430 85.439, 115.313 86.786 M 125 226.333 L 125 326 164.117 326 C 200.893 326, 203.204 325.895, 202.737 324.250 C 201.959 321.501, 125.932 127.598, 125.440 127.106 C 125.198 126.864, 125 171.517, 125 226.333 M 350.415 226.796 L 313.329 325.500 350.319 325.762 C 370.663 325.907, 387.466 325.867, 387.659 325.674 C 387.852 325.481, 387.895 280.946, 387.755 226.707 L 387.500 128.091 350.415 226.796 M 140 341.955 C 141.925 343.543, 166 363.944, 193.500 387.290 C 221 410.636, 243.600 429.659, 243.723 429.563 C 243.845 429.467, 235.995 409.051, 226.278 384.194 L 208.610 339 172.555 339.034 L 136.500 339.067 140 341.955 M 223.442 342.250 C 224.180 344.038, 232.312 364.850, 241.515 388.500 C 250.718 412.150, 258.537 431.822, 258.890 432.216 C 259.243 432.609, 267.457 411.797, 277.143 385.966 L 294.754 339 258.428 339 L 222.102 339 223.442 342.250 M 291.534 383.574 C 282.338 408.089, 274.968 428.275, 275.157 428.431 C 275.346 428.587, 298.359 408.529, 326.299 383.858 L 377.098 339 342.676 339 L 308.254 339 291.534 383.574 " stroke="none" fill="undefined" fill-rule="evenodd"/>
	<path fill-opacity="0.564" d="M 234.500 6.596 C 232.850 6.826, 226.458 7.705, 220.296 8.551 C 179.665 14.124, 135.066 33.066, 103 58.369 C 51.420 99.070, 18.782 155.190, 8.882 220.203 C 6.031 238.923, 5.794 270.604, 8.370 288.500 C 18.973 362.165, 57.635 424.085, 118.343 464.631 C 151.241 486.603, 191.109 500.807, 231.859 505.074 C 248.514 506.817, 281.196 505.778, 297 503.001 C 312.915 500.205, 329.885 495.808, 342 491.341 C 420.521 462.391, 479.694 396.458, 499.364 316 C 521.939 223.662, 491.292 127.804, 419.500 66.198 C 384.037 35.767, 341.371 16.235, 293.297 8.425 C 283.960 6.908, 241.697 5.593, 234.500 6.596 M 116.315 86.007 C 115.114 86.491, 113.651 87.783, 113.065 88.878 C 111.628 91.564, 111.564 332.317, 113 335 C 113.550 336.028, 145.525 363.561, 184.056 396.185 C 253.951 455.364, 254.122 455.501, 258.969 455.799 L 263.828 456.099 328.164 399.434 C 363.549 368.268, 394.413 340.928, 396.750 338.676 L 401 334.584 401 212.403 C 401 97.477, 400.896 90.101, 399.250 88.198 C 396.215 84.687, 393.336 84.522, 390.327 87.684 C 388.319 89.794, 376.601 119.952, 343.574 208 L 299.500 325.500 258.451 325.761 L 217.403 326.022 179.557 229.261 C 119.019 74.483, 124.287 87.452, 121.432 86.151 C 120.043 85.518, 118.815 85.029, 118.703 85.063 C 118.591 85.098, 117.517 85.523, 116.315 86.007 M 125.278 226.500 L 125.500 325.500 164.362 325.762 C 199.411 325.998, 203.164 325.869, 202.618 324.446 C 194.168 302.427, 126.522 130.055, 125.916 129 C 125.432 128.156, 125.152 170.774, 125.278 226.500 M 350.720 226.794 C 330.524 280.581, 314 324.906, 314 325.294 C 314 325.682, 330.650 326, 351 326 L 388 326 388 227.500 C 388 173.325, 387.874 129, 387.720 129 C 387.566 129, 370.916 173.007, 350.720 226.794 M 189.534 383.571 C 218.495 408.086, 242.348 427.985, 242.541 427.792 C 242.734 427.600, 235.153 407.554, 225.696 383.246 L 208.500 339.050 172.689 339.025 L 136.878 339 189.534 383.571 M 223.262 340.750 C 224.222 344.143, 258.206 430.509, 258.856 431.208 C 259.380 431.771, 292.606 345.440, 293.823 340.351 C 294.090 339.235, 287.928 339, 258.457 339 C 224.944 339, 222.797 339.107, 223.262 340.750 M 293.058 380.250 C 284.571 402.938, 277.013 423.003, 276.262 424.841 C 275.213 427.408, 275.189 428.001, 276.158 427.402 C 277.485 426.582, 369.713 345.477, 373.977 341.380 L 376.455 339 342.472 339 L 308.489 339 293.058 380.250 " stroke="none" fill="undefined" fill-rule="evenodd"/>
	<path fill-opacity="0.122" d="M 235 7.053 C 185.856 11.370, 137.840 30.736, 99.500 61.701 C 76.726 80.094, 51.889 109.271, 40.081 131.500 C 36.175 138.852, 37.313 137.316, 44.771 125.167 C 64.316 93.329, 94.926 62.904, 126.858 43.576 C 190.054 5.325, 265.145 -3.118, 335.500 20.116 C 361.773 28.793, 391.462 44.931, 412.657 62.057 C 432.989 78.486, 454.877 102.946, 466.967 122.750 C 468.729 125.637, 470.395 128, 470.667 128 C 472.237 128, 457.769 107.197, 448.411 96 C 438.498 84.137, 419.376 65.895, 407.460 56.933 C 372.333 30.511, 330.208 13.410, 287 8.030 C 274.705 6.499, 247.189 5.982, 235 7.053 M 114.441 85.468 C 112.141 87.208, 113.224 87.501, 115.863 85.854 C 118.658 84.108, 122.825 85.664, 125.027 89.277 C 126.108 91.050, 126.994 91.903, 126.996 91.173 C 127.002 88.960, 121.313 84, 118.768 84 C 117.456 84, 115.509 84.661, 114.441 85.468 M 389.581 86.250 C 387.299 88.279, 380.342 104.675, 381.339 105.673 C 381.555 105.888, 383.203 101.983, 385.002 96.993 C 388.309 87.824, 390.552 85, 394.531 85 C 395.679 85, 397.491 85.639, 398.559 86.419 C 400.457 87.807, 400.511 90.551, 401.008 211.669 L 401.516 335.500 401.758 212.205 L 402 88.909 399.545 86.455 C 396.487 83.396, 392.874 83.322, 389.581 86.250 M 111.667 88.667 C 111.300 89.033, 111 144.601, 111 212.151 L 111 334.968 113.750 337.894 C 115.263 339.503, 147.685 367.185, 185.799 399.410 C 253.536 456.679, 255.193 458, 259.322 458 C 263.483 458, 264.543 457.122, 330.023 399.427 C 391.066 345.641, 408.159 330.317, 397.882 338.588 C 395.892 340.190, 364.928 367.375, 329.073 399 C 266.962 453.783, 263.682 456.514, 259.672 456.795 L 255.462 457.091 184.981 397.474 C 146.216 364.684, 113.934 337.123, 113.242 336.227 C 112.244 334.933, 112.038 309.129, 112.242 211.298 C 112.384 143.484, 112.463 88, 112.417 88 C 112.371 88, 112.033 88.300, 111.667 88.667 M 127.644 94.996 C 128 96.369, 129.126 99.294, 130.147 101.496 C 131.168 103.698, 131.712 104.377, 131.356 103.004 C 131 101.631, 129.874 98.706, 128.853 96.504 C 127.832 94.302, 127.288 93.623, 127.644 94.996 M 132.031 106.500 C 132.031 107.050, 132.467 108.175, 133 109 C 133.533 109.825, 133.969 110.050, 133.969 109.500 C 133.969 108.950, 133.533 107.825, 133 107 C 132.467 106.175, 132.031 105.950, 132.031 106.500 M 377.600 114.100 C 376.137 118.046, 375.111 121.445, 375.320 121.653 C 375.528 121.861, 376.892 118.800, 378.350 114.850 C 379.808 110.900, 380.835 107.501, 380.630 107.297 C 380.426 107.093, 379.063 110.154, 377.600 114.100 M 134.031 111.500 C 134.031 112.050, 134.467 113.175, 135 114 C 135.533 114.825, 135.969 115.050, 135.969 114.500 C 135.969 113.950, 135.533 112.825, 135 112 C 134.467 111.175, 134.031 110.950, 134.031 111.500 M 136.644 117.996 C 137 119.369, 138.126 122.294, 139.147 124.496 C 140.168 126.698, 140.712 127.377, 140.356 126.004 C 140 124.631, 138.874 121.706, 137.853 119.504 C 136.832 117.302, 136.288 116.623, 136.644 117.996 M 373.624 124.539 C 372.659 127.053, 372.943 127.702, 374.122 125.675 C 374.706 124.671, 374.973 123.639, 374.715 123.382 C 374.458 123.124, 373.966 123.645, 373.624 124.539 M 141.031 129.500 C 141.031 130.050, 141.467 131.175, 142 132 C 142.533 132.825, 142.969 133.050, 142.969 132.500 C 142.969 131.950, 142.533 130.825, 142 130 C 141.467 129.175, 141.031 128.950, 141.031 129.500 M 472.500 132 C 473.353 133.650, 474.276 135, 474.551 135 C 474.826 135, 474.353 133.650, 473.500 132 C 472.647 130.350, 471.724 129, 471.449 129 C 471.174 129, 471.647 130.350, 472.500 132 M 126.039 227.750 L 126 325 164 325 C 184.900 325, 202 324.663, 202 324.250 C 202.001 323.837, 185.126 323.623, 164.500 323.774 L 127 324.047 127.015 229.774 C 127.025 168.540, 127.370 136.026, 128 137 C 129.428 139.209, 129.207 137.706, 127.539 133.865 C 126.245 130.883, 126.074 141.572, 126.039 227.750 M 369.125 136.625 C 367.933 139.741, 367.126 142.459, 367.332 142.665 C 367.538 142.872, 368.683 140.491, 369.875 137.375 C 371.067 134.259, 371.874 131.541, 371.668 131.335 C 371.462 131.128, 370.317 133.509, 369.125 136.625 M 385.098 136.149 C 383.752 140.009, 383.719 140.982, 385 139 C 385.630 138.026, 385.975 170.177, 385.985 230.750 L 386 324 351.083 324 C 324.824 324, 316.068 323.703, 315.767 322.801 C 315.517 322.050, 315.123 322.238, 314.715 323.301 C 314.109 324.881, 316.624 325, 350.531 325 L 387 325 387 229 C 387 176.200, 386.819 133, 386.598 133 C 386.377 133, 385.702 134.417, 385.098 136.149 M 143.378 135.500 C 145.673 142.089, 149.377 150.956, 149.700 150.633 C 150.126 150.207, 144.147 134.780, 143.254 134 C 142.939 133.725, 142.995 134.400, 143.378 135.500 M 479.212 144.462 C 481.520 149.117, 483.570 152.763, 483.767 152.566 C 484.212 152.122, 476.162 136, 475.496 136 C 475.231 136, 476.903 139.808, 479.212 144.462 M 32.949 144.101 C 31.255 147.457, 30.034 150.367, 30.236 150.569 C 30.437 150.771, 32.038 148.025, 33.792 144.468 C 35.546 140.911, 36.767 138, 36.505 138 C 36.243 138, 34.643 140.746, 32.949 144.101 M 129.378 140.500 C 131.673 147.089, 135.377 155.956, 135.700 155.633 C 136.126 155.207, 130.147 139.780, 129.254 139 C 128.939 138.725, 128.995 139.400, 129.378 140.500 M 382.111 144.111 C 381.495 145.878, 381.166 147.499, 381.380 147.713 C 381.594 147.927, 382.273 146.656, 382.889 144.889 C 383.505 143.122, 383.834 141.501, 383.620 141.287 C 383.406 141.073, 382.727 142.344, 382.111 144.111 M 364.624 148.539 C 363.659 151.053, 363.943 151.702, 365.122 149.675 C 365.706 148.671, 365.973 147.639, 365.715 147.382 C 365.458 147.124, 364.966 147.645, 364.624 148.539 M 379.111 152.111 C 378.495 153.878, 378.166 155.499, 378.380 155.713 C 378.594 155.927, 379.273 154.656, 379.889 152.889 C 380.505 151.122, 380.834 149.501, 380.620 149.287 C 380.406 149.073, 379.727 150.344, 379.111 152.111 M 25.978 159.698 C 21.866 169.565, 18.876 178.210, 19.396 178.729 C 19.616 178.949, 20.585 176.738, 21.550 173.815 C 22.514 170.892, 24.803 164.930, 26.636 160.568 C 28.469 156.205, 29.802 152.469, 29.599 152.266 C 29.396 152.063, 27.767 155.407, 25.978 159.698 M 150.031 152.500 C 150.031 153.050, 150.467 154.175, 151 155 C 151.533 155.825, 151.969 156.050, 151.969 155.500 C 151.969 154.950, 151.533 153.825, 151 153 C 150.467 152.175, 150.031 151.950, 150.031 152.500 M 362.111 155.111 C 361.495 156.878, 361.166 158.499, 361.380 158.713 C 361.594 158.927, 362.273 157.656, 362.889 155.889 C 363.505 154.122, 363.834 152.501, 363.620 152.287 C 363.406 152.073, 362.727 153.344, 362.111 155.111 M 484.071 154.500 C 484.071 155.050, 484.714 156.625, 485.500 158 C 486.286 159.375, 486.929 160.050, 486.929 159.500 C 486.929 158.950, 486.286 157.375, 485.500 156 C 484.714 154.625, 484.071 153.950, 484.071 154.500 M 136.031 157.500 C 136.031 158.050, 136.467 159.175, 137 160 C 137.533 160.825, 137.969 161.050, 137.969 160.500 C 137.969 159.950, 137.533 158.825, 137 158 C 136.467 157.175, 136.031 156.950, 136.031 157.500 M 152.644 158.996 C 153 160.369, 154.126 163.294, 155.147 165.496 C 156.168 167.698, 156.712 168.377, 156.356 167.004 C 156 165.631, 154.874 162.706, 153.853 160.504 C 152.832 158.302, 152.288 157.623, 152.644 158.996 M 376.111 160.111 C 375.495 161.878, 375.166 163.499, 375.380 163.713 C 375.594 163.927, 376.273 162.656, 376.889 160.889 C 377.505 159.122, 377.834 157.501, 377.620 157.287 C 377.406 157.073, 376.727 158.344, 376.111 160.111 M 359.111 163.111 C 358.495 164.878, 358.166 166.499, 358.380 166.713 C 358.594 166.927, 359.273 165.656, 359.889 163.889 C 360.505 162.122, 360.834 160.501, 360.620 160.287 C 360.406 160.073, 359.727 161.344, 359.111 163.111 M 487.031 161.500 C 487.031 162.050, 487.467 163.175, 488 164 C 488.533 164.825, 488.969 165.050, 488.969 164.500 C 488.969 163.950, 488.533 162.825, 488 162 C 487.467 161.175, 487.031 160.950, 487.031 161.500 M 138.644 163.996 C 139 165.369, 140.126 168.294, 141.147 170.496 C 142.168 172.698, 142.712 173.377, 142.356 172.004 C 142 170.631, 140.874 167.706, 139.853 165.504 C 138.832 163.302, 138.288 162.623, 138.644 163.996 M 373.111 168.111 C 372.495 169.878, 372.166 171.499, 372.380 171.713 C 372.594 171.927, 373.273 170.656, 373.889 168.889 C 374.505 167.122, 374.834 165.501, 374.620 165.287 C 374.406 165.073, 373.727 166.344, 373.111 168.111 M 489.573 168 C 489.941 169.375, 490.659 171.175, 491.169 172 C 491.813 173.042, 491.892 172.737, 491.427 171 C 491.059 169.625, 490.341 167.825, 489.831 167 C 489.187 165.958, 489.108 166.263, 489.573 168 M 356.111 171.111 C 355.495 172.878, 355.166 174.499, 355.380 174.713 C 355.594 174.927, 356.273 173.656, 356.889 171.889 C 357.505 170.122, 357.834 168.501, 357.620 168.287 C 357.406 168.073, 356.727 169.344, 356.111 171.111 M 157.031 170.500 C 157.031 171.050, 157.467 172.175, 158 173 C 158.533 173.825, 158.969 174.050, 158.969 173.500 C 158.969 172.950, 158.533 171.825, 158 171 C 157.467 170.175, 157.031 169.950, 157.031 170.500 M 370.111 176.111 C 369.495 177.878, 369.166 179.499, 369.380 179.713 C 369.594 179.927, 370.273 178.656, 370.889 176.889 C 371.505 175.122, 371.834 173.501, 371.620 173.287 C 371.406 173.073, 370.727 174.344, 370.111 176.111 M 143.031 175.500 C 143.031 176.050, 143.467 177.175, 144 178 C 144.533 178.825, 144.969 179.050, 144.969 178.500 C 144.969 177.950, 144.533 176.825, 144 176 C 143.467 175.175, 143.031 174.950, 143.031 175.500 M 159.031 175.500 C 159.031 176.050, 159.467 177.175, 160 178 C 160.533 178.825, 160.969 179.050, 160.969 178.500 C 160.969 177.950, 160.533 176.825, 160 176 C 159.467 175.175, 159.031 174.950, 159.031 175.500 M 353.111 179.111 C 352.495 180.878, 352.166 182.499, 352.380 182.713 C 352.594 182.927, 353.273 181.656, 353.889 179.889 C 354.505 178.122, 354.834 176.501, 354.620 176.287 C 354.406 176.073, 353.727 177.344, 353.111 179.111 M 17.571 182.571 C 17.204 184.037, 17.096 185.429, 17.331 185.665 C 17.567 185.900, 18.061 184.894, 18.429 183.429 C 18.796 181.963, 18.904 180.571, 18.669 180.335 C 18.433 180.100, 17.939 181.106, 17.571 182.571 M 145.031 180.500 C 145.031 181.050, 145.467 182.175, 146 183 C 146.533 183.825, 146.969 184.050, 146.969 183.500 C 146.969 182.950, 146.533 181.825, 146 181 C 145.467 180.175, 145.031 179.950, 145.031 180.500 M 161.644 181.996 C 162 183.369, 163.126 186.294, 164.147 188.496 C 165.168 190.698, 165.712 191.377, 165.356 190.004 C 165 188.631, 163.874 185.706, 162.853 183.504 C 161.832 181.302, 161.288 180.623, 161.644 181.996 M 494.152 181 C 494.152 181.825, 494.759 184.075, 495.500 186 C 496.241 187.925, 496.848 188.825, 496.848 188 C 496.848 187.175, 496.241 184.925, 495.500 183 C 494.759 181.075, 494.152 180.175, 494.152 181 M 367.111 184.111 C 366.495 185.878, 366.166 187.499, 366.380 187.713 C 366.594 187.927, 367.273 186.656, 367.889 184.889 C 368.505 183.122, 368.834 181.501, 368.620 181.287 C 368.406 181.073, 367.727 182.344, 367.111 184.111 M 347.097 195.097 C 344.804 201.238, 343.097 206.430, 343.303 206.636 C 343.509 206.842, 345.550 201.983, 347.839 195.839 C 350.128 189.694, 351.835 184.502, 351.633 184.299 C 351.430 184.097, 349.389 188.956, 347.097 195.097 M 147.378 186.500 C 149.673 193.089, 153.377 201.956, 153.700 201.633 C 154.126 201.207, 148.147 185.780, 147.254 185 C 146.939 184.725, 146.995 185.400, 147.378 186.500 M 14.177 195.246 C 12.980 200.021, 12.041 204.506, 12.091 205.214 C 12.140 205.921, 13.254 202.450, 14.565 197.500 C 15.875 192.550, 16.815 188.064, 16.651 187.532 C 16.488 187, 15.375 190.471, 14.177 195.246 M 364.111 192.111 C 363.495 193.878, 363.166 195.499, 363.380 195.713 C 363.594 195.927, 364.273 194.656, 364.889 192.889 C 365.505 191.122, 365.834 189.501, 365.620 189.287 C 365.406 189.073, 364.727 190.344, 364.111 192.111 M 497.079 191.583 C 497.127 192.748, 497.364 192.985, 497.683 192.188 C 497.972 191.466, 497.936 190.603, 497.604 190.271 C 497.272 189.939, 497.036 190.529, 497.079 191.583 M 166.031 193.500 C 166.031 194.050, 166.467 195.175, 167 196 C 167.533 196.825, 167.969 197.050, 167.969 196.500 C 167.969 195.950, 167.533 194.825, 167 194 C 166.467 193.175, 166.031 192.950, 166.031 193.500 M 498.079 195.583 C 498.127 196.748, 498.364 196.985, 498.683 196.188 C 498.972 195.466, 498.936 194.603, 498.604 194.271 C 498.272 193.939, 498.036 194.529, 498.079 195.583 M 361.111 200.111 C 360.495 201.878, 360.166 203.499, 360.380 203.713 C 360.594 203.927, 361.273 202.656, 361.889 200.889 C 362.505 199.122, 362.834 197.501, 362.620 197.287 C 362.406 197.073, 361.727 198.344, 361.111 200.111 M 168.031 198.500 C 168.031 199.050, 168.467 200.175, 169 201 C 169.533 201.825, 169.969 202.050, 169.969 201.500 C 169.969 200.950, 169.533 199.825, 169 199 C 168.467 198.175, 168.031 197.950, 168.031 198.500 M 499.079 199.583 C 499.127 200.748, 499.364 200.985, 499.683 200.188 C 499.972 199.466, 499.936 198.603, 499.604 198.271 C 499.272 197.939, 499.036 198.529, 499.079 199.583 M 500.158 204 C 500.158 205.375, 500.385 205.938, 500.662 205.250 C 500.940 204.563, 500.940 203.438, 500.662 202.750 C 500.385 202.063, 500.158 202.625, 500.158 204 M 154.031 203.500 C 154.031 204.050, 154.467 205.175, 155 206 C 155.533 206.825, 155.969 207.050, 155.969 206.500 C 155.969 205.950, 155.533 204.825, 155 204 C 154.467 203.175, 154.031 202.950, 154.031 203.500 M 170.644 204.996 C 171 206.369, 172.126 209.294, 173.147 211.496 C 174.168 213.698, 174.712 214.377, 174.356 213.004 C 174 211.631, 172.874 208.706, 171.853 206.504 C 170.832 204.302, 170.288 203.623, 170.644 204.996 M 358.111 208.111 C 357.495 209.878, 357.166 211.499, 357.380 211.713 C 357.594 211.927, 358.273 210.656, 358.889 208.889 C 359.505 207.122, 359.834 205.501, 359.620 205.287 C 359.406 205.073, 358.727 206.344, 358.111 208.111 M 11.195 209.500 C 11.215 211.150, 11.439 211.704, 11.693 210.731 C 11.947 209.758, 11.930 208.408, 11.656 207.731 C 11.382 207.054, 11.175 207.850, 11.195 209.500 M 501.237 209 C 501.237 210.375, 501.580 212.850, 502 214.500 C 502.681 217.176, 502.763 217.230, 502.763 215 C 502.763 213.625, 502.420 211.150, 502 209.500 C 501.319 206.824, 501.237 206.770, 501.237 209 M 156.378 209.500 C 158.673 216.089, 162.377 224.956, 162.700 224.633 C 163.126 224.207, 157.147 208.780, 156.254 208 C 155.939 207.725, 155.995 208.400, 156.378 209.500 M 339.600 215.100 C 338.137 219.046, 337.111 222.445, 337.320 222.653 C 337.528 222.861, 338.892 219.800, 340.350 215.850 C 341.808 211.900, 342.835 208.501, 342.630 208.297 C 342.426 208.093, 341.063 211.154, 339.600 215.100 M 10.195 215.500 C 10.215 217.150, 10.439 217.704, 10.693 216.731 C 10.947 215.758, 10.930 214.408, 10.656 213.731 C 10.382 213.054, 10.175 213.850, 10.195 215.500 M 355.111 216.111 C 354.495 217.878, 354.166 219.499, 354.380 219.713 C 354.594 219.927, 355.273 218.656, 355.889 216.889 C 356.505 215.122, 356.834 213.501, 356.620 213.287 C 356.406 213.073, 355.727 214.344, 355.111 216.111 M 175.031 216.500 C 175.031 217.050, 175.467 218.175, 176 219 C 176.533 219.825, 176.969 220.050, 176.969 219.500 C 176.969 218.950, 176.533 217.825, 176 217 C 175.467 216.175, 175.031 215.950, 175.031 216.500 M 503.232 221 C 503.232 222.925, 503.438 223.713, 503.689 222.750 C 503.941 221.787, 503.941 220.213, 503.689 219.250 C 503.438 218.287, 503.232 219.075, 503.232 221 M 9.232 222 C 9.232 223.925, 9.438 224.713, 9.689 223.750 C 9.941 222.787, 9.941 221.213, 9.689 220.250 C 9.438 219.287, 9.232 220.075, 9.232 222 M 177.031 221.500 C 177.031 222.050, 177.467 223.175, 178 224 C 178.533 224.825, 178.969 225.050, 178.969 224.500 C 178.969 223.950, 178.533 222.825, 178 222 C 177.467 221.175, 177.031 220.950, 177.031 221.500 M 352.111 224.111 C 351.495 225.878, 351.166 227.499, 351.380 227.713 C 351.594 227.927, 352.273 226.656, 352.889 224.889 C 353.505 223.122, 353.834 221.501, 353.620 221.287 C 353.406 221.073, 352.727 222.344, 352.111 224.111 M 335.111 227.111 C 334.495 228.878, 334.166 230.499, 334.380 230.713 C 334.594 230.927, 335.273 229.656, 335.889 227.889 C 336.505 226.122, 336.834 224.501, 336.620 224.287 C 336.406 224.073, 335.727 225.344, 335.111 227.111 M 504.286 229.500 C 504.294 232.250, 504.488 233.256, 504.718 231.736 C 504.947 230.216, 504.941 227.966, 504.704 226.736 C 504.467 225.506, 504.279 226.750, 504.286 229.500 M 8.300 231 C 8.300 234.025, 8.487 235.262, 8.716 233.750 C 8.945 232.238, 8.945 229.762, 8.716 228.250 C 8.487 226.738, 8.300 227.975, 8.300 231 M 163.377 227.500 C 165.703 234.188, 171.396 247.937, 171.710 247.623 C 172.130 247.203, 164.141 226.779, 163.252 226 C 162.938 225.725, 162.994 226.400, 163.377 227.500 M 179.644 227.996 C 180 229.369, 181.126 232.294, 182.147 234.496 C 183.168 236.698, 183.712 237.377, 183.356 236.004 C 183 234.631, 181.874 231.706, 180.853 229.504 C 179.832 227.302, 179.288 226.623, 179.644 227.996 M 349.111 232.111 C 348.495 233.878, 348.166 235.499, 348.380 235.713 C 348.594 235.927, 349.273 234.656, 349.889 232.889 C 350.505 231.122, 350.834 229.501, 350.620 229.287 C 350.406 229.073, 349.727 230.344, 349.111 232.111 M 332.111 235.111 C 331.495 236.878, 331.166 238.499, 331.380 238.713 C 331.594 238.927, 332.273 237.656, 332.889 235.889 C 333.505 234.122, 333.834 232.501, 333.620 232.287 C 333.406 232.073, 332.727 233.344, 332.111 235.111 M 505.349 244 C 505.349 248.675, 505.522 250.588, 505.732 248.250 C 505.943 245.912, 505.943 242.088, 505.732 239.750 C 505.522 237.412, 505.349 239.325, 505.349 244 M 7.419 256 C 7.419 266.725, 7.566 271.113, 7.746 265.750 C 7.925 260.387, 7.925 251.613, 7.746 246.250 C 7.566 240.887, 7.419 245.275, 7.419 256 M 346.111 240.111 C 345.495 241.878, 345.166 243.499, 345.380 243.713 C 345.594 243.927, 346.273 242.656, 346.889 240.889 C 347.505 239.122, 347.834 237.501, 347.620 237.287 C 347.406 237.073, 346.727 238.344, 346.111 240.111 M 184.419 240.500 C 188.441 251.408, 192.356 260.978, 192.669 260.665 C 193.130 260.203, 185.329 239.963, 184.358 239.100 C 183.986 238.770, 184.013 239.400, 184.419 240.500 M 329.111 243.111 C 328.495 244.878, 328.166 246.499, 328.380 246.713 C 328.594 246.927, 329.273 245.656, 329.889 243.889 C 330.505 242.122, 330.834 240.501, 330.620 240.287 C 330.406 240.073, 329.727 241.344, 329.111 243.111 M 343.111 248.111 C 342.495 249.878, 342.166 251.499, 342.380 251.713 C 342.594 251.927, 343.273 250.656, 343.889 248.889 C 344.505 247.122, 344.834 245.501, 344.620 245.287 C 344.406 245.073, 343.727 246.344, 343.111 248.111 M 326.111 251.111 C 325.495 252.878, 325.166 254.499, 325.380 254.713 C 325.594 254.927, 326.273 253.656, 326.889 251.889 C 327.505 250.122, 327.834 248.501, 327.620 248.287 C 327.406 248.073, 326.727 249.344, 326.111 251.111 M 172.377 250.500 C 174.703 257.188, 180.396 270.937, 180.710 270.623 C 181.130 270.203, 173.141 249.779, 172.252 249 C 171.938 248.725, 171.994 249.400, 172.377 250.500 M 340.624 254.539 C 339.659 257.053, 339.943 257.702, 341.122 255.675 C 341.706 254.671, 341.973 253.639, 341.715 253.382 C 341.458 253.124, 340.966 253.645, 340.624 254.539 M 323.111 259.111 C 322.495 260.878, 322.166 262.499, 322.380 262.713 C 322.594 262.927, 323.273 261.656, 323.889 259.889 C 324.505 258.122, 324.834 256.501, 324.620 256.287 C 324.406 256.073, 323.727 257.344, 323.111 259.111 M 337.624 262.539 C 336.659 265.053, 336.943 265.702, 338.122 263.675 C 338.706 262.671, 338.973 261.639, 338.715 261.382 C 338.458 261.124, 337.966 261.645, 337.624 262.539 M 505.343 268.500 C 505.346 272.900, 505.522 274.576, 505.733 272.224 C 505.945 269.872, 505.942 266.272, 505.727 264.224 C 505.512 262.176, 505.339 264.100, 505.343 268.500 M 193.031 262.500 C 193.031 263.050, 193.467 264.175, 194 265 C 194.533 265.825, 194.969 266.050, 194.969 265.500 C 194.969 264.950, 194.533 263.825, 194 263 C 193.467 262.175, 193.031 261.950, 193.031 262.500 M 320.111 267.111 C 319.495 268.878, 319.166 270.499, 319.380 270.713 C 319.594 270.927, 320.273 269.656, 320.889 267.889 C 321.505 266.122, 321.834 264.501, 321.620 264.287 C 321.406 264.073, 320.727 265.344, 320.111 267.111 M 195.644 268.996 C 196 270.369, 197.126 273.294, 198.147 275.496 C 199.168 277.698, 199.712 278.377, 199.356 277.004 C 199 275.631, 197.874 272.706, 196.853 270.504 C 195.832 268.302, 195.288 267.623, 195.644 268.996 M 334.624 270.539 C 333.659 273.053, 333.943 273.702, 335.122 271.675 C 335.706 270.671, 335.973 269.639, 335.715 269.382 C 335.458 269.124, 334.966 269.645, 334.624 270.539 M 181.377 273.500 C 183.703 280.188, 189.396 293.937, 189.710 293.623 C 190.130 293.203, 182.141 272.779, 181.252 272 C 180.938 271.725, 180.994 272.400, 181.377 273.500 M 317.111 275.111 C 316.495 276.878, 316.166 278.499, 316.380 278.713 C 316.594 278.927, 317.273 277.656, 317.889 275.889 C 318.505 274.122, 318.834 272.501, 318.620 272.287 C 318.406 272.073, 317.727 273.344, 317.111 275.111 M 332.111 277.111 C 331.495 278.878, 331.166 280.499, 331.380 280.713 C 331.594 280.927, 332.273 279.656, 332.889 277.889 C 333.505 276.122, 333.834 274.501, 333.620 274.287 C 333.406 274.073, 332.727 275.344, 332.111 277.111 M 8.300 281 C 8.300 284.025, 8.487 285.262, 8.716 283.750 C 8.945 282.238, 8.945 279.762, 8.716 278.250 C 8.487 276.738, 8.300 277.975, 8.300 281 M 504.286 282.500 C 504.294 285.250, 504.488 286.256, 504.718 284.736 C 504.947 283.216, 504.941 280.966, 504.704 279.736 C 504.467 278.506, 504.279 279.750, 504.286 282.500 M 200.114 280.500 C 200.133 281.050, 201.014 283.300, 202.072 285.500 C 203.130 287.700, 203.715 288.375, 203.373 287 C 202.668 284.169, 200.062 278.970, 200.114 280.500 M 314.624 281.539 C 313.659 284.053, 313.943 284.702, 315.122 282.675 C 315.706 281.671, 315.973 280.639, 315.715 280.382 C 315.458 280.124, 314.966 280.645, 314.624 281.539 M 312.111 288.111 C 311.495 289.878, 311.166 291.499, 311.380 291.713 C 311.594 291.927, 312.273 290.656, 312.889 288.889 C 313.505 287.122, 313.834 285.501, 313.620 285.287 C 313.406 285.073, 312.727 286.344, 312.111 288.111 M 328.624 286.539 C 327.659 289.053, 327.943 289.702, 329.122 287.675 C 329.706 286.671, 329.973 285.639, 329.715 285.382 C 329.458 285.124, 328.966 285.645, 328.624 286.539 M 9.232 290 C 9.232 291.925, 9.438 292.712, 9.689 291.750 C 9.941 290.788, 9.941 289.212, 9.689 288.250 C 9.438 287.288, 9.232 288.075, 9.232 290 M 503.232 291 C 503.232 292.925, 503.438 293.712, 503.689 292.750 C 503.941 291.788, 503.941 290.212, 503.689 289.250 C 503.438 288.288, 503.232 289.075, 503.232 291 M 204.377 291.500 C 206.703 298.188, 212.396 311.937, 212.710 311.623 C 213.130 311.203, 205.141 290.779, 204.252 290 C 203.938 289.725, 203.994 290.400, 204.377 291.500 M 326.111 293.111 C 325.495 294.878, 325.166 296.499, 325.380 296.713 C 325.594 296.927, 326.273 295.656, 326.889 293.889 C 327.505 292.122, 327.834 290.501, 327.620 290.287 C 327.406 290.073, 326.727 291.344, 326.111 293.111 M 10.195 296.500 C 10.215 298.150, 10.439 298.704, 10.693 297.731 C 10.947 296.758, 10.930 295.408, 10.656 294.731 C 10.382 294.054, 10.175 294.850, 10.195 296.500 M 190.031 295.500 C 190.031 296.050, 190.467 297.175, 191 298 C 191.533 298.825, 191.969 299.050, 191.969 298.500 C 191.969 297.950, 191.533 296.825, 191 296 C 190.467 295.175, 190.031 294.950, 190.031 295.500 M 501.545 299.545 C 501.163 302.096, 501.055 304.388, 501.305 304.638 C 501.555 304.888, 502.072 303.005, 502.455 300.455 C 502.837 297.904, 502.945 295.612, 502.695 295.362 C 502.445 295.112, 501.928 296.995, 501.545 299.545 M 308.624 297.539 C 307.659 300.053, 307.943 300.702, 309.122 298.675 C 309.706 297.671, 309.973 296.639, 309.715 296.382 C 309.458 296.124, 308.966 296.645, 308.624 297.539 M 323.111 301.111 C 322.495 302.878, 322.166 304.499, 322.380 304.713 C 322.594 304.927, 323.273 303.656, 323.889 301.889 C 324.505 300.122, 324.834 298.501, 324.620 298.287 C 324.406 298.073, 323.727 299.344, 323.111 301.111 M 11.195 302.500 C 11.215 304.150, 11.439 304.704, 11.693 303.731 C 11.947 302.758, 11.930 301.408, 11.656 300.731 C 11.382 300.054, 11.175 300.850, 11.195 302.500 M 192.644 301.996 C 193 303.369, 194.126 306.294, 195.147 308.496 C 196.168 310.698, 196.712 311.377, 196.356 310.004 C 196 308.631, 194.874 305.706, 193.853 303.504 C 192.832 301.302, 192.288 300.623, 192.644 301.996 M 306.111 304.111 C 305.495 305.878, 305.166 307.499, 305.380 307.713 C 305.594 307.927, 306.273 306.656, 306.889 304.889 C 307.505 303.122, 307.834 301.501, 307.620 301.287 C 307.406 301.073, 306.727 302.344, 306.111 304.111 M 12.109 307 C 12.070 307.825, 12.665 310.750, 13.430 313.500 C 14.195 316.250, 14.853 317.825, 14.891 317 C 14.930 316.175, 14.335 313.250, 13.570 310.500 C 12.805 307.750, 12.147 306.175, 12.109 307 M 320.111 309.111 C 319.495 310.878, 319.166 312.499, 319.380 312.713 C 319.594 312.927, 320.273 311.656, 320.889 309.889 C 321.505 308.122, 321.834 306.501, 321.620 306.287 C 321.406 306.073, 320.727 307.344, 320.111 309.111 M 500.158 308 C 500.158 309.375, 500.385 309.938, 500.662 309.250 C 500.940 308.563, 500.940 307.438, 500.662 306.750 C 500.385 306.063, 500.158 306.625, 500.158 308 M 303.111 312.111 C 302.495 313.878, 302.166 315.499, 302.380 315.713 C 302.594 315.927, 303.273 314.656, 303.889 312.889 C 304.505 311.122, 304.834 309.501, 304.620 309.287 C 304.406 309.073, 303.727 310.344, 303.111 312.111 M 499.079 312.583 C 499.127 313.748, 499.364 313.985, 499.683 313.188 C 499.972 312.466, 499.936 311.603, 499.604 311.271 C 499.272 310.939, 499.036 311.529, 499.079 312.583 M 197.031 313.500 C 197.031 314.050, 197.467 315.175, 198 316 C 198.533 316.825, 198.969 317.050, 198.969 316.500 C 198.969 315.950, 198.533 314.825, 198 314 C 197.467 313.175, 197.031 312.950, 197.031 313.500 M 213.031 313.500 C 213.031 314.050, 213.467 315.175, 214 316 C 214.533 316.825, 214.969 317.050, 214.969 316.500 C 214.969 315.950, 214.533 314.825, 214 314 C 213.467 313.175, 213.031 312.950, 213.031 313.500 M 317.111 317.111 C 316.495 318.878, 316.166 320.499, 316.380 320.713 C 316.594 320.927, 317.273 319.656, 317.889 317.889 C 318.505 316.122, 318.834 314.501, 318.620 314.287 C 318.406 314.073, 317.727 315.344, 317.111 317.111 M 497.625 318.125 C 496.791 322.293, 497.599 323.101, 498.500 319 C 498.880 317.271, 498.982 315.649, 498.727 315.394 C 498.472 315.139, 497.976 316.368, 497.625 318.125 M 300.022 320.433 L 298.845 324 258.370 324 L 217.896 324 216.832 320.949 C 216.247 319.271, 215.594 318.073, 215.380 318.287 C 215.166 318.501, 215.487 320.099, 216.093 321.838 L 217.196 325 258.430 325 L 299.664 325 300.800 321.301 C 302.267 316.519, 301.570 315.742, 300.022 320.433 M 199.031 318.500 C 199.031 319.050, 199.467 320.175, 200 321 C 200.533 321.825, 200.969 322.050, 200.969 321.500 C 200.969 320.950, 200.533 319.825, 200 319 C 199.467 318.175, 199.031 317.950, 199.031 318.500 M 15.141 320 C 15.141 320.825, 15.527 322.400, 16 323.500 C 16.542 324.761, 16.859 324.945, 16.859 324 C 16.859 323.175, 16.473 321.600, 16 320.500 C 15.458 319.239, 15.141 319.055, 15.141 320 M 495.571 325.571 C 495.204 327.037, 495.096 328.429, 495.331 328.665 C 495.567 328.900, 496.061 327.894, 496.429 326.429 C 496.796 324.963, 496.904 323.571, 496.669 323.335 C 496.433 323.100, 495.939 324.106, 495.571 325.571 M 17.141 327 C 17.141 327.825, 17.527 329.400, 18 330.500 C 18.542 331.761, 18.859 331.945, 18.859 331 C 18.859 330.175, 18.473 328.600, 18 327.500 C 17.458 326.239, 17.141 326.055, 17.141 327 M 20.634 338 C 20.971 339.375, 21.862 341.850, 22.613 343.500 C 23.710 345.909, 23.859 346.008, 23.366 344 C 23.029 342.625, 22.138 340.150, 21.387 338.500 C 20.290 336.091, 20.141 335.992, 20.634 338 M 139.036 340.367 C 139.841 341.119, 162.775 360.540, 190 383.523 C 217.225 406.507, 240.268 425.969, 241.207 426.772 C 242.556 427.926, 242.364 426.846, 240.289 421.617 C 238.846 417.979, 237.489 415.178, 237.274 415.393 C 237.059 415.608, 237.590 417.477, 238.455 419.545 C 239.319 421.614, 239.854 423.479, 239.644 423.689 C 239.314 424.020, 161.183 358.299, 146 344.919 L 140.500 340.072 173.718 340.036 L 206.936 340 208.428 342.750 C 210.202 346.021, 210.492 345.174, 208.839 341.547 L 207.679 339 172.625 339 C 142.931 339, 137.795 339.209, 139.036 340.367 M 223.490 340.750 C 223.877 341.712, 225.117 344.872, 226.244 347.770 C 227.371 350.669, 228.469 352.865, 228.683 352.650 C 228.898 352.436, 228.157 349.935, 227.037 347.093 C 225.916 344.251, 225 341.493, 225 340.963 C 225 340.365, 237.692 340, 258.500 340 C 278.612 340, 292 340.374, 292 340.935 C 292 341.449, 291.537 343.087, 290.972 344.574 C 290.407 346.061, 290.131 347.464, 290.360 347.693 C 290.588 347.921, 291.473 346.059, 292.327 343.554 L 293.879 339 258.332 339 C 224.877 339, 222.827 339.103, 223.490 340.750 M 307.947 341.639 C 307.395 343.090, 307.160 344.493, 307.423 344.757 C 307.687 345.020, 308.198 344.058, 308.560 342.618 L 309.217 340 341.323 340 C 369.260 340, 373.238 340.187, 371.964 341.438 C 364.781 348.493, 278.438 423.771, 277.906 423.442 C 277.227 423.022, 275.660 425.993, 276.250 426.583 C 276.413 426.746, 297.236 408.630, 322.523 386.323 C 347.810 364.017, 370.268 344.244, 372.430 342.383 L 376.360 339 342.655 339 L 308.950 339 307.947 341.639 M 489.624 343.539 C 488.659 346.053, 488.943 346.702, 490.122 344.675 C 490.706 343.671, 490.973 342.639, 490.715 342.382 C 490.458 342.124, 489.966 342.645, 489.624 343.539 M 210.644 347.996 C 211 349.369, 212.126 352.294, 213.147 354.496 C 214.168 356.698, 214.712 357.377, 214.356 356.004 C 214 354.631, 212.874 351.706, 211.853 349.504 C 210.832 347.302, 210.288 346.623, 210.644 347.996 M 305.111 349.111 C 304.495 350.878, 304.166 352.499, 304.380 352.713 C 304.594 352.927, 305.273 351.656, 305.889 349.889 C 306.505 348.122, 306.834 346.501, 306.620 346.287 C 306.406 346.073, 305.727 347.344, 305.111 349.111 M 24.031 347.500 C 24.031 348.050, 24.467 349.175, 25 350 C 25.533 350.825, 25.969 351.050, 25.969 350.500 C 25.969 349.950, 25.533 348.825, 25 348 C 24.467 347.175, 24.031 346.950, 24.031 347.500 M 486.051 352.762 C 481.894 363.103, 471.165 382.958, 463.585 394.337 C 423.676 454.247, 359.478 493.588, 286 503.163 C 273.758 504.758, 239.242 504.758, 227 503.163 C 180.361 497.085, 135.225 478.121, 100.343 449.945 C 78.334 432.168, 56.825 407.498, 43.064 384.250 C 40.703 380.262, 38.583 377, 38.351 377 C 37.034 377, 48.362 394.883, 57.096 406.592 C 66.471 419.160, 86.552 439.863, 99.500 450.308 C 135.260 479.156, 178.773 497.668, 226 504.124 C 238.323 505.809, 274.726 505.805, 287 504.117 C 334.649 497.564, 377.297 479.506, 413.500 450.554 C 431.281 436.335, 453.057 412.212, 465.759 392.663 C 475.400 377.825, 490.140 348.807, 488.745 347.412 C 488.532 347.199, 487.320 349.607, 486.051 352.762 M 286.600 356.100 C 285.137 360.046, 284.111 363.445, 284.320 363.653 C 284.528 363.861, 285.892 360.800, 287.350 356.850 C 288.808 352.900, 289.835 349.501, 289.630 349.297 C 289.426 349.093, 288.063 352.154, 286.600 356.100 M 26.071 352.500 C 26.071 353.050, 26.714 354.625, 27.500 356 C 28.286 357.375, 28.929 358.050, 28.929 357.500 C 28.929 356.950, 28.286 355.375, 27.500 354 C 26.714 352.625, 26.071 351.950, 26.071 352.500 M 229.031 354.500 C 229.031 355.050, 229.467 356.175, 230 357 C 230.533 357.825, 230.969 358.050, 230.969 357.500 C 230.969 356.950, 230.533 355.825, 230 355 C 229.467 354.175, 229.031 353.950, 229.031 354.500 M 302.111 357.111 C 301.495 358.878, 301.166 360.499, 301.380 360.713 C 301.594 360.927, 302.273 359.656, 302.889 357.889 C 303.505 356.122, 303.834 354.501, 303.620 354.287 C 303.406 354.073, 302.727 355.344, 302.111 357.111 M 29 359.356 C 29 360.443, 36.965 376, 37.522 376 C 37.970 376, 30.321 360.101, 29.384 359.083 C 29.173 358.854, 29 358.977, 29 359.356 M 215.031 359.500 C 215.031 360.050, 215.467 361.175, 216 362 C 216.533 362.825, 216.969 363.050, 216.969 362.500 C 216.969 361.950, 216.533 360.825, 216 360 C 215.467 359.175, 215.031 358.950, 215.031 359.500 M 231.378 360.500 C 233.673 367.089, 237.377 375.956, 237.700 375.633 C 238.126 375.207, 232.147 359.780, 231.254 359 C 230.939 358.725, 230.995 359.400, 231.378 360.500 M 299.111 365.111 C 298.495 366.878, 298.166 368.499, 298.380 368.713 C 298.594 368.927, 299.273 367.656, 299.889 365.889 C 300.505 364.122, 300.834 362.501, 300.620 362.287 C 300.406 362.073, 299.727 363.344, 299.111 365.111 M 217.031 364.500 C 217.031 365.050, 217.467 366.175, 218 367 C 218.533 367.825, 218.969 368.050, 218.969 367.500 C 218.969 366.950, 218.533 365.825, 218 365 C 217.467 364.175, 217.031 363.950, 217.031 364.500 M 282.111 368.111 C 281.495 369.878, 281.166 371.499, 281.380 371.713 C 281.594 371.927, 282.273 370.656, 282.889 368.889 C 283.505 367.122, 283.834 365.501, 283.620 365.287 C 283.406 365.073, 282.727 366.344, 282.111 368.111 M 219.644 370.996 C 220 372.369, 221.126 375.294, 222.147 377.496 C 223.168 379.698, 223.712 380.377, 223.356 379.004 C 223 377.631, 221.874 374.706, 220.853 372.504 C 219.832 370.302, 219.288 369.623, 219.644 370.996 M 296.111 373.111 C 295.495 374.878, 295.166 376.499, 295.380 376.713 C 295.594 376.927, 296.273 375.656, 296.889 373.889 C 297.505 372.122, 297.834 370.501, 297.620 370.287 C 297.406 370.073, 296.727 371.344, 296.111 373.111 M 279.111 376.111 C 278.495 377.878, 278.166 379.499, 278.380 379.713 C 278.594 379.927, 279.273 378.656, 279.889 376.889 C 280.505 375.122, 280.834 373.501, 280.620 373.287 C 280.406 373.073, 279.727 374.344, 279.111 376.111 M 238.031 377.500 C 238.031 378.050, 238.467 379.175, 239 380 C 239.533 380.825, 239.969 381.050, 239.969 380.500 C 239.969 379.950, 239.533 378.825, 239 378 C 238.467 377.175, 238.031 376.950, 238.031 377.500 M 293.111 381.111 C 292.495 382.878, 292.166 384.499, 292.380 384.713 C 292.594 384.927, 293.273 383.656, 293.889 381.889 C 294.505 380.122, 294.834 378.501, 294.620 378.287 C 294.406 378.073, 293.727 379.344, 293.111 381.111 M 276.111 384.111 C 275.495 385.878, 275.166 387.499, 275.380 387.713 C 275.594 387.927, 276.273 386.656, 276.889 384.889 C 277.505 383.122, 277.834 381.501, 277.620 381.287 C 277.406 381.073, 276.727 382.344, 276.111 384.111 M 224.031 382.500 C 224.031 383.050, 224.467 384.175, 225 385 C 225.533 385.825, 225.969 386.050, 225.969 385.500 C 225.969 384.950, 225.533 383.825, 225 383 C 224.467 382.175, 224.031 381.950, 224.031 382.500 M 240.031 382.500 C 240.031 383.050, 240.467 384.175, 241 385 C 241.533 385.825, 241.969 386.050, 241.969 385.500 C 241.969 384.950, 241.533 383.825, 241 383 C 240.467 382.175, 240.031 381.950, 240.031 382.500 M 290.111 389.111 C 289.495 390.878, 289.166 392.499, 289.380 392.713 C 289.594 392.927, 290.273 391.656, 290.889 389.889 C 291.505 388.122, 291.834 386.501, 291.620 386.287 C 291.406 386.073, 290.727 387.344, 290.111 389.111 M 226.378 388.500 C 228.673 395.089, 232.377 403.956, 232.700 403.633 C 233.126 403.207, 227.147 387.780, 226.254 387 C 225.939 386.725, 225.995 387.400, 226.378 388.500 M 242.644 388.996 C 243 390.369, 244.126 393.294, 245.147 395.496 C 246.168 397.698, 246.712 398.377, 246.356 397.004 C 246 395.631, 244.874 392.706, 243.853 390.504 C 242.832 388.302, 242.288 387.623, 242.644 388.996 M 273.111 392.111 C 272.495 393.878, 272.166 395.499, 272.380 395.713 C 272.594 395.927, 273.273 394.656, 273.889 392.889 C 274.505 391.122, 274.834 389.501, 274.620 389.287 C 274.406 389.073, 273.727 390.344, 273.111 392.111 M 287.624 395.539 C 286.659 398.053, 286.943 398.702, 288.122 396.675 C 288.706 395.671, 288.973 394.639, 288.715 394.382 C 288.458 394.124, 287.966 394.645, 287.624 395.539 M 270.111 400.111 C 269.495 401.878, 269.166 403.499, 269.380 403.713 C 269.594 403.927, 270.273 402.656, 270.889 400.889 C 271.505 399.122, 271.834 397.501, 271.620 397.287 C 271.406 397.073, 270.727 398.344, 270.111 400.111 M 247.031 400.500 C 247.031 401.050, 247.467 402.175, 248 403 C 248.533 403.825, 248.969 404.050, 248.969 403.500 C 248.969 402.950, 248.533 401.825, 248 401 C 247.467 400.175, 247.031 399.950, 247.031 400.500 M 284.111 405.111 C 283.495 406.878, 283.166 408.499, 283.380 408.713 C 283.594 408.927, 284.273 407.656, 284.889 405.889 C 285.505 404.122, 285.834 402.501, 285.620 402.287 C 285.406 402.073, 284.727 403.344, 284.111 405.111 M 233.031 405.500 C 233.031 406.050, 233.467 407.175, 234 408 C 234.533 408.825, 234.969 409.050, 234.969 408.500 C 234.969 407.950, 234.533 406.825, 234 406 C 233.467 405.175, 233.031 404.950, 233.031 405.500 M 249.378 406.500 C 251.673 413.089, 255.377 421.956, 255.700 421.633 C 256.126 421.207, 250.147 405.780, 249.254 405 C 248.939 404.725, 248.995 405.400, 249.378 406.500 M 267.111 408.111 C 266.495 409.878, 266.166 411.499, 266.380 411.713 C 266.594 411.927, 267.273 410.656, 267.889 408.889 C 268.505 407.122, 268.834 405.501, 268.620 405.287 C 268.406 405.073, 267.727 406.344, 267.111 408.111 M 235.031 410.500 C 235.031 411.050, 235.467 412.175, 236 413 C 236.533 413.825, 236.969 414.050, 236.969 413.500 C 236.969 412.950, 236.533 411.825, 236 411 C 235.467 410.175, 235.031 409.950, 235.031 410.500 M 281.624 411.539 C 280.659 414.053, 280.943 414.702, 282.122 412.675 C 282.706 411.671, 282.973 410.639, 282.715 410.382 C 282.458 410.124, 281.966 410.645, 281.624 411.539 M 264.111 416.111 C 263.495 417.878, 263.166 419.499, 263.380 419.713 C 263.594 419.927, 264.273 418.656, 264.889 416.889 C 265.505 415.122, 265.834 413.501, 265.620 413.287 C 265.406 413.073, 264.727 414.344, 264.111 416.111 M 278.624 419.539 C 277.659 422.053, 277.943 422.702, 279.122 420.675 C 279.706 419.671, 279.973 418.639, 279.715 418.382 C 279.458 418.124, 278.966 418.645, 278.624 419.539 M 261.111 424.111 C 260.495 425.878, 260.166 427.499, 260.380 427.713 C 260.594 427.927, 261.273 426.656, 261.889 424.889 C 262.505 423.122, 262.834 421.501, 262.620 421.287 C 262.406 421.073, 261.727 422.344, 261.111 424.111 M 256.031 423.500 C 256.031 424.050, 256.467 425.175, 257 426 C 257.533 426.825, 257.969 427.050, 257.969 426.500 C 257.969 425.950, 257.533 424.825, 257 424 C 256.467 423.175, 256.031 422.950, 256.031 423.500 M 258 428.882 C 258 429.432, 258.450 430.160, 259 430.500 C 259.550 430.840, 260 430.668, 260 430.118 C 260 429.568, 259.550 428.840, 259 428.500 C 258.450 428.160, 258 428.332, 258 428.882 " stroke="none" fill="undefined" fill-rule="evenodd"/>
</svg>