<svg xmlns="http://www.w3.org/2000/svg" viewBox="0 0 20 20"><defs><style>.cls-1{fill:#ffd302;}.cls-2{fill:#050a11;}</style></defs><title>Asset 28</title><g id="Layer_2" data-name="Layer 2"><g id="Layer_1-2" data-name="Layer 1"><circle class="cls-1" cx="10" cy="10" r="10"/><path class="cls-2" d="M11,12.86a4,4,0,0,1-1.9,1.27c-.26,0-.43-.2-.19-1.25l.78-3.18c.06-.27.06-.41,0-.41a2.51,2.51,0,0,0-.86.53l-.16-.29a4.36,4.36,0,0,1,2-1.23c.3,0,.3.42.14,1l-.84,3.43c-.09.31-.06.41,0,.41a2.39,2.39,0,0,0,.88-.58Zm.3-6.38a.72.72,0,0,1-.71.76.54.54,0,0,1-.53-.58.76.76,0,0,1,.71-.77A.55.55,0,0,1,11.32,6.47Z"/></g></g></svg>