<svg xmlns="http://www.w3.org/2000/svg" viewBox="0 0 22 20.14"><defs><style>.cls-1{fill:#fff;}</style></defs><title>Asset 12</title><g id="Layer_2" data-name="Layer 2"><g id="Layer_1-2" data-name="Layer 1"><path class="cls-1" d="M0,2.4V17.76a2.37,2.37,0,0,0,2.36,2.38h8a2.39,2.39,0,0,0,2.38-2.38V15.69a.59.59,0,1,0-1.19,0v2.07A1.2,1.2,0,0,1,10.33,19h-8a1.18,1.18,0,0,1-1.17-1.19V2.4A1.19,1.19,0,0,1,2.36,1.19h8A1.21,1.21,0,0,1,11.53,2.4V4.51a.59.59,0,0,0,1.19,0V2.4A2.4,2.4,0,0,0,10.33,0h-8A2.38,2.38,0,0,0,0,2.4Z"/><path class="cls-1" d="M17.07,13.57h0a.58.58,0,0,0,0,.82.59.59,0,0,0,.84,0l3.84-3.84a.59.59,0,0,0,0-.94L17.94,5.2h0a.59.59,0,0,0-.84-.06A.6.6,0,0,0,17,6l3,3.52H5.9a.59.59,0,1,0,0,1.19H20Z"/></g></g></svg>