<svg xmlns="http://www.w3.org/2000/svg" viewBox="0 0 30 14.5"><defs><style>.cls-1{fill:#fff;}</style></defs><title>Asset 14</title><g id="Layer_2" data-name="Layer 2"><g id="Layer_1-2" data-name="Layer 1"><path class="cls-1" d="M28.15,0H1.85A1.85,1.85,0,0,0,0,1.85V7.49A1.85,1.85,0,0,0,1.85,9.33H18.29a.44.44,0,0,0,0-.88H1.85a1,1,0,0,1-1-1V1.85a1,1,0,0,1,1-1h26.3a1,1,0,0,1,1,1V6.08a.44.44,0,1,0,.88,0V1.85A1.85,1.85,0,0,0,28.15,0Z"/><path class="cls-1" d="M28.12,7.12V6.55a3.73,3.73,0,1,0-7.46,0v.57a1.38,1.38,0,0,0-.94,1.31v4.7a1.38,1.38,0,0,0,1.38,1.38h6.58a1.38,1.38,0,0,0,1.38-1.38V8.42A1.38,1.38,0,0,0,28.12,7.12ZM24.39,3.7a2.85,2.85,0,0,1,2.85,2.85V7H21.55v-.5A2.85,2.85,0,0,1,24.39,3.7Zm3.79,9.42a.5.5,0,0,1-.5.5H21.11a.5.5,0,0,1-.5-.5V8.42a.5.5,0,0,1,.5-.5h6.58a.5.5,0,0,1,.5.5Z"/><path class="cls-1" d="M7.15,3.51a.44.44,0,0,0-.6-.16l-1,.56V2.79a.44.44,0,0,0-.88,0V3.9l-1-.56a.44.44,0,1,0-.44.76l1,.56-1,.56A.44.44,0,1,0,3.73,6l1-.56V6.55a.44.44,0,1,0,.88,0V5.43l1,.56A.44.44,0,0,0,7,5.23L6,4.67l1-.56A.44.44,0,0,0,7.15,3.51Z"/><path class="cls-1" d="M12.78,3.51a.44.44,0,0,0-.6-.16l-1,.56V2.79a.44.44,0,1,0-.88,0V3.9l-1-.56a.44.44,0,1,0-.44.76l1,.56-1,.56A.44.44,0,1,0,9.37,6l1-.56V6.55a.44.44,0,1,0,.88,0V5.43l1,.56a.44.44,0,0,0,.44-.76l-1-.56,1-.56A.44.44,0,0,0,12.78,3.51Z"/><path class="cls-1" d="M18.42,3.51a.44.44,0,0,0-.6-.16l-1,.56V2.79a.44.44,0,1,0-.88,0V3.9l-1-.56a.44.44,0,0,0-.44.76l1,.56-1,.56A.44.44,0,1,0,15,6l1-.56V6.55a.44.44,0,1,0,.88,0V5.43l1,.56a.44.44,0,0,0,.44-.76l-1-.56,1-.56A.44.44,0,0,0,18.42,3.51Z"/><path class="cls-1" d="M24.39,8.92A1.38,1.38,0,0,0,24,11.61v.57a.44.44,0,0,0,.88,0v-.57a1.38,1.38,0,0,0-.44-2.69Zm0,1.88a.5.5,0,1,1,.5-.5A.5.5,0,0,1,24.39,10.8Z"/></g></g></svg>