<svg xmlns="http://www.w3.org/2000/svg" viewBox="0 0 24.79 25.04"><defs><style>.cls-1{fill:#fff;}</style></defs><title>Asset 15</title><g id="Layer_2" data-name="Layer 2"><g id="Layer_1-2" data-name="Layer 1"><path class="cls-1" d="M24.79,11.67h-1.2V6.14a2.41,2.41,0,0,0-2.4-2.4H19.56l-1.67-3a1.44,1.44,0,0,0-2-.56L9.54,3.74H2.4A2.41,2.41,0,0,0,0,6.14v16.5A2.41,2.41,0,0,0,2.4,25H21.19a2.41,2.41,0,0,0,2.4-2.4V17.79h1.2V11.67Zm-3.6-7A1.44,1.44,0,0,1,22.61,6H20.81L20.09,4.7ZM16.4,1a.49.49,0,0,1,.65.19L19.71,6H7.49Zm6.23,21.62a1.44,1.44,0,0,1-1.44,1.44H2.4A1.44,1.44,0,0,1,1,22.64V6.14A1.44,1.44,0,0,1,2.4,4.7H7.81L5.51,6H2.7a.48.48,0,0,0,0,1H22.63v4.73H19.11a3,3,0,0,0-3,3v.21a3,3,0,0,0,3,3h3.51v4.85Zm1.2-5.81H19.11a2,2,0,0,1-2-2v-.21a2,2,0,0,1,2-2h4.72Zm-3.24-2.06a1.06,1.06,0,1,1-1.06-1.06A1.06,1.06,0,0,1,20.58,14.77Z"/></g></g></svg>