<svg xmlns="http://www.w3.org/2000/svg" viewBox="0 0 26.61 26.88"><defs><style>.cls-1{fill:#fff;}</style></defs><title>Asset 16</title><g id="Layer_2" data-name="Layer 2"><g id="Layer_1-2" data-name="Layer 1"><path class="cls-1" d="M26.61,12.52H25.32V6.59A2.58,2.58,0,0,0,22.74,4H21L19.2.8a1.55,1.55,0,0,0-2.1-.6L10.24,4H2.58A2.58,2.58,0,0,0,0,6.59V24.3a2.58,2.58,0,0,0,2.58,2.58H22.74a2.58,2.58,0,0,0,2.58-2.58V19.1h1.29V12.52ZM22.74,5a1.54,1.54,0,0,1,1.53,1.38H22.33L21.57,5ZM17.6,1.1a.53.53,0,0,1,.7.2l2.85,5.12H8Zm6.68,23.2a1.55,1.55,0,0,1-1.55,1.55H2.58A1.55,1.55,0,0,1,1,24.3V6.59A1.55,1.55,0,0,1,2.58,5H8.39L5.91,6.42h-3a.52.52,0,0,0,0,1H24.29v5.07H20.51a3.18,3.18,0,0,0-3.18,3.18v.22a3.18,3.18,0,0,0,3.18,3.18h3.77v5.2Zm1.29-6.23H20.51a2.15,2.15,0,0,1-2.15-2.15V15.7a2.15,2.15,0,0,1,2.15-2.15h5.06Zm-3.48-2.21A1.14,1.14,0,1,1,21,14.71,1.14,1.14,0,0,1,22.09,15.85Z"/></g></g></svg>