<svg xmlns="http://www.w3.org/2000/svg" viewBox="0 0 30 29.98"><defs><style>.cls-1{fill:#fff;}</style></defs><title>Asset 17</title><g id="Layer_2" data-name="Layer 2"><g id="Layer_1-2" data-name="Layer 1"><path class="cls-1" d="M27,1.5V6A15,15,0,0,0,.75,19.66a.5.5,0,0,0,.48.34l.16,0a.5.5,0,0,0,.32-.63A14,14,0,0,1,26.49,7H21V8h7V1.5Z"/><path class="cls-1" d="M29.25,10.32a.5.5,0,0,0-.95.31A14,14,0,0,1,3.51,23H9V22H2v6.5H3V24A15,15,0,0,0,29.25,10.32Z"/><path class="cls-1" d="M12.29,11l-1.81,6.75H9L7.2,11h.62l1.64,6.22H10L11.68,11Z"/><path class="cls-1" d="M12.68,11h4.86v.54H15.42v6.21h-.6V11.55H12.68Z"/><path class="cls-1" d="M20.37,14l1.82-3h.66l-2.1,3.42,2.1,3.33h-.68l-1.81-2.92-1.84,2.92h-.66L20,14.43,17.87,11h.68Z"/></g></g></svg>