<svg xmlns="http://www.w3.org/2000/svg" viewBox="0 0 124.94 76.37"><defs><style>.cls-1{opacity:0.2;}</style></defs><title>Asset 18</title><g id="Layer_2" data-name="Layer 2"><g id="Layer_1-2" data-name="Layer 1"><g class="cls-1"><path d="M123.8,18.56l0,0L110.22,1.64a3.22,3.22,0,0,0-.51-.5A3.16,3.16,0,0,0,107.28,0H17.66a3.16,3.16,0,0,0-2.42,1.14,3.22,3.22,0,0,0-.51.5L1.15,18.54l0,0A3.16,3.16,0,0,0,0,21V73.19a3.18,3.18,0,0,0,3.18,3.18H121.76a3.18,3.18,0,0,0,3.18-3.18V21A3.16,3.16,0,0,0,123.8,18.56Zm-13.34-6.44L115,17.8h-4.56ZM104.1,6.37V17.8H80.27a3.18,3.18,0,0,0-1.89.62L62.47,30.13,46.56,18.42a3.19,3.19,0,0,0-1.89-.62H20.84V6.37ZM14.47,17.8H9.91l4.56-5.68ZM118.58,70H6.37V24.16H43.63l17,12.48a3.19,3.19,0,0,0,3.77,0l17-12.48h37.26V70Z"/></g></g></g></svg>