<svg xmlns="http://www.w3.org/2000/svg" viewBox="0 0 50 50"><title>Asset 2</title><g id="Layer_2" data-name="Layer 2"><g id="Layer_1-2" data-name="Layer 1"><path d="M46.88,25A21.88,21.88,0,1,0,25,46.88,21.87,21.87,0,0,0,46.88,25ZM25,43.75A18.75,18.75,0,1,1,43.75,25,18.75,18.75,0,0,1,25,43.75Z"/><path d="M14.55,26.36,25,41.46l10.45-15.1L25,8.94ZM25,36l-4.64-6.7L25,30.81l4.64-1.55Zm0-8.45-6.25-2.08L25,15l6.25,10.42Z"/><polygon points="3.13 3.13 6.25 3.13 6.25 0 0 0 0 6.25 3.13 6.25 3.13 3.13"/><polygon points="3.13 43.75 0 43.75 0 50 6.25 50 6.25 46.88 3.13 46.88 3.13 43.75"/><polygon points="46.88 46.88 43.75 46.88 43.75 50 50 50 50 43.75 46.88 43.75 46.88 46.88"/><polygon points="43.75 0 43.75 3.13 46.88 3.13 46.88 6.25 50 6.25 50 0 43.75 0"/><rect y="9.38" width="3.13" height="3.13"/><rect x="9.38" width="3.13" height="3.13"/><rect x="37.5" width="3.13" height="3.13"/><rect x="46.88" y="9.38" width="3.13" height="3.13"/><rect x="46.88" y="37.5" width="3.13" height="3.13"/><rect x="37.5" y="46.88" width="3.13" height="3.13"/><rect y="37.5" width="3.13" height="3.13"/><rect x="9.38" y="46.88" width="3.13" height="3.13"/></g></g></svg>