<svg xmlns="http://www.w3.org/2000/svg" viewBox="0 0 20 24.18"><defs><style>.cls-1{fill:#fff;}</style></defs><title>Asset 25</title><g id="Layer_2" data-name="Layer 2"><g id="Layer_1-2" data-name="Layer 1"><path class="cls-1" d="M14.75,24.18h-13A1.75,1.75,0,0,1,0,22.43V5.5A1.75,1.75,0,0,1,1.75,3.75H3.4a.35.35,0,1,1,0,.7H1.75a1.05,1.05,0,0,0-1,1V22.43a1.05,1.05,0,0,0,1,1h13a1.05,1.05,0,0,0,1-1V20.78a.35.35,0,0,1,.7,0v1.66A1.75,1.75,0,0,1,14.75,24.18Z"/><path class="cls-1" d="M18.25,20.43h-13A1.75,1.75,0,0,1,3.5,18.68V1.75A1.75,1.75,0,0,1,5.25,0h9.52a.35.35,0,0,1,0,.7H5.25a1.05,1.05,0,0,0-1,1V18.68a1.05,1.05,0,0,0,1,1h13a1.05,1.05,0,0,0,1-1V5.36a.35.35,0,1,1,.7,0V18.68A1.75,1.75,0,0,1,18.25,20.43Z"/><path class="cls-1" d="M19.65,5.71H14.77a.35.35,0,0,1-.35-.35V.48a.35.35,0,1,1,.7,0V5h4.53a.35.35,0,0,1,0,.7Z"/><path class="cls-1" d="M19.65,5.71a.35.35,0,0,1-.25-.11l-4.88-5A.35.35,0,0,1,15,.11l4.88,5a.35.35,0,0,1-.25.59Z"/></g></g></svg>