<svg xmlns="http://www.w3.org/2000/svg" viewBox="0 0 19.21 19.21"><defs><style>.cls-1{fill:#fff;}</style></defs><title>Asset 5</title><g id="Layer_2" data-name="Layer 2"><g id="Layer_1-2" data-name="Layer 1"><path class="cls-1" d="M2.14.69,8.92,7.46a1,1,0,0,0,1.37,0L17.47.28a1,1,0,0,1,1.37,0l.08.08a1,1,0,0,1,0,1.37L11.74,8.92a1,1,0,0,0,0,1.37l6.86,6.86a1,1,0,0,1,0,1.37h0a1,1,0,0,1-1.37,0l-6.86-6.86a1,1,0,0,0-1.37,0L1.74,18.92a1,1,0,0,1-1.37,0l-.08-.08a1,1,0,0,1,0-1.37l7.26-7.26a1,1,0,0,0,0-1.37L.77,2.06A1,1,0,0,1,.77.69h0A1,1,0,0,1,2.14.69Z"/></g></g></svg>