<svg xmlns="http://www.w3.org/2000/svg" viewBox="0 0 15.81 19.12"><defs><style>.cls-1{fill:#fff;}</style></defs><title>Asset 22</title><g id="Layer_2" data-name="Layer 2"><g id="Layer_1-2" data-name="Layer 1"><path class="cls-1" d="M11.66,19.12H1.38A1.38,1.38,0,0,1,0,17.73V4.35A1.38,1.38,0,0,1,1.38,3H2.69a.28.28,0,0,1,0,.55H1.38a.83.83,0,0,0-.83.83V17.73a.83.83,0,0,0,.83.83H11.66a.83.83,0,0,0,.83-.83V16.42a.28.28,0,0,1,.55,0v1.31A1.38,1.38,0,0,1,11.66,19.12Z"/><path class="cls-1" d="M14.43,16.15H4.15a1.38,1.38,0,0,1-1.38-1.38V1.38A1.38,1.38,0,0,1,4.15,0h7.53a.28.28,0,0,1,0,.55H4.15a.83.83,0,0,0-.83.83V14.77a.83.83,0,0,0,.83.83H14.43a.83.83,0,0,0,.83-.83V4.24a.28.28,0,1,1,.55,0V14.77A1.38,1.38,0,0,1,14.43,16.15Z"/><path class="cls-1" d="M15.53,4.51H11.67a.28.28,0,0,1-.28-.28V.38a.28.28,0,1,1,.55,0V4h3.58a.28.28,0,0,1,0,.55Z"/><path class="cls-1" d="M15.53,4.51a.28.28,0,0,1-.2-.08l-3.86-4a.28.28,0,0,1,.4-.39l3.86,4a.28.28,0,0,1-.2.47Z"/></g></g></svg>