<svg xmlns="http://www.w3.org/2000/svg" viewBox="0 0 28 28"><defs><style>.cls-1{fill:#0d1723;}.cls-2{fill:#fff;}</style></defs><title>Asset 13</title><g id="Layer_2" data-name="Layer 2"><g id="Layer_1-2" data-name="Layer 1"><circle class="cls-1" cx="14" cy="14" r="14"/><path class="cls-2" d="M21.57,11.91q0,3.11,0,6.22a.48.48,0,0,1-.17.39l-6.92,6.1a.54.54,0,0,1-.67,0L7,18.85c-.12-.1-.23-.21-.36-.3a.5.5,0,0,1-.2-.45q0-3.62,0-7.25,0-2.55,0-5.1c0-.32.08-.45.28-.48s.31.07.42.35L10.4,14c.49,1.25,1,2.51,1.47,3.76a.2.2,0,0,0,.22.15h4a.18.18,0,0,0,.2-.13l3.44-9.17,1.14-3c.08-.21.23-.31.4-.27a.32.32,0,0,1,.26.35c0,.38,0,.77,0,1.15Q21.57,9.35,21.57,11.91ZM13.29,23.29s0,0,0,0,0,0,0,0a.26.26,0,0,0,0-.05l-1.78-4.57c0-.1-.1-.1-.19-.1H7.84s-.09,0-.13,0l.1.09,4.24,3.59C12.47,22.61,12.86,23,13.29,23.29ZM7.13,7.44h0s0,.06,0,.1q0,5.1,0,10.21c0,.11,0,.15.14.15h3.84c.14,0,.14,0,.09-.15s-.16-.42-.25-.62L8,9.61Zm13.78.06c-.06,0-.06.06-.07.09l-1.79,4.76Q18,15,17,17.71c-.06.15,0,.18.12.18h3.56c.16,0,.19,0,.19-.19q0-5,0-10Zm-6.77,16,.05-.1L16,18.69c0-.13,0-.14-.11-.14H12.35c-.16,0-.15,0-.1.17.25.62.48,1.24.73,1.86Zm.83-.28,0,0,5.35-4.71h-3.5c-.12,0-.15.07-.18.16l-1.51,4Zm0,.05h0Z"/></g></g></svg>