<svg id="Layer_1" data-name="Layer 1" xmlns="http://www.w3.org/2000/svg" viewBox="0 0 96 92"><defs><style>.cls-1{fill:#7272fa;}</style></defs><g id="Group_2130" data-name="Group 2130"><path id="Rectangle_1631" data-name="Rectangle 1631" class="cls-1" d="M39.09,34.58h3.33a3.48,3.48,0,0,1,3.34,3.61v3.62a3.48,3.48,0,0,1-3.34,3.61H39.09a3.48,3.48,0,0,1-3.34-3.61V38.19A3.48,3.48,0,0,1,39.09,34.58Z"/><path id="Rectangle_1632" data-name="Rectangle 1632" class="cls-1" d="M51.33,34.58h3.33A3.48,3.48,0,0,1,58,38.19v3.62a3.48,3.48,0,0,1-3.34,3.61H51.33A3.48,3.48,0,0,1,48,41.81V38.19A3.48,3.48,0,0,1,51.33,34.58Z"/><path id="Rectangle_1633" data-name="Rectangle 1633" class="cls-1" d="M51.33,47.82h3.33A3.48,3.48,0,0,1,58,51.43v3.62a3.48,3.48,0,0,1-3.34,3.61H51.33A3.48,3.48,0,0,1,48,55.05V51.43A3.48,3.48,0,0,1,51.33,47.82Z"/><path id="Rectangle_1634" data-name="Rectangle 1634" class="cls-1" d="M39.09,47.82h3.33a3.48,3.48,0,0,1,3.34,3.61v3.62a3.48,3.48,0,0,1-3.34,3.61H39.09a3.48,3.48,0,0,1-3.34-3.61V51.43A3.48,3.48,0,0,1,39.09,47.82Z"/></g></svg>