<svg id="Layer_1" data-name="Layer 1" xmlns="http://www.w3.org/2000/svg" viewBox="0 0 96 92"><defs><style>.cls-1{fill:#7272fa;}</style></defs><path id="circular-graph" class="cls-1" d="M56.06,45.81h2.6a12.56,12.56,0,0,0-.86-3.88l-2.29,1.32A9.29,9.29,0,0,1,56.06,45.81Zm-4.52-10.5a12.44,12.44,0,0,0-4-1.13V36.8a10.33,10.33,0,0,1,2.71.76l1.3-2.25Zm2.78,5.62,2.27-1.3a12.29,12.29,0,0,0-2.83-3l-1.31,2.26a9.9,9.9,0,0,1,1.87,2ZM46.23,56.46a9.87,9.87,0,0,1-1.3-19.66V34.18A12.48,12.48,0,1,0,58.56,48.4H55.93a9.88,9.88,0,0,1-9.7,8.06Z"/></svg>