<svg xmlns="http://www.w3.org/2000/svg" xmlns:xlink="http://www.w3.org/1999/xlink" viewBox="0 0 575 572"><defs><style>.cls-1{isolation:isolate;}.cls-2{fill:#e0dfdf;}.cls-3{opacity:0.75;}.cls-3,.cls-6{mix-blend-mode:multiply;}.cls-4{fill:url(#linear-gradient);}.cls-5{fill:url(#linear-gradient-2);}.cls-6{opacity:0.14;}.cls-7{fill:#f2f2f2;}</style><linearGradient id="linear-gradient" x1="738.63" y1="307.36" x2="337.04" y2="287.28" gradientTransform="matrix(-1.07, 0, 0, 1.06, 886.42, -7.31)" gradientUnits="userSpaceOnUse"><stop offset="0" stop-color="#00fff7"/><stop offset="1" stop-color="#c400ff"/></linearGradient><linearGradient id="linear-gradient-2" x1="691.89" y1="313.62" x2="386.78" y2="298.36" xlink:href="#linear-gradient"/></defs><title>thermostat</title><g class="cls-1"><g id="Layer_1" data-name="Layer 1"><g id="Group_747" data-name="Group 747"><path id="Subtraction_7-2" data-name="Subtraction 7-2" class="cls-2" d="M312.34,594.76a251.61,251.61,0,0,0,50.24-5,248.08,248.08,0,0,0,0-486.18,252.92,252.92,0,0,0-100.48,0A249.4,249.4,0,0,0,82.64,250.05a246,246,0,0,0-14.53,46.57,248.6,248.6,0,0,0,8.5,130.93C111.22,527.7,205.94,594.88,312.34,594.76Zm0-429.65c100.71,0,182.36,81.27,182.36,181.52S413.05,528.15,312.34,528.15,130,446.88,130,346.63h0c.12-100.2,81.7-181.41,182.37-181.52Z" transform="translate(-32 -61)"/></g><g id="Group_752" data-name="Group 752"><path id="Subtraction_7-3" data-name="Subtraction 7-3" class="cls-2" d="M310.58,531.62a191.86,191.86,0,0,0,38.17-3.83,188.47,188.47,0,0,0,0-369.36,192,192,0,0,0-76.34,0A189.44,189.44,0,0,0,136.09,269.74a186.53,186.53,0,0,0-11,35.38,189.53,189.53,0,0,0,0,76,187,187,0,0,0,28.49,67.39,189.29,189.29,0,0,0,118.88,79.28A191.77,191.77,0,0,0,310.58,531.62Zm0-326.42c76.52,0,138.55,61.74,138.55,137.91S387.1,481,310.59,481,172,419.27,172,343.11h0C172.13,267,234.1,205.29,310.58,205.2Z" transform="translate(-32 -61)"/></g><g id="Group_748" data-name="Group 748"><path id="Subtraction_8" data-name="Subtraction 8" class="cls-4" d="M333.58,523.13q5.07-.61,10.1-1.52c-3.34.59-6.7,1.1-10.1,1.51ZM515.17,485.6h0c3.44-4.87,6.74-9.93,9.8-15a247.58,247.58,0,0,0,32.76-90.88A249.14,249.14,0,0,0,396.09,108.1a248.29,248.29,0,0,0-47.49-12,251.86,251.86,0,0,0-100.31,5.23,247.82,247.82,0,0,0-87,42.07c-110.07,83-132,238.91-49.05,348.76,1.79,2.37,3.65,4.74,5.54,7.06l51.69-42.56c1.93,2.39,3.94,4.75,6,7a182.51,182.51,0,0,1-46.23-111.84c-5.28-100.31,72.1-186.18,172.49-191.42s186.36,72.12,191.64,172.44a180.09,180.09,0,0,1-32.6,113.76Zm-59.65-32c1.19-1.54,2.37-3.11,3.52-4.7q-1.74,2.39-3.52,4.71Z" transform="translate(-32 -61)"/><path id="Subtraction_12" data-name="Subtraction 12" class="cls-5" d="M326.89,480.78c2.57-.31,5.12-.69,7.67-1.15-2.53.45-5.09.84-7.67,1.15Zm138-28.51h0c2.62-3.7,5.12-7.54,7.45-11.4a187.9,187.9,0,0,0,24.89-69.05,189.43,189.43,0,0,0-235.1-211.53,188.42,188.42,0,0,0-66.12,32c-83.62,63-100.28,181.51-37.26,265,1.36,1.8,2.77,3.6,4.21,5.36l39.27-32.32c1.47,1.81,3,3.6,4.55,5.33a138.61,138.61,0,0,1-35.12-85c-4-76.21,54.77-141.45,131-145.43s141.6,54.78,145.61,131a136.8,136.8,0,0,1-24.77,86.43ZM419.53,428q1.37-1.75,2.68-3.57-1.32,1.81-2.68,3.57Z" transform="translate(-32 -61)"/><g id="Subtraction_1-2" data-name="Subtraction 1-2"><path class="cls-7" d="M327.79,610.59a275.43,275.43,0,0,0,54.45-8.48A271.88,271.88,0,0,0,569,431.76a268,268,0,0,0,13-51.63,272.47,272.47,0,0,0-6-109,268.66,268.66,0,0,0-46.2-94.47A272.71,272.71,0,0,0,79.27,201.24,269.59,269.59,0,0,0,95.93,503.65,272.31,272.31,0,0,0,327.79,610.59ZM298.44,92.65C436,85.14,554.1,190.45,561.65,327.41s-98.26,254.48-235.85,262S70.13,491.59,62.59,354.63,160.85,100.15,298.44,92.65Z" transform="translate(-32 -61)"/></g></g></g></g></svg>