<?xml version="1.0" encoding="utf-8"?>
<!-- Generator: Adobe Illustrator 21.0.0, SVG Export Plug-In . SVG Version: 6.00 Build 0)  -->
<svg version="1.1" id="Layer_1" xmlns="http://www.w3.org/2000/svg" xmlns:xlink="http://www.w3.org/1999/xlink" x="0px" y="0px"
	 viewBox="0 0 24.5 30.2" style="enable-background:new 0 0 24.5 30.2;" xml:space="preserve">
<style type="text/css">
	.st0{fill:#494949;}
</style>
<path id="copy" class="st0" d="M13.7,1H2.4C1.6,1,1,1.7,1,2.4c0,0,0,0,0,0.1l0,0v16.8c0,0.8,0.6,1.4,1.4,1.4h7v2.8h2.8v-2.8H9.4
	v-2.8h2.8v-2.8H9.4v2.8H3.8V3.9h8.4v5.6h2.8v-7C15.1,1.7,14.4,1.1,13.7,1L13.7,1z M9.4,10.9v1.4h2.8V9.5h-1.4
	C10.1,9.5,9.4,10.1,9.4,10.9L9.4,10.9z M15.1,29.2h2.8v-2.8h-2.8V29.2z M15.1,12.3h2.8V9.5h-2.8V12.3z M9.4,27.8
	c0,0.8,0.6,1.4,1.4,1.4h1.4v-2.8H9.4V27.8z M22.1,9.5h-1.4v2.8h2.8v-1.4C23.5,10.1,22.9,9.5,22.1,9.5z M20.7,29.2h1.4
	c0.8,0,1.4-0.6,1.4-1.4l0,0v-1.4h-2.8V29.2z M20.7,17.9h2.8v-2.8h-2.8V17.9z M20.7,23.6h2.8v-2.8h-2.8V23.6z"/>
</svg>
