<svg xmlns="http://www.w3.org/2000/svg" width="512" height="512" viewBox="0 0 512 512" version="1.1">
	<rect x="0" y="0" width="100%" height="100%" fill="#000074" />
	<path fill-opacity="0.231" d="M 238.666 23.148 C 167.630 27.914, 98.771 68.718, 60.036 129 C 26.527 181.149, 15.024 241.493, 27.153 301.500 C 36.095 345.743, 56.844 385.110, 88.485 417.869 C 124.954 455.626, 174.134 480.195, 227.206 487.170 C 239.178 488.743, 271.822 488.743, 283.794 487.170 C 384.046 473.995, 463.976 399.811, 483.847 301.500 C 491.846 261.929, 489.693 223.420, 477.306 184.500 C 464.348 143.784, 438.869 105.566, 406.500 78.293 C 367.802 45.688, 319.888 26.365, 269.517 23.051 C 260.726 22.473, 253.076 22.065, 252.517 22.144 C 251.958 22.223, 245.725 22.675, 238.666 23.148 M 116 99 C 114.022 100.978, 114 102.333, 114 220.066 C 114 299.914, 114.340 339.766, 115.031 341.058 C 115.598 342.117, 125.835 351.257, 137.781 361.369 C 149.726 371.481, 180.761 397.754, 206.747 419.754 L 253.994 459.755 258.747 459.253 C 261.361 458.978, 264.400 457.967, 265.500 457.008 C 266.600 456.050, 286.850 438.211, 310.500 417.368 C 334.150 396.524, 362.604 371.465, 373.732 361.681 C 384.859 351.896, 394.646 342.915, 395.482 341.723 C 396.819 339.814, 397 325.327, 397 220.277 C 397 102.333, 396.978 100.978, 395 99 C 392.742 96.742, 388.226 96.378, 385.686 98.250 C 384.319 99.258, 365.302 147.912, 354.516 178 C 353.235 181.575, 350.298 189.450, 347.992 195.500 C 345.685 201.550, 342.116 211, 340.062 216.500 C 338.007 222, 329.882 243.600, 322.007 264.500 C 307.301 303.525, 300.798 320.867, 298.570 327 L 297.299 330.500 257.404 330.500 L 217.510 330.500 211.921 316.500 C 208.847 308.800, 203.348 294.850, 199.701 285.500 C 193.835 270.462, 182.358 241.119, 172.516 216 C 170.684 211.325, 166.462 200.525, 163.133 192 C 159.804 183.475, 153.649 167.725, 149.454 157 C 145.260 146.275, 139.809 132.325, 137.341 126 C 125.625 95.975, 126.218 97, 120.566 97 C 119.155 97, 117.100 97.900, 116 99 M 128.040 236.750 L 128 331 165 331 C 185.350 331, 202 330.659, 202 330.243 C 202 329.827, 200.394 325.439, 198.430 320.493 C 194.635 310.931, 178.357 269.347, 166.726 239.500 C 162.868 229.600, 158.038 217.225, 155.993 212 C 153.948 206.775, 147.468 190.171, 141.592 175.102 C 135.716 160.033, 130.272 146.533, 129.494 145.102 C 128.267 142.843, 128.075 154.934, 128.040 236.750 M 381.151 147.500 C 380.409 149.150, 375.341 162.425, 369.889 177 C 364.437 191.575, 359.325 205.075, 358.528 207 C 357.731 208.925, 354.306 217.925, 350.916 227 C 347.527 236.075, 342.983 248.225, 340.817 254 C 338.652 259.775, 335.818 267.425, 334.519 271 C 333.221 274.575, 327.651 289.425, 322.142 304 L 312.125 330.500 347.216 330.763 C 366.516 330.908, 382.466 330.868, 382.659 330.674 C 382.852 330.481, 382.896 288.513, 382.755 237.411 C 382.538 158.481, 382.297 144.951, 381.151 147.500 M 142.177 346.030 C 142.608 347.325, 239.065 429, 240.163 429 C 240.607 429, 240.019 426.637, 238.856 423.750 C 237.692 420.863, 235.075 414.225, 233.040 409 C 215.259 363.354, 211.546 353.897, 209.778 349.750 L 207.754 345 174.794 345 C 152.632 345, 141.946 345.337, 142.177 346.030 M 224.004 346.250 C 224.006 346.938, 228.768 359.650, 234.586 374.500 C 246.024 403.695, 250.704 415.727, 254.716 426.250 C 256.132 429.962, 257.632 433, 258.050 433 C 258.469 433, 260.168 429.288, 261.826 424.750 C 263.485 420.212, 269.164 405.025, 274.447 391 C 279.729 376.975, 285.615 361.342, 287.526 356.261 C 289.437 351.179, 291 346.567, 291 346.011 C 291 345.350, 279.403 345, 257.500 345 C 231.365 345, 224.001 345.275, 224.004 346.250 M 306.618 345.808 C 306.344 346.253, 302.955 355.008, 299.089 365.265 C 295.222 375.521, 290.721 387.420, 289.087 391.706 C 281.104 412.645, 275.962 427.295, 276.432 427.765 C 276.967 428.300, 280.226 425.545, 304.552 404 C 312.314 397.125, 323.577 387.178, 329.582 381.897 C 361.132 354.146, 369.530 346.625, 369.833 345.851 C 370.258 344.766, 307.289 344.724, 306.618 345.808 " stroke="none" fill="undefined" fill-rule="evenodd"/>
	<path fill-opacity="0.301" d="M 232.500 23.617 C 189.107 29.815, 159.703 40.330, 128.360 60.856 C 74.248 96.293, 39.255 148.967, 26.290 214.500 C 23.675 227.718, 23.521 230.007, 23.533 255.500 C 23.545 280.716, 23.723 283.406, 26.236 296.214 C 29.617 313.448, 31.132 319.286, 35.571 332.179 C 40.142 345.457, 52.120 369.852, 60.032 382 C 100.354 443.909, 168.132 483.593, 241 487.958 C 325.057 492.994, 404.928 452.687, 450.968 382 C 458.880 369.852, 470.858 345.457, 475.429 332.179 C 479.868 319.286, 481.383 313.448, 484.764 296.214 C 487.277 283.406, 487.455 280.716, 487.467 255.500 C 487.479 230.007, 487.325 227.718, 484.710 214.500 C 471.752 149.001, 436.724 96.274, 382.640 60.856 C 356.039 43.435, 329.953 32.927, 298 26.761 C 283.976 24.055, 280.263 23.743, 259 23.479 C 246.075 23.319, 234.150 23.381, 232.500 23.617 M 118.315 97.007 C 117.114 97.491, 115.651 98.783, 115.065 99.878 C 113.433 102.928, 113.645 339.978, 115.282 342.020 C 116.406 343.422, 124.732 350.569, 167 386.407 C 175.525 393.635, 194.152 409.438, 208.394 421.524 C 256.217 462.110, 253.445 460.032, 258.836 459.334 C 261.401 459.002, 264.175 458.188, 265 457.525 C 268.825 454.451, 391.826 345.934, 394.250 343.495 L 397 340.727 397 220.974 C 397 108.379, 396.895 101.098, 395.250 99.153 C 394.287 98.016, 392.326 96.808, 390.891 96.470 C 386.542 95.443, 383.710 99.167, 379.080 112 C 376.798 118.325, 374.472 124.588, 373.911 125.918 C 372.998 128.079, 350.523 187.832, 340.968 213.500 C 330.166 242.517, 324.776 256.855, 323.486 260 C 322.697 261.925, 316.850 277.450, 310.494 294.500 C 304.138 311.550, 298.445 326.743, 297.843 328.261 L 296.748 331.023 257.124 330.761 L 217.500 330.500 214.197 322 C 212.381 317.325, 206.663 302.700, 201.492 289.500 C 196.320 276.300, 189.100 257.850, 185.446 248.500 C 181.793 239.150, 176.778 226.325, 174.303 220 C 153.800 167.612, 133.014 114.393, 129.777 106 C 127.658 100.504, 123.948 95.944, 121.694 96.063 C 121.037 96.098, 119.517 96.523, 118.315 97.007 M 128 237.300 L 128 331 165.107 331 C 194.384 331, 202.112 330.736, 201.730 329.750 C 201.039 327.967, 175.452 262.371, 171.011 251 C 168.971 245.775, 160.976 225.300, 153.245 205.500 C 145.514 185.700, 138.720 168.375, 138.146 167 C 137.572 165.625, 135.440 160.225, 133.407 155 C 131.374 149.775, 129.325 145.072, 128.855 144.550 C 128.381 144.023, 128 185.346, 128 237.300 M 378.615 154.250 C 373.943 166.460, 358.719 206.874, 354.036 219.500 C 351.995 225, 343.882 246.600, 336.007 267.500 C 328.131 288.400, 319.909 310.225, 317.737 316 C 315.564 321.775, 313.557 327.512, 313.277 328.750 L 312.767 331 347.883 331 L 383 331 383 238 C 383 186.850, 382.810 145, 382.578 145 C 382.345 145, 380.562 149.162, 378.615 154.250 M 142.658 345.744 C 142.396 346.168, 148.328 351.708, 155.841 358.054 C 163.353 364.400, 184.361 382.172, 202.526 397.546 C 241.029 430.136, 238.922 428.411, 239.499 427.834 C 239.926 427.408, 211.918 354.775, 208.893 348.462 L 207.474 345.500 175.304 345.236 C 157.611 345.091, 142.921 345.320, 142.658 345.744 M 224 345.953 C 224 346.477, 226.775 354.015, 230.166 362.703 C 233.558 371.391, 237.999 382.775, 240.036 388 C 258.307 434.877, 257.458 432.876, 258.598 431.735 C 259.876 430.457, 290.919 346.677, 290.416 345.863 C 289.669 344.655, 224 344.744, 224 345.953 M 305.889 347.750 C 305.305 349.262, 303.697 353.425, 302.316 357 C 300.935 360.575, 298.768 366.425, 297.499 370 C 296.231 373.575, 290.857 387.919, 285.556 401.876 C 280.256 415.833, 276.118 427.452, 276.362 427.695 C 276.606 427.939, 285.737 420.284, 296.653 410.683 C 353.868 360.361, 368.385 347.389, 368.758 346.250 C 369.079 345.268, 362.496 345, 338.059 345 L 306.950 345 305.889 347.750 " stroke="none" fill="undefined" fill-rule="evenodd"/>
	<path fill-opacity="0.052" d="M 237.809 24.033 C 149.514 30.380, 71.282 88.336, 38.892 171.394 C 26.743 202.548, 21.408 238.166, 23.903 271.475 C 25.357 290.879, 27.019 300.783, 31.628 317.496 C 47.445 374.849, 85.366 424.599, 136.478 455.049 C 162.360 470.469, 190.590 480.717, 219.500 485.188 C 230.688 486.918, 237.918 487.353, 255.500 487.353 C 281.149 487.353, 297.715 485.266, 317.653 479.522 C 358.130 467.860, 390.040 449.083, 419.553 419.559 C 438.369 400.736, 450.837 383.720, 462.435 361.034 C 499.446 288.645, 495.638 201.256, 452.476 132.507 C 434.553 103.958, 408.993 78.130, 380.413 59.687 C 352.547 41.705, 316.424 28.742, 284 25.087 C 270.584 23.575, 250.540 23.117, 237.809 24.033 M 116.174 98.314 L 114 100.629 114 221.187 L 114 341.745 118.296 345.623 C 120.659 347.755, 127.746 353.827, 134.046 359.116 C 140.346 364.405, 169.753 389.267, 199.396 414.366 L 253.293 460 258.151 460 C 263.635 460, 261.449 461.671, 296.036 431.034 C 305.681 422.490, 324.550 405.825, 337.968 394 C 351.385 382.175, 370.044 365.729, 379.432 357.454 L 396.500 342.407 396.754 221.522 L 397.008 100.637 394.830 98.319 C 393.632 97.043, 391.575 96, 390.260 96 C 384.609 96, 384.062 96.974, 373.145 126.500 C 369.891 135.300, 357.894 167.250, 346.485 197.500 C 335.076 227.750, 324.263 256.550, 322.457 261.500 C 320.650 266.450, 315.491 280.175, 310.991 292 C 306.491 303.825, 301.773 316.481, 300.507 320.125 C 296.261 332.341, 301.552 331, 257.587 331 C 228.127 331, 219.008 330.710, 218.220 329.750 C 217.657 329.063, 215.083 323.100, 212.502 316.500 C 209.920 309.900, 202.720 291.450, 196.501 275.500 C 190.282 259.550, 182.632 239.975, 179.500 232 C 176.368 224.025, 171.867 212.550, 169.497 206.500 C 167.128 200.450, 162.716 189.200, 159.694 181.500 C 156.672 173.800, 152.535 163.225, 150.502 158 C 125.068 92.645, 126.655 96, 121.174 96 C 119.514 96, 117.452 96.954, 116.174 98.314 M 128 237.893 C 128 320.765, 128.155 329.846, 129.582 330.393 C 132.560 331.536, 199.832 331.081, 200.554 329.913 C 200.923 329.315, 200.078 326.052, 198.676 322.663 C 197.273 319.273, 193.577 309.975, 190.462 302 C 187.346 294.025, 179.602 274.225, 173.253 258 C 166.904 241.775, 160.491 225.350, 159.001 221.500 C 142.005 177.561, 129.360 146, 128.750 146 C 128.338 146, 128 187.352, 128 237.893 M 379.678 152.250 C 376.960 159.901, 369.558 179.666, 348.502 235.500 C 337.094 265.750, 325.844 295.675, 323.501 302 C 321.158 308.325, 317.880 317.181, 316.216 321.679 C 314.553 326.178, 313.448 330.115, 313.762 330.429 C 314.531 331.198, 379.412 331.163, 381.418 330.393 C 382.845 329.846, 383 320.853, 383 238.893 C 383 185.251, 382.629 148, 382.094 148 C 381.596 148, 380.509 149.912, 379.678 152.250 M 144.528 347.874 C 150.934 353.961, 238.212 427.121, 238.602 426.731 C 239.064 426.269, 237.771 422.828, 222.357 383.500 C 218.262 373.050, 213.280 360.337, 211.286 355.250 L 207.662 346 175.109 346 C 143.250 346, 142.598 346.040, 144.528 347.874 M 226.114 351.250 C 228.905 358.281, 241.459 390.388, 245.566 401 C 255.500 426.672, 257.008 430.408, 257.721 431.116 C 258.378 431.769, 290.089 348.946, 290.023 346.750 C 290.010 346.337, 275.157 346, 257.015 346 L 224.029 346 226.114 351.250 M 306.098 348.250 C 291.722 386.210, 276.948 426.282, 277.227 426.560 C 277.428 426.761, 282.971 422.165, 289.546 416.346 C 305.037 402.637, 317.403 391.747, 345 367.512 C 357.375 356.645, 367.927 347.359, 368.450 346.877 C 368.996 346.373, 356.120 346, 338.175 346 L 306.950 346 306.098 348.250 " stroke="none" fill="undefined" fill-rule="evenodd"/>
	<path fill-opacity="0.477" d="M 233.500 24.592 C 231.850 24.824, 226.900 25.492, 222.500 26.078 C 218.100 26.664, 208.676 28.519, 201.558 30.200 C 144.869 43.589, 94.480 78.964, 61.874 128.264 C 42.908 156.940, 29.980 191.484, 25.541 225.344 C 23.526 240.716, 23.529 270.304, 25.547 285.699 C 39.149 389.471, 121.084 471.509, 225.213 485.618 C 240.068 487.631, 270.932 487.631, 285.787 485.618 C 389.903 471.511, 471.853 389.457, 485.453 285.699 C 487.216 272.252, 487.494 243.133, 485.991 229.500 C 482.193 195.061, 468.598 157.705, 449.173 128.334 C 416.899 79.536, 366.464 43.841, 310.982 30.531 C 290.654 25.654, 284.516 24.934, 260 24.544 C 247.075 24.339, 235.150 24.360, 233.500 24.592 M 115.073 98.635 C 113.002 101.267, 113 101.385, 113 221.079 L 113 340.888 115.250 343.356 C 116.487 344.714, 132.350 358.364, 150.500 373.691 C 168.650 389.018, 198.125 413.939, 216 429.070 C 233.875 444.202, 249.850 457.551, 251.500 458.735 C 253.933 460.481, 255.392 460.780, 259.220 460.317 C 264.480 459.681, 261.461 462.154, 319.947 410.583 C 335.593 396.788, 358.318 376.787, 370.447 366.138 C 382.576 355.488, 393.738 345.469, 395.250 343.872 L 398 340.968 398 221.119 C 398 101.385, 397.998 101.267, 395.927 98.635 C 393.181 95.143, 387.289 94.948, 384.338 98.250 C 383.233 99.487, 378.809 109.950, 374.508 121.500 C 370.207 133.050, 363.208 151.725, 358.954 163 C 354.700 174.275, 340.836 211.175, 328.144 245 C 315.453 278.825, 303.100 311.675, 300.695 318 L 296.321 329.500 257.237 329.762 L 218.152 330.023 216.162 324.762 C 215.068 321.868, 208.892 306, 202.439 289.500 C 195.986 273, 189.224 255.675, 187.412 251 C 185.600 246.325, 175.749 221.125, 165.521 195 C 155.294 168.875, 142.825 136.925, 137.814 124 C 132.803 111.075, 127.791 99.487, 126.677 98.250 C 123.705 94.949, 117.818 95.144, 115.073 98.635 M 129 238.833 L 129 330 164.975 330 L 200.950 330 200.075 327.750 C 199.593 326.512, 195.943 317.175, 191.963 307 C 187.982 296.825, 183.503 285.350, 182.009 281.500 C 180.514 277.650, 174.432 262.125, 168.493 247 C 155.293 213.383, 150.741 201.736, 146.997 192 C 139.509 172.530, 129.982 148.649, 129.517 148.184 C 129.233 147.899, 129 188.692, 129 238.833 M 377.774 158.750 C 375.845 164.113, 360.878 204.050, 344.516 247.500 C 328.153 290.950, 314.541 327.288, 314.266 328.250 C 313.797 329.892, 315.868 330, 347.883 330 L 382 330 382 239.500 C 382 189.725, 381.839 149, 381.641 149 C 381.444 149, 379.704 153.387, 377.774 158.750 M 144 346.413 C 144 346.656, 152.438 353.992, 162.750 362.715 C 209.723 402.450, 235.644 424.398, 237.322 425.857 C 238.964 427.284, 238.929 426.898, 236.973 421.970 C 235.779 418.962, 231.726 408.625, 227.967 399 C 224.208 389.375, 218.046 373.625, 214.275 364 L 207.419 346.500 175.709 346.236 C 158.269 346.091, 144 346.171, 144 346.413 M 225.301 347.750 C 225.594 348.712, 227.603 354, 229.765 359.500 C 231.927 365, 238.455 381.650, 244.272 396.500 C 250.089 411.350, 255.597 425.269, 256.513 427.430 L 258.177 431.360 274.089 388.983 C 282.840 365.675, 290 346.469, 290 346.303 C 290 346.136, 275.323 346, 257.383 346 C 226.783 346, 224.800 346.108, 225.301 347.750 M 307.058 347.892 C 305.193 351.377, 278.007 424.341, 278.420 424.753 C 278.644 424.977, 285.954 418.892, 294.664 411.230 C 351.125 361.562, 366.538 347.840, 366.833 346.975 C 367.045 346.356, 356.383 346, 337.619 346 C 309.654 346, 308.016 346.101, 307.058 347.892 " stroke="none" fill="undefined" fill-rule="evenodd"/>
	<path fill-opacity="0.971" d="M 234 25.071 C 149.276 32.970, 73.860 88.648, 41.758 167 C 34.492 184.735, 30.220 199.990, 26.357 222 C 23.532 238.090, 23.800 274.972, 26.865 292 C 29.791 308.255, 30.538 311.356, 34.691 324.500 C 54.216 386.290, 96.033 434.834, 154.500 463.584 C 186.142 479.143, 219.983 486.984, 255.500 486.984 C 291.017 486.984, 324.858 479.143, 356.500 463.584 C 414.966 434.835, 456.565 386.555, 476.338 324.500 C 485.094 297.022, 488.935 261.990, 486.158 234.949 C 479.092 166.138, 445.023 106.923, 389.655 67.218 C 345.002 35.196, 288.756 19.967, 234 25.071 M 115.646 97.452 L 113 99.905 113 220.761 C 113 315.961, 113.265 341.944, 114.250 343.154 C 115.384 344.547, 130.656 357.570, 178 397.514 C 187.075 405.171, 207.656 422.588, 223.736 436.218 L 252.972 461 258.236 460.992 L 263.500 460.985 300.074 428.742 C 320.190 411.009, 349.665 385.082, 365.574 371.127 C 381.483 357.171, 395.288 344.859, 396.250 343.766 C 397.896 341.896, 398 334.596, 398 220.841 L 398 99.905 395.354 97.452 C 393.856 96.064, 391.494 95, 389.910 95 C 384.603 95, 382.628 98.299, 374.050 121.500 C 369.575 133.600, 365.268 145.075, 364.478 147 C 363.123 150.299, 320.036 264.951, 312.052 286.500 C 310.015 292, 305.493 304.043, 302.004 313.262 L 295.661 330.023 257.131 329.762 L 218.601 329.500 207.234 300.500 C 200.982 284.550, 194.566 268.125, 192.976 264 C 189.846 255.881, 187.812 250.673, 171.489 209 C 165.565 193.875, 159.239 177.675, 157.431 173 C 155.624 168.325, 152.384 160, 150.232 154.500 C 148.080 149, 142.378 134.375, 137.562 122 C 131.781 107.145, 127.971 98.735, 126.347 97.250 C 123.127 94.303, 118.959 94.382, 115.646 97.452 M 129.245 239.545 L 129.500 329.500 164.750 329.763 C 184.137 329.907, 200 329.755, 200 329.425 C 200 329.095, 198.018 323.801, 195.596 317.662 C 193.173 311.523, 189.529 302.225, 187.498 297 C 185.467 291.775, 182.230 283.450, 180.304 278.500 C 178.379 273.550, 173.455 260.950, 169.362 250.500 C 165.268 240.050, 159.281 224.750, 156.056 216.500 C 152.832 208.250, 147.641 194.975, 144.521 187 C 141.401 179.025, 137.007 167.775, 134.756 162 C 132.505 156.225, 130.286 151.070, 129.826 150.545 C 129.366 150.019, 129.104 190.069, 129.245 239.545 M 378.316 159 C 376.564 163.675, 361.424 203.950, 344.670 248.500 L 314.209 329.500 347.291 329.764 C 365.486 329.909, 380.741 329.659, 381.192 329.208 C 381.642 328.758, 381.896 288.364, 381.755 239.445 L 381.500 150.500 378.316 159 M 146.416 347.864 C 146.719 348.355, 152.220 353.199, 158.640 358.628 C 165.059 364.058, 180.929 377.501, 193.906 388.503 C 234.459 422.884, 236.096 424.238, 236.559 423.774 C 236.808 423.526, 234.801 417.737, 232.099 410.911 C 227.429 399.114, 225.864 395.104, 215.346 368 C 212.892 361.675, 210.042 354.475, 209.014 352 L 207.143 347.500 176.504 347.235 C 158.709 347.082, 146.095 347.345, 146.416 347.864 M 226.551 349.250 C 226.929 350.488, 230.492 359.825, 234.470 370 C 238.447 380.175, 245.256 397.608, 249.601 408.740 C 253.945 419.872, 257.744 428.984, 258.042 428.990 C 258.481 428.998, 286.785 354.896, 288.691 348.750 C 289.200 347.109, 287.265 347, 257.549 347 L 225.865 347 226.551 349.250 M 293.223 385.151 C 285.371 406.122, 279.092 423.425, 279.269 423.603 C 279.447 423.780, 284.971 419.165, 291.546 413.346 C 306.296 400.293, 319.205 388.932, 342.500 368.504 C 352.400 359.822, 361.841 351.432, 363.481 349.860 L 366.462 347 336.981 347.011 L 307.500 347.023 293.223 385.151 " stroke="none" fill="undefined" fill-rule="evenodd"/>
</svg>