<svg xmlns="http://www.w3.org/2000/svg" xmlns:xlink="http://www.w3.org/1999/xlink" viewBox="0 0 410.71 288.1"><defs><style>.cls-1,.cls-55{fill:none;}.cls-2{isolation:isolate;}.cls-3{fill:#3a21d9;}.cls-19,.cls-3{opacity:0.4;}.cls-19,.cls-23,.cls-3,.cls-30,.cls-47{mix-blend-mode:multiply;}.cls-22,.cls-4{opacity:0.3;}.cls-30,.cls-5,.cls-8{opacity:0.7;}.cls-5{fill:url(#New_Gradient_Swatch_1);}.cls-6{fill:url(#New_Gradient_Swatch_1-2);}.cls-7{opacity:0.5;}.cls-8{fill:url(#New_Gradient_Swatch_1-3);}.cls-9{fill:url(#New_Gradient_Swatch_1-4);}.cls-10{fill:#3b265c;}.cls-10,.cls-27{opacity:0.9;}.cls-11{fill:#978aeb;}.cls-12{fill:#634fe1;}.cls-13{fill:#fffefd;}.cls-14{fill:url(#New_Gradient_Swatch_1-5);}.cls-15{fill:url(#Áåçûìÿííûé_ãðàäèåíò_42);}.cls-16{fill:#d8d4de;}.cls-17{clip-path:url(#clip-path);}.cls-18{fill:#f6eec4;}.cls-19{fill:#f5ecc0;}.cls-20{opacity:0.8;fill:url(#Áåçûìÿííûé_ãðàäèåíò_41);}.cls-21,.cls-22,.cls-23{fill:#008;}.cls-22{mix-blend-mode:screen;}.cls-23,.cls-24,.cls-35{opacity:0.6;}.cls-24{fill:#f0e29d;}.cls-25,.cls-47{fill:#bbb3f2;}.cls-26{fill:#9d91ec;}.cls-27{fill:#a499ee;}.cls-28{fill:#dbd6f8;}.cls-29{fill:#e2def9;}.cls-30,.cls-35{fill:#c0b8f3;}.cls-31{fill:#fc6;}.cls-32{fill:url(#Íîâûé_îáðàçåö_ãðàäèåíòíîé_çàë_2);}.cls-33{fill:#d4cff7;}.cls-34,.cls-36{fill:#8070e7;}.cls-34{opacity:0.2;}.cls-37{fill:#604de1;}.cls-38{fill:#705ee4;}.cls-39{fill:#efe19b;}.cls-40{fill:#ead87b;}.cls-41{fill:url(#New_Gradient_Swatch_1-6);}.cls-42{fill:url(#New_Gradient_Swatch_1-7);}.cls-43{fill:url(#New_Gradient_Swatch_1-8);}.cls-44{fill:url(#New_Gradient_Swatch_1-9);}.cls-45{fill:url(#New_Gradient_Swatch_1-10);}.cls-46{fill:url(#New_Gradient_Swatch_1-11);}.cls-48{fill:#33c;}.cls-49{fill:#f3e8b1;}.cls-50{fill:url(#Íîâûé_îáðàçåö_ãðàäèåíòíîé_çàë_2-2);}.cls-51{fill:#580c8a;}.cls-52{fill:#996bb7;}.cls-53{fill:url(#Íîâûé_îáðàçåö_ãðàäèåíòíîé_çàë_2-3);}.cls-54{fill:#fff;}.cls-55{stroke:#4c0b84;stroke-linecap:round;stroke-linejoin:bevel;}</style><linearGradient id="New_Gradient_Swatch_1" x1="92.23" y1="137.34" x2="291.53" y2="137.34" gradientUnits="userSpaceOnUse"><stop offset="0" stop-color="#8000ff"/><stop offset="1" stop-color="#0fe"/></linearGradient><linearGradient id="New_Gradient_Swatch_1-2" x1="92.23" y1="77.24" x2="291.53" y2="77.24" xlink:href="#New_Gradient_Swatch_1"/><linearGradient id="New_Gradient_Swatch_1-3" x1="115.09" y1="150.55" x2="314.4" y2="150.55" xlink:href="#New_Gradient_Swatch_1"/><linearGradient id="New_Gradient_Swatch_1-4" x1="115.1" y1="90.44" x2="314.4" y2="90.44" xlink:href="#New_Gradient_Swatch_1"/><linearGradient id="New_Gradient_Swatch_1-5" x1="223.26" y1="172.1" x2="271.95" y2="172.1" xlink:href="#New_Gradient_Swatch_1"/><linearGradient id="Áåçûìÿííûé_ãðàäèåíò_42" x1="270.96" y1="151.72" x2="241.66" y2="202.48" gradientUnits="userSpaceOnUse"><stop offset="0" stop-color="#fffefa"/><stop offset="1" stop-color="#f1f0f4"/></linearGradient><clipPath id="clip-path"><path id="Cylinder_face" data-name="Cylinder face" class="cls-1" d="M239.53,190.58c0,6.69,2.45,11.31,6.36,13.29,3.6,1.83-2.16,48.94,43.66,67.05,13.47,5.32,118.67,18.12,130.2,1.49,11.87-17.13-18.67-87.33-34.69-97.87-17.31-11.38-107.8-18.72-111.86-20.63-3.58-1.68-8.32-1.22-13.52,1.79C248.55,162.12,239.53,177.74,239.53,190.58Z"/></clipPath><linearGradient id="Áåçûìÿííûé_ãðàäèåíò_41" x1="337.79" y1="165.12" x2="307.95" y2="237.26" gradientUnits="userSpaceOnUse"><stop offset="0" stop-color="#f6eec4"/><stop offset="0.49" stop-color="#f0e3a2"/><stop offset="1" stop-color="#ead779"/></linearGradient><linearGradient id="Íîâûé_îáðàçåö_ãðàäèåíòíîé_çàë_2" x1="264.83" y1="204.78" x2="396.08" y2="204.78" gradientUnits="userSpaceOnUse"><stop offset="0" stop-color="#e4cf9b"/><stop offset="0.26" stop-color="#eddfbc"/><stop offset="0.53" stop-color="#f5eedb"/><stop offset="0.78" stop-color="#eadab3"/><stop offset="1" stop-color="#efe3c5"/></linearGradient><linearGradient id="New_Gradient_Swatch_1-6" x1="296.04" y1="203.77" x2="361.23" y2="203.77" xlink:href="#New_Gradient_Swatch_1"/><linearGradient id="New_Gradient_Swatch_1-7" x1="296.04" y1="223.37" x2="318.26" y2="223.37" xlink:href="#New_Gradient_Swatch_1"/><linearGradient id="New_Gradient_Swatch_1-8" x1="295.73" y1="205.11" x2="341.23" y2="205.11" xlink:href="#New_Gradient_Swatch_1"/><linearGradient id="New_Gradient_Swatch_1-9" x1="316.14" y1="216.89" x2="361.64" y2="216.89" xlink:href="#New_Gradient_Swatch_1"/><linearGradient id="New_Gradient_Swatch_1-10" x1="295.73" y1="217.52" x2="298.25" y2="217.52" xlink:href="#New_Gradient_Swatch_1"/><linearGradient id="New_Gradient_Swatch_1-11" x1="316.14" y1="229.3" x2="318.66" y2="229.3" xlink:href="#New_Gradient_Swatch_1"/><linearGradient id="Íîâûé_îáðàçåö_ãðàäèåíòíîé_çàë_2-2" x1="268.32" y1="183.08" x2="385.52" y2="183.08" xlink:href="#Íîâûé_îáðàçåö_ãðàäèåíòíîé_çàë_2"/><linearGradient id="Íîâûé_îáðàçåö_ãðàäèåíòíîé_çàë_2-3" x1="309.11" y1="183.03" x2="344.88" y2="183.03" xlink:href="#Íîâûé_îáðàçåö_ãðàäèåíòíîé_çàë_2"/></defs><g class="cls-2"><g id="_0" data-name="0"><g id="_15" data-name="15"><polygon class="cls-3" points="334.02 156.09 211.9 156.09 3.57 276.37 125.69 276.37 334.02 156.09"/><g class="cls-4"><polygon class="cls-5" points="291.53 141.42 92.23 256.49 92.23 133.27 291.53 18.2 291.53 141.42"/><polygon class="cls-6" points="92.23 124.5 92.23 145.04 291.53 29.98 291.53 9.44 92.23 124.5"/></g><g class="cls-7"><polygon class="cls-8" points="314.4 154.62 115.09 269.69 115.09 146.47 314.4 31.4 314.4 154.62"/><polygon class="cls-9" points="115.1 137.7 115.1 158.25 314.4 43.18 314.4 22.64 115.1 137.7"/></g><polygon class="cls-10" points="337.27 167.83 137.97 282.89 137.97 159.68 337.27 44.61 337.27 167.83"/><polygon class="cls-11" points="137.97 150.91 137.97 171.45 337.27 56.39 337.27 35.84 137.97 150.91"/><path class="cls-12" d="M310.93,63.49l-7.44,4.3c-.49.28-.89.12-.89-.37V60a1.86,1.86,0,0,1,.89-1.4l7.44-4.3c.49-.28.89-.11.89.38v7.44A1.84,1.84,0,0,1,310.93,63.49Z"/><path class="cls-12" d="M322.36,56.9l-7.45,4.29c-.49.29-.88.12-.88-.37V53.37a1.83,1.83,0,0,1,.88-1.39l7.45-4.3c.49-.28.88-.12.88.37V55.5A1.84,1.84,0,0,1,322.36,56.9Z"/><path class="cls-13" d="M315.49,54v4.53c0,.49.39.65.88.37l4.53-2.61a1.83,1.83,0,0,0,.88-1.4V50.36c0-.49-.39-.66-.88-.38l-4.53,2.61A1.84,1.84,0,0,0,315.49,54Zm4.33,1.83-2.37,1.37c-.48.28-.88.11-.88-.38V54.45a1.85,1.85,0,0,1,.88-1.4l2.37-1.36c.49-.29.88-.12.88.37v2.36A1.83,1.83,0,0,1,319.82,55.82Z"/><path class="cls-12" d="M333.78,50.3l-7.44,4.3c-.49.28-.89.11-.89-.38V46.78a1.84,1.84,0,0,1,.89-1.4l7.44-4.3c.49-.28.89-.11.89.38V48.9A1.84,1.84,0,0,1,333.78,50.3Z"/><path class="cls-13" d="M327.13,47.44l2.05.87c.09,0,.09.19,0,.34l-2.05,3.23c-.05.09-.05.18,0,.2l.54.23c.06,0,.15,0,.21-.12L329.93,49c.09-.15.24-.24.34-.2l2.05.86c.05,0,.14,0,.2-.12l.54-.85c.06-.09.06-.18,0-.21l-2-.86c-.1,0-.1-.19,0-.34l2-3.23c.06-.09.06-.18,0-.21l-.54-.23c-.06,0-.15,0-.2.12l-2.05,3.23c-.1.15-.25.24-.34.2l-2.05-.87c-.06,0-.15,0-.21.12l-.54.86C327.08,47.33,327.08,47.42,327.13,47.44Z"/><path class="cls-13" d="M304.1,65v.75c0,.16.13.22.29.13l5.75-3.32a.6.6,0,0,0,.29-.46V61.3c0-.15-.13-.21-.29-.12l-5.75,3.32A.6.6,0,0,0,304.1,65Z"/><path class="cls-13" d="M162.76,172.57l5.66-3.27v1.35l-5.66,3.27Zm-7.27,14.91-8.82,5.09v1.35l10.44-6,3.62-2.09v-1.35l-5.24,3ZM163.3,179v-1.35l-4.42,2.55L156,181.84v1.35l2.91-1.68ZM153.9,183l-7.25,4.18v1.35l7.25-4.18Zm3.74-6.17,3-1.76v-1.35l-5.24,3-8.74,5.05v1.35l10.94-6.32Zm-8.58-.4,7.13-4.12V171l-7.13,4.12-2.31,1.33v1.35l2.31-1.33Zm14.24-8.23,2.29-1.32v-1.35l-3,1.75-4.3,2.48v1.35l5-2.91ZM168.46,180l-5.66,3.27v1.35l5.66-3.27Zm-11,25.74-10.74,6.2v1.35l10.74-6.2Zm-10.65,11.51v1.35l2.15-1.25,9-5.2v-1.35l-7.66,4.42Zm21.69-28.6-7.78,4.49-5.19,3v1.35l5.19-3,7.78-4.49Zm-1.12,16.72-2,1.13-5.37,3.1v1.35l4.3-2.48,3-1.75Zm-14.24-2.5-6.41,3.71v1.35l6.41-3.71,7.14-4.11v-1.35l-7.14,4.11Zm9.21-5.31v1.35l3.77-2.18v-1.35Zm-2.82,8.34,6.78-3.92v-1.35l-6.78,3.92Zm-12.82-3.32,6.74-3.89v-1.35l-6.74,3.89Zm19.65,16.77-6.79,3.91v1.35l6.79-3.91ZM165,232.15l3.76-2.17v-1.35L165,230.8Zm-10,5.76,7.6-4.38v-1.35l-7.6,4.38Zm12.12-13.7-6.7,3.86v1.35l6.7-3.86Zm-20.4,2.41L149.6,225l8.34-4.82v-1.35l-7.66,4.43-3.51,2Zm11.63,2.65-8.61,5L146.73,236v1.35l4.12-2.38,7.55-4.36ZM146.74,232l5-2.9,5.69-3.29v-1.35l-8.2,4.74-2.52,1.45Zm0,10.73,6.3-3.64v-1.35l-6.3,3.64Zm20.62-29.33-2.48,1.43-.54.32-4.3,2.48V219l4.3-2.48.54-.32,2.48-1.43Zm-4.78,26-4.3,2.48v1.35l5-2.91,2.29-1.32V237.6l-3,1.75ZM156.19,243l-7.13,4.11-2.31,1.34v1.35l2.31-1.33,7.13-4.12Zm-2.82,7-6.67,3.86v1.35l6.67-3.86Zm9.39-5.42-7.32,4.23v1.35l7.86-4.54,5.12-2.95v-1.35l-5.66,3.26Zm-7.27,16.27,6.78-3.92v-1.35l-6.78,3.92ZM146.67,266l6.74-3.89v-1.35l-6.74,3.89Zm13.6-14.56-4.3,2.48v1.35l4.3-2.48,3-1.75v-1.35l-3,1.75Zm-13.62,9.21,7.25-4.18v-1.35l-7.25,4.18Zm38.58-90.29-5.28,3v1.35l5.28-3Zm-.08-16L182,156.11v1.35l3.17-1.84Zm-5.24,3-2.73,1.58v1.35l2.73-1.58Zm5.3,2.3-5.21,3V164l5.21-3Zm-7.81,9.87-2.23,1.29v1.35l2.23-1.29Zm2.07.15,5.78-3.33v-1.35l-5.78,3.33Zm5.66,25.47-4.9,2.83v1.35l4.9-2.83Zm.09-5.41L176,195v1.35l9.27-5.35Zm-7.07,9.44-2.73,1.58v1.35l2.73-1.58Zm-.21-9.24,7.28-4.21v-1.35l-7.28,4.21Zm2-6.53,5.28-3V179L180,182Zm-4.53,26.72,2.73-1.57v-1.35l-2.73,1.57Zm4.81-2.77,4.9-2.83v-1.35l-4.9,2.83Zm-.57,11,5.51-3.18v-1.35L179.66,217Zm-.93-4.82,6.43-3.71v-1.35l-6.43,3.71Zm-2.07-.15-2.6,1.5v1.35l2.6-1.5Zm8.53,5.79-7.63,4.41v1.35l7.63-4.41Zm-7.6-1L175,219.7v1.35l2.62-1.51Zm1.88,23.46,5.78-3.33V237l-5.78,3.34Zm-4.3,2.49,2.23-1.29V241.5l-2.23,1.29Zm2-11.88,2.73-1.58v-1.35l-2.73,1.58Zm8-.63-5.21,3V236l5.21-3Zm-.06-4V226.3L182,228.14v1.35ZM180,246.73l5.28-3v-1.35l-5.28,3Zm30.6-100.41,5.66-3.27V141.7L210.55,145Zm-7.26,13.56L194.47,165v1.35l10.44-6,3.61-2.09v-1.35l-5.23,3Zm7.8-8.51V150l-4.41,2.55-2.91,1.68v1.35l2.91-1.68Zm-9.4,4.07-7.24,4.19V161l7.24-4.19Zm3.75-6.17,3-1.75v-1.35l-5.24,3-8.75,5.05v1.35l10.95-6.32Zm-8.59-.4,7.14-4.12V143.4l-7.14,4.12-2.3,1.33v1.35l2.3-1.33Zm14.24-8.22,2.3-1.33V138l-3,1.75-4.3,2.48v1.35l5-2.9Zm5.17,11.74-5.66,3.27V157l5.66-3.27Zm-11,25.75-10.73,6.2v1.35l10.73-6.2Zm-10.64,11.5V191l2.15-1.24,9-5.21v-1.35l-7.66,4.43ZM216.26,161l-7.78,4.49-5.19,3v1.35l5.19-3,7.78-4.49Zm-4.44,18.64-1.95,1.13L207.82,182v1.35l1-.56,3-1.75Zm-10.92-4.41-6.42,3.7v1.35l6.42-3.7L208,172.5v-1.35l-7.13,4.12Zm9.21-5.32v1.35l3.76-2.17v-1.35Zm-2.82,8.34,6.78-3.91V173l-6.78,3.92ZM194.47,175l6.74-3.89v-1.35l-6.74,3.89Zm18.31,17.54-5.45,3.15V197l5.45-3.15Zm-9.93,17.81,7.59-4.39v-1.35L202.85,209ZM194.57,199l2.83-1.63,8.34-4.82v-1.35l-7.66,4.42-3.51,2Zm11.63,2.65-8.61,5-3.06,1.77v1.35l4.11-2.38L206.2,203Zm-11.66,2.72,5-2.9,5.69-3.28v-1.35l-8.2,4.73L194.54,203Zm0,10.74,6.31-3.65v-1.35l-6.31,3.65Zm19.3-28.57-1.15.66-.55.32L207.82,190v1.35l3-1.71.55-.32,2.48-1.43Zm-3.45,25.19-4.3,2.48v1.35l5-2.9,2.3-1.33V210l-3,1.75ZM204,215.43l-7.14,4.12-2.3,1.33v1.35l2.3-1.33,7.14-4.12Zm-2.82,7-6.68,3.85v1.35l6.68-3.85Zm9.38-5.42-7.31,4.22v1.35l7.85-4.53,5.12-3v-1.35L210.55,217Zm-7.26,16.26,6.78-3.91V228l-6.78,3.91Zm-8.82,5.09,6.74-3.89v-1.35L194.47,237Zm13.6-14.56-4.3,2.48v1.36l4.3-2.49,3-1.74V222l-3,1.75ZM194.45,233l7.24-4.19v-1.35l-7.24,4.19ZM233,142.71l-5.28,3v1.35l5.28-3.05Zm-.08-16-3.17,1.83v1.35L233,128Zm-5.24,3L225,131.28v1.35l2.73-1.57ZM233,132l-5.21,3v1.36l5.21-3Zm-7.81,9.87L223,143.16v1.35l2.22-1.28Zm2.08.15,5.78-3.34v-1.35l-5.78,3.34Zm32.34-25.39,5.66-3.26v1.35L259.61,118Zm-7.26,14.92-8.82,5.09V138L254,132l3.62-2.09v-1.35l-5.24,3Zm7.81-8.52v-1.35l-4.42,2.55-2.91,1.68v1.35l2.91-1.68Zm-9.4,4.08-7.25,4.18v1.35l7.25-4.18ZM254.5,121l3-1.76v-1.35l-5.24,3-8.75,5v1.35L254.5,121Zm-8.58-.41,7.13-4.11v-1.35l-7.13,4.11-2.31,1.34v1.35l2.31-1.34Zm14.24-8.22,2.29-1.32v-1.35l-3,1.75-4.3,2.48v1.35l5-2.91Zm5.16,11.75-5.66,3.26v1.36l5.66-3.27Zm16.77-9.68-5.28,3v1.35l5.28-3Zm-.08-16-3.17,1.83v1.35L282,99.7Zm-5.24,3L274,103v1.35l2.73-1.58Zm5.3,2.3-5.21,3V108l5.21-3Zm-7.81,9.87L272,114.83v1.35l2.23-1.28Zm2.07.15,5.78-3.34V109l-5.78,3.34ZM282,139.17l-4.9,2.83v1.35l4.9-2.83Zm.09-5.41-9.27,5.35v1.35l9.27-5.35Zm-7.29.2,7.29-4.21V128.4l-7.29,4.21Zm2-6.53,5.28-3V123l-5.28,3Zm30.6-37,5.66-3.27V85.78l-5.66,3.27ZM300.14,104l-8.81,5.09v1.35l10.44-6,3.61-2.08v-1.35l-5.24,3ZM308,95.44V94.09l-4.41,2.55-2.91,1.68v1.35L303.54,98Zm-9.4,4.08-7.24,4.18v1.36l7.24-4.19Zm3.75-6.17,3-1.75V90.24l-5.24,3-8.75,5v1.35l10.95-6.32Zm-8.59-.4,7.14-4.12V87.48l-7.14,4.12-2.31,1.33v1.35L293.71,93ZM308,84.73l2.3-1.33V82.05l-3,1.75-4.3,2.48v1.35l5-2.9Zm5.17,11.74-5.66,3.27v1.35l5.66-3.27Zm-11.05,25.74-10.73,6.2v1.35l10.73-6.19Zm-10.65,11.51v1.35l2.16-1.24,9-5.21v-1.35l-7.66,4.42Zm21.7-28.6-7.78,4.49-5.2,3V114l5.2-3,7.78-4.49ZM312,121.84,310.05,123l-5.38,3.1v1.35l4.3-2.48,3-1.75Zm-14.24-2.49-6.42,3.7v1.35l6.42-3.7,7.13-4.12v-1.35l-7.13,4.12ZM307,114v1.35l3.76-2.17v-1.35Zm-2.82,8.34,6.78-3.92V117.1L304.15,121Zm-12.82-3.32,6.74-3.89v-1.35l-6.74,3.89ZM311,135.82l-6.78,3.92v1.35l6.78-3.92Zm-1.29,12.81,3.77-2.17v-1.35l-3.77,2.17Zm-10,5.76L307.3,150v-1.35L299.71,153Zm12.12-13.7-6.7,3.86v1.35l6.7-3.86Zm-20.41,2.41,2.84-1.63,8.34-4.82V135.3l-7.66,4.42-3.52,2Zm11.64,2.65-8.61,5-3.06,1.77v1.35l4.11-2.38,7.56-4.36Zm-11.66,2.72,5-2.9,5.69-3.29v-1.35l-8.2,4.74-2.52,1.45Zm0,10.74,6.31-3.65v-1.35l-6.31,3.65ZM312,129.87l-2.48,1.43-.55.32-4.3,2.48v1.35L309,133l.55-.32,2.48-1.43Zm-4.78,26-4.3,2.48v1.35l5-2.9,2.3-1.33v-1.35l-3,1.75Zm-6.37,3.68-7.14,4.12L291.4,165v1.35l2.31-1.33,7.14-4.12Zm-2.82,7-6.68,3.85v1.35l6.68-3.85Zm9.38-5.42-7.31,4.22v1.35l7.85-4.54,5.12-3v-1.35l-5.66,3.27Zm-7.27,16.26,6.78-3.91v-1.35L300.14,176Zm-8.81,5.09,6.74-3.89v-1.35l-6.74,3.89Zm13.6-14.56-4.3,2.48v1.35l4.3-2.48,3-1.75v-1.35l-3,1.75Zm25-81.08-5.28,3v1.35l5.28-3Zm-.08-16-3.17,1.83v1.35l3.17-1.83Zm-5.24,3-2.74,1.58v1.35l2.74-1.57Zm5.29,2.31-5.21,3v1.35l5.21-3ZM322.05,86l-2.22,1.29v1.35l2.22-1.29Zm2.08.16,5.78-3.34V81.42l-5.78,3.34Zm5.66,25.46-4.91,2.83v1.35l4.91-2.83Zm.09-5.41-9.27,5.35v1.36l9.27-5.36Zm-7.07,9.44-2.73,1.58v1.35l2.73-1.58Zm-.22-9.24,7.28-4.2v-1.35l-7.28,4.2Zm2-6.52,5.28-3V95.44l-5.28,3Zm-4.53,26.72,2.73-1.58v-1.35l-2.73,1.58Zm4.8-2.78,4.91-2.83V119.6l-4.91,2.83Zm-.56,11.05,5.51-3.18V130.3l-5.51,3.18Zm-.93-4.83,6.42-3.71v-1.35l-6.42,3.71Zm-2.07-.15-2.61,1.5v1.35l2.61-1.5Zm8.52,5.79-7.62,4.41v1.35l7.62-4.41Zm-7.6-1-2.62,1.52v1.35l2.62-1.52Zm1.89,23.47,5.78-3.34v-1.35l-5.78,3.34Zm-4.3,2.48,2.22-1.29V158l-2.22,1.29Zm2-11.88,2.74-1.58v-1.35l-2.74,1.58Zm8-.63-5.21,3v1.35l5.21-3Zm-.05-4v-1.35l-3.17,1.83V146Zm-5.2,19.08,5.28-3.05v-1.35l-5.28,3.05Z"/><path class="cls-14" d="M264.77,144.7l.34.17-3-1.71c-4.12-2.3-9.78-1.92-16,1.69-12.63,7.29-22.86,25-22.86,39.6,0,7.38,2.62,12.54,6.84,14.89l2.79,1.61c4.24,2.4,9.92,2,16.2-1.58,12.63-7.3,22.86-25,22.86-39.61C272,152.19,269.19,147,264.77,144.7Z"/><path class="cls-15" d="M273.49,153.2l.3.15-5.92-3.42c-3.74-2.08-8.87-1.73-14.52,1.53-11.45,6.61-20.73,22.68-20.73,35.89,0,6.69,2.38,11.37,6.21,13.5l5.76,3.33c3.84,2.17,9,1.84,14.68-1.44,11.45-6.61,20.73-22.68,20.73-35.89C280,160,277.49,155.25,273.49,153.2Z"/><g id="Axonometric_Cylinder" data-name="Axonometric Cylinder"><path id="Cylinder_face-2" data-name="Cylinder face" class="cls-16" d="M239.53,190.58c0,12.85,9,18,20.15,11.63s20.14-22,20.14-34.89-9-18-20.14-11.62S239.53,177.74,239.53,190.58Z"/></g><g class="cls-17"><path class="cls-18" d="M399.64,255.85a17.13,17.13,0,0,0-4.64-6.56,8.14,8.14,0,0,0,1.25-1.72,7.72,7.72,0,0,0,.86-4.34A10.23,10.23,0,0,0,395.8,239a14.6,14.6,0,0,0-2.71-3.43,20.62,20.62,0,0,0-3.46-2.65c-1.23-.78-2.51-1.38-3.72-2.1l-1.23-.72a7.28,7.28,0,0,0,.9-2.88,11.66,11.66,0,0,0-.16-3.39,12.53,12.53,0,0,0-.43-1.65,9.27,9.27,0,0,0-.7-1.58,8.79,8.79,0,0,0-1-1.42,12.59,12.59,0,0,0-1.2-1.22,16.43,16.43,0,0,0-1.33-1c-.45-.33-.93-.62-1.4-.92a44.77,44.77,0,0,0-5.77-2.85,48.66,48.66,0,0,0-4.78-5.25,65,65,0,0,0-5.47-4.74c-1-.73-1.93-1.44-2.92-2.13s-2-1.35-3.05-2c-.51-.32-1-.62-1.57-.91s-1.05-.59-1.6-.85c-1-.55-2.12-1-3.2-1.51-2.36-2.15-4.84-4.12-7.31-6.11l-3.71-3c-1.23-1-2.46-2-3.61-3.12l-2.28-1.83c-.75-.6-1.52-1.19-2.29-1.77-1.54-1.16-3.13-2.26-4.75-3.31a67,67,0,0,0-10.2-5.54c-.89-.38-1.8-.74-2.71-1.07s-1.84-.64-2.78-.9-1.9-.49-2.85-.71-1.93-.36-2.9-.47-2-.2-2.94-.23a26.4,26.4,0,0,0-2.95.05,29.18,29.18,0,0,0-2.94.38c-.86.14-1.7.37-2.55.59q-7.44-4.59-14.92-9.12c-5.07-3.1-10.18-6.13-15.28-9.17-.2-.12-.38.26-.57.13-10.56-6.85-44.2,32.91-36.85,37.87a.37.37,0,0,0-.51.11.37.37,0,0,0,.1.52l15,9.79L256,208.42a.66.66,0,0,0,.12.17l3.7,16.08c.62,2.74,1.28,5.47,1.94,8.2l1,4.09.49,2a5.09,5.09,0,0,0,1,2.13c.57.63,1.08,1,1.6,1.5l1.57,1.4,3.14,2.81,6.28,5.62a5,5,0,0,0,2,1.15,18.71,18.71,0,0,0,2.16.31l4.19.51,8.36,1c2.8.34,5.57.63,8.33,1.14s5.54,1,8.34,1.32a39.72,39.72,0,0,0,4.25.31,12.45,12.45,0,0,0,2.18-.16,4.71,4.71,0,0,0,1.11-.34,4.9,4.9,0,0,0,1-.61,5.53,5.53,0,0,0,2-4,8.18,8.18,0,0,0-.26-2.57c1.46.87,2.93,1.72,4.46,2.46,2.81,1.41,5.65,2.72,8.51,4,5.72,2.53,11.52,4.89,17.42,7,2.95,1,5.94,2,8.95,2.86a48.08,48.08,0,0,0,9.26,1.85,14.93,14.93,0,0,0,2.41,0,8.9,8.9,0,0,0,1.22-.21,10.25,10.25,0,0,0,1.15-.42,9.61,9.61,0,0,0,2.14-1.19,5.16,5.16,0,0,0,1.65-1.9,4.73,4.73,0,0,0,.48-1.77,45.88,45.88,0,0,0,8.3,2.66,20.61,20.61,0,0,0,5.09.43,10.63,10.63,0,0,0,5-1.41,7.93,7.93,0,0,0,3.58-3.8A7.57,7.57,0,0,0,399.64,255.85Z"/><path class="cls-18" d="M384.87,223.86a11,11,0,0,0-6-7.45c-1.28-.66-2.95-1.54-5.65-2.72-2.6-2.32-5.09-5.74-7.93-7.42a50.6,50.6,0,0,0-14.24-10c-4.62-2.3-12-9.46-15-12.34-2.13-1.58-22.73-20-42-14.31l-30.3-18.74-36.33,37.92,59.7,35.66L312,215.33l13.48-6a41.06,41.06,0,0,1,5.38,2.16c2.35,1.2,4.57,2.64,6.85,4,5.93,3.46,39.08,18.53,43.85,16.8C385.07,230.94,385.55,227.12,384.87,223.86Z"/><path class="cls-18" d="M334.85,227.67c2.74,1.4,18.5,10.09,21.16,11.64,6.94,4.05,32.34,14.26,37.25,10.95a7.62,7.62,0,0,0,2.82-9.81c-1.51-3.57-9.44-8.62-12.89-10.4s-7.19-2.94-10.68-4.65c-9.89-4.87-30.21-20.88-39.07-27.43-2.49-1.85-5.12-3.49-7.68-5.23-3.07-2.09-6.08-4.33-9.5-5.76s-7.38-2-10.83-.64-6.13,5-5.56,8.68a13.3,13.3,0,0,0,1.61,4.13c3.14,6,6,14.69,11.43,19.12C318.93,223.16,328,224.19,334.85,227.67Z"/><path class="cls-19" d="M360.81,229.91a37.51,37.51,0,0,1-7-5.47c-4.73-4.7-11.75-7.58-17.69-10.61-2.29-1.17-7.57-5.88-9.11-7.07-1.14.7-2.31,1.36-3.46,2.05a1.22,1.22,0,0,1-1,1.36c-.56.11-1.07.25-1.59.4a3.06,3.06,0,0,0-.29.21,1.32,1.32,0,0,1-1.15.27,14.29,14.29,0,0,0-4.51,2.67,17.71,17.71,0,0,1-3.9,2.78,17.11,17.11,0,0,0,1.85,1.77c6,4.89,19.72,8.38,26.56,11.86,2.74,1.39,18.5,10.09,21.16,11.64,6.93,4,27.67,11.77,32.58,8.47a7.49,7.49,0,0,0,3.53-7c-3.83,7.94-14.79,5.09-21.14-1.46A74.49,74.49,0,0,0,360.81,229.91Z"/><path class="cls-18" d="M339.65,245c2.92,1.49,20.4,8.08,23.24,9.73,7.38,4.31,25,15,33.5,9.68,4-2.48,4.26-5.09,2.65-8.9s-5.08-6.53-8.76-8.43-7.66-3.13-11.37-5c-5.79-2.85-14.35-11.22-26-16.33-7.48-6.16-14.79-10.52-19-13.67-2.65-2-5.82-4.94-8.55-6.79-3.27-2.23-6.48-4.61-10.12-6.14s-7.86-2.13-11.54-.67-6.52,5.33-5.92,9.24a14.55,14.55,0,0,0,1.72,4.4c3.34,6.41,6.37,15.65,12.18,20.37C318.07,237.78,332.36,241.34,339.65,245Z"/><path class="cls-19" d="M384.62,261.56c-7-2.29-10.44-7-17.18-13-2.26-1.38-11.93-2.63-23.83-13.1-8.68-7.63-20.81-9.85-29.3-16.47-.06-.05-9.87-4.92-13.21-3.44,2.79,6,5.7,13.09,10.57,17.05,6.4,5.2,20.69,8.76,28,12.46,2.92,1.49,20.4,8.08,23.24,9.73,7.38,4.31,25,15,33.5,9.68,2-1.27,3.09-2.57,3.43-4.05C394.82,263.24,390.65,263.54,384.62,261.56Z"/><path class="cls-18" d="M314,246.13c2.84,1.44,5.53,3.18,8.28,4.79,7.18,4.19,42.29,20.1,50.74,17,5.4-2,5.3-5.2,3.73-8.91s-4.94-6.36-8.51-8.2-5.74-1-9.35-2.75c-2.28-1.12-4.78-4.16-8.33-6.52-4.3-2.86-9.93-4.83-14.77-7.76-8.24-6.12-13.52-8.53-19.28-14.76-2.17-2.35-9.27-7.28-11.93-9.08-3.18-2.16-6.3-4.48-9.84-6s-7.65-2.07-11.23-.66-6.34,5.19-5.76,9a14.33,14.33,0,0,0,1.67,4.29c3.26,6.23,6.2,15.22,11.85,19.81C297.53,241.45,306.94,242.52,314,246.13Z"/><path class="cls-19" d="M303.3,242.12a75.6,75.6,0,0,1,10.73,4c2.84,1.44,5.53,3.18,8.28,4.79,7.18,4.19,42.29,20.1,50.74,17,3.77-1.38,4.85-3.37,4.63-5.71a19.4,19.4,0,0,1-2.24,1,11.33,11.33,0,0,1-6.66,1.09,15.72,15.72,0,0,1-2.28-.22,17.34,17.34,0,0,1-4.25-.79c-3.89-1.27-6.06-3.93-8.67-6.69a2.59,2.59,0,0,0-2-.75c-6.4.2-17.53-1.9-23.59-10.66-10.34-1.47-16.06-6.12-20.31-7-5.21-1.13-7.49-3.09-12.82-3.23a2,2,0,0,0-.84.1c-2.57,1.18.87,3.4,1.82,4A35.8,35.8,0,0,0,303.3,242.12Z"/><path class="cls-18" d="M226.42,188.79l30.2,19.32s4.74,20.23,7.26,30.91a4.3,4.3,0,0,0,1.3,2.18l12.17,11a4.22,4.22,0,0,0,2.28,1c4.19.57,12.6,1.67,16.8,2.13,6.11.66,17.86,3.5,21.19,1.91,3.73-1.78,4.58-8.51-4.28-15.59-6.24-5-14.42-7.43-22.4-7.93A95.06,95.06,0,0,0,286.56,214c2.24-6.67,1.11-12.58,1.36-16.64l-49.13-20.74Z"/><path class="cls-20" d="M399.64,255.85a17.13,17.13,0,0,0-4.64-6.56,8.14,8.14,0,0,0,1.25-1.72,7.72,7.72,0,0,0,.86-4.34A10.23,10.23,0,0,0,395.8,239a14.6,14.6,0,0,0-2.71-3.43,20.62,20.62,0,0,0-3.46-2.65c-1.23-.78-2.51-1.38-3.72-2.1l-1.23-.72a7.28,7.28,0,0,0,.9-2.88,11.66,11.66,0,0,0-.16-3.39,12.53,12.53,0,0,0-.43-1.65,9.27,9.27,0,0,0-.7-1.58,8.79,8.79,0,0,0-1-1.42,12.59,12.59,0,0,0-1.2-1.22,16.43,16.43,0,0,0-1.33-1c-.45-.33-.93-.62-1.4-.92a44.77,44.77,0,0,0-5.77-2.85,48.66,48.66,0,0,0-4.78-5.25,65,65,0,0,0-5.47-4.74c-1-.73-1.93-1.44-2.92-2.13s-2-1.35-3.05-2c-.51-.32-1-.62-1.57-.91s-1.05-.59-1.6-.85c-1-.55-2.12-1-3.2-1.51-2.36-2.15-4.84-4.12-7.31-6.11l-3.71-3c-1.23-1-2.46-2-3.61-3.12l-2.28-1.83c-.75-.6-1.52-1.19-2.29-1.77-1.54-1.16-3.13-2.26-4.75-3.31a67,67,0,0,0-10.2-5.54c-.89-.38-1.8-.74-2.71-1.07s-1.84-.64-2.78-.9-1.9-.49-2.85-.71-1.93-.36-2.9-.47-2-.2-2.94-.23a26.4,26.4,0,0,0-2.95.05,29.18,29.18,0,0,0-2.94.38c-.86.14-1.7.37-2.55.59q-7.44-4.59-14.92-9.12c-5.07-3.1-10.18-6.13-15.28-9.17a.42.42,0,0,0-.57.13.43.43,0,0,0,.12.59c5,3.2,10,6.42,15,9.57s10.06,6.32,15.1,9.46a.77.77,0,0,0,.58.09c.94-.23,1.84-.49,2.76-.62a25.73,25.73,0,0,1,2.78-.34c.93-.05,1.86-.09,2.8-.06s1.87.08,2.8.19,1.86.26,2.79.43,1.84.39,2.75.64,1.82.52,2.72.8,1.79.62,2.67,1a65.59,65.59,0,0,1,10.16,5.17q2.43,1.53,4.74,3.21c.78.56,1.54,1.14,2.29,1.73l2.25,1.78c1.17,1.11,2.39,2.13,3.61,3.15l3.71,3.06c2.45,2,4.92,4.08,7.22,6.26,1.22.6,2.29,1.11,3.33,1.68.52.27,1,.58,1.54.87s1,.6,1.52.92c1,.62,2,1.28,3,2s1.92,1.39,2.85,2.11c1.86,1.47,3.68,3,5.39,4.63a49.1,49.1,0,0,1,4.36,4.66,11.89,11.89,0,0,0-2,.92,7.61,7.61,0,0,0-1.68,1.28,4.59,4.59,0,0,0-.47.53l-.16.21a.23.23,0,0,0,0,.31.23.23,0,0,0,.33,0s.07-.08.18-.2a3.75,3.75,0,0,1,.45-.45A7.68,7.68,0,0,1,370.6,215a11.51,11.51,0,0,1,1.85-.7l.46-.12a46.75,46.75,0,0,1,5.86,2.84c.45.28.91.55,1.33.86a13,13,0,0,1,1.25,1,12.47,12.47,0,0,1,1.1,1.08,9.72,9.72,0,0,1,.88,1.25,8.55,8.55,0,0,1,.62,1.38,10.45,10.45,0,0,1,.4,1.51,10.34,10.34,0,0,1,.23,3.08,6.16,6.16,0,0,1-.71,2.51c-1.73-1-3.48-2-5.32-2.93a18.21,18.21,0,0,0-1.76-1.94c-.67-.62-1.36-1.22-2.07-1.78a48.66,48.66,0,0,0-4.44-3.13,42.81,42.81,0,0,0-9.47-4.49.42.42,0,0,0-.41-.24,54,54,0,0,0-6.82-5.56c-2.46-1.76-5-3.42-7.54-5,2.41,1.83,4.9,3.55,7.31,5.37a56.33,56.33,0,0,1,6.32,5.39c-.16.05-.34.11-.53.19a14.34,14.34,0,0,0-2.27,1.26,31.85,31.85,0,0,0-2.94,2.27.23.23,0,0,0,.29.36,32.6,32.6,0,0,1,3-2.07,13.36,13.36,0,0,1,2.2-1.08,6.12,6.12,0,0,1,.73-.2,35.71,35.71,0,0,1,9.65,4.59,47.17,47.17,0,0,1,4.27,3.17c.68.56,1.33,1.16,2,1.77.43.43.83.88,1.2,1.33l-.32.1a7.83,7.83,0,0,0-2.33,1.35,14.52,14.52,0,0,0-1.89,1.84c-.47.55-.76.93-.76.93a.24.24,0,0,0,0,.32.24.24,0,0,0,.33,0l.78-.86a14.41,14.41,0,0,1,1.91-1.67,7.26,7.26,0,0,1,2.17-1.12,2.93,2.93,0,0,1,.7-.13c2.6,1.33,5,2.8,7.52,4.18,1.24.71,2.56,1.3,3.74,2a19.29,19.29,0,0,1,3.37,2.44,11.28,11.28,0,0,1,3.88,7,6.67,6.67,0,0,1-2,5.41l-1-.83a42.73,42.73,0,0,0-8.69-5.26,49.45,49.45,0,0,0-9.53-3.13,69.3,69.3,0,0,0-21.83-13.54.41.41,0,0,0-.36-.37c-1.23-1.16-2.42-2.2-3.66-3.18s-2.79-2.09-4.23-3.08c-2.89-2-5.85-3.8-8.87-5.55,2.9,2,5.82,3.84,8.66,5.85,1.42,1,2.81,2,4.16,3.14a37.55,37.55,0,0,1,3.08,2.83,6.74,6.74,0,0,0-.76.13,9.28,9.28,0,0,0-3.08,1.4,16,16,0,0,0-2.53,2.17c-.32.32-.55.62-.73.82l-.27.31a.23.23,0,0,0,0,.32.22.22,0,0,0,.32,0l.29-.3c.18-.19.42-.47.74-.77a15.37,15.37,0,0,1,2.52-2,8.61,8.61,0,0,1,2.89-1.18,5.2,5.2,0,0,1,1-.1,3.18,3.18,0,0,1,.34,0,68.33,68.33,0,0,1,11.57,5.89,72.36,72.36,0,0,1,9.38,7.27,7.55,7.55,0,0,0-2.72,1.25,14,14,0,0,0-2.07,1.84c-.5.56-.81.94-.81.94a.23.23,0,0,0,0,.32.23.23,0,0,0,.33,0s.33-.36.84-.87a12.8,12.8,0,0,1,2.06-1.66,6.79,6.79,0,0,1,2.34-1,3.77,3.77,0,0,1,.8-.07,57,57,0,0,1,9.62,3.34,42.38,42.38,0,0,1,8.54,5,17.71,17.71,0,0,1,6.11,7.49,6.6,6.6,0,0,1,.47,4.59,7.08,7.08,0,0,1-3.19,3.38,9.88,9.88,0,0,1-4.59,1.31,19.74,19.74,0,0,1-4.9-.38,42.53,42.53,0,0,1-8.45-2.74,9,9,0,0,0-.47-2.29,9.57,9.57,0,0,0-1-2.23,12,12,0,0,0-1.55-1.9,30.72,30.72,0,0,0-7.75-5.49,48.74,48.74,0,0,0-8.77-3.05,12.4,12.4,0,0,0-1-1.15c-.39-.42-.81-.81-1.23-1.19-.84-.76-1.73-1.47-2.63-2.15a63.63,63.63,0,0,0-5.62-3.73,74.76,74.76,0,0,0-12.05-5.83,90.1,90.1,0,0,0-7.71-5.51c-2.67-1.74-5.38-3.42-8.14-5,2.59,1.85,5.22,3.64,7.8,5.48,2.32,1.66,4.61,3.37,6.76,5.22l-.41.11a8.19,8.19,0,0,0-2.73,1.5,9.36,9.36,0,0,0-1.17,1.19c-.16.21-.3.43-.44.62a6.48,6.48,0,0,0-.35.59,5.75,5.75,0,0,0-.45.91l-.16.35a.23.23,0,0,0,.42.2l.17-.35a6.6,6.6,0,0,1,.47-.85c.11-.16.21-.35.35-.53s.28-.37.44-.56a9.48,9.48,0,0,1,1.13-1.05,7.5,7.5,0,0,1,2.55-1.25,5.49,5.49,0,0,1,1-.19c2.1.81,4.12,1.72,6.11,2.71s3.93,2,5.83,3.18a64.39,64.39,0,0,1,5.51,3.68c.87.67,1.74,1.36,2.54,2.1a13.9,13.9,0,0,1,1.17,1.13,6.77,6.77,0,0,1,.52.56,2.25,2.25,0,0,0-.33.08,7.29,7.29,0,0,0-2.55,1.33,9.94,9.94,0,0,0-1.08,1.07,8.88,8.88,0,0,0-.78,1.06,6.63,6.63,0,0,0-.47.79l-.17.31a.24.24,0,0,0,.08.31.23.23,0,0,0,.32-.08l.19-.3c.12-.17.25-.45.48-.74a9.92,9.92,0,0,1,.79-1,8.6,8.6,0,0,1,1.05-.93,6.47,6.47,0,0,1,2.33-1.09,4.25,4.25,0,0,1,.8-.11.82.82,0,0,0,.2.12,56.05,56.05,0,0,1,8.76,3,29.72,29.72,0,0,1,7.53,5.21,8.59,8.59,0,0,1,2.36,3.73,5.52,5.52,0,0,1,.07,4.22,6.24,6.24,0,0,1-3.33,2.69,8.71,8.71,0,0,1-4.4.61,47.65,47.65,0,0,1-9.1-1.76c-3-.84-6-1.85-8.87-2.92-5.85-2.15-11.61-4.57-17.28-7.16-2.83-1.3-5.65-2.63-8.41-4-1.93-1-3.76-2.08-5.6-3.21a20.05,20.05,0,0,0-5.31-6.72,44.92,44.92,0,0,0-7.14-4.7c-5.4-3.11-15.89-4.36-16.08-4.43-.41-3.09-.94-6.17-1.6-9.22-.37-1.66-.77-3.31-1.22-4.94-.41-1.47-.84-2.91-1.35-4.36a.67.67,0,0,0,.09-.21.76.76,0,0,0,0-.3,43,43,0,0,0,2.76-4.3q.69-1.23,1.29-2.52c.19-.44.38-.87.55-1.32s.32-.88.46-1.37a.37.37,0,0,0-.72-.2c-.13.43-.29.87-.46,1.29s-.37.84-.57,1.26c-.39.83-.84,1.64-1.3,2.43a48.17,48.17,0,0,1-2.8,4.17l-1-.17c-.77-.12-1.79-.25-2.82-.36-2.05-.22-4.11-.34-4.11-.34a.23.23,0,0,0-.25.19.25.25,0,0,0,.2.28s2,.34,4,.78c1,.22,2,.46,2.72.66l1.07.3c.49,1.42.93,2.89,1.32,4.35q.66,2.43,1.18,4.9c.63,3,1,9.06.7,9.12a17.09,17.09,0,0,0-3.41,1,25.34,25.34,0,0,0-3.14,1.58c-.82.49-1.35.85-1.35.85a.23.23,0,0,0-.07.31.24.24,0,0,0,.32.09s.55-.3,1.39-.7a22.32,22.32,0,0,1,3.16-1.26,17.17,17.17,0,0,1,3.27-.69,9.5,9.5,0,0,1,1.29.07,43.26,43.26,0,0,1,16,4.07,31.51,31.51,0,0,1,6.94,4.47,18.85,18.85,0,0,1,5.11,6.32,8.17,8.17,0,0,1,.82,3.86,4.54,4.54,0,0,1-1.59,3.35,5.62,5.62,0,0,1-3.71.95,36.16,36.16,0,0,1-4.15-.28c-2.78-.31-5.54-.78-8.32-1.23l-4.17-.65-4.18-.55-8.35-1.11-4.18-.56a20.12,20.12,0,0,1-2-.31,3.78,3.78,0,0,1-1.59-1L271.34,246l-3.11-2.84-1.55-1.42c-.49-.47-1.11-1-1.46-1.39a3.59,3.59,0,0,1-.76-1.64l-.47-2.05-.95-4.11c-.62-2.74-1.24-5.47-1.91-8.2l-3.85-16.05a.58.58,0,0,0,0-.23s-.05-.63,0-1.64.08-2.34.22-3.69c.26-2.68.78-5.35.78-5.35a.3.3,0,0,0-.22-.35.31.31,0,0,0-.37.22s-.72,2.64-1.17,5.35c-.24,1.35-.41,2.72-.5,3.76,0,.22,0,.42,0,.61l-14.17-9-15.18-9.52a.37.37,0,0,0-.51.11.37.37,0,0,0,.1.52l15,9.79L256,208.42a.66.66,0,0,0,.12.17l3.7,16.08c.62,2.74,1.28,5.47,1.94,8.2l1,4.09.49,2a5.09,5.09,0,0,0,1,2.13c.57.63,1.08,1,1.6,1.5l1.57,1.4,3.14,2.81,6.28,5.62a5,5,0,0,0,2,1.15,18.71,18.71,0,0,0,2.16.31l4.19.51,8.36,1c2.8.34,5.57.63,8.33,1.14s5.54,1,8.34,1.32a39.72,39.72,0,0,0,4.25.31,12.45,12.45,0,0,0,2.18-.16,4.71,4.71,0,0,0,1.11-.34,4.9,4.9,0,0,0,1-.61,5.53,5.53,0,0,0,2-4,8.18,8.18,0,0,0-.26-2.57c1.46.87,2.93,1.72,4.46,2.46,2.81,1.41,5.65,2.72,8.51,4,5.72,2.53,11.52,4.89,17.42,7,2.95,1,5.94,2,8.95,2.86a48.08,48.08,0,0,0,9.26,1.85,14.93,14.93,0,0,0,2.41,0,8.9,8.9,0,0,0,1.22-.21,10.25,10.25,0,0,0,1.15-.42,9.61,9.61,0,0,0,2.14-1.19,5.16,5.16,0,0,0,1.65-1.9,4.73,4.73,0,0,0,.48-1.77,45.88,45.88,0,0,0,8.3,2.66,20.61,20.61,0,0,0,5.09.43,10.63,10.63,0,0,0,5-1.41,7.93,7.93,0,0,0,3.58-3.8A7.57,7.57,0,0,0,399.64,255.85Z"/><path class="cls-21" d="M319.88,255.91a1.83,1.83,0,0,0-.54-2.18c-2.13-1.8-7.66-3.29-11.46-2.94-5.39.51-4.62,5.09-3.89,6,6.49,1,9.48,1.74,12.39,1.3A4.68,4.68,0,0,0,319.88,255.91Z"/><path class="cls-22" d="M306.49,251.05c-3.93,1.4-3.14,4.93-2.5,5.73l1.13.17C305.53,255.26,306.9,251.4,306.49,251.05Z"/><path class="cls-23" d="M318.05,257.08A79.89,79.89,0,0,1,301.91,256a3.5,3.5,0,0,0,.39.67c7.25,1.11,9.84,1.69,13.13,1.51.76-.05,3,.08,4.18-2A2.46,2.46,0,0,1,318.05,257.08Z"/><path class="cls-24" d="M257.36,200c-3-2.76-13.49-13-13.49-13,.69-13.93,14.22-29.29,26.06-33l-5.54-3.38c-18.15-3.07-38,38.11-38,38.11L256.36,208C256.6,205.47,257.33,200.1,257.36,200Z"/></g><g id="_15-2" data-name="15"><polygon class="cls-25" points="264.84 206.13 353.18 257.14 396.07 232.37 396.07 217.88 264.84 191.64 264.84 206.13 264.84 206.13"/><polygon class="cls-26" points="309.3 200.81 289.5 196.85 289.5 220.37 309.3 231.8 309.3 200.81"/><path class="cls-27" d="M349.06,221.2c-.6-4.26-.66-8.73-1.36-13l-15-3c-2.6,1.48-5.37,2.65-7.92,4.24-3.61,2.25-7,4.8-10.58,7.13v18.06l36.24,20.92V241.15c0-.51-.1-2,.3-2A141.66,141.66,0,0,0,349.06,221.2Z"/><polygon class="cls-28" points="356.82 208.23 356.63 209.99 396.07 217.88 396.07 232.37 380.37 241.44 396.07 232.37 396.07 217.88 356.82 208.23 356.82 208.23"/><polygon class="cls-29" points="356.63 209.99 353.18 242.64 353.18 257.14 380.37 241.44 396.07 232.37 396.07 217.88 356.63 209.99 356.63 209.99"/><polygon class="cls-30" points="312.96 233.92 334.58 246.4 334.58 232 316.35 219.55 312.96 233.92"/><polygon class="cls-31" points="270.32 194.8 353.18 242.64 396.07 217.88 313.21 170.04 270.32 194.8"/><polygon class="cls-32" points="353.19 242.67 264.83 191.65 307.72 166.89 396.08 217.9 353.19 242.67"/><polygon class="cls-33" points="334.71 232 289.51 205.96 332.42 181.19 383.69 210.73 364.7 221.7 358.62 218.2 334.71 232"/><path class="cls-34" d="M352.17,196.75l-44.66-8.13.24-.13,44.66,8.12Zm2.64-1.53-44.65-8.12-.24.14,44.65,8.12ZM350,198l-44.66-8.13-.24.14,44.66,8.12Zm-2.41,1.38L303,191.26l-.24.14,44.65,8.12Zm5.47-6.3-40.51-7.37-.24.14,41.21,7.49Zm-7.87,7.69-44.66-8.12-.24.14L345,200.91Zm-1.39-13-26.44-4.81-.24.14L344.27,188Zm-13.89-8-5.34-1-.24.14,6,1.1Zm4.63,2.67-12.37-2.25-.24.14L335,182.68Zm4.63,2.67-19.41-3.53-.24.14,20.11,3.65Zm9.26,5.33L315,184.32l-.24.14,34.17,6.22Zm-5.65,11.75L298.14,194l-.24.14,44.65,8.12Zm-26.44,15.27-10.11-1.84.46.26,9.41,1.71Zm4.81-2.78L297,210.25l.47.27,23.48,4.27Zm2.4-1.39-31.22-5.68.47.27,30.51,5.55ZM314,218.81l-3.08-.56.46.27,2.38.43Zm4.8-2.77-17.15-3.12.47.27,16.44,3Zm7.22-4.17-38.26-7,.46.26L325.73,212Zm9.61-5.55-44.65-8.12-.24.14,44.65,8.12Zm2.41-1.39-44.66-8.12-.24.14,44.66,8.12Zm2.4-1.38-44.65-8.12-.24.13,44.65,8.13Zm-9.62,5.55L286.12,201l-.24.14,44.65,8.12Zm2.41-1.39-44.66-8.12-.24.14,44.66,8.12Zm-4.81,2.78-44.65-8.13-.22.13s44.63,8.13,44.63,8.13Z"/><polygon class="cls-35" points="373.18 226.6 340.53 207.77 359.53 196.8 392.18 215.63 373.18 226.6"/><polygon class="cls-35" points="350.46 241.15 315.73 221.1 321.84 217.56 353.44 235.81 350.46 241.15"/><path class="cls-25" d="M342.06,195.58c-8.41-4.86-21.55-5.1-29.4-.57s-7.43,12.12.94,17C313.65,212,342.06,195.58,342.06,195.58Z"/><polygon class="cls-36" points="310.55 218.11 309.36 217.42 352.29 192.63 353.48 193.32 310.55 218.11"/><polygon class="cls-37" points="314.46 180.11 301.86 172.83 307.9 169.35 320.5 176.62 314.46 180.11"/><path class="cls-38" d="M362.16,205.43a7.5,7.5,0,0,0-3.08-.88s3.12-1.42,3.12-1.42a.79.79,0,0,1,.89,0l3.92,2.26,1.38-.36c0-.11-5.22-3.15-5.22-3.15h-.29l-5.26,2.67.2.32a5.9,5.9,0,0,1,3.21.64c1,.58,1.41,1.62-.54,2.74a4.78,4.78,0,0,1-4.7.37,1.21,1.21,0,0,1-.39-2.06c.14-.18.14-.33-.08-.46a2,2,0,0,0-1.62,0c-.68.39-.58,1.61,1.46,2.79a7.06,7.06,0,0,0,7.13.24C364.36,207.92,364,206.51,362.16,205.43Z"/><path class="cls-38" d="M374.12,208c-2.6-1.5-5.68-.79-8.63.91s-4.18,3.48-1.58,5,5.68.8,8.63-.91S376.72,209.52,374.12,208Zm-9.7,5.6c-1.49-.87.27-2.37,2.67-3.76s5-2.41,6.51-1.54-.26,2.37-2.67,3.75S365.92,214.48,364.42,213.62Z"/><path class="cls-38" d="M382.47,212.84c-2.6-1.5-5.68-.8-8.63.91s-4.18,3.48-1.59,5,5.69.8,8.64-.91S385.07,214.34,382.47,212.84Zm-9.7,5.6c-1.49-.87.26-2.37,2.67-3.76s5-2.41,6.51-1.54-.26,2.36-2.67,3.75S374.27,219.3,372.77,218.44Z"/><path class="cls-39" d="M276.56,190.78a4.79,4.79,0,0,0-2-.56s2-.9,2-.9a.49.49,0,0,1,.56,0l2.49,1.44.88-.23c0-.08-3.32-2-3.32-2-.18,0-3.52,1.69-3.52,1.69l.12.21a3.76,3.76,0,0,1,2,.4c.64.37.9,1-.34,1.75a3,3,0,0,1-3,.23.77.77,0,0,1-.25-1.31c.1-.11.09-.21-.05-.29a1.22,1.22,0,0,0-1,0c-.43.25-.37,1,.93,1.77a4.47,4.47,0,0,0,4.53.16C278,192.36,277.75,191.46,276.56,190.78Z"/><path class="cls-39" d="M284.16,192.42c-1.65-.95-3.61-.5-5.49.58s-2.65,2.22-1,3.17,3.61.5,5.49-.58S285.81,193.38,284.16,192.42ZM278,196c-.95-.55.17-1.51,1.69-2.39s3.19-1.53,4.14-1-.16,1.51-1.69,2.39S279,196.53,278,196Z"/><path class="cls-39" d="M289.47,195.49c-1.65-1-3.61-.51-5.49.58s-2.66,2.21-1,3.16,3.61.51,5.48-.58S291.12,196.44,289.47,195.49ZM283.3,199c-.95-.54.17-1.5,1.7-2.39s3.19-1.52,4.14-1-.17,1.5-1.7,2.38S284.25,199.59,283.3,199Z"/><path class="cls-38" d="M383,222.88l-4.84-.89.12-.28,4.85.89Zm-1.32.56-4.84-.89-.12.27,4.84.89Zm-1.44.83-4.84-.89-.13.27,4.84.9Zm-1.45.84-4.84-.9-.12.28,4.84.89Zm-1.44.83-4.84-.89-.13.27,4.85.89Zm-1.45.83-4.84-.89-.12.28,4.84.89Zm-1.44.84-4.84-.9-.13.28,4.85.89Zm-1.44.83-4.85-.89-.12.27,4.84.9Zm-1.45.84-4.84-.9-.12.28,4.84.89Z"/><path class="cls-39" d="M313.39,173a5.86,5.86,0,0,0-5.3-.09c-1.41.81-1.33,2.18.17,3.05a5.86,5.86,0,0,0,5.3.1C315,175.29,314.9,173.91,313.39,173Zm-4.79,2.77c-1.31-.76-1.38-1.95-.15-2.66a5.08,5.08,0,0,1,4.6.09c1.31.75,1.38,1.95.15,2.66A5.11,5.11,0,0,1,308.6,175.81Z"/><path class="cls-40" d="M346.45,191.75l-.59,1.09,1.26,1-2-.05-1.12.93-.66-1.13-1.95-.38,1.62-.64-.1-1.17,1.66.73ZM332.72,188l-1.66-.73.09,1.17-1.61.64,1.95.39.66,1.12,1.11-.93,2,0-1.26-1,.58-1.09Zm-13-.24-1.66-.73.09,1.17-1.62.64,2,.38.66,1.13,1.11-.93,2,.05-1.27-1,.59-1.09Zm-11.41,3.64-1.66-.73.09,1.17-1.61.64,1.95.38.66,1.13,1.12-.93,2,0-1.26-1,.59-1.09ZM302,198l-1.66-.73.09,1.17-1.61.64,1.95.39.66,1.12,1.12-.93,2,.05-1.26-1,.59-1.1Zm.42,7.51-1.66-.73.09,1.17-1.61.64,1.95.38.66,1.13,1.12-.93,2,.05-1.26-1,.59-1.09Zm7.05,6.83-1.66-.73.09,1.17-1.62.64,1.95.39.67,1.12L310,214l2,.05-1.26-1,.59-1.09Z"/><polygon class="cls-41" points="339.02 184.95 361.23 197.77 318.25 222.59 296.04 209.76 339.02 184.95"/><polygon class="cls-42" points="296.04 224.17 318.25 236.98 318.25 222.58 296.04 209.76 296.04 224.17"/><polygon class="cls-43" points="298.25 211.04 341.23 186.23 338.72 184.77 295.74 209.59 295.74 223.99 298.25 225.44 298.25 211.04"/><polygon class="cls-44" points="318.66 222.82 361.64 198.01 359.12 196.55 316.14 221.37 316.14 235.77 318.66 237.22 318.66 222.82"/><polygon class="cls-45" points="298.25 211.04 295.74 209.59 295.74 223.99 298.25 225.44 298.25 211.04"/><polygon class="cls-46" points="318.66 222.82 316.14 221.37 316.14 235.77 318.66 237.22 318.66 222.82"/><polygon class="cls-47" points="303.66 169.23 268.49 189.54 335.61 228.29 348.33 228.28 303.66 169.23"/><g id="Axonometric_Cube" data-name="Axonometric Cube"><polygon id="Cube_face_-_left" data-name="Cube face - left" class="cls-48" points="348.4 228.25 268.33 182.02 268.33 170.66 348.4 190.93 348.4 228.25"/><polygon id="Cube_face_-_right" data-name="Cube face - right" class="cls-49" points="385.49 206.83 348.4 228.25 348.4 190.93 385.49 195.47 385.49 206.83"/></g><polygon class="cls-50" points="348.41 216.91 268.32 170.67 305.42 149.24 385.52 195.49 348.41 216.91"/><path class="cls-51" d="M304.74,150.9l-33.4,19.28,77.91,45,33.4-19.29ZM354.43,211a6.58,6.58,0,0,1-5.95-.14l-69.7-40.25c-1.71-1-1.82-2.52-.25-3.43l20.88-12.05a6.59,6.59,0,0,1,5.94.14l69.71,40.25c1.71,1,1.82,2.52.24,3.43Z"/><path class="cls-52" d="M343.59,173.45c-7.75-4.48-21.5-3.82-30.65,1.47s-10.3,13.22-2.55,17.7,21.51,3.81,30.66-1.47S351.35,177.92,343.59,173.45Zm-33,19.06c-7.64-4.41-6.49-12.25,2.56-17.48s22.63-5.89,30.27-1.47,6.49,12.25-2.56,17.47S318.22,196.92,310.58,192.51Z"/><path class="cls-52" d="M340.45,190.8c-8.86,5.11-22.07,5.78-29.5,1.49s-6.27-11.91,2.59-17,22.07-5.78,29.5-1.49S349.31,185.68,340.45,190.8Z"/><path class="cls-53" d="M338.49,189.67c-7.57,4.37-18.85,4.94-25.2,1.27s-5.36-10.17,2.21-14.54,18.85-5,25.2-1.28S346.06,185.3,338.49,189.67Z"/><polygon class="cls-51" points="342.67 197.38 340 195.84 339.02 196.4 341.7 197.94 342.67 197.38"/><polygon class="cls-51" points="344.08 198.2 343.11 198.76 354.61 205.4 355.58 204.84 344.08 198.2"/><polygon class="cls-51" points="291.11 167.61 288.44 166.07 287.46 166.63 290.13 168.17 291.11 167.61"/><polygon class="cls-51" points="292.52 168.43 291.55 168.99 303.04 175.63 304.02 175.06 292.52 168.43"/><polygon class="cls-51" points="302.63 156.4 301.29 157.17 315.18 165.19 316.52 164.42 302.63 156.4"/><polygon class="cls-52" points="358.84 188.85 357.5 189.63 371.39 197.65 372.73 196.87 358.84 188.85"/><path class="cls-51" d="M344.49,206.14l2.93-1.69s-1.5-.69-1.5-.69c-.15.09.12.32.12.32s.12.15-.06.26l-2.31,1.33a.35.35,0,0,1-.39,0l-.4-.2-.19.11,1.93,1.12.19-.11-.34-.23C344.35,206.29,344.33,206.23,344.49,206.14Z"/><path class="cls-51" d="M350.08,205.94a3,3,0,0,0-3.07.22c-.92.53-1.39,1.19-.38,1.77a3.06,3.06,0,0,0,3.08-.21C350.62,207.19,351.1,206.53,350.08,205.94Zm-3.22,1.86c-.44-.25.43-.82,1-1.15s1.55-.83,2-.58-.43.82-1,1.15S347.3,208.06,346.86,207.8Z"/><path class="cls-51" d="M353.12,207.69a3.06,3.06,0,0,0-3.08.22c-.91.53-1.39,1.19-.37,1.78a3,3,0,0,0,3.07-.22C353.66,208.94,354.13,208.28,353.12,207.69Zm-3.22,1.86c-.45-.25.43-.82,1-1.14s1.55-.84,2-.58-.43.82-1,1.14S350.34,209.81,349.9,209.55Z"/><path class="cls-31" d="M370.22,191.78l2-1.14s-1-.46-1-.46.08.22.08.22.08.1,0,.17l-1.55.89a.23.23,0,0,1-.26,0l-.27-.13c-.13.08,1.17.83,1.17.83s-.1-.23-.1-.23S370.11,191.84,370.22,191.78Z"/><path class="cls-31" d="M374,191.64a2,2,0,0,0-2.06.15c-.62.35-.93.8-.26,1.19a2.05,2.05,0,0,0,2.06-.15C374.33,192.48,374.64,192,374,191.64Zm-2.16,1.25c-.3-.17.29-.55.67-.77s1-.56,1.33-.39-.29.55-.67.77S372.11,193.06,371.81,192.89Z"/><path class="cls-31" d="M376,192.82a2,2,0,0,0-2.06.14c-.61.35-.93.8-.25,1.19a2,2,0,0,0,2.06-.15C376.36,193.65,376.68,193.21,376,192.82Zm-2.16,1.24c-.3-.17.29-.55.67-.77s1-.56,1.34-.39-.3.55-.68.77S374.14,194.23,373.84,194.06Z"/><path class="cls-31" d="M309.31,156.61l2-1.13s-1-.46-1-.46.08.21.08.21.08.1,0,.17l-1.55.89a.25.25,0,0,1-.26,0l-.27-.13c-.12.07,1.17.82,1.17.82s-.1-.23-.1-.23S309.2,156.67,309.31,156.61Z"/><path class="cls-31" d="M313.06,156.48a2,2,0,0,0-2.06.14c-.61.35-.93.8-.25,1.19a2.06,2.06,0,0,0,2.06-.14C313.42,157.31,313.74,156.87,313.06,156.48Zm-2.16,1.24c-.3-.17.29-.55.67-.77s1-.56,1.33-.39-.29.55-.67.77S311.2,157.89,310.9,157.72Z"/><path class="cls-31" d="M315.09,157.65a2,2,0,0,0-2.06.15c-.61.35-.93.79-.25,1.18a2,2,0,0,0,2.06-.14C315.45,158.49,315.77,158,315.09,157.65Zm-2.16,1.25c-.3-.18.29-.55.67-.77s1-.56,1.34-.39-.29.55-.68.77S313.23,159.07,312.93,158.9Z"/><path class="cls-31" d="M279.8,172.32l-.26.15a.84.84,0,0,1-.77,0l-2.6-1.5c-.22-.13-.24-.33,0-.44l.25-.15a.87.87,0,0,1,.74,0l.41.2,3-1.73-.31-.27a.22.22,0,0,1,0-.39l.21-.12a.85.85,0,0,1,.7,0l2,.86c.16.09.23.16.24.24a.25.25,0,0,1-.13.31l-3.85,2.22.35.24C280,172,280,172.21,279.8,172.32Zm10.65,3.86a4.82,4.82,0,0,1-4.91.27c-1-.59-1.2-1.3-.56-2a4.44,4.44,0,0,1-3.52-.33c-1.4-.81-1.23-1.84.48-2.83a4.85,4.85,0,0,1,4.91-.28c1,.6,1.2,1.31.56,2a4.38,4.38,0,0,1,3.51.33C292.33,174.16,292.16,175.19,290.45,176.18Z"/><path class="cls-52" d="M279,171.48l3.94-2.28c0-.06-2-.92-2-.92l-.2.12.36.31c.15.13.16.2-.08.34l-3.1,1.79a.45.45,0,0,1-.53,0l-.53-.26-.26.15,2.6,1.5.26-.15-.46-.31C278.78,171.67,278.75,171.6,279,171.48Z"/><path class="cls-52" d="M286.47,171.21a4.08,4.08,0,0,0-4.13.29c-1.22.71-1.87,1.6-.5,2.39a4.1,4.1,0,0,0,4.13-.3C287.19,172.89,287.83,172,286.47,171.21Zm-4.33,2.5c-.59-.35.59-1.1,1.35-1.54s2.08-1.13,2.68-.78-.59,1.1-1.35,1.54S282.74,174.05,282.14,173.71Z"/><path class="cls-52" d="M290.55,173.56a4.1,4.1,0,0,0-4.13.3c-1.23.7-1.87,1.59-.51,2.38A4.08,4.08,0,0,0,290,176C291.27,175.24,291.91,174.35,290.55,173.56Zm-4.33,2.5c-.6-.34.59-1.1,1.35-1.54s2.08-1.12,2.67-.78-.58,1.1-1.35,1.54S286.82,176.41,286.22,176.06Z"/><path class="cls-52" d="M358.17,194.62a9.37,9.37,0,0,0-8.48-.2c-2.24,1.29-2.09,3.48.35,4.89a9.37,9.37,0,0,0,8.48.2C360.76,198.22,360.61,196,358.17,194.62Zm-7.69,4.44c-2.17-1.26-2.31-3.21-.31-4.37a8.4,8.4,0,0,1,7.56.18c2.17,1.26,2.31,3.21.31,4.37A8.4,8.4,0,0,1,350.48,199.06Z"/><path class="cls-52" d="M306.59,164.84a9.35,9.35,0,0,0-8.47-.2c-2.25,1.3-2.09,3.49.35,4.89a9.35,9.35,0,0,0,8.47.2C309.19,168.44,309,166.25,306.59,164.84Zm-7.68,4.44c-2.18-1.26-2.31-3.21-.31-4.36a8.32,8.32,0,0,1,7.55.18c2.17,1.25,2.31,3.2.31,4.36A8.38,8.38,0,0,1,298.91,169.28Z"/><path class="cls-51" d="M357.47,196.75a1.15,1.15,0,0,1-.92-.52,1.14,1.14,0,0,0-.95-.64l-.22,0a1.16,1.16,0,0,1-.89-.52.7.7,0,0,0-.86-.18l-2.11,1.22a.5.5,0,0,0-.29.45l.14,1.94c.12.08,3.49.16,3.49.16a1.67,1.67,0,0,0,.78-.17l2.11-1.22C358,197.08,357.86,196.81,357.47,196.75Z"/><path class="cls-51" d="M305.87,167a1.15,1.15,0,0,1-.92-.52,1.16,1.16,0,0,0-.95-.64l-.23,0a1.12,1.12,0,0,1-.88-.51.7.7,0,0,0-.86-.18l-2.11,1.22a.49.49,0,0,0-.29.45l.14,1.94c.12.07,3.49.15,3.49.15a1.45,1.45,0,0,0,.78-.17l2.11-1.21C306.41,167.29,306.26,167,305.87,167Z"/><polygon class="cls-52" points="335.84 201.65 329.03 197.71 329.41 197.5 336.23 201.43 335.84 201.65"/><polygon class="cls-52" points="301.32 181.71 294.51 177.78 294.89 177.56 301.7 181.49 301.32 181.71"/></g></g><path class="cls-54" d="M150.37,150.12s-2.45,1.12-3.46,1.71c-1.28.75-1.89,1.63-1.88,2.52s.47.86,2.46.41c2.56-.58,3.34-.23,3.36,2a7.7,7.7,0,0,1-4.06,6.63,23.8,23.8,0,0,1-3.95,1.7l.23-2.24s2.33-1,3.57-1.73a3.22,3.22,0,0,0,1.83-2.8c0-.82-.43-.95-2.13-.5-2.67.69-3.68.26-3.69-1.88a7.25,7.25,0,0,1,4-6.31,27.69,27.69,0,0,1,3.9-1.75Z"/><path class="cls-54" d="M155.14,150.68l0,4c0,1,0,1.43.74,1l1.32-.81.11,2a17.82,17.82,0,0,1-1.77,1.33c-2.1,1.23-2.71.69-2.73-2.14l0-4.07-1,.6,0-2.24,1-.6,0-2.72,2.33-1.36,0,2.72,2.14-1.25v2.24Z"/><path class="cls-54" d="M165.48,149.55c0,.57.11.76.58.59l-.06,2a3.48,3.48,0,0,1-2.49.76A12.26,12.26,0,0,1,161,155.1c-1.82,1.07-2.7.44-2.71-1.64s1.11-3.5,3-4.77l1.86-1.25v-.6c0-.85-.34-.87-1-.46-1.15.67-3.27,2.06-3.27,2.06l-.08-1.78a26.82,26.82,0,0,1,3.52-2.63c2.26-1.32,3.17-.85,3.19,1.45Zm-3.92.8a1.92,1.92,0,0,0-1,1.66c0,.69.23,1,.85.66a12.3,12.3,0,0,0,1.71-1.31l0-2.09Z"/><path class="cls-54" d="M167.73,150.91l-.09-13.71,2.33-1.36.05,7.8.89-.7,1.69-4.71,2.61-1.52-2.23,6,2.41,3.77L172.77,148l-1.78-2.8-1,.74,0,3.64Z"/><path class="cls-54" d="M183.4,139.5l0,1.92a29.68,29.68,0,0,1-3.61,2.66c-2.62,1.53-3.74.71-3.77-2.81s1.27-6,3.81-7.52,3.8-.74,3.82,2.21l-.17,1.93-5.1,3c0,1.17.51,1.41,1.76.68C181.61,140.72,183.4,139.5,183.4,139.5Zm-2-2.37c0-1.59-.41-1.86-1.51-1.22a2.94,2.94,0,0,0-1.49,3Z"/><path class="cls-54" d="M195.86,131.8c0,.57.11.76.58.59l-.06,2a3.48,3.48,0,0,1-2.49.76,12.26,12.26,0,0,1-2.55,2.18c-1.82,1.07-2.7.44-2.71-1.64s1.11-3.5,3-4.77l1.86-1.25v-.6c0-.85-.34-.87-1-.46-1.14.67-3.26,2.06-3.26,2.06l-.08-1.78a26.82,26.82,0,0,1,3.52-2.63c2.26-1.32,3.17-.85,3.19,1.45Zm-3.92.8a2,2,0,0,0-1,1.66c0,.69.24,1,.86.66a12,12,0,0,0,1.7-1.31v-2.09Z"/><path class="cls-54" d="M198.11,133.17l-.06-9.8,2.31-1.35v.54a10.65,10.65,0,0,1,2.17-2c2.43-1.42,3.07-.06,3.09,2.94l0,5.31-2.33,1.36,0-5.23c0-1.49-.19-2.35-1.32-1.69a8.5,8.5,0,0,0-1.58,1.28l.05,7.32Z"/><path class="cls-54" d="M215.11,123.23l-2.31,1.35v-.41a12.16,12.16,0,0,1-2.09,1.88c-2.63,1.53-3.4.25-3.43-3.2s1.21-5.81,3.57-7.19a14.66,14.66,0,0,1,1.88-.83l0-4,2.32-1.36Zm-2.34-1,0-5.15a13.17,13.17,0,0,0-1.7.8c-.87.5-1.4,1.66-1.39,3.64s.35,2.63,1.44,2A11.86,11.86,0,0,0,212.77,122.18Z"/><path class="cls-54" d="M228,113.46l0,1.92A30.6,30.6,0,0,1,224.4,118c-2.63,1.53-3.75.71-3.77-2.81s1.27-6,3.81-7.52,3.8-.74,3.82,2.22l-.17,1.92-5.11,3c0,1.17.52,1.42,1.77.68C226.17,114.68,228,113.46,228,113.46Zm-2-2.37c0-1.59-.41-1.86-1.51-1.22a3,3,0,0,0-1.5,3Z"/><path class="cls-54" d="M236.6,108c0,.57.11.76.58.58l-.06,2a3.55,3.55,0,0,1-2.49.77,12.26,12.26,0,0,1-2.55,2.18c-1.82,1.07-2.7.44-2.71-1.64s1.11-3.5,3-4.78l1.86-1.24v-.61c0-.84-.34-.86-1-.46-1.15.67-3.27,2.07-3.27,2.07l-.08-1.78a26.61,26.61,0,0,1,3.52-2.63c2.26-1.32,3.17-.85,3.19,1.44Zm-3.92.79a1.94,1.94,0,0,0-1,1.67c0,.69.23,1,.86.66a13.58,13.58,0,0,0,1.7-1.31l0-2.1Z"/><path class="cls-54" d="M238.79,99.56l2.31-1.35v1a22.46,22.46,0,0,1,2.77-2.9l0,2.65c-1.53,1.23-2.76,2.44-2.76,2.44l0,6.56-2.33,1.36Z"/><path class="cls-54" d="M245.32,105.58l-.06-9.8,2.31-1.35V95a10.65,10.65,0,0,1,2.17-2c2.43-1.42,3.07-.06,3.09,2.93l0,5.31-2.33,1.36,0-5.23c0-1.49-.19-2.34-1.32-1.68a8.22,8.22,0,0,0-1.58,1.27l.05,7.33Z"/><path class="cls-55" d="M340.17,181.78l-22.18,6,8.19-12.43m0,0-10.25,6.11,2.06,6.32,11.93.13,8.64-5.15,1.61-1m-24.24-.34,14,6.45"/></g></g></svg>