<?xml version="1.0" encoding="utf-8"?>
<!-- Generator: Adobe Illustrator 21.0.0, SVG Export Plug-In . SVG Version: 6.00 Build 0)  -->
<svg version="1.1" id="Layer_1" xmlns="http://www.w3.org/2000/svg" xmlns:xlink="http://www.w3.org/1999/xlink" x="0px" y="0px"
	 viewBox="0 0 27 27.2" style="enable-background:new 0 0 27 27.2;" xml:space="preserve">
<style type="text/css">
	.st0{fill:#494949;}
</style>
<path id="circular-graph" class="st0" d="M23.4,12.8H26c-0.1-1.3-0.4-2.6-0.9-3.9l-2.3,1.3C23.1,11,23.3,11.9,23.4,12.8z M18.9,2.3
	c-1.3-0.6-2.6-1-4-1.1v2.6c0.9,0.1,1.8,0.4,2.7,0.8L18.9,2.3L18.9,2.3z M21.6,7.9l2.3-1.3c-0.8-1.2-1.7-2.2-2.8-3l-1.3,2.3
	C20.5,6.4,21.1,7.1,21.6,7.9L21.6,7.9z M13.5,23.4c-5.5,0-9.9-4.4-9.9-9.8c0-5,3.7-9.2,8.6-9.8V1.1C5.4,1.9,0.4,8,1.1,14.8
	S7.9,26.7,14.8,26c5.7-0.6,10.2-5,11.1-10.6h-2.6C22.4,20,18.3,23.4,13.5,23.4z"/>
</svg>
