<svg xmlns="http://www.w3.org/2000/svg" xmlns:xlink="http://www.w3.org/1999/xlink" viewBox="0 0 833.36 583.87"><defs><style>.cls-1{opacity:0.1;fill:url(#linear-gradient);}.cls-2{fill:#f9edff;}.cls-3{fill:url(#linear-gradient-2);}.cls-4{fill:url(#linear-gradient-3);}.cls-5{fill:#7500b2;}.cls-6{fill:url(#linear-gradient-4);}.cls-7{fill:url(#linear-gradient-5);}.cls-8{fill:url(#linear-gradient-6);}.cls-9{fill:url(#linear-gradient-7);}.cls-10{fill:url(#linear-gradient-8);}.cls-11{fill:url(#linear-gradient-9);}.cls-12{fill:url(#linear-gradient-10);}.cls-13{fill:#f2dad4;}.cls-14{fill:#192b59;}.cls-15{fill:url(#linear-gradient-11);}.cls-16{fill:url(#linear-gradient-12);}.cls-17,.cls-19{fill:#fff;}.cls-17{opacity:0.37;}.cls-18{fill:#220b3d;}.cls-20{fill:url(#linear-gradient-13);}.cls-21{fill:#e64d4e;}.cls-22{fill:url(#linear-gradient-14);}.cls-23{fill:url(#linear-gradient-15);}.cls-24{fill:url(#linear-gradient-16);}.cls-25{fill:url(#linear-gradient-17);}.cls-26{fill:url(#linear-gradient-18);}.cls-27{fill:url(#linear-gradient-19);}.cls-28{fill:url(#linear-gradient-20);}.cls-29{fill:url(#linear-gradient-21);}</style><linearGradient id="linear-gradient" x1="419.83" y1="536.49" x2="418.49" y2="489.46" gradientUnits="userSpaceOnUse"><stop offset="0" stop-color="#510394"/><stop offset="0.12" stop-color="#4a0388"/><stop offset="0.34" stop-color="#380367"/><stop offset="0.63" stop-color="#1b0433"/><stop offset="0.85" stop-color="#030408"/></linearGradient><linearGradient id="linear-gradient-2" x1="144.91" y1="429.63" x2="104.9" y2="459.64" gradientUnits="userSpaceOnUse"><stop offset="0" stop-color="#4e9cff"/><stop offset="1" stop-color="#176ad4"/></linearGradient><linearGradient id="linear-gradient-3" x1="86.24" y1="454.81" x2="79.9" y2="514.34" gradientUnits="userSpaceOnUse"><stop offset="0" stop-color="#f2be3c"/><stop offset="1" stop-color="#ffac00"/></linearGradient><linearGradient id="linear-gradient-4" x1="504.31" y1="415.92" x2="457.64" y2="450.92" gradientTransform="matrix(-1, 0, 0, 1, 1170.05, 0)" xlink:href="#linear-gradient-2"/><linearGradient id="linear-gradient-5" x1="435.87" y1="445.28" x2="428.48" y2="514.73" gradientTransform="matrix(-1, 0, 0, 1, 1170.05, 0)" xlink:href="#linear-gradient-3"/><linearGradient id="linear-gradient-6" x1="151.65" y1="442.09" x2="169.88" y2="432.06" gradientUnits="userSpaceOnUse"><stop offset="0" stop-color="#4e9cff"/><stop offset="0.99" stop-color="#176ad4"/></linearGradient><linearGradient id="linear-gradient-7" x1="220.6" y1="507.83" x2="219.41" y2="493.73" xlink:href="#linear-gradient-6"/><linearGradient id="linear-gradient-8" x1="233.31" y1="496.62" x2="208.61" y2="510.44" xlink:href="#linear-gradient-6"/><linearGradient id="linear-gradient-9" x1="187.63" y1="443.72" x2="139.32" y2="470.75" xlink:href="#linear-gradient-6"/><linearGradient id="linear-gradient-10" x1="220.38" y1="393.45" x2="230.98" y2="431.93" gradientUnits="userSpaceOnUse"><stop offset="0" stop-color="#f2bfad"/><stop offset="1" stop-color="#f2dad4"/></linearGradient><linearGradient id="linear-gradient-11" x1="262.13" y1="182.74" x2="189.42" y2="252.69" xlink:href="#linear-gradient-6"/><linearGradient id="linear-gradient-12" x1="428.72" y1="276.25" x2="664.28" y2="634.24" gradientUnits="userSpaceOnUse"><stop offset="0" stop-color="#510394"/><stop offset="0.14" stop-color="#4a0388"/><stop offset="0.4" stop-color="#380367"/><stop offset="0.75" stop-color="#1b0433"/><stop offset="1" stop-color="#030408"/></linearGradient><linearGradient id="linear-gradient-13" x1="226.25" y1="218.37" x2="158.68" y2="256.18" xlink:href="#linear-gradient-6"/><linearGradient id="linear-gradient-14" x1="208.68" y1="163.95" x2="229.05" y2="177.69" xlink:href="#linear-gradient-10"/><linearGradient id="linear-gradient-15" x1="648.65" y1="494.73" x2="636.59" y2="450.12" xlink:href="#linear-gradient-6"/><linearGradient id="linear-gradient-16" x1="607.34" y1="510.4" x2="621.79" y2="490.36" xlink:href="#linear-gradient-6"/><linearGradient id="linear-gradient-17" x1="649.33" y1="468.71" x2="607.72" y2="368.13" gradientUnits="userSpaceOnUse"><stop offset="0" stop-color="#1d0633"/><stop offset="0.53" stop-color="#1b1845"/><stop offset="1" stop-color="#192b59"/></linearGradient><linearGradient id="linear-gradient-18" x1="577.44" y1="197.75" x2="579.72" y2="255.3" xlink:href="#linear-gradient-6"/><linearGradient id="linear-gradient-19" x1="608.99" y1="200.36" x2="642.19" y2="295.69" xlink:href="#linear-gradient-6"/><linearGradient id="linear-gradient-20" x1="643.44" y1="151.55" x2="620.42" y2="176.66" xlink:href="#linear-gradient-10"/><linearGradient id="linear-gradient-21" x1="648.29" y1="206.18" x2="672.69" y2="263.17" xlink:href="#linear-gradient-6"/></defs><g id="Layer_2" data-name="Layer 2"><path class="cls-1" d="M813.27,515.9c0,8.26-176.41,15-394,15s-394-6.69-394-15S201.63,501,419.24,501,813.27,507.65,813.27,515.9Z"/><path class="cls-2" d="M164,421.54c81.36,16.52,106.53-92.81,217.39-107.6,129.09-17.21,183.86,119.15,272,88.25,98.9-34.67,168.8-255.06,113.33-336.07C698.84-33,502.83,163.61,147.52,156.79c-38.08-.73-96.33-4.15-115.39,33.85C2,250.59,74.64,403.39,164,421.54Z"/><path class="cls-3" d="M126.59,429.61c3.39.88,16.24.37,13.79-6-2.73-7.05-10-.89-13.14,3a86.86,86.86,0,0,0,1.33-16c2.31-2.78,7.19-20.4-2.42-19.53-12.59,1.14-1.44,17.83,1.46,19.73A80.83,80.83,0,0,1,125.5,430c-.39-4.45-4.82-17.08-10.71-12.62-8.54,6.46,7.8,14.26,10.28,14.13a24.46,24.46,0,0,1-3.1,6.78c-1,1.35-2,2.92-3.08,4.62l-.06.06c-.55-4.67-4.91-16.68-10.67-12.32-8,6,5.74,13.23,9.61,14.05A112.05,112.05,0,0,0,111,457.37c-.27-4.22-8.55-12.86-11.85-7.92-1.83,2.75,7.88,11.72,11.08,9.71-1.82,4.46-2.92,8.64-2.54,11.68.14,1.12.34,2.44.58,3.88-2.27-2.51-10.47-10.93-12.91-4.42-2,5.4,4.74,8.54,7.59,8.54,2.22,0,4.58-2.11,5.5-3,.14.78.27,1.58.41,2.39,1.15,6.65,2.52,14.64,2.12,19.45-1.94-3.75-10.59-19.39-15.62-9.33-2.58,5.15,4.74,9.48,7.59,10.42,2.33.78,6.5.08,7.93-.19a8.19,8.19,0,0,1-.33,1.47,56,56,0,0,1-5.63,11.26.48.48,0,0,0,.13.66.5.5,0,0,0,.26.08.47.47,0,0,0,.4-.22,62.43,62.43,0,0,0,4.81-9c2.23-.28,10.81-1.45,13.28-3.1,2.84-1.89,7.94-8.12,3.79-10.43-6.41-3.56-13.13,5.91-16.08,10.83,1.1-3.67.13-11-1-17.93,2.29.69,9.75-.64,12.35-2.38,2.85-1.89,7.75-6.8,4.74-9.48-7.53-6.69-15.5,7.5-17.25,10.9-.18-1.07-.37-2.13-.54-3.16-.48-2.75-.92-5.35-1.17-7.32-.35-2.83.7-6.89,2.58-11.45a28.71,28.71,0,0,0,12.12,1.08c6.63-1,10-6.11,7.58-8.53-4.11-4.11-16.27,4.41-19.41,6.73A104.13,104.13,0,0,1,119,444.46c3.86.9,19.27.57,17.18-5.55s-10-2-14.6,1.58c.38-.56.76-1.12,1.15-1.67A28.23,28.23,0,0,0,126.59,429.61Z"/><path class="cls-4" d="M99.13,488.32c-7.95-3.19-9.9,9-10.32,13a46.8,46.8,0,0,1-1.7-18.69c1.21,0,5.9-.25,9.18-1.89,3.79-1.89,6.13-9.49,2.84-10.43-5.52-1.57-10.38,8-11.86,11.26.13-.73.29-1.45.47-2.12a84.81,84.81,0,0,0,2.47-15.78,33.05,33.05,0,0,0,8-.94c2.84-1,7.65-8.37,3.79-9.48-5.33-1.52-10,6.12-11.7,9.19.32-5.86.08-11.5-.92-15.34A37.21,37.21,0,0,0,90.6,439c0-3.79-4.4-11.25-8.53-7.58-7.55,6.71,3.76,14.55,6.47,16.27.92,3.78,1.12,9.25.79,14.92-1.69-4.27-8.54-19.62-16.74-12.23-3.15,2.83,3.79,9.48,8.53,11.37a27.09,27.09,0,0,0,8.15,1.9,84.18,84.18,0,0,1-2.44,15.52,25.57,25.57,0,0,0-.54,2.5c-1.79-3.63-10.16-19.05-19.39-12.33-3.83,2.78,3.79,9.48,7.59,11.37,3.25,1.63,9.88,1.72,11.69,1.71a47.76,47.76,0,0,0,1.63,18.68c-2.78-4.21-10.93-15-17.12-8.06-3.67,4.13,5.84,7.63,8.54,8.53,2.37.79,7.45,1,9.06,1.08,1.35,4.07,3.19,7.45,5.33,9.23a.42.42,0,0,0,.3.12.45.45,0,0,0,.36-.18.46.46,0,0,0-.06-.66c-2-1.7-3.79-4.93-5.08-8.82a49.36,49.36,0,0,0,7.15-3.62C99.13,496.85,103.53,490.08,99.13,488.32Z"/><path class="cls-5" d="M119.51,512H76.38a.48.48,0,0,1-.47-.48.47.47,0,0,1,.47-.47h43.13a.47.47,0,0,1,.48.47A.48.48,0,0,1,119.51,512Z"/><path class="cls-5" d="M134.68,512h-10a.49.49,0,0,1-.48-.48.48.48,0,0,1,.48-.47h10a.48.48,0,0,1,.48.47A.49.49,0,0,1,134.68,512Z"/><path class="cls-6" d="M687.1,415.89c-4,1-18.94.42-16.08-7,3.19-8.22,11.68-1,15.32,3.52a102.24,102.24,0,0,1-1.55-18.64c-2.69-3.23-8.38-23.8,2.83-22.78,14.69,1.34,1.67,20.8-1.71,23,0,4.75.32,14.14,2.47,22.3.45-5.18,5.62-19.92,12.49-14.73,10,7.54-9.1,16.64-12,16.49A28.23,28.23,0,0,0,692.5,426c1.1,1.57,2.32,3.4,3.59,5.39l.06.07c.64-5.45,5.74-19.46,12.46-14.37,9.3,7-6.7,15.43-11.22,16.39a128.93,128.93,0,0,1,7.92,14.79c.32-4.93,10-15,13.82-9.24,2.15,3.21-9.19,13.68-12.92,11.33,2.13,5.21,3.41,10.07,3,13.62-.17,1.31-.41,2.85-.68,4.53,2.65-2.93,12.21-12.75,15.06-5.15,2.36,6.3-5.53,9.95-8.85,9.95-2.59,0-5.35-2.46-6.43-3.53-.15.91-.31,1.84-.47,2.79-1.34,7.75-2.94,17.08-2.47,22.69,2.26-4.38,12.35-22.62,18.22-10.89,3,6-5.53,11.06-8.85,12.16-2.72.91-7.59.1-9.25-.23a9.54,9.54,0,0,0,.38,1.72,65.15,65.15,0,0,0,6.57,13.14.54.54,0,0,1-.16.76.57.57,0,0,1-.3.1.54.54,0,0,1-.46-.25,71,71,0,0,1-5.61-10.52c-2.6-.33-12.62-1.69-15.5-3.61-3.31-2.21-9.25-9.48-4.42-12.16,7.48-4.16,15.32,6.89,18.76,12.63-1.28-4.29-.15-12.86,1.18-20.92-2.68.8-11.38-.75-14.41-2.77-3.32-2.21-9-7.94-5.53-11.06,8.79-7.82,18.08,8.74,20.13,12.71.21-1.25.42-2.49.63-3.69.55-3.21,1.07-6.24,1.36-8.54.41-3.29-.81-8-3-13.35a33.88,33.88,0,0,1-14.13,1.26c-7.74-1.11-11.67-7.14-8.85-9.95,4.8-4.8,19,5.14,22.64,7.85a122.64,122.64,0,0,0-8.79-16.44c-4.51,1.05-22.48.66-20.05-6.48s11.63-2.33,17,1.85c-.45-.65-.89-1.31-1.34-1.95A32.85,32.85,0,0,1,687.1,415.89Z"/><path class="cls-7" d="M719.13,484.37c9.29-3.71,11.56,10.49,12,15.15a54.6,54.6,0,0,0,2-21.79c-1.41,0-6.88-.29-10.71-2.21-4.42-2.21-7.15-11.07-3.32-12.16,6.45-1.84,12.12,9.33,13.84,13.13-.15-.86-.33-1.69-.55-2.48a98.83,98.83,0,0,1-2.87-18.4c-1.75,0-6.62-.2-9.31-1.1-3.32-1.1-8.93-9.77-4.42-11.06,6.21-1.77,11.71,7.15,13.64,10.73-.37-6.84-.09-13.42,1.07-17.9a44.19,44.19,0,0,1-1.44-9.41c0-4.43,5.13-13.13,9.95-8.85,8.8,7.83-4.39,17-7.55,19-1.07,4.42-1.31,10.79-.93,17.4,2-5,10-22.88,19.54-14.26,3.67,3.3-4.43,11.05-10,13.27a31.5,31.5,0,0,1-9.51,2.21,98.41,98.41,0,0,0,2.85,18.1,27.31,27.31,0,0,1,.62,2.92c2.1-4.23,11.85-22.22,22.62-14.39,4.47,3.26-4.42,11.06-8.84,13.27-3.8,1.9-11.53,2-13.64,2a56.08,56.08,0,0,1-1.91,21.8c3.25-4.92,12.75-17.53,20-9.41,4.28,4.82-6.81,8.9-9.95,10-2.77.92-8.7,1.2-10.58,1.27-1.57,4.75-3.71,8.69-6.21,10.77a.58.58,0,0,1-.35.13.55.55,0,0,1-.36-1c2.38-2,4.43-5.75,5.93-10.29a56.58,56.58,0,0,1-8.34-4.22C719.13,494.32,714,486.42,719.13,484.37Z"/><path class="cls-5" d="M695.36,512h50.31a.56.56,0,1,0,0-1.11H695.36a.56.56,0,0,0,0,1.11Z"/><path class="cls-5" d="M677.67,512h11.61a.56.56,0,0,0,0-1.11H677.67a.56.56,0,1,0,0,1.11Z"/><path class="cls-8" d="M167.2,430a46.37,46.37,0,0,1-6,6.23c-2,1.56-4.94,3.17-5.15,4.13a1.48,1.48,0,0,0,1.29,1.83c.75,0,3.7-2.74,5.58-3.54s3.92-1,4.51-1.88S167.2,430,167.2,430Z"/><path class="cls-9" d="M218.7,512.67h2.82s.43-6.56,1-8.38-5-11.41-4.75-10.35C218.31,496.07,218.45,508.43,218.7,512.67Z"/><path class="cls-10" d="M223.49,474.64c-2.33,2.54-7.76,9.58-7.3,13.25A32.94,32.94,0,0,0,220,498.71c1.2,1.75,2.45,5.94,3.08,8.21s-.72,9.91,1.79,11.94,13.68,1.4,15.76.92,3-1.88,3-3.14-2-9.29-3.47-11.17-2-2.67-3-4S223.49,474.64,223.49,474.64Z"/><path class="cls-11" d="M182.67,426.17c-1.34-1.42-4.35-2.73-8.31-2s-7.22,2.3-7.61,5.23-.32,11.09-2.62,14.89-8.95,10.11-7.94,15,8.9,19.2,13.19,20.93,6.85-3.69,6.55-7.14,0-9.81,0-12.72S182.67,426.17,182.67,426.17Z"/><path class="cls-12" d="M223.54,414.83c.48,4.67.6,31.65.6,35.13s-.83,20.76-.83,22.51-1.12,4.88-1.12,6.25-.56,14.87,0,16.8.37,11,3.75,12.68,9.68,1.75,11.18,1.5,3.12-1.62,3.18-2.12-2.56-5.25-2.43-7.31-.75-11.56-.13-16.74,2.56-21.43,3.75-26,7.59-31.63,8.13-41.26.54-16.73-.94-18.61S223.54,414.83,223.54,414.83Z"/><path class="cls-13" d="M220.87,379.52c1.14,2.29,4.8,8.24,4.17,9.39s-15.35,5-18.27,8.15-20.13,23.15-21.53,25.56-2.18,3-3.11,2.88-6.62,2.95-7.63,6.3-5.37,11.28-7.62,14.47-4.06,10.35-1.47,13.78,6.37,6.91,8.48,5.88,2.16-4.27,3.38-6.13,11.89-20.59,16.07-24S216.19,422,220.15,420s28.15-13.8,31.25-19.76.72-15.33,0-17.87-1-7.15-2.14-7.39S220.87,379.52,220.87,379.52Z"/><path class="cls-14" d="M197,263.22c-2.26,7.58-10.8,27.73-9.35,49.17s12.25,65.77,15,67.22,30.79,2.09,41.59-.81,17.25-4,19.67-11,4.19-24.82,4.83-37.4,6.45-37.4,1.13-47.55-10-27.73-15.66-31.44S197,263.22,197,263.22Z"/><path class="cls-15" d="M235.3,169.38c3.39,0,7.81.61,9.51,2.17s4.41,8.08,5.36,8.36,30,12.08,37.89,24.37-.92,20.5-3.13,20.39-23.39-10.09-24.72-7.76-6.83,8.53-6.15,19,10.18,27.52,7.57,27.93-43.15-2.32-49.72-1.37S196.84,266,196,264.8s-18.77-81.31-15.68-84.1,17.79-7.51,21.76-8.54S235.3,169.38,235.3,169.38Z"/><path class="cls-16" d="M567.74,167l-148.5-35.77L270.75,167s-15.45,147.21,17.7,213.5S399.53,514.91,419.24,514.91,516.89,446.83,550,380.53,567.74,167,567.74,167Z"/><path class="cls-17" d="M419.24,493c-4.84,0-12.41-3.59-22.51-10.66a271.63,271.63,0,0,1-31.94-27c-26.47-25.68-49-55.19-61.94-81C290.69,350,284.35,311,284,258.44c-.24-39,3.11-71.37,3.14-71.7a2.62,2.62,0,0,1,2-2.27l129.48-31.19a2.84,2.84,0,0,1,1.23,0l129.47,31.19a2.63,2.63,0,0,1,2,2.27c0,.33,3.37,32.69,3.13,71.7C554.13,311,547.8,350,535.63,374.35c-12.89,25.78-35.47,55.29-61.93,81a272.47,272.47,0,0,1-31.95,27C431.65,489.38,424.08,493,419.24,493Zm-127-303.84c-.69,7.35-3.14,35.88-2.93,69.33.33,51,6.65,90.28,18.28,113.55,12.64,25.27,34.84,54.27,60.9,79.55,24.48,23.74,44.09,36.17,50.8,36.17s26.33-12.43,50.81-36.17c26.06-25.28,48.26-54.28,60.89-79.55,11.64-23.27,18-62.54,18.28-113.55.21-33.45-2.23-62-2.93-69.33l-127-30.61Z"/><path class="cls-18" d="M453.6,371H408.7a6.76,6.76,0,0,1-6.65-7.91l9-51.94a41.32,41.32,0,1,1,40.16,0l9,51.94A6.75,6.75,0,0,1,453.6,371Zm-36.87-13.51h28.84L437,308.39a6.76,6.76,0,0,1,4.2-7.45,27.82,27.82,0,1,0-20.18,0,6.76,6.76,0,0,1,4.2,7.45Z"/><path class="cls-19" d="M441.69,361.94h-44.9a6.76,6.76,0,0,1-6.65-7.91l9-51.94a41.32,41.32,0,1,1,40.16,0l9,51.94a6.75,6.75,0,0,1-6.65,7.91Zm-36.87-13.51h28.84l-8.53-49.09a6.76,6.76,0,0,1,4.2-7.45,27.81,27.81,0,1,0-20.18,0,6.76,6.76,0,0,1,4.2,7.45Z"/><path class="cls-13" d="M252.75,255.44c1.84.7,4.47-.54,5.76-.79a53.09,53.09,0,0,1,11.46.74c2.23.65,8.71.79,10.21,2.65s1,3.83-.39,3.83a24.14,24.14,0,0,1-5.84-.76c-1-.44-1.38-.63-1.41-.25s5.31,1.95,6.63,2a77,77,0,0,1,12.35,3.45c2.18,1,4.17,2.56,3.16,3.64s-3.3-.1-3,.14.46,1.92-.38,1.92-8-.42-7.74,0,.49,1.32-.75,1.47-14.41-1.64-17.41-2.46-8.06-3-10.19-3.33-4.58.24-5.89-1.35S252.75,255.44,252.75,255.44Z"/><path class="cls-20" d="M253.62,255.21c1.56,1.67-.18,11.24-2.18,12.42s-3.35,2.18-8.16,0-29.38-3.9-38.72-7S186,253.4,183.34,244.06s-17.91-55.51-3-63.36c7.65-4,17.63,38.9,18.52,46.31s1,13.93,10.82,15.86S250.42,251.79,253.62,255.21Z"/><path class="cls-21" d="M212.5,112.12c-3.74.52-13.85,3.61-16.09,14.24a188.61,188.61,0,0,0-3.8,25.75c-.2,4.68-3.42,21.64-2.93,26.13s-4.39,28.28-2.24,38.91,13,29.74,25.06,25.65,1.37-39.92,1.58-50.83,1-23.09,3.29-25.33,14.18.26,17.16,2.24,6.36.48,8.16,1.72c3.56,2.42,6.64,8.36,6.64,8.36.13-3.47-.3-9.37-.54-13.67-.36-6.73-1.91-31.44-10.14-43.14s-14.49-12.46-18-12.67S215,111.78,212.5,112.12Z"/><path class="cls-22" d="M236.66,163.36c0,1.8-.37,5.95,0,7.26s2.37,5.41,1.92,7.67-6.68,20.81-7.32,20.7-7.72-17-9.46-18.66a10.89,10.89,0,0,1-3.28-5.86c-.21-1.8-3.27-1.11-3.48-2.06s-1.6-16.14-.6-20.71S236.66,163.36,236.66,163.36Z"/><path class="cls-13" d="M214.37,153.22C215.09,155,226,167,236.79,164.68c8.18-1.73,4.74-10.44,7.36-19.2,1-3.38-.15-8.62-2.83-13.06s-8.61-16.34-15-16.38c-2.83,0-1.66,9-4.46,16.61C219,140.42,212.46,148.52,214.37,153.22Z"/><path class="cls-13" d="M288.13,159.6c-1.47.18-4.5.57-5,1.87a2.57,2.57,0,0,0,1.24,2.81c.39,0,4.3-1,4.3-1A30.29,30.29,0,0,0,289,168c.33,1.41,1.17,2.37,2.07,2.22s1.3-1,1.58-1.11.17,2,1.6,2,2-1.27,2.18-1.28,2.06-.14,2.63-1.56.64-2.21,1-2.33a7.72,7.72,0,0,0,2.47-3.48c.37-1.44,1.16-2.88,1.56-3l3.9-.92a17.72,17.72,0,0,1-1.42-2.68c-.29-.89-1.64-1.37-2.77-1.26s-2-1.43-2.84-1.6-2.88.95-3.55.63-.86-1-2-.64-1.07,1.21-2,1.42-3.74.36-4.36,1.26A13.42,13.42,0,0,0,288.13,159.6Z"/><path class="cls-23" d="M639.38,437.31c1.47-.29,3.6-.57,5,0s1.19.95,2.28,1.09,3.69.14,4.64,2.94-1.61,15.87-2.46,15.82-2.47-.71-2.61,0-1,8.47-.15,11.52,1.46,11,.05,15.86-5.48,16.69-8.92,16-4.61-1-5.14-4.46,0-12.61-.25-14.94-2.12-9.26-2.13-10.91C629.61,460.37,639.38,437.31,639.38,437.31Z"/><path class="cls-24" d="M604.28,489.65c-1.55,3.82-4.46,18.08-4.58,19.66s-1.56,6.41.44,9.52,17.56.31,19.52-1.22a8.89,8.89,0,0,0,3.6-7.08c0-3.17-.49-9.94-1.59-12.63s-1-4.94-2.32-6.83-5.31-3.24-8.18-3.17A24,24,0,0,0,604.28,489.65Z"/><path class="cls-25" d="M576.07,292.09c-1.22,5-5.28,20.73-4.33,30.35s-2.68,46.64.33,62.68,9.74,28.54,13.94,32.63,27.1,25.77,29.42,26.66,17.81,16.92,20.57,14,6.2-9.73,6.2-12.16,1.32-7.08-.78-8.74S607.81,400.91,605.21,395s-3.18-15.61-.58-20.67,10.72-31.82,11.13-36.95,4.48-44.44,4-48.29S576.07,292.09,576.07,292.09Z"/><path class="cls-14" d="M643.5,285.21c2.71,10.2,6.87,32.68,6,42.26s-7.58,73.6-8,82-7.67,48.64-10.62,60.15-6.4,26.6-8.9,25.83-5.12-5.65-10-5.76-7.84,2.94-8.93.11-.21-22,2-30,10.12-61.66,9.56-67.6-1.91-25.1-4.15-35.86-11.15-60.48-10.2-65.54S643.5,285.21,643.5,285.21Z"/><path class="cls-13" d="M564.81,278.48c-.3,2,.06,6.55,0,9s-1.63,7.7-1,11.6,6.74,14.85,7.82,14.85,5-2.91,6.13-4,2.56-3,2.82-2.86,3.26,3.9,4.11,4.38a2.46,2.46,0,0,0,3.12-.08,2,2,0,0,0,.52-2.41c-.15-.51-6.12-7.93-6.79-9a19,19,0,0,0-4.11-4.26c-1-.52-3.33-1.95-3.17-2.87s3.5-13,3.5-14-2.47-4.25-5.05-4.33S565.29,275.12,564.81,278.48Z"/><path class="cls-26" d="M588.57,176.34c-5.9,1.77-9.52,16.52-10.51,21.69s-3.48,28.38-5.51,32.85-5.33,20.48-6.57,27.48-2.29,21.52-1.46,21.83,1.09-5.44,6.36-4.09,5.91,4.47,7.4,3.37,9.25-32.38,11.83-42.18S597.39,173.68,588.57,176.34Z"/><path class="cls-27" d="M616.92,167.13c-2.09-1.42-5.52.75-6.86,2.05s-9.43,3.83-11.79,3.44-10.76,2.63-12.75,7.37-1.9,18-.58,22.36,4,15.45,2.54,22.39-3.51,29.4-5.7,35.37-6.42,26.63-6.58,29.81a25.62,25.62,0,0,0-.24,4.19c0,.23.61.65,1.37,1,.46.24,1.5,1,1.88,1.2,2.13,1.31,6,.18,7.44.55,1.92.49,14.78,1.83,24.59,1.49s25.67-1.9,31.4-4.7,8-7.54,8-10.75,4-8.24,4.61-13.27,2.52-23.65,6.58-34.3,12.11-44.51,9.52-50.39S647.84,168.43,642.74,168,616.92,167.13,616.92,167.13Z"/><path class="cls-21" d="M614.19,120.84a22.45,22.45,0,0,1,2.12-6.5c.75-1.15-1.37-2.45-1.26-3.6s5.13-6.6,11.34-8.38,16.43-3.23,23.51,1.93,5.19,9.51,6.29,11.16,3.26,14.59.87,18.94-9.81,11.31-10.78,14.28-2.08,5.59-3.08,5.59-13.27-2.12-17-7.28S614.19,120.84,614.19,120.84Z"/><path class="cls-28" d="M616.15,161.39c0,.88.07,4.76-.33,5.34s-3,1.39-3.16,4-.33,9.14,1.74,11.83,3.92,5.68,5,5.64,14.37-10.36,18.36-13.42,8-5.36,8-6-3.37-2.62-3.29-4.66.35-10.08,1.1-12.24,2.86-4.47,3.1-5.18-8.23-.44-10.47,1S616.15,161.39,616.15,161.39Z"/><path class="cls-13" d="M618,115.56a17.48,17.48,0,0,0-5.13,7.78c-.22,1.29-2.44,2.65-2.37,3.58s1.07,4.38,0,6.24a12.39,12.39,0,0,0-1.79,8.32,121.88,121.88,0,0,1,1.5,12.2c0,2.31-.46,6.68,2.52,7.67s9.55,4,13.14,3S638.6,148.83,640,148.89s6.69-.53,8.75-3.48a9.39,9.39,0,0,0,1.68-8c-.63-2-2.53-1.58-3.84-.79s-3.75,1.21-4.27,2.27a65.06,65.06,0,0,0-2.74,6.22c0,.42-1.53.52-1.48-.32s2.32-6.07,2.32-8.08-.08-5.5-1.77-6.57-4-3-1.84-4.74,2.48-3.63.42-4.84S622,112.56,618,115.56Z"/><path class="cls-13" d="M648.07,282.8A117.36,117.36,0,0,1,638,292.64c-2.53,2.08-6.14,6.35-7.16,6.5s-4,.46-7.05.86a25.12,25.12,0,0,0-7.06,2.39,42,42,0,0,1-7.82,2.23c-1.17,0-2.34-.05-2.64,1.53s3.05,3,5,2.94,4.51-1.47,5.58-1.52,2.54-.46,2.69.15-.91,1.47-.86,2.54,3.05,5.33,9.54,6.24,10.16-.1,11.63-2.18,2.74-7.41,5-9.29,14-9.9,14.47-11,.25-9.09-2.24-10S648.07,282.8,648.07,282.8Z"/><path class="cls-29" d="M670.31,185c-4.43-1-6.62,5-8.84,8.58s-7.26,30.84-5.8,36.88,5.31,24.88,5.41,26.33,1.1,5.34-.15,8.06-10.88,13.57-12.32,15.4-1.49,3.39-1.08,3.31a9.77,9.77,0,0,1,7.82,3.86c3.09,3.93,3,8.28,3.46,8S679.2,279.14,682,269.43s2.1-24.75,1.72-32.36-1.81-25.13-3.43-32.56S674.83,186,670.31,185Z"/></g></svg>