<svg xmlns="http://www.w3.org/2000/svg" xmlns:xlink="http://www.w3.org/1999/xlink" viewBox="0 0 130.98 126.93"><defs><style>.cls-1{isolation:isolate;}.cls-2,.cls-3{opacity:0.2;mix-blend-mode:multiply;}.cls-2{fill:url(#radial-gradient);}.cls-4{fill:#c1cdd9;opacity:0;}.cls-5{fill:#c0cbd7;opacity:0.03;}.cls-6{fill:#becad6;opacity:0.06;}.cls-7{fill:#bdc8d4;opacity:0.09;}.cls-8{fill:#bbc7d3;opacity:0.12;}.cls-9{fill:#bac5d1;opacity:0.15;}.cls-10{fill:#b9c4cf;opacity:0.18;}.cls-11{fill:#b7c2ce;opacity:0.21;}.cls-12{fill:#b6c1cc;opacity:0.24;}.cls-13{fill:#b4bfcb;opacity:0.26;}.cls-14{fill:#b3bec9;opacity:0.29;}.cls-15{fill:#b1bcc8;opacity:0.32;}.cls-16{fill:#b0bbc6;opacity:0.35;}.cls-17{fill:#afb9c4;opacity:0.38;}.cls-18{fill:#adb8c3;opacity:0.41;}.cls-19{fill:#acb6c1;opacity:0.44;}.cls-20{fill:#aab5c0;opacity:0.47;}.cls-21{fill:#a9b3be;opacity:0.5;}.cls-22{fill:#a8b2bc;opacity:0.53;}.cls-23{fill:#a6b1bb;opacity:0.56;}.cls-24{fill:#a5afb9;opacity:0.59;}.cls-25{fill:#a3aeb8;opacity:0.62;}.cls-26{fill:#a2acb6;opacity:0.65;}.cls-27{fill:#a1abb4;opacity:0.68;}.cls-28{fill:#9fa9b3;opacity:0.71;}.cls-29{fill:#9ea8b1;opacity:0.74;}.cls-30{fill:#9ca6b0;opacity:0.76;}.cls-31{fill:#9ba5ae;opacity:0.79;}.cls-32{fill:#99a3ad;opacity:0.82;}.cls-33{fill:#98a2ab;opacity:0.85;}.cls-34{fill:#97a0a9;opacity:0.88;}.cls-35{fill:#959fa8;opacity:0.91;}.cls-36{fill:#949da6;opacity:0.94;}.cls-37{fill:#929ca5;opacity:0.97;}.cls-38{fill:#919aa3;}.cls-39{fill:#5f5f5f;}</style><radialGradient id="radial-gradient" cx="65.12" cy="653.07" r="53.88" gradientTransform="translate(0 -159.79) scale(1 0.38)" gradientUnits="userSpaceOnUse"><stop offset="0" stop-color="#6e757d"/><stop offset="0.2" stop-color="#969ba1"/><stop offset="0.45" stop-color="#c3c6c9"/><stop offset="0.68" stop-color="#e4e5e7"/><stop offset="0.87" stop-color="#f8f8f9"/><stop offset="1" stop-color="#fff"/></radialGradient></defs><title>Artboard 6 copy 2stex7</title><g class="cls-1"><g id="Ñëîé_1" data-name="Ñëîé 1"><g id="_2" data-name="2"><g id="_14" data-name="14"><ellipse class="cls-2" cx="65.12" cy="90.8" rx="53.88" ry="20.67"/><g class="cls-3"><path class="cls-4" d="M9.92,70v32.31c0,3.47,2.57,6,5.25,5.23L43,99.18l27.78-8.31c4.41-1.32,4.37-9.24,0-10.48L42.9,72.55,15.11,64.71C12.45,64,9.92,66.52,9.92,70Z"/><path class="cls-5" d="M15.84,65c-2.58-.73-5,1.93-5,5.27v32.22a6.17,6.17,0,0,0,.09,1c.48,2.85,2.92,4.75,5.27,4L44,99.27l28.12-8.34c4.27-1.28,3.86-9-.42-10.25L44,72.89Z"/><path class="cls-6" d="M16.57,65.34c-2.5-.7-4.89,2.06-4.89,5.3v32.14a5,5,0,0,0,.12,1c.51,2.75,3.07,4.55,5.35,3.87l28-8.26L73.56,91c4.14-1.24,3.37-8.85-.78-10L45,73.24Z"/><path class="cls-7" d="M17.3,65.66C14.87,65,12.57,67.85,12.57,71V103a4.64,4.64,0,0,0,.13,1c.55,2.66,3.23,4.35,5.43,3.69l28.06-8.23L75,91.06c4-1.2,2.88-8.66-1.14-9.8L46.11,73.58Z"/><path class="cls-8" d="M18,66c-2.35-.66-4.58,2.32-4.58,5.36v32a4.5,4.5,0,0,0,.15,1,4.69,4.69,0,0,0,5.52,3.5l28.15-8.2,29.11-8.43c3.89-1.16,2.39-8.47-1.51-9.57L47.18,73.93Z"/><path class="cls-9" d="M18.76,66.29c-2.27-.64-4.43,2.44-4.43,5.38v31.88a3.67,3.67,0,0,0,.17.94,4.84,4.84,0,0,0,5.61,3.33l28.25-8.18,29.43-8.45c3.76-1.13,1.9-8.29-1.87-9.35L48.25,74.27Z"/><path class="cls-10" d="M19.49,66.6C17.3,66,15.21,69.18,15.21,72v31.8a3.47,3.47,0,0,0,.19.93,5,5,0,0,0,5.7,3.14l28.34-8.14L79.2,91.25c3.63-1.08,1.41-8.09-2.23-9.12L49.33,74.61Z"/><path class="cls-11" d="M20.22,66.92c-2.12-.6-4.13,2.7-4.13,5.43v31.72a2.89,2.89,0,0,0,.22.91c.7,2.26,3.86,3.54,5.78,3l28.43-8.12,30.1-8.51c3.49-1,.91-7.91-2.6-8.9L50.4,75Z"/><path class="cls-12" d="M21,67.24c-2-.58-4,2.82-4,5.45v31.63a1.88,1.88,0,0,0,.23.91c.33,2.25,4,3.33,5.87,2.78L51.6,99.92,82,91.38c3.36-1,.41-7.71-3-8.66L51.47,75.3Z"/><path class="cls-13" d="M21.68,67.55c-2-.55-3.82,3-3.82,5.49v31.54a1.65,1.65,0,0,0,.25.89c.32,2.17,4.18,3.14,5.95,2.6l28.62-8,30.76-8.57c3.24-1-.08-7.53-3.32-8.44L52.54,75.65Z"/><path class="cls-14" d="M22.41,67.87c-1.88-.54-3.67,3.08-3.67,5.51v31.46a1.58,1.58,0,0,0,.27.88c.31,2.08,4.34,2.93,6,2.42l28.71-8,31.09-8.6c3.11-.93-.57-7.33-3.69-8.21L53.61,76Z"/><path class="cls-15" d="M23.14,68.18c-1.8-.51-3.52,3.21-3.52,5.54v31.37a1.39,1.39,0,0,0,.3.87c.29,2,4.49,2.73,6.12,2.24l28.8-8,31.42-8.62c3-.9-1.06-7.15-4.05-8L54.68,76.33Z"/><path class="cls-16" d="M23.87,68.5c-1.73-.49-3.36,3.33-3.36,5.56v31.29a1.29,1.29,0,0,0,.31.86c.28,1.9,4.65,2.52,6.21,2.06l28.89-8,31.75-8.65c2.85-.85-1.55-7-4.41-7.76l-27.51-7.2Z"/><path class="cls-17" d="M24.6,68.81c-1.65-.46-3.21,3.47-3.21,5.59v31.21a1.16,1.16,0,0,0,.33.84c.27,1.82,4.81,2.33,6.3,1.88l29-7.94,32.09-8.68c2.72-.82-2-6.77-4.78-7.54L56.83,77Z"/><path class="cls-18" d="M25.33,69.13c-1.57-.45-3.06,3.59-3.06,5.61v31.13a1.13,1.13,0,0,0,.35.83c.26,1.73,5,2.12,6.39,1.69l29.07-7.91L90.5,91.77C93.09,91,88,85.2,85.36,84.46L57.9,77.37Z"/><path class="cls-19" d="M26.06,69.44c-1.49-.42-2.91,3.72-2.91,5.65v31a1,1,0,0,0,.37.82c.25,1.65,5.12,1.92,6.47,1.52l29.17-7.89,32.75-8.74c2.46-.73-3-6.38-5.5-7.08L59,77.71Z"/><path class="cls-20" d="M26.79,69.76C25.38,69.36,24,73.6,24,75.43v30.95a1,1,0,0,0,.39.81c.23,1.56,5.27,1.71,6.55,1.33l29.26-7.86L93.32,91.9c2.33-.7-3.53-6.2-5.86-6.85L60,78.05Z"/><path class="cls-21" d="M27.52,70.07c-1.34-.37-2.6,4-2.6,5.7v30.87a.9.9,0,0,0,.41.79c.22,1.48,5.43,1.52,6.64,1.16l29.35-7.83L94.73,92c2.2-.66-4-6-6.23-6.62L61.11,78.4Z"/><path class="cls-22" d="M28.25,70.39C27,70,25.8,74.49,25.8,76.11v30.78a.9.9,0,0,0,.43.79c.21,1.38,5.59,1.31,6.73,1l29.45-7.8L96.14,92c2.08-.62-4.51-5.82-6.59-6.4L62.18,78.74Z"/><path class="cls-23" d="M29,70.7c-1.18-.33-2.3,4.23-2.3,5.75v30.7a.84.84,0,0,0,.45.77c.2,1.3,5.75,1.11,6.82.79l29.54-7.77,34.07-8.85c1.94-.58-5-5.62-7-6.17L63.25,79.09Z"/><path class="cls-24" d="M29.7,71c-1.09-.31-2.13,4.36-2.13,5.77v30.62a.79.79,0,0,0,.47.76c.17,1.21,5.9.91,6.9.61L64.57,101,99,92.16c1.81-.55-5.5-5.44-7.32-6L64.33,79.43Z"/><path class="cls-25" d="M30.43,71.33c-1-.29-2,4.49-2,5.8v30.54a.74.74,0,0,0,.49.74c.16,1.13,6.06.71,7,.43l29.73-7.71,34.73-8.91c1.68-.5-6-5.24-7.68-5.72L65.4,79.77Z"/><path class="cls-26" d="M31.16,71.65c-.94-.27-1.83,4.61-1.83,5.83v30.44a.75.75,0,0,0,.51.74c.15,1,6.22.5,7.07.25l29.82-7.69,35.06-8.93c1.55-.47-6.48-5.06-8-5.5L66.47,80.12Z"/><path class="cls-27" d="M31.89,72c-.86-.24-1.68,4.74-1.68,5.86v30.36a.71.71,0,0,0,.53.72c.14,1,6.38.3,7.16.07l29.91-7.66,35.39-9c1.43-.43-7-4.86-8.4-5.27L67.54,80.46Z"/><path class="cls-28" d="M32.62,72.28c-.78-.22-1.53,4.87-1.53,5.88v30.28a.7.7,0,0,0,.55.71c.13.86,6.54.1,7.25-.12l30-7.63,35.72-9c1.3-.39-7.47-4.68-8.77-5L68.61,80.81Z"/><path class="cls-29" d="M33.35,72.59c-.7-.2-1.37,5-1.37,5.91v30.19a.67.67,0,0,0,.57.7c.11.78,6.69-.1,7.33-.29L70,101.5l36.06-9c1.16-.35-8-4.48-9.14-4.81L69.68,81.15Z"/><path class="cls-30" d="M34.08,72.91c-.63-.18-1.22,5.12-1.22,5.93V109a.67.67,0,0,0,.59.69c.1.69,6.85-.31,7.42-.48l30.18-7.57,36.39-9c1-.31-8.46-4.3-9.5-4.59L70.75,81.49Z"/><path class="cls-31" d="M34.81,73.22c-.55-.15-1.07,5.26-1.07,6v30a.65.65,0,0,0,.61.67c.09.61,7-.51,7.5-.65l30.28-7.55,36.72-9.07c.91-.27-8.95-4.1-9.86-4.36L71.82,81.84Z"/><path class="cls-32" d="M35.54,73.54c-.47-.13-.92,5.38-.92,6v29.93a.64.64,0,0,0,.63.67c.08.52,7.17-.71,7.59-.84l30.37-7.52,37.05-9.1c.78-.23-9.44-3.91-10.22-4.13L72.9,82.18Z"/><path class="cls-33" d="M36.27,73.85c-.39-.11-.76,5.51-.76,6v29.85a.62.62,0,0,0,.64.65c.07.44,7.33-.91,7.68-1l30.46-7.48,37.38-9.13c.65-.19-9.93-3.73-10.58-3.91L74,82.53Z"/><path class="cls-34" d="M37,74.17c-.31-.09-.61,5.63-.61,6V110a.62.62,0,0,0,.67.64c0,.34,7.47-1.12,7.76-1.2L75.38,102l37.7-9.16c.52-.15-10.43-3.53-11-3.68L75,82.87Z"/><path class="cls-35" d="M37.73,74.48c-.24-.06-.46,5.77-.46,6.07v29.69a.62.62,0,0,0,.69.62c0,.26,7.63-1.31,7.85-1.38l30.65-7.43,38-9.18c.38-.12-10.93-3.35-11.32-3.46l-27.07-6.2Z"/><path class="cls-36" d="M38.46,74.8c-.16,0-.31,5.89-.31,6.09v29.6a.62.62,0,0,0,.71.62c0,.17,7.79-1.52,7.94-1.56l30.74-7.41,38.37-9.21c.26-.07-11.42-3.15-11.68-3.23l-27-6.14Z"/><path class="cls-37" d="M39.19,75.11c-.08,0-.15,6-.15,6.12v29.52a.6.6,0,0,0,.72.6c0,.09,8-1.72,8-1.74l30.84-7.37L117.32,93c.13,0-11.91-3-12-3l-27-6.1Z"/><path class="cls-38" d="M39.92,75.43V111a.61.61,0,0,0,.75.59l39-9.27,39-9.27L79.32,84.25Z"/></g><path class="cls-39" d="M118.45,92.72h0L116,92.19a.25.25,0,0,1-.19-.3.25.25,0,0,1,.3-.19l2.36.52a.25.25,0,0,1,.19.3A.26.26,0,0,1,118.45,92.72Zm-5.29-1.17h0l-2.93-.64a.25.25,0,0,1-.19-.3.25.25,0,0,1,.3-.19l2.93.65a.25.25,0,0,1,.19.29A.26.26,0,0,1,113.16,91.55Zm-5.86-1.29h0l-2.93-.64a.25.25,0,0,1-.19-.3.25.25,0,0,1,.3-.19l2.93.64a.25.25,0,0,1-.06.5ZM101.44,89h0l-2.93-.64a.25.25,0,0,1-.19-.3.25.25,0,0,1,.3-.19l2.93.64a.25.25,0,0,1-.06.5Zm-5.86-1.29h0L92.6,87a.26.26,0,0,1-.19-.3.25.25,0,0,1,.3-.19l2.93.64a.25.25,0,0,1-.06.5Zm-5.86-1.29h0l-2.93-.64a.26.26,0,0,1-.19-.3.25.25,0,0,1,.3-.19l2.93.64a.25.25,0,0,1-.06.5ZM83.86,85.1h0l-2.93-.64a.26.26,0,0,1-.19-.3A.25.25,0,0,1,81,84l2.93.64a.25.25,0,0,1-.06.5ZM78,83.81H78L75,83.15a.24.24,0,0,1-.19-.29.25.25,0,0,1,.3-.19l2.93.64a.25.25,0,0,1,0,.5Zm-5.86-1.3h-.06l-2.93-.65a.25.25,0,1,1,.11-.48L72.2,82a.25.25,0,0,1,.19.3A.24.24,0,0,1,72.15,82.51Zm-5.86-1.29h-.06l-2.93-.65a.25.25,0,1,1,.11-.48l2.93.64a.25.25,0,0,1,.19.3A.24.24,0,0,1,66.29,81.22Zm-5.86-1.29h-.06l-2.93-.65a.25.25,0,0,1-.19-.3.26.26,0,0,1,.3-.19l2.93.65a.25.25,0,0,1,0,.49Zm-5.86-1.29h-.06L51.58,78a.25.25,0,0,1,.11-.49l2.93.65a.25.25,0,0,1,0,.49Zm-5.86-1.29h-.06l-2.93-.65a.25.25,0,0,1-.19-.3.27.27,0,0,1,.3-.19l2.93.65a.25.25,0,0,1,0,.49Zm-5.86-1.29h-.06l-2.93-.65a.25.25,0,0,1-.19-.3.26.26,0,0,1,.3-.19l2.93.65a.25.25,0,0,1,0,.49Z"/><path class="cls-39" d="M39.92,112h-.08a.51.51,0,0,1-.42-.5V75.17a.48.48,0,0,1,.06-.24L64.68,28.5a.5.5,0,0,1,.92.39L40.4,111.66A.5.5,0,0,1,39.92,112Zm.5-36.72v32.86L63.2,33.32Z"/><path class="cls-39" d="M39.92,112a.51.51,0,0,1-.37-.15.52.52,0,0,1-.11-.49l25.2-82.78a.51.51,0,0,1,.38-.34.49.49,0,0,1,.48.17l53.61,64.06a.49.49,0,0,1,.1.48.52.52,0,0,1-.36.33L40,112ZM65.33,29.77,40.65,110.83,117.83,92.5Z"/></g></g></g></g></svg>