<svg xmlns="http://www.w3.org/2000/svg" viewBox="0 0 3647 3647" width="600" height="600">
	<style>
		tspan { white-space:pre }
		.shp0 { opacity: 0.251;fill: #95fcfc } 
		.shp1 { fill: #cacafc } 
		.shp2 { fill: #00d0ca } 
		.shp3 { opacity: 0.502;mix-blend-mode: overlay;fill: #b2bbf9 } 
		.shp4 { fill: #ffffff } 
		.shp5 { fill: #303dcf } 
		.shp6 { fill: #ffe1e4 } 
		.shp7 { fill: #fcb0b5 } 
		.shp8 { fill: #ffb200 } 
		.shp9 { fill: #d57241 } 
		.shp10 { fill: #efb614 } 
		.shp11 { fill: #c96539 } 
		.shp12 { fill: #b1b1fc } 
		.shp13 { fill: #6c5af2 } 
		.shp14 { fill: #e2900c } 
		.shp15 { fill: #7272fa } 
		.shp16 { mix-blend-mode: overlay;fill: #7272fa } 
	</style>
	<g id="Layer">
		<g id="Layer_1">
			<g id="Layer">
				<path id="Layer" fill-rule="evenodd" class="shp0" d="M2954.54 3228.92C2954.54 3492.23 2741.09 3705.69 2477.77 3705.69C2214.45 3705.69 2000.99 3492.23 2000.99 3228.92C2000.99 2965.61 2214.45 2752.15 2477.77 2752.15C2741.08 2752.15 2954.54 2965.61 2954.54 3228.92ZM2191.84 3228.92C2191.84 3386.58 2320.11 3514.84 2477.77 3514.84C2635.43 3514.84 2763.69 3386.57 2763.69 3228.92C2763.69 3071.27 2635.43 2943 2477.77 2943C2320.11 2943 2191.84 3071.26 2191.84 3228.92Z" />
				<path id="Layer" fill-rule="evenodd" class="shp0" d="M1259.17 2983.45C1522.49 2983.45 1735.94 3196.92 1735.94 3460.23C1735.94 3723.54 1522.48 3937 1259.17 3937C995.86 3937 782.4 3723.52 782.4 3460.2C782.4 3196.88 995.86 2983.42 1259.17 2983.42L1259.17 2983.45ZM973.25 3460.2C973.25 3617.86 1101.51 3746.12 1259.17 3746.12C1416.83 3746.12 1545.1 3617.86 1545.1 3460.2C1545.1 3302.54 1416.83 3174.27 1259.17 3174.27C1101.51 3174.27 973.25 3302.54 973.25 3460.2Z" />
				<path id="Layer" class="shp1" d="M2917 3760C3015.18 3636.65 2994.7 3456.41 2871.35 3358.23C2748 3260.05 2567.76 3280.53 2469.58 3403.89C2420.13 3466.01 2399.05 3543.54 2410.21 3622.2L2221.26 3649.02C2203.49 3523.8 2235.26 3391.8 2320.26 3285.02C2484.26 3079.02 2784.19 3044.92 2990.2 3208.9C3196.21 3372.88 3230.31 3672.83 3066.33 3878.85L3066.33 3878.85L2917 3760Z" />
				<path id="Layer" class="shp1" d="M2027.09 3108.67C2020.19 2951.17 1886.43 2828.67 1728.92 2835.54C1571.41 2842.41 1448.92 2976.2 1455.79 3133.7C1459.27 3213.03 1494.26 3285.36 1554.31 3337.37L1429.37 3481.64C1333.76 3398.83 1271.1 3278.39 1265.13 3142.06C1253.6 2879 1457.51 2656.4 1720.57 2644.87C1983.63 2633.34 2206.23 2837.26 2217.76 3100.32L2217.76 3100.32L2027.09 3108.67Z" />
				<path id="Layer" class="shp1" d="M1003.29 3873.77C1114.38 3761.9 1113.74 3580.5 1001.87 3469.42C890 3358.34 708.6 3359 597.52 3470.84C541.57 3527.19 512.13 3601.95 514.62 3681.36L323.87 3687.36C319.87 3560.95 365.94 3433.22 462.09 3336.36C647.62 3149.51 949.5 3148.45 1136.34 3333.98C1323.18 3519.51 1324.25 3821.39 1138.72 4008.24L1138.72 4008.24L1003.29 3873.77Z" />
			</g>
			<path id="Layer" class="shp2" d="M1401.2 3196.44L1860.95 3196.44L1860.95 3638.12L1401.2 3638.12L1401.2 3196.44Z" />
			<path id="Layer" class="shp2" d="M990.61 3354.8L1429.27 3354.8L1429.27 3638.12L990.61 3638.12L990.61 3354.8Z" />
			<path id="Layer" class="shp2" d="M1833.91 3038.43L2452.1 3038.43L2452.1 3638.12L1833.91 3638.12L1833.91 3038.43Z" />
			<path id="Layer" class="shp3" d="M1833.91 3038.43L2004.15 3038.43L2004.15 3196.45L1833.91 3196.45L1833.91 3038.43Z" />
			<path id="Layer" class="shp3" d="M1401.2 3196.44L1571.44 3196.44L1571.44 3354.46L1401.2 3354.46L1401.2 3196.44Z" />
			<path id="Layer" class="shp3" d="M990.61 3352.55L1160.85 3352.55L1160.85 3638.72L990.61 3638.72L990.61 3352.55Z" />
			<path id="Layer" class="shp4" d="M1840.67 1262.57C1840.28 1273.57 1851.39 1315.79 1851.39 1315.79C1851.39 1315.79 1857.39 1269.07 1856.58 1261.79C1854.51 1247.31 1841.06 1251.59 1840.67 1262.54L1840.67 1262.57Z" />
			<path id="Layer" class="shp0" d="M1936.26 1290.36C1928.44 1298.01 1906.07 1335.51 1906.07 1335.51C1906.07 1335.51 1943.44 1307.32 1948.17 1301.17C1956.74 1289.84 1944.58 1283.17 1936.26 1290.36L1936.26 1290.36Z" />
			<path id="Layer" class="shp0" d="M1956.36 1473.38C1948.69 1465.55 1911.19 1443.19 1911.19 1443.19C1911.19 1443.19 1939.39 1480.56 1945.53 1485.29C1956.88 1493.85 1963.53 1481.29 1956.36 1473.38L1956.36 1473.38Z" />
			<path id="Layer" class="shp0" d="M1868.91 1521.26C1869.31 1510.26 1858.15 1467.59 1858.15 1467.59C1858.15 1467.59 1852.15 1514.31 1853.01 1522.02C1855.01 1536.5 1868.51 1532.2 1868.91 1521.26Z" />
			<path id="Layer" class="shp5" d="M1773.28 1493C1781.14 1485.78 1803.48 1447.84 1803.48 1447.84C1803.48 1447.84 1766.13 1476.49 1761.4 1482.63C1752.84 1493.97 1764.99 1500.63 1773.28 1493L1773.28 1493Z" />
			<path id="Layer" class="shp5" d="M1725.42 1406C1736.37 1406.4 1779.12 1395.25 1779.12 1395.25C1779.12 1395.25 1731.92 1389.25 1724.66 1390.1C1710.2 1392.1 1714.48 1405.61 1725.42 1406Z" />
			<path id="Layer" class="shp4" d="M1753.21 1310.44C1760.88 1318.28 1798.38 1340.63 1798.38 1340.63C1798.38 1340.63 1770.18 1303.26 1764.04 1298.55C1752.69 1289.98 1746.04 1302.14 1753.21 1310.44L1753.21 1310.44Z" />
			<path id="Layer" class="shp0" d="M1807.84 1300.1C1810.5 1308.17 1830.53 1336.82 1830.53 1336.82C1830.53 1336.82 1821.96 1300.35 1819.43 1295C1813.94 1284.79 1805.15 1291.58 1807.84 1300.1L1807.84 1300.1Z" />
			<path id="Layer" class="shp0" d="M1886.32 1293.65C1882.6 1301.57 1876.96 1335.99 1876.96 1335.99C1876.96 1335.99 1896.39 1304.09 1897.96 1298.1C1901.55 1287.46 1890.53 1285.7 1886.36 1293.65L1886.32 1293.65Z" />
			<path id="Layer" class="shp0" d="M1946.61 1345C1938.53 1347.66 1909.88 1367.7 1909.88 1367.7C1909.88 1367.7 1946.37 1359.13 1951.71 1356.59C1961.9 1350.65 1955.13 1342.31 1946.61 1345L1946.61 1345Z" />
			<path id="Layer" class="shp0" d="M1953.07 1423.44C1945.15 1419.73 1910.72 1414.07 1910.72 1414.07C1910.72 1414.07 1942.62 1433.51 1948.6 1435.07C1959.26 1438.65 1961 1427.64 1953.07 1423.46L1953.07 1423.44Z" />
			<path id="Layer" class="shp0" d="M1901.74 1483.73C1899.07 1475.65 1879.03 1447 1879.03 1447C1879.03 1447 1887.61 1483.48 1890.14 1488.83C1895.63 1499.03 1904.41 1491.83 1901.74 1483.73L1901.74 1483.73Z" />
			<path id="Layer" class="shp6" d="M1823.25 1490.19C1826.97 1482.26 1832.63 1447.84 1832.63 1447.84C1832.63 1447.84 1813.18 1479.73 1811.17 1485.29C1808.06 1496.37 1819.06 1497.67 1823.25 1490.19L1823.25 1490.19Z" />
			<path id="Layer" class="shp0" d="M1756.49 1360.38C1764.42 1364.1 1798.85 1369.75 1798.85 1369.75C1798.85 1369.75 1766.96 1350.33 1760.94 1348.33C1750.31 1345.2 1748.56 1356.2 1756.49 1360.38L1756.49 1360.38Z" />
			<path id="Layer" class="shp5" d="M1945 1070.9C1933.48 1096.9 1918.72 1207.85 1918.72 1207.85C1918.72 1207.85 1978.4 1103.01 1982.97 1084.12C1992.2 1048.12 1956.54 1045.31 1944.97 1070.9L1945 1070.9Z" />
			<path id="Layer" class="shp5" d="M2145.12 1228.5C2119.19 1238.85 2029.97 1306.85 2029.97 1306.85C2029.97 1306.85 2146.42 1274.9 2162.8 1265.02C2194.68 1246.19 2171.51 1218.6 2145.12 1228.5Z" />
			<path id="Layer" class="shp0" d="M2175.85 1482.07C2149.79 1470.55 2038.42 1455.81 2038.42 1455.81C2038.42 1455.81 2143.73 1515.48 2162.17 1520.06C2198.59 1529.27 2201.42 1493.15 2175.85 1482.06L2175.85 1482.07Z" />
			<path id="Layer" class="shp0" d="M2018.21 1682.21C2007.86 1656.28 1939.41 1567.1 1939.41 1567.1C1939.41 1567.1 1971.81 1683.49 1981.71 1699.87C2000.52 1731.76 2028.11 1708.6 2018.21 1682.21Z" />
			<path id="Layer" class="shp0" d="M1764.61 1712.94C1776.13 1686.88 1790.87 1575.52 1790.87 1575.52C1790.87 1575.52 1731.2 1680.83 1726.62 1699.26C1717.39 1735.26 1753.08 1738.52 1764.62 1712.94L1764.61 1712.94Z" />
			<path id="Layer" class="shp0" d="M1564.46 1555.32C1590.38 1544.97 1679.6 1476.51 1679.6 1476.51C1679.6 1476.51 1563.17 1508.93 1546.79 1518.82C1514.89 1537.64 1538.06 1565.22 1564.46 1555.32L1564.46 1555.32Z" />
			<path id="Layer" class="shp5" d="M1533.72 1301.76C1559.78 1313.27 1671.15 1328.01 1671.15 1328.01C1671.15 1328.01 1565.84 1268.35 1546.95 1263.78C1510.95 1254.57 1508.13 1290.22 1533.72 1301.78L1533.72 1301.76Z" />
			<path id="Layer" class="shp0" d="M1691.34 1101.17C1701.71 1127.54 1770.18 1216.74 1770.18 1216.74C1770.18 1216.74 1737.76 1100.33 1727.87 1083.95C1709.04 1052.06 1681.46 1075.23 1691.34 1101.17Z" />
			<path id="Layer" class="shp0" d="M1830.65 1128.7C1829.44 1151.08 1849.95 1237.54 1849.95 1237.54C1849.95 1237.54 1864.56 1142.54 1862.49 1127.64C1859.27 1098.2 1831.86 1106.33 1830.65 1128.7L1830.65 1128.7Z" />
			<path id="Layer" class="shp0" d="M2023.89 1188.73C2007.3 1203.64 1960.36 1279.64 1960.36 1279.64C1960.36 1279.64 2037.8 1222.64 2047.26 1210.85C2065.26 1187.67 2040.5 1173.85 2023.89 1188.73L2023.89 1188.73Z" />
			<path id="Layer" class="shp4" d="M2118 1367.78C2095.61 1366.57 2009.14 1387.08 2009.14 1387.08C2009.14 1387.08 2103.67 1401.71 2119.04 1399.61C2148.04 1396.41 2140.37 1369 2118.04 1367.78L2118 1367.78Z" />
			<path id="Layer" class="shp0" d="M2058 1561C2043.09 1544.39 1967.07 1497.47 1967.07 1497.47C1967.07 1497.47 2024.07 1574.9 2035.88 1584.36C2059.05 1602.36 2072.88 1577.6 2058 1561L2058 1561Z" />
			<path id="Layer" class="shp0" d="M1878.92 1655.13C1880.13 1632.75 1859.62 1546.29 1859.62 1546.29C1859.62 1546.29 1844.99 1640.81 1846.62 1656.21C1850.27 1685.21 1877.7 1677.5 1878.91 1655.13L1878.92 1655.13Z" />
			<path id="Layer" class="shp0" d="M1685.67 1595.09C1702.28 1580.19 1749.22 1504.18 1749.22 1504.18C1749.22 1504.18 1671.77 1561.18 1662.3 1572.98C1644.3 1596.14 1669.08 1609.98 1685.67 1595.09L1685.67 1595.09Z" />
			<path id="Layer" class="shp4" d="M1591.55 1416C1613.92 1417.22 1700.39 1396.71 1700.39 1396.71C1700.39 1396.71 1605.39 1382.1 1590.45 1383.71C1561.45 1387.37 1569.16 1414.79 1591.55 1415.99L1591.55 1416Z" />
			<path id="Layer" class="shp4" d="M1651.59 1222.83C1666.49 1239.43 1742.49 1285.91 1742.49 1285.91C1742.49 1285.91 1685.49 1208.91 1673.7 1199.46C1650.51 1180.99 1636.7 1206.23 1651.59 1222.83L1651.59 1222.83Z" />
			<path id="Layer" class="shp4" d="M1874.6 1181.26C1870.41 1198.26 1873.8 1269.64 1873.8 1269.64C1873.8 1269.64 1899.03 1196.95 1899.8 1185.07C1901.4 1161.31 1878.8 1163.75 1874.57 1181.26L1874.6 1181.26Z" />
			<path id="Layer" class="shp0" d="M2018 1256.87C2002.49 1265.81 1954.46 1319.09 1954.46 1319.09C1954.46 1319.09 2023.9 1285.28 2033.11 1277.56C2050.59 1262.15 2033.04 1247.5 2018 1256.87L2018 1256.87Z" />
			<path id="Layer" class="shp0" d="M2065.46 1411.73C2048.41 1407.52 1977.07 1410.91 1977.07 1410.91C1977.07 1410.91 2049.32 1436.17 2061.66 1436.91C2085.41 1438.51 2082.97 1415.91 2065.46 1411.69L2065.46 1411.73Z" />
			<path id="Layer" class="shp0" d="M1989.82 1554.67C1980.45 1539.67 1927.61 1491.6 1927.61 1491.6C1927.61 1491.6 1960.98 1561.05 1969.15 1570.23C1984.56 1587.72 1999.22 1570.17 1989.82 1554.67Z" />
			<path id="Layer" class="shp0" d="M1835 1602.56C1839.21 1585.56 1835.82 1514.18 1835.82 1514.18C1835.82 1514.18 1810.56 1586.42 1809.82 1598.76C1808.2 1622.05 1830.82 1620.07 1835.04 1602.56L1835 1602.56Z" />
			<path id="Layer" class="shp0" d="M1691.55 1527C1707.04 1517.6 1755.09 1464.77 1755.09 1464.77C1755.09 1464.77 1685.63 1498.13 1676.44 1506.3C1658.96 1521.71 1676.5 1536.36 1691.55 1527L1691.55 1527Z" />
			<path id="Layer" class="shp0" d="M1644.11 1372.1C1661.16 1376.3 1732.51 1372.91 1732.51 1372.91C1732.51 1372.91 1660.25 1347.66 1647.91 1346.91C1624.16 1345.3 1626.61 1367.91 1644.11 1372.13L1644.11 1372.1Z" />
			<path id="Layer" class="shp0" d="M1719.73 1228.7C1729.12 1244.19 1781.95 1292.23 1781.95 1292.23C1781.95 1292.23 1748.58 1222.77 1740.41 1213.59C1725.01 1196.11 1710.36 1213.66 1719.73 1228.7L1719.73 1228.7Z" />
			<path id="Layer" class="shp5" d="M1789.63 1194.86C1792.72 1212.02 1823.93 1274.75 1823.93 1274.75C1823.93 1274.75 1818.09 1199.89 1813.93 1188.75C1806.52 1166.75 1787 1177.75 1789.64 1194.91L1789.63 1194.86Z" />
			<path id="Layer" class="shp5" d="M1948.24 1206.9C1937.97 1221.05 1915.62 1287.24 1915.62 1287.24C1915.62 1287.24 1964.84 1230.24 1969.79 1219.54C1979.72 1198.54 1958.03 1192.32 1948.24 1206.9L1948.24 1206.9Z" />
			<path id="Layer" class="shp0" d="M2051.86 1326.76C2034.25 1329.87 1971.96 1361.07 1971.96 1361.07C1971.96 1361.07 2046.83 1355.23 2058.03 1351.07C2079.96 1343.2 2069.03 1323.68 2051.86 1326.78L2051.86 1326.76Z" />
			<path id="Layer" class="shp0" d="M2039.83 1485.35C2025.67 1475.09 1959.47 1452.75 1959.47 1452.75C1959.47 1452.75 2016.47 1501.95 2027.18 1506.9C2048.18 1516.83 2054.39 1495.14 2039.83 1485.35L2039.83 1485.35Z" />
			<path id="Layer" class="shp0" d="M1919.94 1589C1916.83 1571.38 1885.62 1509.11 1885.62 1509.11C1885.62 1509.11 1891.48 1583.96 1895.62 1595.16C1903.03 1617.11 1922.55 1606.16 1919.91 1589L1919.94 1589Z" />
			<path id="Layer" class="shp0" d="M1761.33 1576.93C1771.6 1562.77 1793.94 1496.59 1793.94 1496.59C1793.94 1496.59 1744.73 1553.59 1739.79 1564.29C1729.79 1585.29 1751.54 1591.49 1761.33 1576.93L1761.33 1576.93Z" />
			<path id="Layer" class="shp0" d="M1657.7 1457.06C1675.32 1453.95 1737.61 1422.77 1737.61 1422.77C1737.61 1422.77 1662.74 1428.6 1651.53 1432.32C1629.53 1440.19 1640.53 1459.7 1657.7 1457.06L1657.7 1457.06Z" />
			<path id="Layer" class="shp5" d="M1669.75 1298.48C1683.9 1308.73 1750.1 1331.08 1750.1 1331.08C1750.1 1331.08 1693.1 1281.88 1682.39 1276.93C1661.39 1266.99 1655.17 1288.69 1669.75 1298.48L1669.75 1298.48Z" />
			<path id="Layer" class="shp7" d="M1986.54 1160C1987.56 1159.94 1988.57 1160.08 1989.53 1160.42C1990.5 1160.76 1991.38 1161.28 1992.13 1161.97C1992.89 1162.65 1993.5 1163.48 1993.93 1164.4C1994.36 1165.32 1994.6 1166.32 1994.64 1167.34C1994.66 1168.35 1994.48 1169.35 1994.12 1170.29C1993.77 1171.24 1993.24 1172.1 1992.56 1172.85C1991.88 1173.59 1991.07 1174.21 1990.16 1174.65C1989.26 1175.09 1988.27 1175.36 1987.27 1175.44C1986.25 1175.5 1985.24 1175.35 1984.28 1175.01C1983.32 1174.67 1982.44 1174.14 1981.69 1173.45C1980.93 1172.77 1980.33 1171.94 1979.9 1171.02C1979.47 1170.1 1979.23 1169.1 1979.19 1168.08C1979.09 1167.06 1979.21 1166.02 1979.54 1165.05C1979.86 1164.07 1980.39 1163.17 1981.08 1162.41C1981.77 1161.65 1982.61 1161.05 1983.55 1160.63C1984.49 1160.21 1985.51 1160 1986.54 1160Z" />
			<path id="Layer" class="shp4" d="M2117.52 1328.19C2118.54 1328.09 2119.58 1328.21 2120.55 1328.54C2121.53 1328.87 2122.43 1329.39 2123.19 1330.08C2123.95 1330.78 2124.56 1331.62 2124.98 1332.56C2125.39 1333.5 2125.61 1334.52 2125.61 1335.55C2125.67 1336.57 2125.52 1337.58 2125.18 1338.54C2124.84 1339.5 2124.31 1340.38 2123.63 1341.13C2122.94 1341.89 2122.12 1342.5 2121.2 1342.93C2120.27 1343.36 2119.28 1343.6 2118.26 1343.64C2117.25 1343.66 2116.25 1343.48 2115.31 1343.13C2114.36 1342.77 2113.49 1342.24 2112.75 1341.57C2112 1340.89 2111.39 1340.08 2110.95 1339.17C2110.5 1338.27 2110.23 1337.28 2110.15 1336.28C2110.09 1335.26 2110.24 1334.24 2110.58 1333.28C2110.92 1332.32 2111.45 1331.44 2112.14 1330.69C2112.82 1329.94 2113.65 1329.33 2114.58 1328.9C2115.5 1328.47 2116.5 1328.23 2117.52 1328.19L2117.52 1328.19Z" />
			<path id="Layer" class="shp4" d="M2064.64 1193.17C2069.18 1192.96 2072.53 1196.44 2072.75 1200.98C2072.81 1202 2072.66 1203.01 2072.32 1203.97C2071.98 1204.93 2071.45 1205.81 2070.77 1206.57C2070.09 1207.32 2069.26 1207.93 2068.34 1208.36C2067.42 1208.79 2066.42 1209.04 2065.4 1209.08C2064.39 1209.1 2063.39 1208.92 2062.45 1208.57C2061.51 1208.21 2060.64 1207.68 2059.89 1207C2059.15 1206.32 2058.54 1205.51 2058.09 1204.61C2057.65 1203.7 2057.38 1202.72 2057.3 1201.72C2057.23 1200.68 2057.37 1199.64 2057.7 1198.65C2058.03 1197.66 2058.55 1196.74 2059.23 1195.95C2059.91 1195.16 2060.74 1194.51 2061.66 1194.03C2062.59 1193.55 2063.6 1193.26 2064.64 1193.17L2064.64 1193.17Z" />
			<path id="Layer" class="shp7" d="M1542 1341.43C1544.03 1341.37 1546 1342.11 1547.49 1343.48C1548.98 1344.86 1549.87 1346.77 1549.97 1348.8C1550.06 1350.82 1549.36 1352.81 1548.01 1354.32C1546.66 1355.84 1544.77 1356.76 1542.74 1356.89C1540.67 1357.02 1538.63 1356.32 1537.08 1354.94C1535.53 1353.56 1534.6 1351.61 1534.51 1349.54C1534.41 1347.46 1535.14 1345.44 1536.55 1343.91C1537.96 1342.39 1539.93 1341.49 1542 1341.43L1542 1341.43Z" />
			<path id="Layer" class="shp4" d="M1706.4 1168.77C1707.42 1168.71 1708.43 1168.86 1709.39 1169.2C1710.35 1169.54 1711.23 1170.06 1711.99 1170.75C1712.74 1171.43 1713.35 1172.26 1713.78 1173.18C1714.21 1174.1 1714.45 1175.1 1714.49 1176.12C1714.5 1177.13 1714.33 1178.12 1713.97 1179.07C1713.62 1180.01 1713.09 1180.87 1712.41 1181.62C1711.74 1182.36 1710.93 1182.97 1710.02 1183.41C1709.12 1183.86 1708.14 1184.13 1707.14 1184.21C1706.12 1184.27 1705.11 1184.12 1704.15 1183.78C1703.19 1183.44 1702.3 1182.91 1701.55 1182.23C1700.8 1181.54 1700.19 1180.71 1699.76 1179.79C1699.33 1178.87 1699.09 1177.87 1699.05 1176.85C1698.95 1175.83 1699.07 1174.79 1699.4 1173.82C1699.72 1172.84 1700.25 1171.95 1700.94 1171.19C1701.63 1170.43 1702.48 1169.82 1703.42 1169.4C1704.36 1168.99 1705.37 1168.77 1706.4 1168.77Z" />
			<path id="Layer" class="shp4" d="M1782.09 1065C1783.1 1064.99 1784.09 1065.16 1785.03 1065.52C1785.97 1065.88 1786.84 1066.41 1787.58 1067.09C1788.33 1067.76 1788.94 1068.57 1789.38 1069.48C1789.82 1070.38 1790.09 1071.36 1790.17 1072.36C1790.26 1074.41 1789.54 1076.41 1788.16 1077.93C1786.78 1079.44 1784.86 1080.35 1782.81 1080.45C1780.76 1080.54 1778.76 1079.82 1777.24 1078.44C1775.73 1077.06 1774.82 1075.14 1774.72 1073.09C1774.71 1072.08 1774.88 1071.08 1775.24 1070.14C1775.6 1069.2 1776.13 1068.33 1776.81 1067.59C1777.48 1066.84 1778.3 1066.23 1779.2 1065.79C1780.11 1065.35 1781.09 1065.08 1782.09 1065L1782.09 1065Z" />
			<path id="Layer" class="shp7" d="M1755.56 1434.52C1756.57 1434.51 1757.56 1434.68 1758.5 1435.04C1759.44 1435.4 1760.31 1435.93 1761.05 1436.61C1761.8 1437.28 1762.41 1438.09 1762.85 1439C1763.29 1439.9 1763.56 1440.88 1763.64 1441.88C1763.7 1442.9 1763.55 1443.91 1763.21 1444.87C1762.87 1445.83 1762.35 1446.71 1761.66 1447.47C1760.98 1448.22 1760.15 1448.83 1759.23 1449.26C1758.31 1449.69 1757.31 1449.93 1756.29 1449.97C1755.27 1450.07 1754.23 1449.95 1753.25 1449.62C1752.28 1449.3 1751.38 1448.77 1750.62 1448.08C1749.85 1447.39 1749.24 1446.55 1748.82 1445.61C1748.4 1444.67 1748.19 1443.65 1748.18 1442.62C1748.13 1441.6 1748.28 1440.58 1748.62 1439.62C1748.96 1438.66 1749.49 1437.78 1750.18 1437.03C1750.86 1436.27 1751.69 1435.66 1752.62 1435.23C1753.54 1434.8 1754.54 1434.56 1755.56 1434.52L1755.56 1434.52Z" />
			<path id="Layer" class="shp5" d="M1568.17 1474.05C1569.19 1473.95 1570.23 1474.07 1571.21 1474.39C1572.18 1474.72 1573.08 1475.24 1573.84 1475.94C1574.61 1476.63 1575.21 1477.47 1575.63 1478.41C1576.05 1479.35 1576.27 1480.37 1576.27 1481.4C1576.33 1482.42 1576.18 1483.44 1575.84 1484.4C1575.5 1485.36 1574.97 1486.24 1574.29 1487C1573.6 1487.75 1572.77 1488.36 1571.84 1488.79C1570.92 1489.22 1569.92 1489.46 1568.9 1489.5C1567.89 1489.51 1566.89 1489.34 1565.95 1488.98C1565.01 1488.62 1564.15 1488.09 1563.4 1487.41C1562.66 1486.73 1562.05 1485.92 1561.61 1485.02C1561.17 1484.11 1560.9 1483.13 1560.82 1482.13C1560.76 1481.11 1560.91 1480.1 1561.25 1479.14C1561.59 1478.18 1562.11 1477.3 1562.8 1476.55C1563.48 1475.79 1564.31 1475.19 1565.23 1474.76C1566.16 1474.33 1567.15 1474.09 1568.17 1474.05Z" />
			<path id="Layer" class="shp0" d="M1802 1675.18C1803.01 1675.16 1804.01 1675.34 1804.95 1675.69C1805.89 1676.05 1806.76 1676.58 1807.51 1677.26C1808.25 1677.94 1808.86 1678.75 1809.31 1679.65C1809.75 1680.56 1810.02 1681.54 1810.1 1682.54C1810.16 1683.56 1810.01 1684.57 1809.67 1685.53C1809.32 1686.49 1808.8 1687.37 1808.11 1688.12C1807.43 1688.87 1806.6 1689.48 1805.68 1689.91C1804.75 1690.34 1803.76 1690.58 1802.74 1690.62C1798.2 1690.84 1794.41 1687.83 1794.2 1683.29C1794.19 1682.25 1794.39 1681.22 1794.78 1680.25C1795.16 1679.28 1795.73 1678.4 1796.45 1677.65C1797.17 1676.9 1798.03 1676.3 1798.99 1675.87C1799.94 1675.45 1800.96 1675.21 1802 1675.18L1802 1675.18Z" />
			<path id="Layer" class="shp0" d="M2012.06 1439.19C2013.07 1439.18 2014.06 1439.35 2015.01 1439.71C2015.95 1440.06 2016.81 1440.59 2017.56 1441.27C2018.3 1441.94 2018.91 1442.75 2019.35 1443.66C2019.8 1444.56 2020.07 1445.54 2020.15 1446.54C2020.21 1447.56 2020.06 1448.57 2019.72 1449.53C2019.38 1450.49 2018.86 1451.38 2018.17 1452.13C2017.49 1452.88 2016.66 1453.49 2015.74 1453.93C2014.82 1454.36 2013.82 1454.6 2012.8 1454.64C2011.77 1454.73 2010.74 1454.61 2009.76 1454.29C2008.79 1453.96 2007.89 1453.43 2007.13 1452.74C2006.36 1452.05 2005.76 1451.2 2005.34 1450.26C2004.92 1449.32 2004.7 1448.3 2004.7 1447.27C2004.64 1446.25 2004.79 1445.24 2005.13 1444.28C2005.47 1443.32 2006 1442.44 2006.69 1441.69C2007.37 1440.93 2008.2 1440.33 2009.12 1439.9C2010.04 1439.47 2011.04 1439.23 2012.06 1439.19L2012.06 1439.19Z" />
			<path id="Layer" class="shp4" d="M1978.52 1377.83C1979.53 1377.82 1980.53 1377.99 1981.47 1378.35C1982.41 1378.71 1983.28 1379.24 1984.02 1379.92C1984.77 1380.59 1985.38 1381.41 1985.82 1382.31C1986.26 1383.22 1986.53 1384.2 1986.61 1385.2C1986.67 1386.22 1986.52 1387.23 1986.18 1388.19C1985.84 1389.15 1985.32 1390.03 1984.63 1390.78C1983.95 1391.54 1983.12 1392.14 1982.2 1392.57C1981.27 1393 1980.28 1393.24 1979.26 1393.28C1978.24 1393.38 1977.2 1393.26 1976.23 1392.94C1975.25 1392.61 1974.35 1392.09 1973.59 1391.4C1972.83 1390.71 1972.22 1389.86 1971.8 1388.92C1971.38 1387.99 1971.16 1386.97 1971.16 1385.94C1971.1 1384.92 1971.25 1383.9 1971.58 1382.94C1971.92 1381.98 1972.45 1381.09 1973.14 1380.34C1973.82 1379.58 1974.65 1378.97 1975.58 1378.54C1976.5 1378.11 1977.5 1377.87 1978.52 1377.83Z" />
			<path id="Layer" class="shp7" d="M1788.23 1127.08C1788.73 1127.04 1789.24 1127.1 1789.72 1127.25C1790.2 1127.4 1790.64 1127.64 1791.03 1127.96C1791.43 1128.28 1791.75 1128.66 1792 1129.1C1792.25 1129.54 1792.41 1130.02 1792.48 1130.52C1792.51 1131.06 1792.43 1131.59 1792.25 1132.1C1792.07 1132.61 1791.79 1133.07 1791.43 1133.47C1791.07 1133.87 1790.63 1134.19 1790.14 1134.42C1789.65 1134.65 1789.13 1134.78 1788.59 1134.8C1786.32 1134.9 1784.87 1133.15 1784.77 1130.88C1784.74 1130.4 1784.81 1129.92 1784.97 1129.47C1785.13 1129.02 1785.37 1128.6 1785.7 1128.25C1786.02 1127.89 1786.41 1127.61 1786.84 1127.41C1787.28 1127.21 1787.75 1127.1 1788.23 1127.08L1788.23 1127.08Z" />
			<path id="Layer" class="shp7" d="M2009.06 1125.69C2011.32 1125.58 2012.77 1127.33 2012.88 1129.6C2012.91 1130.08 2012.85 1130.56 2012.69 1131.01C2012.53 1131.46 2012.28 1131.88 2011.96 1132.23C2011.63 1132.59 2011.24 1132.88 2010.81 1133.08C2010.37 1133.28 2009.9 1133.39 2009.42 1133.4C2008.92 1133.44 2008.42 1133.38 2007.94 1133.23C2007.46 1133.08 2007.01 1132.84 2006.62 1132.52C2006.23 1132.21 2005.9 1131.82 2005.65 1131.38C2005.4 1130.95 2005.24 1130.47 2005.17 1129.97C2005.14 1129.43 2005.22 1128.9 2005.4 1128.39C2005.58 1127.88 2005.86 1127.42 2006.22 1127.02C2006.58 1126.62 2007.02 1126.3 2007.51 1126.07C2008 1125.84 2008.52 1125.71 2009.06 1125.69L2009.06 1125.69Z" />
			<path id="Layer" class="shp4" d="M2080.24 1157.37C2080.74 1157.33 2081.25 1157.39 2081.73 1157.54C2082.21 1157.69 2082.66 1157.93 2083.05 1158.25C2083.44 1158.56 2083.77 1158.95 2084.02 1159.39C2084.27 1159.83 2084.43 1160.31 2084.5 1160.81C2084.54 1161.88 2084.15 1162.93 2083.42 1163.72C2082.69 1164.51 2081.68 1164.99 2080.61 1165.04C2079.53 1165.09 2078.48 1164.71 2077.68 1164C2076.88 1163.28 2076.4 1162.27 2076.33 1161.2C2076.35 1160.7 2076.47 1160.2 2076.67 1159.74C2076.88 1159.28 2077.17 1158.86 2077.53 1158.51C2077.89 1158.16 2078.31 1157.88 2078.77 1157.68C2079.24 1157.49 2079.74 1157.38 2080.24 1157.37L2080.24 1157.37Z" />
			<path id="Layer" class="shp7" d="M2059 1246.72C2059.49 1246.65 2059.99 1246.69 2060.46 1246.83C2060.93 1246.98 2061.36 1247.23 2061.73 1247.56C2062.09 1247.89 2062.38 1248.3 2062.57 1248.75C2062.76 1249.21 2062.84 1249.7 2062.82 1250.19C2062.93 1252.46 2061.66 1254.34 2059.37 1254.45C2058.83 1254.48 2058.3 1254.4 2057.79 1254.22C2057.28 1254.04 2056.82 1253.76 2056.42 1253.4C2056.02 1253.04 2055.7 1252.6 2055.47 1252.11C2055.24 1251.62 2055.11 1251.1 2055.09 1250.56C2054.98 1248.28 2056.73 1246.83 2059 1246.72Z" />
			<path id="Layer" class="shp7" d="M2090.58 1231.1C2091.12 1231.07 2091.66 1231.15 2092.16 1231.33C2092.67 1231.51 2093.14 1231.79 2093.54 1232.16C2093.94 1232.52 2094.26 1232.96 2094.49 1233.44C2094.72 1233.93 2094.85 1234.46 2094.87 1235C2094.85 1235.5 2094.73 1236 2094.53 1236.46C2094.32 1236.92 2094.03 1237.34 2093.67 1237.7C2093.3 1238.05 2092.88 1238.33 2092.41 1238.52C2091.94 1238.72 2091.45 1238.82 2090.94 1238.83C2090.47 1238.82 2090.01 1238.73 2089.57 1238.55C2089.14 1238.38 2088.74 1238.13 2088.39 1237.81C2088.05 1237.5 2087.76 1237.12 2087.54 1236.7C2087.33 1236.29 2087.19 1235.84 2087.14 1235.37C2087.1 1234.87 2087.16 1234.36 2087.31 1233.88C2087.46 1233.4 2087.7 1232.95 2088.01 1232.55C2088.33 1232.16 2088.72 1231.83 2089.16 1231.58C2089.6 1231.33 2090.08 1231.17 2090.58 1231.1Z" />
			<path id="Layer" class="shp7" d="M2122.06 1299.29C2122.56 1299.31 2123.06 1299.43 2123.52 1299.63C2123.98 1299.84 2124.4 1300.13 2124.75 1300.49C2125.1 1300.85 2125.38 1301.27 2125.58 1301.73C2125.77 1302.2 2125.88 1302.7 2125.89 1303.2C2125.88 1303.67 2125.79 1304.13 2125.62 1304.57C2125.44 1305.01 2125.19 1305.41 2124.88 1305.76C2124.56 1306.1 2124.19 1306.39 2123.77 1306.61C2123.35 1306.82 2122.9 1306.96 2122.43 1307.01C2121.93 1307.05 2121.42 1306.99 2120.94 1306.84C2120.46 1306.69 2120.01 1306.45 2119.62 1306.13C2119.23 1305.82 2118.9 1305.43 2118.65 1304.99C2118.4 1304.55 2118.24 1304.07 2118.17 1303.57C2118.14 1303.03 2118.22 1302.5 2118.4 1301.99C2118.58 1301.48 2118.86 1301.02 2119.23 1300.62C2119.59 1300.22 2120.02 1299.9 2120.51 1299.67C2121 1299.44 2121.52 1299.31 2122.06 1299.29L2122.06 1299.29Z" />
			<path id="Layer" class="shp7" d="M2162.91 1334.69C2163.41 1334.65 2163.92 1334.71 2164.4 1334.85C2164.89 1335 2165.34 1335.24 2165.73 1335.56C2166.13 1335.88 2166.46 1336.27 2166.71 1336.71C2166.96 1337.15 2167.12 1337.63 2167.19 1338.13C2167.22 1338.67 2167.13 1339.21 2166.95 1339.71C2166.77 1340.22 2166.49 1340.69 2166.12 1341.09C2165.76 1341.48 2165.32 1341.81 2164.83 1342.03C2164.34 1342.26 2163.81 1342.39 2163.27 1342.41C2162.77 1342.39 2162.27 1342.27 2161.81 1342.06C2161.36 1341.86 2160.94 1341.57 2160.59 1341.21C2160.24 1340.85 2159.96 1340.43 2159.76 1339.96C2159.57 1339.5 2159.46 1339 2159.45 1338.5C2159.46 1338.03 2159.55 1337.57 2159.72 1337.13C2159.89 1336.69 2160.14 1336.29 2160.46 1335.94C2160.78 1335.59 2161.15 1335.31 2161.57 1335.09C2161.99 1334.88 2162.44 1334.74 2162.91 1334.69Z" />
			<path id="Layer" class="shp0" d="M2116.31 1427.52C2116.81 1427.48 2117.32 1427.54 2117.8 1427.69C2118.28 1427.84 2118.73 1428.08 2119.12 1428.4C2119.51 1428.71 2119.84 1429.1 2120.09 1429.54C2120.34 1429.98 2120.5 1430.46 2120.57 1430.96C2120.6 1431.5 2120.52 1432.03 2120.34 1432.54C2120.16 1433.05 2119.88 1433.51 2119.52 1433.91C2119.16 1434.31 2118.72 1434.63 2118.23 1434.86C2117.74 1435.09 2117.22 1435.22 2116.68 1435.24C2114.41 1435.35 2112.96 1433.6 2112.85 1431.33C2112.82 1430.85 2112.89 1430.37 2113.05 1429.92C2113.2 1429.47 2113.45 1429.05 2113.78 1428.69C2114.1 1428.34 2114.49 1428.05 2114.92 1427.85C2115.36 1427.65 2115.83 1427.54 2116.31 1427.52L2116.31 1427.52Z" />
			<path id="Layer" class="shp0" d="M2106 1446.51C2106.48 1446.48 2106.96 1446.55 2107.41 1446.71C2107.86 1446.86 2108.28 1447.11 2108.64 1447.44C2108.99 1447.76 2109.28 1448.15 2109.48 1448.58C2109.68 1449.02 2109.79 1449.49 2109.81 1449.97C2109.85 1450.47 2109.79 1450.98 2109.64 1451.46C2109.49 1451.94 2109.25 1452.39 2108.93 1452.78C2108.62 1453.17 2108.23 1453.5 2107.79 1453.75C2107.35 1454 2106.87 1454.16 2106.37 1454.23C2105.83 1454.26 2105.29 1454.18 2104.78 1454C2104.28 1453.82 2103.81 1453.54 2103.41 1453.18C2103.01 1452.82 2102.68 1452.38 2102.45 1451.89C2102.23 1451.41 2102.09 1450.88 2102.07 1450.34C2101.96 1448.07 2103.71 1446.62 2106 1446.51L2106 1446.51Z" />
			<path id="Layer" class="shp0" d="M2015.08 1597.2C2015.62 1597.17 2016.15 1597.25 2016.66 1597.43C2017.17 1597.61 2017.63 1597.89 2018.03 1598.25C2018.43 1598.61 2018.75 1599.05 2018.98 1599.54C2019.21 1600.03 2019.34 1600.55 2019.36 1601.09C2019.34 1601.59 2019.22 1602.09 2019.02 1602.55C2018.81 1603.01 2018.52 1603.43 2018.16 1603.78C2017.8 1604.13 2017.38 1604.41 2016.92 1604.61C2016.45 1604.8 2015.95 1604.91 2015.45 1604.92C2014.98 1604.91 2014.52 1604.82 2014.08 1604.64C2013.64 1604.47 2013.24 1604.22 2012.9 1603.91C2012.55 1603.59 2012.26 1603.21 2012.05 1602.8C2011.83 1602.38 2011.69 1601.93 2011.64 1601.46C2011.6 1600.96 2011.66 1600.45 2011.81 1599.97C2011.96 1599.49 2012.2 1599.04 2012.52 1598.65C2012.83 1598.26 2013.22 1597.93 2013.66 1597.68C2014.1 1597.43 2014.58 1597.27 2015.08 1597.2L2015.08 1597.2Z" />
			<path id="Layer" class="shp0" d="M2058.08 1479.45C2058.62 1479.42 2059.16 1479.5 2059.67 1479.68C2060.17 1479.86 2060.64 1480.14 2061.04 1480.5C2061.44 1480.86 2061.77 1481.3 2062 1481.79C2062.22 1482.27 2062.36 1482.8 2062.38 1483.34C2062.36 1483.84 2062.24 1484.34 2062.04 1484.8C2061.83 1485.26 2061.54 1485.68 2061.18 1486.04C2060.81 1486.39 2060.39 1486.67 2059.92 1486.86C2059.45 1487.06 2058.96 1487.16 2058.45 1487.17C2057.97 1487.2 2057.49 1487.14 2057.04 1486.98C2056.58 1486.82 2056.17 1486.57 2055.81 1486.25C2055.46 1485.92 2055.17 1485.53 2054.97 1485.1C2054.77 1484.66 2054.66 1484.19 2054.64 1483.71C2054.53 1481.44 2055.81 1479.56 2058.08 1479.45L2058.08 1479.45Z" />
			<path id="Layer" class="shp0" d="M1642.83 1519.2C1643.33 1519.22 1643.83 1519.34 1644.29 1519.55C1644.75 1519.75 1645.17 1520.05 1645.52 1520.41C1645.87 1520.77 1646.15 1521.19 1646.34 1521.66C1646.54 1522.13 1646.64 1522.63 1646.65 1523.13C1646.68 1523.61 1646.61 1524.09 1646.45 1524.54C1646.3 1524.99 1646.05 1525.41 1645.72 1525.77C1645.4 1526.12 1645.01 1526.41 1644.58 1526.61C1644.14 1526.81 1643.67 1526.92 1643.19 1526.94C1640.93 1527.05 1639.05 1525.77 1638.94 1523.5C1638.91 1522.96 1638.99 1522.42 1639.17 1521.92C1639.35 1521.41 1639.63 1520.94 1639.99 1520.54C1640.35 1520.14 1640.79 1519.82 1641.28 1519.59C1641.76 1519.36 1642.29 1519.23 1642.83 1519.2L1642.83 1519.2Z" />
			<path id="Layer" class="shp4" d="M1707.59 1464.9C1708.1 1464.92 1708.59 1465.04 1709.06 1465.25C1709.52 1465.45 1709.94 1465.75 1710.29 1466.11C1710.64 1466.47 1710.92 1466.9 1711.12 1467.37C1711.31 1467.83 1711.41 1468.33 1711.42 1468.84C1711.45 1469.32 1711.38 1469.8 1711.22 1470.25C1711.06 1470.7 1710.81 1471.12 1710.49 1471.47C1710.17 1471.82 1709.78 1472.11 1709.34 1472.31C1708.91 1472.51 1708.44 1472.62 1707.96 1472.64C1705.69 1472.75 1703.81 1471.48 1703.7 1469.2C1703.67 1468.66 1703.75 1468.12 1703.93 1467.61C1704.11 1467.11 1704.39 1466.64 1704.75 1466.24C1705.11 1465.84 1705.55 1465.51 1706.04 1465.28C1706.52 1465.06 1707.05 1464.92 1707.59 1464.9L1707.59 1464.9Z" />
			<path id="Layer" class="shp0" d="M1604.51 1612.15C1605.01 1612.11 1605.52 1612.17 1606 1612.32C1606.48 1612.47 1606.93 1612.71 1607.32 1613.03C1607.71 1613.34 1608.04 1613.73 1608.29 1614.17C1608.54 1614.61 1608.7 1615.09 1608.77 1615.59C1608.84 1616.68 1608.46 1617.76 1607.73 1618.58C1607 1619.39 1605.97 1619.88 1604.87 1619.93C1603.78 1619.99 1602.71 1619.6 1601.9 1618.85C1601.09 1618.11 1600.62 1617.08 1600.58 1615.98C1600.6 1615.48 1600.72 1614.98 1600.92 1614.52C1601.13 1614.06 1601.42 1613.64 1601.78 1613.28C1602.15 1612.93 1602.57 1612.65 1603.04 1612.46C1603.51 1612.26 1604 1612.16 1604.51 1612.15L1604.51 1612.15Z" />
			<path id="Layer" class="shp7" d="M1629.71 1462.05C1630.25 1462.02 1630.79 1462.1 1631.29 1462.28C1631.8 1462.46 1632.27 1462.74 1632.66 1463.1C1633.06 1463.46 1633.39 1463.9 1633.62 1464.39C1633.85 1464.87 1633.98 1465.4 1634 1465.94C1634.1 1468.22 1632.35 1469.66 1630.08 1469.77C1629.6 1469.8 1629.12 1469.73 1628.67 1469.57C1628.21 1469.42 1627.8 1469.17 1627.44 1468.85C1627.08 1468.52 1626.8 1468.13 1626.59 1467.7C1626.39 1467.26 1626.28 1466.79 1626.26 1466.31C1626.22 1465.81 1626.28 1465.3 1626.43 1464.82C1626.58 1464.34 1626.82 1463.89 1627.14 1463.5C1627.46 1463.1 1627.85 1462.78 1628.29 1462.53C1628.73 1462.28 1629.21 1462.12 1629.71 1462.05L1629.71 1462.05Z" />
			<path id="Layer" class="shp7" d="M1527.27 1453.26C1527.76 1453.19 1528.25 1453.23 1528.72 1453.37C1529.19 1453.52 1529.62 1453.76 1529.98 1454.09C1530.35 1454.42 1530.64 1454.83 1530.82 1455.28C1531.01 1455.73 1531.1 1456.22 1531.08 1456.71C1531.18 1458.99 1529.91 1460.87 1527.64 1460.97C1527.1 1461 1526.56 1460.92 1526.06 1460.74C1525.55 1460.56 1525.08 1460.28 1524.68 1459.92C1524.28 1459.56 1523.96 1459.12 1523.73 1458.63C1523.5 1458.15 1523.37 1457.62 1523.35 1457.08C1523.24 1454.81 1525 1453.37 1527.27 1453.26Z" />
			<path id="Layer" class="shp4" d="M1643.08 1254.66C1643.62 1254.63 1644.15 1254.71 1644.66 1254.89C1645.17 1255.07 1645.63 1255.35 1646.03 1255.71C1646.42 1256.07 1646.75 1256.51 1646.97 1257C1647.2 1257.49 1647.33 1258.01 1647.35 1258.55C1647.33 1259.05 1647.22 1259.55 1647.01 1260.01C1646.81 1260.47 1646.52 1260.89 1646.16 1261.24C1645.8 1261.59 1645.38 1261.88 1644.91 1262.07C1644.45 1262.27 1643.95 1262.38 1643.45 1262.39C1642.98 1262.38 1642.52 1262.29 1642.08 1262.11C1641.64 1261.94 1641.24 1261.69 1640.89 1261.37C1640.55 1261.05 1640.26 1260.68 1640.05 1260.26C1639.83 1259.84 1639.69 1259.39 1639.64 1258.92C1639.6 1258.42 1639.66 1257.91 1639.81 1257.43C1639.96 1256.95 1640.2 1256.5 1640.52 1256.11C1640.83 1255.72 1641.22 1255.39 1641.66 1255.14C1642.1 1254.89 1642.58 1254.73 1643.08 1254.66L1643.08 1254.66Z" />
			<path id="Layer" class="shp7" d="M1642.13 1129.47C1642.61 1129.44 1643.09 1129.51 1643.54 1129.67C1643.99 1129.82 1644.4 1130.07 1644.76 1130.39C1645.11 1130.71 1645.4 1131.1 1645.6 1131.54C1645.8 1131.97 1645.91 1132.44 1645.93 1132.92C1645.97 1133.42 1645.91 1133.93 1645.77 1134.41C1645.62 1134.9 1645.38 1135.35 1645.06 1135.74C1644.75 1136.13 1644.36 1136.47 1643.92 1136.72C1643.48 1136.97 1643 1137.13 1642.5 1137.2C1641.96 1137.23 1641.42 1137.15 1640.92 1136.96C1640.41 1136.78 1639.94 1136.5 1639.54 1136.14C1639.15 1135.77 1638.82 1135.33 1638.6 1134.85C1638.37 1134.36 1638.24 1133.83 1638.22 1133.29C1638.11 1131.02 1639.86 1129.58 1642.13 1129.47Z" />
			<path id="Layer" class="shp8" d="M2304 1194.84L2310.42 1213.84L2329.69 1219.32C2331.39 1219.8 2332.92 1220.75 2334.11 1222.06C2335.29 1223.36 2336.09 1224.98 2336.41 1226.71C2336.73 1228.45 2336.55 1230.24 2335.91 1231.88C2335.26 1233.53 2334.17 1234.96 2332.75 1236.01L2316.68 1248.01L2317.42 1268.01C2317.49 1269.77 2317.06 1271.52 2316.18 1273.05C2315.31 1274.58 2314.02 1275.84 2312.47 1276.68C2310.92 1277.52 2309.16 1277.91 2307.4 1277.8C2305.64 1277.7 2303.94 1277.1 2302.5 1276.08L2286.15 1264.49L2267.33 1271.39C2265.67 1272 2263.88 1272.13 2262.15 1271.77C2260.43 1271.41 2258.83 1270.57 2257.56 1269.35C2256.28 1268.14 2255.37 1266.59 2254.92 1264.88C2254.48 1263.17 2254.52 1261.37 2255.05 1259.69L2261.05 1240.56L2248.68 1224.79C2247.59 1223.4 2246.91 1221.74 2246.72 1219.98C2246.53 1218.23 2246.83 1216.45 2247.59 1214.86C2248.35 1213.27 2249.55 1211.92 2251.03 1210.97C2252.52 1210.02 2254.25 1209.51 2256.01 1209.49L2276.01 1209.26L2287.18 1192.62C2288.16 1191.15 2289.53 1189.98 2291.14 1189.25C2292.75 1188.52 2294.53 1188.26 2296.28 1188.49C2298.03 1188.72 2299.68 1189.44 2301.05 1190.56C2302.41 1191.68 2303.44 1193.17 2304 1194.84Z" />
			<path id="Layer" class="shp8" d="M1412.16 1335.13L1423.49 1344.02L1437.24 1339.72C1438.45 1339.34 1439.74 1339.31 1440.97 1339.63C1442.2 1339.95 1443.31 1340.6 1444.19 1341.52C1445.06 1342.44 1445.66 1343.59 1445.92 1344.83C1446.18 1346.07 1446.09 1347.36 1445.65 1348.55L1440.65 1362.07L1448.99 1373.82C1449.72 1374.85 1450.15 1376.07 1450.23 1377.34C1450.31 1378.61 1450.03 1379.87 1449.43 1380.98C1448.83 1382.1 1447.92 1383.03 1446.82 1383.66C1445.72 1384.29 1444.47 1384.6 1443.2 1384.55L1428.8 1384.02L1420.21 1395.58C1419.45 1396.6 1418.43 1397.39 1417.24 1397.85C1416.06 1398.32 1414.77 1398.44 1413.53 1398.21C1412.28 1397.98 1411.12 1397.41 1410.18 1396.56C1409.24 1395.7 1408.56 1394.6 1408.21 1393.38L1404.21 1379.53L1390.56 1374.93C1389.36 1374.52 1388.29 1373.79 1387.48 1372.81C1386.68 1371.83 1386.16 1370.65 1385.99 1369.39C1385.82 1368.13 1386.01 1366.85 1386.53 1365.69C1387.05 1364.54 1387.89 1363.55 1388.94 1362.84L1400.94 1354.84L1401.1 1340.44C1401.1 1339.16 1401.46 1337.9 1402.14 1336.81C1402.82 1335.73 1403.8 1334.86 1404.96 1334.3C1406.11 1333.74 1407.4 1333.53 1408.68 1333.67C1409.95 1333.82 1411.16 1334.33 1412.16 1335.13Z" />
			<path id="Layer" class="shp8" d="M1536.18 979.61L1557.4 996.87L1583.65 989.18C1585.96 988.51 1588.41 988.49 1590.72 989.13C1593.04 989.78 1595.13 991.05 1596.76 992.82C1598.39 994.59 1599.49 996.77 1599.95 999.13C1600.4 1001.49 1600.19 1003.93 1599.33 1006.18L1589.47 1031.7L1604.9 1054.29C1606.26 1056.28 1607.03 1058.61 1607.13 1061.02C1607.24 1063.42 1606.66 1065.81 1605.48 1067.91C1604.3 1070.01 1602.55 1071.74 1600.44 1072.9C1598.33 1074.05 1595.94 1074.6 1593.53 1074.47L1566.21 1072.97L1549.5 1094.63C1548.03 1096.54 1546.05 1097.99 1543.79 1098.84C1541.53 1099.68 1539.08 1099.87 1536.72 1099.4C1534.36 1098.92 1532.18 1097.79 1530.42 1096.14C1528.67 1094.49 1527.41 1092.38 1526.79 1090.05L1519.79 1063.61L1494.03 1054.41C1491.76 1053.6 1489.77 1052.17 1488.28 1050.28C1486.78 1048.39 1485.84 1046.13 1485.56 1043.74C1485.29 1041.34 1485.68 1038.92 1486.71 1036.75C1487.74 1034.57 1489.35 1032.72 1491.37 1031.41L1514.37 1016.56L1515.16 989.22C1515.24 986.82 1515.99 984.49 1517.32 982.49C1518.65 980.49 1520.51 978.91 1522.7 977.91C1524.88 976.91 1527.3 976.54 1529.68 976.84C1532.06 977.14 1534.31 978.1 1536.18 979.61L1536.18 979.61Z" />
			<path id="Layer" class="shp8" d="M1972.79 930.38L1973.79 943.9L1985.51 950.7C1986.54 951.3 1987.39 952.18 1987.95 953.23C1988.51 954.28 1988.76 955.47 1988.68 956.66C1988.6 957.86 1988.19 959 1987.49 959.97C1986.8 960.94 1985.84 961.69 1984.74 962.15L1972.2 967.32L1969.36 980.57C1969.11 981.74 1968.54 982.81 1967.71 983.67C1966.88 984.53 1965.83 985.14 1964.67 985.44C1963.51 985.73 1962.29 985.69 1961.16 985.33C1960.02 984.96 1959 984.29 1958.23 983.38L1949.44 973.05L1936 974.44C1934.81 974.56 1933.61 974.35 1932.54 973.82C1931.47 973.3 1930.57 972.49 1929.93 971.47C1929.3 970.46 1928.96 969.3 1928.95 968.1C1928.95 966.91 1929.27 965.74 1929.9 964.72L1937 953.18L1931.52 940.78C1931.04 939.69 1930.87 938.48 1931.04 937.3C1931.2 936.12 1931.69 935.01 1932.46 934.09C1933.22 933.18 1934.23 932.49 1935.36 932.12C1936.49 931.74 1937.71 931.69 1938.87 931.97L1952.05 935.16L1962.14 926.16C1963.03 925.37 1964.12 924.83 1965.29 924.62C1966.46 924.41 1967.66 924.54 1968.77 924.97C1969.88 925.41 1970.84 926.15 1971.55 927.11C1972.26 928.06 1972.69 929.19 1972.79 930.38Z" />
			<path id="Layer" class="shp8" d="M1766.75 2062.57C1766.75 2062.57 1884.75 1997.98 1809.17 1937.81C1809.17 1937.81 1689.95 1926.69 1659.85 1883.25C1618.49 1823.55 1607.85 1771.5 1611.6 1743.25L1544.3 1719.13C1544.3 1719.13 1505.79 1859.82 1536.3 1963.7C1554.93 2027.19 1659.89 2083.91 1659.89 2083.91C1659.89 2083.91 1706.49 2118.52 1766.75 2062.57Z" />
			<path id="Layer" class="shp9" d="M1596.2 1738.75C1596.2 1738.75 1613.2 1700.85 1634 1680.09C1634.57 1679.53 1634.94 1678.79 1635.05 1678C1635.15 1677.2 1634.98 1676.39 1634.57 1675.71C1634.15 1675.02 1633.52 1674.49 1632.77 1674.21C1632.02 1673.93 1631.19 1673.91 1630.43 1674.15C1626.78 1675.32 1621.27 1676.53 1614.88 1680.81C1596.2 1693.33 1606.88 1661.15 1606.88 1661.15C1606.88 1661.15 1621.71 1629.15 1592 1645.72C1570 1658.01 1567.58 1692.46 1569.28 1703.58C1570.98 1714.7 1569.87 1729.14 1569.87 1729.14L1596.2 1738.75Z" />
			<path id="Layer" class="shp8" d="M1897.81 2074.06C1897.81 2074.06 1841.03 1982.29 1880.34 1951.71C1956.58 1892.4 2040.54 1729.65 2034.01 1680.57L2101.31 1656.44C2101.31 1656.44 2152.04 1820.77 2113.5 1921.93C2074.96 2023.09 1986.5 2098.93 1986.5 2098.93C1986.5 2098.93 1938.36 2115.2 1897.81 2074.06Z" />
			<path id="Layer" class="shp9" d="M2049.42 1676.1C2049.42 1676.1 2032.42 1638.2 2011.61 1617.43C2011.04 1616.87 2010.68 1616.13 2010.58 1615.34C2010.48 1614.55 2010.65 1613.74 2011.06 1613.06C2011.47 1612.37 2012.1 1611.85 2012.85 1611.57C2013.6 1611.28 2014.42 1611.26 2015.18 1611.5C2018.84 1612.67 2024.35 1613.88 2030.74 1618.16C2049.41 1630.68 2038.74 1598.5 2038.74 1598.5C2038.74 1598.5 2023.91 1566.5 2053.63 1583.07C2075.63 1595.36 2078.04 1629.81 2076.34 1640.93C2074.64 1652.05 2075.75 1666.49 2075.75 1666.49L2049.42 1676.1Z" />
			<path id="Layer" class="shp10" d="M1638.57 2356.6C1638.57 2356.6 1724.66 2445.6 1997.72 2338.13C1997.72 2338.13 1636.62 2263.66 1638.57 2356.6Z" />
			<path id="Layer" class="shp9" d="M2037.4 2886.37C2036.96 2890.18 2030.57 3010.25 2030.57 3010.25C2030.57 3010.25 2046.17 3025.63 2092 3025.63C2137.67 3025.63 2134.18 2998.19 2072.49 2991.41L2115.85 2875.19C2115.85 2875.19 2043.14 2836.26 2037.4 2886.37Z" />
			<path id="Layer" class="shp5" d="M2030.57 3010.25L2028.37 3040.85L2148.9 3040.85C2148.9 3040.85 2162.52 3018.7 2104.26 2998.16L2030.57 3010.25Z" />
			<path id="Layer" class="shp9" d="M1722.77 3049.64C1724.04 3053.26 1700.6 3127.95 1691.83 3169.47C1691.83 3169.47 1676.24 3184.86 1630.4 3184.86C1584.74 3184.86 1588.22 3157.42 1649.91 3150.63L1652.08 3045.48C1652.08 3045.48 1704.77 2997.9 1722.77 3049.64Z" />
			<path id="Layer" class="shp5" d="M1691.83 3169.47L1688.42 3200.07L1573.51 3200.07C1573.51 3200.07 1559.88 3177.93 1618.15 3157.38L1691.83 3169.47Z" />
			<path id="Layer" class="shp5" d="M1775.38 1796C1775.38 1796 1774.66 1753.49 1823.38 1742.08C1896.15 1725.08 1894.07 1764.31 1887.69 1799.26C1874.35 1872.4 1892.2 1872.26 1865.84 1883.17C1833.27 1896.66 1829.84 1901.88 1785.03 1865.49C1759.17 1844.45 1733.91 1818.23 1775.38 1796Z" />
			<path id="Layer" class="shp9" d="M1815.29 1846C1815.29 1846 1795.04 1801 1829.01 1778.16C1854.76 1760.88 1880.52 1786.83 1899.01 1821.04C1917.5 1855.25 1911.01 1888.28 1888.7 1893.28C1868.11 1897.89 1850.77 1891.36 1829.17 1877.94C1829.17 1877.94 1809.17 1885.94 1800.17 1864.59C1790.14 1841.07 1815.29 1846 1815.29 1846Z" />
			<path id="Layer" class="shp9" d="M1899.47 1947.43C1899.47 1947.43 1882.94 1936 1870 1885.7L1821.88 1850.92C1821.88 1850.92 1825.16 1891.87 1806.8 1944.84C1806.8 1944.84 1813.34 2012.25 1857.46 2014.28C1884.28 2015.51 1897.05 1967.25 1899.47 1947.43Z" />
			<path id="Layer" class="shp11" d="M1865.26 1815.13C1865.26 1815.13 1878.76 1827.57 1885.39 1829.13C1892.02 1830.69 1888.08 1840.97 1877.76 1843.4C1873.69 1844.38 1865.26 1815.13 1865.26 1815.13Z" />
			<path id="Layer" class="shp11" d="M1872 1894.77C1872 1894.77 1860.63 1895.96 1834.7 1884.77C1825.52 1880.77 1835.29 1894.21 1848.18 1906.77C1859.31 1917.61 1869.82 1923.06 1882.92 1923.06C1882.94 1923.08 1875.84 1912 1872 1894.77Z" />
			<path id="Layer" class="shp5" d="M1878.66 1811.62C1879.56 1813.36 1881.42 1814.39 1883.38 1814.23C1885.33 1814.07 1887 1812.74 1887.59 1810.87C1888.19 1809 1887.6 1806.95 1886.1 1805.69C1884.6 1804.42 1882.48 1804.19 1880.74 1805.09C1880.18 1805.38 1879.67 1805.78 1879.26 1806.27C1878.85 1806.76 1878.54 1807.32 1878.35 1807.92C1878.16 1808.53 1878.08 1809.17 1878.14 1809.8C1878.19 1810.44 1878.37 1811.05 1878.66 1811.62L1878.66 1811.62Z" />
			<path id="Layer" class="shp5" d="M1841.57 1830.37C1842.47 1832.11 1844.33 1833.14 1846.29 1832.97C1848.24 1832.8 1849.9 1831.48 1850.5 1829.61C1851.09 1827.74 1850.5 1825.7 1849 1824.43C1847.51 1823.17 1845.39 1822.93 1843.65 1823.83C1843.08 1824.12 1842.58 1824.53 1842.17 1825.01C1841.76 1825.5 1841.45 1826.06 1841.26 1826.67C1841.07 1827.28 1840.99 1827.92 1841.05 1828.55C1841.1 1829.19 1841.28 1829.8 1841.57 1830.37Z" />
			<path id="Layer" class="shp5" d="M1827.37 1812.45C1828.12 1811.97 1828.89 1811.5 1829.66 1811.05C1830.44 1810.6 1831.22 1810.17 1832.01 1809.75C1832.8 1809.34 1833.6 1808.94 1834.41 1808.55C1835.22 1808.17 1836.04 1807.8 1836.86 1807.45C1839.28 1806.4 1842.26 1808.27 1843.02 1810.61C1843.9 1813.33 1842.3 1815.71 1839.87 1816.77C1839.25 1817.05 1838.64 1817.33 1838.03 1817.63C1837.42 1817.94 1836.82 1818.25 1836.23 1818.57C1835.63 1818.9 1835.04 1819.24 1834.46 1819.59C1833.88 1819.94 1833.31 1820.3 1832.74 1820.67C1827.46 1824.06 1822.07 1815.89 1827.37 1812.45Z" />
			<path id="Layer" class="shp5" d="M1869.33 1789.68C1869.92 1789.33 1870.53 1789 1871.14 1788.69C1871.75 1788.38 1872.38 1788.09 1873.01 1787.82C1873.64 1787.56 1874.28 1787.31 1874.93 1787.08C1875.58 1786.86 1876.24 1786.65 1876.9 1786.47C1877.52 1786.33 1878.17 1786.31 1878.8 1786.41C1879.43 1786.51 1880.04 1786.74 1880.59 1787.07C1881.13 1787.4 1881.61 1787.83 1882 1788.34C1882.38 1788.85 1882.66 1789.43 1882.83 1790.05C1882.97 1790.67 1882.99 1791.32 1882.89 1791.95C1882.79 1792.58 1882.56 1793.19 1882.23 1793.74C1881.9 1794.28 1881.47 1794.76 1880.96 1795.15C1880.45 1795.53 1879.87 1795.81 1879.25 1795.98C1878.78 1796.11 1878.25 1796.25 1877.83 1796.4L1877.17 1796.64L1876.98 1796.72C1875.98 1797.23 1875.05 1797.66 1874.12 1798.21C1872.99 1798.84 1871.65 1799 1870.4 1798.65C1869.15 1798.3 1868.1 1797.47 1867.46 1796.34C1866.83 1795.21 1866.67 1793.87 1867.02 1792.62C1867.37 1791.37 1868.2 1790.32 1869.33 1789.68L1869.33 1789.68Z" />
			<path id="Layer" class="shp4" d="M1895.34 1848.7L1873.34 1858.21C1873.34 1858.21 1877.41 1866.77 1887.93 1862.14C1898.07 1857.66 1895.34 1848.7 1895.34 1848.7Z" />
			<path id="Layer" class="shp12" d="M1934 2309.9C1934 2309.9 2206.22 2491.05 2206.22 2558.77C2206.22 2665.15 2146.52 2779.85 2129.43 2890.67L2020.79 2901.86L2039.68 2602.45L1850.1 2508.84L1743.33 3077L1638.91 3063.95C1638.91 3063.95 1616.76 2600.61 1680.15 2324.65C1680.15 2324.61 1827.74 2268.88 1934 2309.9Z" />
			<path id="Layer" class="shp13" d="M1638.91 3063.91L1673.03 3068.17C1673.03 3068.17 1676.03 3018.71 1655.97 2989.74C1635.91 2960.77 1654.77 2915.07 1638.91 2896.27C1638.91 2896.27 1638.13 3013.32 1638.91 3063.91Z" />
			<path id="Layer" class="shp8" d="M1893.85 1940.21C1893.85 1940.21 1884.49 1952.08 1857.59 1955.21C1847.45 1956.4 1825.3 1953.3 1809.17 1937.78C1809.17 1937.78 1788.17 1938.24 1774.32 1941.25C1681.73 1961.39 1654.13 2034.9 1648.03 2129.47C1644.32 2186.97 1638.57 2356.57 1638.57 2356.57L1997.72 2338.1L1987.6 2129.5C1987.6 2129.5 1993.76 1976.43 1893.85 1940.21Z" />
			<path id="Layer" class="shp13" d="M1850.12 2508.84L1866.26 2438.53C1866.26 2438.53 1898.08 2430.1 1997.72 2536.76C2017.36 2557.76 2033.65 2570.63 2046.93 2578.22C2053.18 2581.76 2058.82 2586.27 2063.63 2591.6C2068.45 2596.93 2072.38 2602.99 2075.27 2609.56C2078.17 2616.13 2079.99 2623.13 2080.66 2630.27C2081.34 2637.42 2080.86 2644.63 2079.25 2651.63L2020.81 2901.86L2039.7 2602.45L1850.12 2508.84Z" />
			<path id="Layer" class="shp14" d="M1986.55 2099C1986.55 2099 1977.72 2043.79 1971.37 2014.33C1965.02 1984.87 2011.8 1979.78 2043.65 1973.44C2075.5 1967.1 2090.26 1883.17 2127.95 1863.54C2128 1863.51 2105.85 2009.94 1986.55 2099Z" />
			<path id="Layer" class="shp14" d="M1653.72 2080.39C1653.72 2080.39 1699.64 2087.68 1713.61 2133.39C1727.58 2179.1 1823.69 2245 1856.74 2345L1638.57 2356.56C1638.57 2356.56 1645.17 2115.65 1653.72 2080.39Z" />
			<path id="Layer" fill-rule="evenodd" class="shp15" d="M2510.43 1706.37L2401.66 1723.74L2378.1 1576.16L2300 1588.63L2323.53 1736.21L2214.75 1753.58L2191.19 1606L1384.31 1734.8C1368.24 1828.47 1294.24 1906.01 1195.24 1921.8C1190.85 1922.51 1186.43 1923.08 1182 1923.53C1177.57 1923.98 1173.13 1924.3 1168.69 1924.49C1164.24 1924.69 1159.79 1924.75 1155.34 1924.68C1150.89 1924.61 1146.44 1924.42 1142 1924.09C1116.58 1922.14 1091.67 1915.95 1068.29 1905.78C1044.92 1895.61 1023.41 1881.6 1004.66 1864.33C985.9 1847.05 970.17 1826.77 958.12 1804.31C946.06 1781.84 937.85 1757.52 933.82 1732.35C914 1608 999 1490.76 1123.26 1470.91C1148.59 1466.88 1174.43 1467.14 1199.67 1471.68C1224.92 1476.23 1249.22 1484.99 1271.56 1497.6C1293.89 1510.22 1313.95 1526.5 1330.88 1545.77C1347.81 1565.05 1361.37 1587.03 1371 1610.81L2171.56 1483L2280.34 1465.62L2358.44 1453.16L2467.22 1435.79L2486.85 1558.79L2510.43 1706.37ZM1215.28 1795.34C1256.57 1774.92 1279.25 1726.57 1271.57 1678.43C1269.56 1665.89 1265.47 1653.77 1259.46 1642.58C1253.46 1631.39 1245.62 1621.29 1236.28 1612.68C1226.94 1604.08 1216.22 1597.1 1204.58 1592.03C1192.93 1586.96 1180.52 1583.88 1167.86 1582.91C1165.65 1582.76 1163.43 1582.68 1161.22 1582.65C1159 1582.62 1156.78 1582.66 1154.57 1582.75C1152.35 1582.85 1150.14 1583 1147.94 1583.22C1145.73 1583.44 1143.53 1583.71 1141.34 1584.05C1112.09 1588.38 1069.26 1637.78 1080.26 1699.51C1094.31 1778.06 1185.74 1809.93 1215.28 1795.34Z" />
			<path id="Layer" fill-rule="evenodd" class="shp16" d="M2508.98 1695.93L2434.98 1707.75L2411.42 1560.17L2297.21 1578.4L2322.11 1725.77L2248.11 1737.58L2224.55 1590L1385.55 1719.23C1369.43 1812.91 1313.55 1892.76 1228.55 1905.82C1224.15 1906.51 1219.74 1907.08 1215.31 1907.52C1210.88 1907.96 1206.44 1908.27 1201.99 1908.46C1197.55 1908.65 1193.1 1908.72 1188.65 1908.66C1184.2 1908.6 1179.75 1908.41 1175.31 1908.1C1149.89 1906.15 1124.97 1899.97 1101.6 1889.79C1078.22 1879.62 1056.71 1865.61 1037.95 1848.34C1019.2 1831.07 1003.47 1810.78 991.41 1788.32C979.35 1765.86 971.14 1741.53 967.11 1716.36C947.25 1592.05 1034.94 1486.64 1159.25 1466.8C1219.47 1457.18 1338.94 1516.07 1371 1609.6L2467.22 1434.61L2508.98 1695.93ZM1304.87 1662.44C1302.86 1649.9 1298.77 1637.78 1292.77 1626.59C1286.76 1615.4 1278.92 1605.3 1269.58 1596.7C1260.24 1588.09 1249.52 1581.11 1237.88 1576.05C1226.23 1570.98 1213.82 1567.9 1201.16 1566.93C1198.95 1566.77 1196.73 1566.67 1194.52 1566.64C1192.3 1566.6 1190.08 1566.63 1187.87 1566.73C1185.65 1566.82 1183.44 1566.98 1181.23 1567.21C1179.03 1567.43 1176.83 1567.72 1174.64 1568.07C1152.43 1571.62 1131.77 1581.67 1115.27 1596.96C1098.78 1612.25 1087.18 1632.08 1081.96 1653.96C1076.73 1675.84 1078.11 1698.77 1085.92 1719.86C1093.73 1740.96 1107.62 1759.26 1125.83 1772.46C1150.43 1790.28 1185.28 1798.91 1215.28 1794.12C1277.2 1784.23 1314.76 1724.37 1304.87 1662.44Z" />
		</g>
	</g>
</svg>