<svg xmlns="http://www.w3.org/2000/svg" xmlns:xlink="http://www.w3.org/1999/xlink" viewBox="0 0 710.71 630.29"><defs><style>.cls-1{isolation:isolate;}.cls-2{fill:#eff0f8;}.cls-12,.cls-3{fill:#afaffa;}.cls-3{opacity:0.27;}.cls-4{fill:#dde6fc;}.cls-5{fill:#8497fa;}.cls-6{fill:#e6e9f8;}.cls-7{fill:#b5eff9;}.cls-8{fill:#ddf7fc;}.cls-9{fill:#abb8fc;}.cls-10{fill:#fdb100;}.cls-11{fill:#c6b5f9;}.cls-13,.cls-38{fill:#fff;}.cls-14{fill:#393768;}.cls-15{fill:#adadea;}.cls-16{fill:#cce9f1;}.cls-17,.cls-21,.cls-24,.cls-28,.cls-29,.cls-30,.cls-31,.cls-32,.cls-33,.cls-34{mix-blend-mode:soft-light;}.cls-17{fill:url(#linear-gradient);}.cls-18{fill:#02cec8;}.cls-19{fill:#6c5af0;}.cls-20{fill:#ccd7f1;}.cls-21{fill:url(#linear-gradient-2);}.cls-22{fill:#b2b2f0;}.cls-23{fill:#a8cfef;}.cls-24{fill:url(#linear-gradient-3);}.cls-25{opacity:0.1;}.cls-26{fill:#edb6a4;}.cls-27{fill:#e0a494;}.cls-28{fill:url(#linear-gradient-4);}.cls-29{fill:url(#linear-gradient-5);}.cls-30{fill:url(#linear-gradient-6);}.cls-31{fill:url(#linear-gradient-7);}.cls-32{fill:url(#linear-gradient-8);}.cls-33{fill:url(#linear-gradient-9);}.cls-34{fill:url(#linear-gradient-10);}.cls-35{fill:#0b0768;}.cls-36{mix-blend-mode:overlay;}.cls-37{fill:#7272f8;}.cls-38{stroke:#fff;stroke-miterlimit:10;stroke-width:2px;}</style><linearGradient id="linear-gradient" x1="244.87" y1="447.24" x2="369.15" y2="515.5" gradientUnits="userSpaceOnUse"><stop offset="0" stop-color="#fff"/><stop offset="1"/></linearGradient><linearGradient id="linear-gradient-2" x1="470.33" y1="299.78" x2="533.01" y2="362.16" gradientUnits="userSpaceOnUse"><stop offset="0" stop-color="#fff"/><stop offset="0.1" stop-color="#fafafa"/><stop offset="0.22" stop-color="#eaeaea"/><stop offset="0.36" stop-color="#d0d0d0"/><stop offset="0.51" stop-color="#ababab"/><stop offset="0.67" stop-color="#7d7d7d"/><stop offset="0.83" stop-color="#444"/><stop offset="1" stop-color="#020202"/><stop offset="1"/></linearGradient><linearGradient id="linear-gradient-3" x1="539.93" y1="244.07" x2="544.73" y2="301.65" xlink:href="#linear-gradient-2"/><linearGradient id="linear-gradient-4" x1="271.74" y1="352.87" x2="303.67" y2="370.46" xlink:href="#linear-gradient"/><linearGradient id="linear-gradient-5" x1="305.92" y1="421.28" x2="321.86" y2="441.98" xlink:href="#linear-gradient"/><linearGradient id="linear-gradient-6" x1="266.91" y1="383.94" x2="284.86" y2="398.02" xlink:href="#linear-gradient"/><linearGradient id="linear-gradient-7" x1="403.05" y1="534.47" x2="412.88" y2="557.99" gradientTransform="matrix(0.82, 0.58, -0.58, 0.82, 172.92, -324.67)" xlink:href="#linear-gradient-2"/><linearGradient id="linear-gradient-8" x1="1024.55" y1="473.64" x2="1028.45" y2="494.74" gradientTransform="matrix(-0.94, -0.34, -0.34, 0.94, 1280.92, 226.43)" xlink:href="#linear-gradient-2"/><linearGradient id="linear-gradient-9" x1="361.87" y1="660.51" x2="371.7" y2="684.04" gradientTransform="matrix(0.69, 0.73, -0.73, 0.69, 400.1, -359.12)" xlink:href="#linear-gradient-2"/><linearGradient id="linear-gradient-10" x1="325.65" y1="508.83" x2="298.37" y2="534.02" gradientTransform="matrix(0.87, 0.49, -0.49, 0.87, 143.57, -284.08)" xlink:href="#linear-gradient-2"/></defs><g class="cls-1"><g id="Object"><path class="cls-2" d="M308.67,470.87c-82,0-162.42,21.14-130,30.38s-56.8,14-49.7,26.6c4.72,8.4,27.67,17.35,67.24,10s69.41,9.11,31.93,23.57,62.88,31.46,130.17,1.39,110.52-42.44,162-42.87,163.78-16.66,136.46-42c-22-20.37-68.36-16.83-108.7-17.49S308.67,470.87,308.67,470.87Z"/><path class="cls-3" d="M321.31,462.53c-36.59-68-64.9-90-109.88-95.81s-96.54-13.54-95.16-47.07,55.1-14.72,91.66-51.93,32.37-45.9-2.74-78.42,5.66-61.61,81.36-34.13,42.69,81,111.89,58.05,99.2-18.56,129.93,24.78-60.25,91.31,18.16,106.64,115,34.07,79.63,61.61S551.54,472.19,498,479.84,321.31,462.53,321.31,462.53Z"/><path class="cls-4" d="M557.26,403.12c26-15.63,38.38-28.55,29.85-43.38s-6.83-16,5.61-30.81,1.73-17-1.77-27,6.76-18.45,13.6-30.93-11.26-31.33-26-20.71,2.45,22.44-8.29,36.15-37.16,15.45-32.78,29.49,25,21.92,10.16,34.52-24.8,21.44-14.07,36.17S557.26,403.12,557.26,403.12Z"/><path class="cls-5" d="M585.71,274.07Q574.59,318.52,563.82,363c-3.63,14.82-7.5,29.61-10.63,44.49s-6.11,29.76-8.3,44.74l.42,0c4.62-14.71,8.33-29.52,12.11-44.32s6.61-29.71,9.79-44.58q9.64-44.6,18.93-89.23Z"/><path class="cls-6" d="M562.8,313.72c2.07,1.46,5.67,2.42,9.84,3.53,6.15,1.64,13.61,3.66,18.83,8.23a47.88,47.88,0,0,1,8.37-21.63c.49-.7,1-1.35,1.57-2-1.17-6.09-6-10.69-10.35-14.75-2.76-2.6-5.15-4.85-6.18-7.15a1,1,0,0,1,.64-1.34A1.08,1.08,0,0,1,587,279c.89,2,3.15,4.1,5.77,6.57,3.9,3.67,8.62,8.17,10.41,13.94a116.15,116.15,0,0,1,21-20,.81.81,0,0,1-.26-.93c2-5.76.34-11.66-1.15-16.87-1-3.3-1.77-6.16-1.5-8.53a1.12,1.12,0,0,1,1.14-.92.88.88,0,0,1,.92.95c-.23,2,.54,4.75,1.45,7.89,1.41,4.91,3.1,10.95,1.37,16.92q4.82-3.52,9.83-6.8a1.12,1.12,0,0,1,.68-.55l.24,0c3.36-2.18,6.74-4.32,10.14-6.38l-8.48,6.05c6.37-1.08,12.68.55,17.85,1.91,3.44.91,6.41,1.69,8.68,1.55a.89.89,0,0,1,1,.86,1.1,1.1,0,0,1-1.05,1c-2.63.17-5.76-.66-9.39-1.61-5.71-1.51-12.18-3.22-18.6-1.55a1,1,0,0,1-1-.27s0,0,0,0a168.42,168.42,0,0,0-13.61,10.76q-2.77,2.38-5.43,4.88c6.6-.79,13,1,18.34,2.52,3.69,1.05,6.87,1.95,9.31,1.83a.94.94,0,0,1,1.07.94,1.17,1.17,0,0,1-1.14,1.06c-2.84.14-6.19-.8-10.07-1.9-6.11-1.73-13-3.68-20-2h-.06A85.73,85.73,0,0,0,602.29,305a48.33,48.33,0,0,0-3.2,5.79c7.79-.31,15,2.71,20.84,5.2,3.89,1.67,7.26,3.1,10,3.29a1,1,0,0,1,1,1.21,1.36,1.36,0,0,1-1.44,1c-3.15-.21-6.69-1.72-10.79-3.47-6.16-2.63-13.11-5.55-20.63-4.95-.65,1.55-1.24,3.12-1.75,4.71a48.25,48.25,0,0,0-1.9,13.49,78.81,78.81,0,0,0,1.21,11.87c5.43-1.95,11.36-1.76,16.26-1.61,3.4.11,6.34.21,8.4-.38a.89.89,0,0,1,1.16.56,1,1,0,0,1-.72,1.09c-2.39.69-5.49.59-9.08.47-5-.16-10.68-.33-15.76,1.61.8,4.42,1.82,8.83,2.79,13.26,1,4.86,1.92,9.77,2.59,14.74,3.44-2.49,7.71-3.84,11.28-4.94a25.39,25.39,0,0,0,6.35-2.5.8.8,0,0,1,1.07.09.67.67,0,0,1-.19,1,26.11,26.11,0,0,1-6.84,2.74c-3.89,1.2-8.22,2.54-11.48,5.2a105.06,105.06,0,0,1,.84,11.25,94.09,94.09,0,0,1-3.74,28.18c-5.31,18.63-15.85,35.91-28.07,51.76,5.36-8.35,10.83-16.65,15-25.43a124.23,124.23,0,0,0,10.3-26.73,100.84,100.84,0,0,0,3.12-27.45c0-.14,0-.27,0-.41a.82.82,0,0,1-.31-.11c-3.66-2.62-8.76-2.95-13.26-3.25-2.86-.18-5.32-.35-7-1.07a.62.62,0,0,1-.29-.92.86.86,0,0,1,1-.35c1.47.62,3.81.78,6.53.95,4.18.28,9.3.64,13.22,3A149.53,149.53,0,0,0,595,359.11l-.24-1.15c-5.42-1.49-11.52-.22-16.93.92-3.58.76-6.67,1.42-9.07,1.16a.8.8,0,0,1-.75-1,1.06,1.06,0,0,1,1.14-.77c2.07.22,5-.4,8.4-1.12,5-1.06,11.19-2.34,16.81-1.17-1.66-7.94-3.31-16-3.35-24.42,0-1,.07-2,.14-3-4.75-5.28-12.53-7.37-19.41-9.2-4.39-1.18-8.18-2.19-10.59-3.88A1,1,0,0,1,561,314,1.37,1.37,0,0,1,562.8,313.72Z"/><path class="cls-7" d="M626.42,270.43a1,1,0,0,0,1.41-.42c4.62-12.73-1.85-16.75-1.76-23.43.08-5.89-4.72,7.25-8.55,10.47C614.3,259.75,623.4,267.87,626.42,270.43Z"/><path class="cls-7" d="M597.11,292.88a1,1,0,0,0,1.18-1c-2.35-13.71-11-14.51-14.61-20.66-3.15-5.43-.75,8.74-2.83,13.4C579.11,288.51,592.68,291.89,597.11,292.88Z"/><path class="cls-7" d="M581.43,322.11a1,1,0,0,0,.64-1.52c-10.4-11.94-19.92-8.59-27.22-12.76-6.44-3.68,4.29,8.67,4.83,14.08C560.13,326.45,576.24,323.26,581.43,322.11Z"/><path class="cls-7" d="M585.76,357.27a.66.66,0,0,0-.19-1.18c-12.32-4-17.6,1.35-24.48,1.2-6.07-.14,6.66,4,9.31,7.3C572.62,367.32,582.6,359.78,585.76,357.27Z"/><path class="cls-7" d="M591.62,382.79a.56.56,0,0,0,.17-1c-8.06-5.85-13.42-2.78-18.48-4.4-4.46-1.43,3.85,4.62,5,7.76C579.18,387.8,588.59,384.07,591.62,382.79Z"/><path class="cls-7" d="M647.61,272a.79.79,0,0,1,.5-1.26c14.21-3.79,18.46,2.18,25.84,2.3,6.52.1-8.15,4-11.83,7.41C659,283.25,650.34,274.78,647.61,272Z"/><path class="cls-7" d="M625.86,289.9a.85.85,0,0,1,.57-1.35c15.37-3.85,19.81,2.67,27.75,2.93,7,.23-8.86,4.23-12.89,7.8C637.92,302.27,628.73,293,625.86,289.9Z"/><path class="cls-7" d="M609.57,314.28c-.38-.55.1-1.34.85-1.44,17.57-2.31,21.42,5.63,30.13,7,7.7,1.18-10.46,3.6-15.48,7.1C620.87,329.84,612.25,318.14,609.57,314.28Z"/><path class="cls-7" d="M603.69,343.14a.69.69,0,0,1,.16-1.21c12.19-6.23,17.6-1.8,24.46-3.19,6.05-1.22-6.54,5.23-9.1,9C617.06,350.82,606.92,345.08,603.69,343.14Z"/><path class="cls-7" d="M606.74,371.28a.53.53,0,0,1-.27-.91c7.37-7.71,13-6,17.81-8.76,4.26-2.48-3.34,5.48-4.1,8.84C619.54,373.26,609.86,371.82,606.74,371.28Z"/><path class="cls-7" d="M642.43,266.59c-.14.5.38.91.93.76,12.8-3.63,13.65-10.32,19.42-13.86,5.09-3.13-8.13.61-12.45-.33C646.72,252.37,643.41,263.1,642.43,266.59Z"/><path class="cls-8" d="M533.75,448.11c12.93,1.44,8.3,25.38,24.94,27,19.61,1.93,15.79-13.1,50.6-19.71,19.83-5.36,20.12-20.86,5.9-16.31s-30.64,13.39-27,1.78,15.23-21.66,43.68-26.4,43-24.45,29.82-28.4S626.94,396.74,609.4,409s-28.08,4-15.4-6.79,36.63-15.85,49.63-34.77,8.86-24.29-4.26-25.55S596.8,367.63,590.52,383s-17.13,19.6-14.19,8.92,12.95-29.35,3.57-29.91S564.62,376,567.66,382.18s4.56,11.06-5.54,14.59-10.27-25.72-18.47-19.32-12.19,31,.18,32.63,15.13,23.64,1.65,25.1-17.73-20.73-24.05-11.45S520.81,446.67,533.75,448.11Zm9.86-46.88c-4.51-1.64-3.42-7.28-1.9-11.58s3.79-.94,7.62,5.3c0,0,3,3.72,3.83,6.62S548.11,402.87,543.61,401.23Zm75.84-30.06c3.34-6.59-.07-12.11,10.31-16s10.92-7.47,10.11-.84S636.57,366,627,369C627,369,616.12,377.75,619.45,371.17Zm14.15,33.64c-.1-1.17,9.89-8.06,9.89-8.06,8.21-5.73,18.15-4.21,15.73-1.32s-8.77,7.64-14,7.91S633.7,406,633.6,404.81Zm-28,43.06c7.59-3.44,17-3.27,9.93.52s-12.52,5.25-15,4.11S601.55,449.7,605.56,447.87ZM575,378.25c-3.59-5.09-4.55-8.54-.06-10.26s5.51,2,3.85,5.31A14.73,14.73,0,0,1,575,378.25Zm-21.55,61.36c16.91-7.65,15.63-14.27,15.95-24.55.38-12.16,7.09-5.3,12,4.72s-8,13.62-7.74,23.19c0,0-1.42,12.48-8.54,13.07C557.84,456.65,540.67,445.39,553.45,439.61Zm-30.19-9.8c1.1-3.25,2.47.92,6.21,4.53,6.35,6.16-.26,5.32-4.2,4.14S522.15,433.06,523.26,429.81Z"/><path class="cls-8" d="M330.82,402.66c-27-8.09-41.17-17.49-37.17-35.07s2.21-18.22-12.5-29.56-5.68-16.74-5-27.89-10.51-16.69-19.65-27.31,2.41-35.13,18.13-28.75,3.28,23.47,16.18,34.17,36.9,4.57,36.42,20.11-16.95,29.69-.67,38,27.33,14.33,21.36,32.47S330.82,402.66,330.82,402.66Z"/><path class="cls-9" d="M274.05,280.31q20.73,41.73,41.16,83.61c6.84,13.94,13.89,27.78,20.3,41.93s12.69,28.35,18.29,42.89l-.37.17c-7.69-13.54-14.6-27.45-21.58-41.33s-13.12-28.15-19.57-42.28Q292.83,323,273.69,280.49Z"/><path class="cls-6" d="M304.13,313.67c-1.49,2.1-4.46,4.15-7.92,6.52-5.07,3.5-11.24,7.78-14.78,14a49.24,49.24,0,0,0-12.73-19.43c-.61-.57-1.27-1.06-1.89-1.6-.44-6.53,2.78-12.65,5.64-18.05,1.82-3.47,3.41-6.46,3.77-9.09a1,1,0,1,0-2.07-.28c-.31,2.26-1.81,5.1-3.55,8.39C268,299,264.9,305,264.71,311.34a100.71,100.71,0,0,0-23.63-14,1,1,0,0,0,0-1c-3.22-5.23-3.14-11.72-3.08-17.44,0-3.64.08-6.78-.74-9.1a1,1,0,0,0-1.83.64c.71,2,.67,5,.63,8.44-.06,5.39-.1,12,2.89,17.56-3.43-1.43-6.91-2.74-10.42-4a.92.92,0,0,0-.73-.35l-.23,0c-3.53-1.2-7.07-2.35-10.59-3.43l9,3.6c-6,.8-11.18,4.35-15.45,7.27-2.85,1.95-5.31,3.63-7.37,4.16a1,1,0,0,0,.48,1.88c2.39-.61,5-2.39,8-4.44,4.73-3.23,10.08-6.9,16.22-7.12a1,1,0,0,0,.85-.58s0-.05,0-.07a145.26,145.26,0,0,1,14.75,6.86c2,1.06,4,2.17,6,3.33-6.08,1.17-11.38,4.93-15.74,8-3,2.16-5.65,4-7.86,4.62a1,1,0,0,0,.55,2c2.57-.71,5.32-2.67,8.52-4.94,5-3.58,10.73-7.63,17.33-8l.05,0a77.78,77.78,0,0,1,14.43,11.34,48.72,48.72,0,0,1,4.27,4.92c-7,2-12.7,7.21-17.33,11.5-3.06,2.85-5.71,5.31-8.08,6.3a1.17,1.17,0,0,0,.9,2.17c2.76-1.16,5.55-3.75,8.78-6.75,4.86-4.5,10.35-9.54,17.19-11.18,1,1.39,1.88,2.8,2.71,4.26a53.82,53.82,0,0,1,5,13.11,93.08,93.08,0,0,1,1.81,12.4c-5.32-.36-10.56,1.6-14.89,3.22-3,1.13-5.61,2.1-7.59,2.12a.91.91,0,0,0,0,1.81c2.29,0,5-1,8.2-2.24,4.46-1.67,9.45-3.52,14.45-3.08.36,4.73.53,9.5.74,14.29.29,5.22.66,10.47,1.27,15.71-3.67-1.49-7.8-1.58-11.26-1.64a20.61,20.61,0,0,1-6.27-.63.72.72,0,0,0-.52,1.34c1.72.66,4.06.7,6.77.74,3.75.06,7.94.12,11.5,1.84.5,3.91,1.11,7.8,2,11.66A105.33,105.33,0,0,0,296.63,426c9.26,17.3,22.87,31.67,37.62,44.09-6.81-6.87-13.71-13.64-19.55-21.3a128.42,128.42,0,0,1-15.69-24,112.93,112.93,0,0,1-9.46-26.9c0-.14-.05-.29-.08-.43a.73.73,0,0,0,.26-.2c2.62-3.75,7.09-5.61,11-7.25,2.5-1.05,4.66-1.95,6-3.19a.72.72,0,1,0-1-1.06c-1.16,1.07-3.21,1.92-5.59,2.91-3.66,1.53-8.14,3.43-11.05,7a177.19,177.19,0,0,1-2.69-26.31c0-.41,0-.83-.07-1.24,4.47-3.12,10.22-3.66,15.33-4.12,3.37-.3,6.29-.56,8.37-1.54a.9.9,0,1,0-.77-1.63c-1.79.84-4.56,1.09-7.76,1.37-4.76.43-10.55,1-15.28,3.83-.45-8.54-.94-17.21-2.95-25.76-.25-1-.55-2-.85-3,2.95-6.78,9.38-11.22,15.07-15.14,3.63-2.5,6.77-4.65,8.5-7.09a1.18,1.18,0,0,0-.28-1.64A1.17,1.17,0,0,0,304.13,313.67Z"/><path class="cls-10" d="M236.86,288.78a.8.8,0,0,1-1.35,0c-7.22-11.53-2.43-17.53-4.13-24.28-1.51-5.95,6,5.94,10.17,8.06C245.07,274.33,238.94,285.28,236.86,288.78Z"/><path class="cls-10" d="M268.46,302.79a.86.86,0,0,1-1.29-.68c-1.24-14.6,6.31-18,8-25.31,1.49-6.45,2.8,8.64,5.78,12.74C283.45,293,272.17,300.46,268.46,302.79Z"/><path class="cls-10" d="M289.56,327.74a1,1,0,0,1-.94-1.35c6.37-15.21,15.68-14.66,21.17-21.07,4.85-5.65-1.71,10.07-.88,15.72C309.61,325.77,294.47,327.35,289.56,327.74Z"/><path class="cls-10" d="M294.25,364.69a.75.75,0,0,1-.12-1.26c10-7.77,16-3.89,22.13-6.1,5.38-1.95-4.95,6.09-6.53,10.19C308.41,371,297.69,366.28,294.25,364.69Z"/><path class="cls-10" d="M295.24,392.31a.6.6,0,0,1-.39-.93c5.76-8.34,11.29-6.83,15.41-10,3.63-2.78-2.31,5.84-2.52,9.35C307.56,393.68,298.25,392.7,295.24,392.31Z"/><path class="cls-10" d="M218.35,296.67a.81.81,0,0,0-.76-1.13c-13.59.4-15.93,7.72-22.49,10-5.78,2.05,8.26,1.67,12.36,4C210.89,311.52,216.59,300.33,218.35,296.67Z"/><path class="cls-10" d="M242.11,308.35a.86.86,0,0,0-.84-1.19c-14.64.68-17,8.62-24,11.25-6.2,2.33,8.93,1.64,13.39,4.06C234.36,324.5,240.29,312.33,242.11,308.35Z"/><path class="cls-10" d="M262.56,328.21a1,1,0,0,0-1.11-1.21c-16.23,2.9-17.73,12.1-25.17,16.07-6.58,3.49,10.2.52,15.53,2.57C256.27,347.36,261.11,332.92,262.56,328.21Z"/><path class="cls-10" d="M274.82,355.72a.75.75,0,0,0-.43-1.19c-12.39-2.67-16.14,3.43-22.59,4.08-5.69.57,7.1,3.35,10.29,6.36C264.77,367.49,272.42,358.64,274.82,355.72Z"/><path class="cls-10" d="M279,385.16a.6.6,0,0,0,0-1c-8.44-5.61-13-2.16-18-3.57-4.41-1.24,4.31,4.57,5.81,7.75C268,391,276.31,386.63,279,385.16Z"/><path class="cls-10" d="M221.65,289.67a.72.72,0,0,1-.64,1c-12.3.14-14.68-6.39-20.69-8.25-5.31-1.64,7.4-1.81,11-4C214.37,276.52,219.93,286.42,221.65,289.67Z"/><path class="cls-6" d="M250.73,376c-.17,2-1.34,4.51-2.7,7.43-2,4.32-4.41,9.57-4.33,15.07a37.78,37.78,0,0,0-16.06-7.9c-.63-.14-1.26-.2-1.89-.32-2.85-4.16-3.11-9.48-3.34-14.19-.14-3-.26-5.62-1.06-7.5a.79.79,0,0,0-1-.43.8.8,0,0,0-.43,1.05c.68,1.63.8,4.1.94,7,.2,4.25.47,9.43,2.85,13.75a77.37,77.37,0,0,0-21.17,0,.74.74,0,0,0-.4-.69c-4.18-2.2-6.68-6.54-8.88-10.36-1.4-2.43-2.6-4.53-4.06-5.75a.75.75,0,0,0-1.05.1.74.74,0,0,0,.09,1.05c1.25,1.05,2.4,3,3.73,5.35,2.07,3.6,4.65,8,8.8,10.52-2.84.39-5.66.89-8.46,1.45a.74.74,0,0,0-.63.06l-.14.1c-2.81.59-5.61,1.21-8.37,1.88l7.4-1.16c-3.63,2.87-5.71,7.27-7.4,10.89-1.12,2.41-2.1,4.49-3.25,5.64a.75.75,0,0,0,0,1.06.75.75,0,0,0,1.06,0c1.34-1.34,2.37-3.53,3.55-6.07,1.87-4,4-8.53,8-11.08a.73.73,0,0,0,.33-.72s0,0,0-.05a111.05,111.05,0,0,1,12.47-1.23c1.77-.1,3.54-.15,5.3-.16-3.57,3.16-5.61,7.73-7.29,11.5-1.16,2.63-2.17,4.88-3.39,6.15a.8.8,0,1,0,1.15,1.12c1.43-1.47,2.49-3.85,3.71-6.61,1.94-4.35,4.13-9.27,8.37-12.1l0,0a60.29,60.29,0,0,1,14,1.86,36.91,36.91,0,0,1,4.76,1.59c-3.87,4.09-5.59,9.77-7,14.43-.91,3.09-1.71,5.76-2.89,7.35a.91.91,0,0,0,.19,1.27.9.9,0,0,0,1.26-.19c1.38-1.85,2.21-4.66,3.18-7.92,1.46-4.89,3.12-10.38,7-14.16,1.18.55,2.34,1.13,3.46,1.77a41.53,41.53,0,0,1,8.45,6.74,72.45,72.45,0,0,1,6.06,7.52c-3.67,1.84-6.38,5.2-8.61,8a20.3,20.3,0,0,1-4.2,4.39.69.69,0,0,0,.71,1.19c1.52-.91,2.93-2.67,4.57-4.7,2.3-2.86,4.88-6,8.37-7.71,2.1,3,4.08,6.09,6.1,9.18,2.24,3.36,4.55,6.69,7,9.93-3,.45-5.8,2-8.12,3.33a16.22,16.22,0,0,1-4.41,2,.55.55,0,1,0,.19,1.09,16.39,16.39,0,0,0,4.77-2.16c2.52-1.44,5.32-3,8.36-3.29,1.86,2.39,3.79,4.74,5.89,6.95a81.3,81.3,0,0,0,17.52,14.23c12.94,7.84,27.6,12,42.25,14.49-7.21-1.88-14.44-3.67-21.32-6.47a98.28,98.28,0,0,1-19.83-9.78,87,87,0,0,1-16.82-14.14l-.23-.25a.42.42,0,0,0,.09-.24c.28-3.51,2.51-6.5,4.48-9.13a16.66,16.66,0,0,0,2.74-4.48.56.56,0,0,0-.37-.69.56.56,0,0,0-.7.37,15.83,15.83,0,0,1-2.56,4.13c-1.83,2.45-4.06,5.47-4.59,9a137.25,137.25,0,0,1-12.1-16.39c-.18-.27-.35-.54-.53-.8,1.74-3.83,5.34-6.44,8.55-8.75,2.12-1.52,4-2.83,5-4.3a.68.68,0,0,0-.18-1,.69.69,0,0,0-1,.18,19.69,19.69,0,0,1-4.61,3.95c-3,2.15-6.62,4.78-8.63,8.54-3.65-5.49-7.38-11.05-12.06-15.93-.56-.56-1.14-1.1-1.73-1.64-.7-5.65,1.83-11.12,4.06-16,1.43-3.08,2.67-5.74,2.86-8a.9.9,0,0,0-.83-1A.89.89,0,0,0,250.73,376Z"/><path class="cls-7" d="M196.34,385.89a.61.61,0,0,1-.9.52c-9.31-4.81-8.49-10.67-12.26-14.48-3.34-3.36,6.29,1.6,9.91,1.36C196.12,373.09,196.34,382.76,196.34,385.89Z"/><path class="cls-7" d="M222.8,382.79a.66.66,0,0,1-1.12.06c-6.56-9.2-2.88-14.42-4.63-19.93-1.54-4.86,5.25,4.64,8.84,6.19C228.9,370.41,224.35,379.79,222.8,382.79Z"/><path class="cls-7" d="M246.57,391.07a.74.74,0,0,1-1.14-.53c-1.74-12.58,4.64-15.87,5.78-22.27,1-5.65,2.81,7.35,5.58,10.77C259.11,381.9,249.68,388.89,246.57,391.07Z"/><path class="cls-7" d="M264.18,413.74a.57.57,0,0,1-.57-.78c3.59-9.09,9.11-8.87,12.28-12.73,2.81-3.4-.89,6-.33,9.32C276,412.35,267.08,413.46,264.18,413.74Z"/><path class="cls-7" d="M275.67,431.68a.46.46,0,0,1-.63-.46c.55-7.8,4.81-9,6.31-12.67,1.31-3.27.76,4.78,2,7.19C284.37,427.76,277.81,430.76,275.67,431.68Z"/><path class="cls-7" d="M187.15,398.38a.61.61,0,0,0-.94-.44c-8.87,5.59-7.54,11.36-11,15.48-3,3.63,6.13-2.13,9.76-2.2C188,411.16,187.42,401.5,187.15,398.38Z"/><path class="cls-7" d="M207.49,396.82a.67.67,0,0,0-1-.47c-9.45,6.2-7.91,12.4-11.53,16.9-3.2,4,6.56-2.42,10.47-2.56C208.69,410.57,207.85,400.17,207.49,396.82Z"/><path class="cls-7" d="M228.85,402a.75.75,0,0,0-1.21-.37c-9.63,8.3-7,15-10.4,20.53-3,4.9,7-3.65,11.31-4.38C232.19,417.14,229.74,405.66,228.85,402Z"/><path class="cls-7" d="M247.77,415.41a.57.57,0,0,0-.75-.61c-9.27,3.08-9.36,8.6-13.39,11.56-3.55,2.61,6-.57,9.32.18C245.72,427.16,247.32,418.29,247.77,415.41Z"/><path class="cls-7" d="M262.05,433.32a.45.45,0,0,0-.38-.67c-7.8-.42-9.48,3.67-13.34,4.69-3.41.91,4.65,1.34,6.88,2.86C257.09,441.48,260.88,435.34,262.05,433.32Z"/><path class="cls-7" d="M186.6,392.45a.56.56,0,0,1,0,.94c-8.1,4.92-12.24,1.52-17,2.64-4.16,1,4.2-4.1,5.72-7C176.61,386.58,184.18,391,186.6,392.45Z"/><path class="cls-11" d="M367.79,412.85c-7.89-7.52-6.28,16.25-18.66,18.8s-15.27-20.57-4.64-25.94,1.11-29.1-7.77-33.14-1.91,25.67-11.77,25.1-9.7-6-8.49-13.14-7.62-20.2-15.84-16.83S305.87,387,311.09,397s-5.49,8.86-14.83-4.81-42.17-32.28-53.56-27.08-13.79,11.88,2.41,27.18,38.79,13.25,52.73,20.43,6.53,18.65-12.09,11.49-41.48-15.5-52.23-7.57,7,23.59,33.5,19.89,39.27,3,45.38,13.71-10.7,6.63-24.48,6.26-9.76,15.26,9.23,14.77c32.65-3.69,32.9,12.69,49.93,4.87,14.43-6.63,4.47-29.52,15.66-34.85S375.68,420.37,367.79,412.85Zm-33.69-13c0-3.17,1.81-7.86,1.81-7.86,1.89-7.47,3.1-11.54,5.5-7.64s4.75,9.29,1.13,12.31S334.1,403,334.1,399.86Zm-73.79-10.94c-9.25-.26-12.7-4.59-15-11.07s-1-3,9.22-2.16,8.51,7.46,13.09,13.15S260.31,388.92,260.31,388.92Zm-7.86,40.23c-4.75,1.29-11.56-1.62-14.42-3.83s5.63-6.73,14.35-3.36c0,0,10.58,4,10.78,5.22S257.19,427.86,252.45,429.15Zm51.81,36.5c-1.9,1.89-7.1,2-14.35.3s1.13-4.71,8.73-3.49C302.66,463.11,306.16,463.76,304.26,465.65Zm.11-86.79c-2.3-2.91-2.28-6.95,2.14-6.54s4.41,4.19,2.45,10.42A13.42,13.42,0,0,1,304.37,378.86Zm32.31,79.81c-6.5,1.52-10.8-10.7-10.8-10.7-2.12-9.78-14.5-9.58-12.55-21.21s6.28-20.59,9.57-8.37c2.79,10.33,3.26,17.43,20.2,20.13C355.9,440.56,343.34,457.11,336.68,458.67ZM368,429c-3.22,2.38-8.91,5.2-4.74-2.94,2.45-4.78,2.66-9.41,4.43-6.45S371.18,426.57,368,429Z"/><path class="cls-12" d="M309.35,205.16a25.07,25.07,0,0,1-25.06,25.06h-84.7a11.65,11.65,0,0,1-1.32-.05,28.69,28.69,0,1,1,7.48-56.71,39.46,39.46,0,0,1,73.55,7.17,21.62,21.62,0,0,1,5-.54A25.11,25.11,0,0,1,309.35,205.16Z"/><path class="cls-13" d="M224.82,170a2.66,2.66,0,0,1-1.5-4.85,31,31,0,0,1,17.56-5.42,2.66,2.66,0,0,1,0,5.31,25.7,25.7,0,0,0-14.56,4.49A2.61,2.61,0,0,1,224.82,170Z"/><path class="cls-13" d="M215.32,180.94a2.66,2.66,0,0,1-2.39-3.82,30.14,30.14,0,0,1,3.36-5.38,2.65,2.65,0,0,1,4.19,3.25,25.61,25.61,0,0,0-2.78,4.46A2.65,2.65,0,0,1,215.32,180.94Z"/><path class="cls-14" d="M372,463.7l.05-.15-.11.06A12.21,12.21,0,0,0,361.2,457h-89a12,12,0,0,0-6.05,1.81l-.05-.2-31.5,15.82,38.46,11.47L272,481.59c.08,0,.15.05.23.05h66.65l-6.09,15.64,33.76-16.86.05-.16a12.24,12.24,0,0,0,6.93-11h0A12,12,0,0,0,372,463.7Z"/><rect class="cls-15" x="226.83" y="473.53" width="113.63" height="24.67" rx="12.33"/><circle class="cls-14" cx="240.69" cy="481.95" r="2.62"/><circle class="cls-14" cx="249.94" cy="481.95" r="2.62"/><circle class="cls-14" cx="259.19" cy="481.95" r="2.62"/><path class="cls-16" d="M242.73,482.45a2.62,2.62,0,1,1-2.62-2.62A2.62,2.62,0,0,1,242.73,482.45Z"/><path class="cls-16" d="M252,482.45a2.62,2.62,0,1,1-2.62-2.62A2.62,2.62,0,0,1,252,482.45Z"/><path class="cls-16" d="M261.23,482.45a2.62,2.62,0,1,1-2.62-2.62A2.62,2.62,0,0,1,261.23,482.45Z"/><path class="cls-14" d="M323.7,493.29H296.15a3.4,3.4,0,0,1-3.4-3.4h0a3.4,3.4,0,0,1,3.4-3.4H323.7a3.4,3.4,0,0,1,3.4,3.4h0A3.4,3.4,0,0,1,323.7,493.29Z"/><path class="cls-17" d="M372,463.7l.05-.15-.11.06A12.21,12.21,0,0,0,361.2,457h-89a12,12,0,0,0-6.05,1.81l-.05-.2-31.5,15.82h0a12.32,12.32,0,0,0,4.49,23.79h89a12.31,12.31,0,0,0,4.67-.93h0l.05,0c.15-.06.28-.15.42-.22l33.29-16.62.05-.16a12.24,12.24,0,0,0,6.93-11h0A12,12,0,0,0,372,463.7Z"/><path class="cls-14" d="M550.69,354.18H475.15a18.42,18.42,0,0,1-16.79-10.84l-4.42-9.8a13.82,13.82,0,0,0-12.59-8.13H386.68a18.29,18.29,0,0,0-10.6,3.39l-14.8,9.7,7,5.77V454.7a18.42,18.42,0,0,0,18.42,18.42h155.8l4.77,5.67,13.39-8.63.55-.35.4-.26,0-.06a18.34,18.34,0,0,0,7.54-14.79V372.6A18.42,18.42,0,0,0,550.69,354.18Z"/><path class="cls-18" d="M553.92,382.52v82.09A18.42,18.42,0,0,1,535.5,483h-164a18.42,18.42,0,0,1-18.41-18.42V353.74a18.42,18.42,0,0,1,18.41-18.42h54.67a13.81,13.81,0,0,1,12.59,8.13l4.42,9.81A18.42,18.42,0,0,0,460,364.1H535.5A18.41,18.41,0,0,1,553.92,382.52Z"/><path class="cls-13" d="M482.51,256.92,451.7,343.36a7,7,0,0,1-3.17,3.81L445,339.33a14.13,14.13,0,0,0-12.6-8.14H396l-21.66-7.7a7.21,7.21,0,0,1-4.39-9.21l30.73-86.44a7.22,7.22,0,0,1,9.21-4.39l68.24,24.25A7.29,7.29,0,0,1,482.51,256.92Z"/><path class="cls-19" d="M423,255.31l-10.8-3.84a6.75,6.75,0,0,1-4.1-8.62h0a6.75,6.75,0,0,1,8.62-4.1l10.81,3.85a6.73,6.73,0,0,1,4.09,8.61h0A6.75,6.75,0,0,1,423,255.31Z"/><path class="cls-19" d="M449.12,291.66l-45.5-16.18a6.74,6.74,0,0,1-4.09-8.62h0a6.75,6.75,0,0,1,8.62-4.09L453.64,279a6.75,6.75,0,0,1,4.09,8.62h0A6.73,6.73,0,0,1,449.12,291.66Z"/><path class="cls-19" d="M441.65,312.64l-45.49-16.18a6.74,6.74,0,0,1-4.09-8.62h0a6.73,6.73,0,0,1,8.61-4.09l45.5,16.18a6.74,6.74,0,0,1,4.09,8.62h0A6.75,6.75,0,0,1,441.65,312.64Z"/><path class="cls-19" d="M442.78,329.54a6.57,6.57,0,0,1-3.17,3.74,13.32,13.32,0,0,0-7.2-2.09H427.3l-38.58-13.74a6.74,6.74,0,0,1,2.31-13.1,6,6,0,0,1,2.23.36l45.49,16.19A6.74,6.74,0,0,1,442.78,329.54Z"/><path class="cls-15" d="M548.68,340.25l-24.4,24.4h-36L474.55,350.9a6.78,6.78,0,0,1-1.95-5,6.85,6.85,0,0,1,1.95-4.32l37.71-37.71a6.6,6.6,0,0,1,9.36,0l27.06,27.06A6.61,6.61,0,0,1,548.68,340.25Z"/><path class="cls-20" d="M516.62,301.89,512,338.07a3.49,3.49,0,0,1-3.14,3.13l-36.23,4.68a6.64,6.64,0,0,1,1.92-4.35l37.73-37.73A6.49,6.49,0,0,1,516.62,301.89Z"/><path class="cls-21" d="M548.68,330.89l-27.06-27.06a6.68,6.68,0,0,0-5-1.94h0a6.55,6.55,0,0,0-4.35,1.92l-37.73,37.73a6.41,6.41,0,0,0-1.56,2.8,8.15,8.15,0,0,0-.38,1.53,6.78,6.78,0,0,0,1.95,5l13.75,13.75h36l24.4-24.4A6.61,6.61,0,0,0,548.68,330.89Z"/><path class="cls-20" d="M511.61,198.11a29.77,29.77,0,1,0,29.77,29.77A29.72,29.72,0,0,0,511.61,198.11Zm0,40.62a10.85,10.85,0,1,1,10.85-10.85A10.88,10.88,0,0,1,511.61,238.73Z"/><path class="cls-22" d="M511.61,217a10.85,10.85,0,1,0,10.85,10.85A10.82,10.82,0,0,0,511.61,217Zm0,19.34a8.49,8.49,0,1,1,8.5-8.49A8.46,8.46,0,0,1,511.61,236.37Z"/><rect class="cls-14" x="523.08" y="265.31" width="39.74" height="29.8" rx="6.69"/><path class="cls-23" d="M533.32,287.68V274.4a3,3,0,0,1,4.2-2.74l15,6.65a3,3,0,0,1,0,5.47l-15,6.64A3,3,0,0,1,533.32,287.68Z"/><rect class="cls-24" x="523.08" y="265.31" width="39.74" height="29.8" rx="6.69"/><ellipse class="cls-14" cx="605.31" cy="480.14" rx="13.53" ry="4.59"/><path class="cls-18" d="M579.4,151.31H485.8a29.18,29.18,0,0,0-29.15,29.15v13.9a11,11,0,1,0,6.48,0V180.46a22.7,22.7,0,0,1,22.67-22.67h93.6a22.7,22.7,0,0,1,22.67,22.67V478.12a3.24,3.24,0,0,0,6.48,0V180.46A29.19,29.19,0,0,0,579.4,151.31Zm-119.53,58a4.52,4.52,0,1,1,4.52-4.52A4.53,4.53,0,0,1,459.87,209.34Z"/><path class="cls-25" d="M341.48,461.45a6.91,6.91,0,0,0-1.54-4.47H272.26a11.76,11.76,0,0,0-6.06,1.79l-.08-.2-10.61,5.32v.16c-.08,3.91,3.3,6.91,8.74,9.47a66.18,66.18,0,0,0,8.34,3.05,2.84,2.84,0,0,0,.16.57,12.39,12.39,0,0,1-4,.61,3.21,3.21,0,0,1-.08-.65,7.54,7.54,0,0,0-7.39,2.36v0l-.82.24-.12,0,.12.86.21,1.62.24,1.59v.16l1.95,14.27h4.39a40,40,0,0,1,4.23-12.28c-.12-.16-.2-.36-.33-.53,0,0,.08,0,.13-.08a11.35,11.35,0,0,1,1.58-.61c1.1-.36,2.2-.61,2.72-.73a3.35,3.35,0,0,0,.82.89c4.31-1.13,9-2.19,13.9-3.21.61-.12,1.26-.28,1.87-.4.65.12,1.26.28,1.91.4,7.76,1.59,15.69,3.13,22.76,4.84,1.3.33,2.56.65,3.78,1a3.78,3.78,0,0,0,.49-.57,17.4,17.4,0,0,1,3.82,1.83l-.37.48a24.94,24.94,0,0,1,1.18,3.42,41.44,41.44,0,0,1,1.06,5.57h1.34a13.15,13.15,0,0,0,2.28-.21,11.5,11.5,0,0,0,2.4-.73h.08a0,0,0,0,0,0,0h0v0l.28-1.06v0l3.13-11.62-.89-.41,0,0a8.11,8.11,0,0,0-2.73-2.44,8,8,0,0,0-4.26-.81c0,.2-.13.41-.17.61a10.69,10.69,0,0,1-4.18-1.26,10.68,10.68,0,0,1,.32-1.06c-2.48-1.05-5-2.11-7.44-3.13,3.13-.77,6.14-1.58,8.87-2.48C335.18,470.52,341.57,466.78,341.48,461.45ZM288.24,463l11.05,1.38a2.5,2.5,0,0,0,1.3-.21v0a1.88,1.88,0,0,0,.78-.73l3-3a61.71,61.71,0,0,0,12.28,1.1,175.58,175.58,0,0,0-22,6.38c-5.25-1.62-10.12-3-14.23-3.78C282.38,463.81,285.15,463.48,288.24,463Z"/><path class="cls-26" d="M316.8,483.44s4.7,1.53,5.46,2.95,3.89-8,3.89-8-5.09-.12-6.84-2.36S316.8,483.44,316.8,483.44Z"/><path class="cls-16" d="M326.47,500.92l5.4-20.05a7.54,7.54,0,0,0-7-3.26C324.21,481,323,484,321,486c1.6,3.69,2.35,8.43,2.73,13.64C323.94,501.36,325,501.55,326.47,500.92Z"/><polygon class="cls-14" points="332.8 481.26 327.38 501.34 326.47 500.92 331.88 480.83 332.8 481.26"/><path class="cls-6" d="M313.19,446c-5.66,11.21-27.93,13.81-36.39,14.87,11.5,2.34,28.57,8.24,44,15.07-1.22,3.85-1.83,6.89-3.81,8.31-25.13-6.77-65.33-10.09-65.1-23.42,0-9.45,16.47-11.64,29.75-14.25Z"/><path class="cls-26" d="M272.32,480.69s-4.86.92-5.79,2.23-2.85-8.44-2.85-8.44,5.07.51,7.09-1.48S272.32,480.69,272.32,480.69Z"/><path class="cls-16" d="M260.52,496.8l-2.82-20.58a7.56,7.56,0,0,1,7.37-2.34c.21,3.47,1,6.52,2.81,8.81-2.06,3.45-3.41,8.06-4.45,13.18C263,497.56,261.9,497.61,260.52,496.8Z"/><polygon class="cls-14" points="256.73 476.5 259.55 497.1 260.52 496.8 257.69 476.19 256.73 476.5"/><path class="cls-6" d="M279.2,443c4.39,12.49,23,15.43,33.83,15.3-11.5,2.35-28.57,8.24-44,15.07,1.22,3.85,1.83,6.89,3.81,8.32,25.13-6.77,65.33-10.1,65.09-23.43,0-9.44-16.46-11.64-29.74-14.24Z"/><path class="cls-10" d="M276.31,446.77c.75,3,39.18,1,39.78-2.23.79-17.11-2.38-59.71-4.68-65.33-3.19-.83-11.1-1.52-14.26-1.94l0,0a72.18,72.18,0,0,0-15.5-.75,68.27,68.27,0,0,0-8.88,1.15c.28,6.22.34,11.76.31,16.88,0,1.39,0,2.75-.08,4.06C272.85,405.66,274.79,436.33,276.31,446.77Z"/><path class="cls-27" d="M294.76,366.51c-.61,3.45-.24,6.58,2.35,10.72,2.73.95-2.54,7.28-8.18,6.95a8.66,8.66,0,0,1-7.34-7.67c2.77-1.25,2.2-4.79,2.13-8Z"/><path class="cls-26" d="M297.82,369.22c-3.63,2.8-12.33,5.8-14.94,4.7-4.67-1.38-6.15-21.2-1.08-26l13.95,3.21,4.92,9.49C299.71,364.21,300.59,367.23,297.82,369.22Z"/><path class="cls-28" d="M297.82,369.22c-3.63,2.8-12.33,5.8-14.94,4.7-4.67-1.38-6.15-21.2-1.08-26l13.95,3.21,4.92,9.49C299.71,364.21,300.59,367.23,297.82,369.22Z"/><path class="cls-14" d="M292.62,356.2c-6.66,1.28-8.47-1.9-12.18-.9-1.29.67-.89,2.7-1.8,3.87-2-4.55-8.61-15.11,2.95-12.41,3.07-1.72,8.78-3.37,14.25-.83,4.19,1.49,7.14,7.31,5.33,13.39-.47,4.55,2.9,5.83-2.74,10-3,2.2-6.85-.68-4.14-3,1.1-.17,1.57-1.4,1.55-2.42.16-1.32.63-2.2-.64-2.8-.44-.16-2.05.3-2.83,2.17C291.34,361.44,291.91,358.7,292.62,356.2Z"/><path class="cls-15" d="M297,460.9l11.32-11.25a1.07,1.07,0,0,0-.67-1.84c-7.61-.45-30.87-1.82-31.13-1.82s-7.85,11.77-7.85,11.77Z"/><path class="cls-14" d="M261.63,456.92l34.1,4.2c1.79.22,2.77-1.2,2.18-3.16l-6-20a5.85,5.85,0,0,0-4.32-4l-34.1-4.19c-1.8-.22-2.77,1.19-2.18,3.16l6,20A5.82,5.82,0,0,0,261.63,456.92Z"/><path class="cls-26" d="M332.79,419.11c.07,9.11-17.32,21.26-26.89,31.3l-4.07,1.16-2.59,3.31H297l-1.36-4.47,1.69-2.48,4.18-1.26L320.57,419l-5.46-9a55.09,55.09,0,0,0,13.05-5C330.91,411.33,332.76,417,332.79,419.11Z"/><path class="cls-29" d="M332.79,419.11c.07,9.11-17.32,21.26-26.89,31.3l-4.07,1.16-2.59,3.31H297l-1.36-4.47,1.69-2.48,4.18-1.26L320.57,419l-5.46-9a55.09,55.09,0,0,0,13.05-5C330.91,411.33,332.76,417,332.79,419.11Z"/><path class="cls-10" d="M276,388.57l-1.76,5.7c-.86,1.72-1.72,3.51-2.61,5.36-.27,0-.56,0-.9,0a23.26,23.26,0,0,1-8.51-2.25c-.3-.17-.46-.37-.46-.5.83-4.44,6.56-17.6,11-19.28Z"/><path class="cls-10" d="M328.16,405a55.09,55.09,0,0,1-13.05,5l-10.67-17.59,7-13.18C315.5,379.2,323.22,393.34,328.16,405Z"/><path class="cls-26" d="M288.91,376.62c-.5,1.09-1,2.45-2.09,2.88-6.42,26.1-12.22,33.35-19.38,32.82-3.74-.3-5.68-4.39-5.25-8.8a20.43,20.43,0,0,1,.92-5.64A30.25,30.25,0,0,0,271,399.2a28.45,28.45,0,0,0-.8,2.95l.8-2.95a2.85,2.85,0,0,1,.16-.43c1.13-2.25,8.15-17.39,11.63-20.37-.63-.46-.93-2.08-1.1-2.78s-.19-2.75.57-3.77c.23-.34,1.65-.9,1.45.29a4.31,4.31,0,0,0,.27,1.66c1.26-1.66.6-3.88,2.09-3.41C289.64,371.75,289.93,374.1,288.91,376.62Z"/><path class="cls-30" d="M288.91,376.62c-.5,1.09-1,2.45-2.09,2.88-6.42,26.1-12.22,33.35-19.38,32.82-3.74-.3-5.68-4.39-5.25-8.8a20.43,20.43,0,0,1,.92-5.64A30.25,30.25,0,0,0,271,399.2a28.45,28.45,0,0,0-.8,2.95l.8-2.95a2.85,2.85,0,0,1,.16-.43c1.13-2.25,8.15-17.39,11.63-20.37-.63-.46-.93-2.08-1.1-2.78s-.19-2.75.57-3.77c.23-.34,1.65-.9,1.45.29a4.31,4.31,0,0,0,.27,1.66c1.26-1.66.6-3.88,2.09-3.41C289.64,371.75,289.93,374.1,288.91,376.62Z"/><path class="cls-26" d="M271,399.2l-.8,2.95A28.45,28.45,0,0,1,271,399.2Z"/><path class="cls-26" d="M222.23,368.41a12,12,0,0,1-5.69-1.48c-5.2,1.5-37.77-.39-42.63-2.73-3.3-1.13-16.52-10.32-16.22-13.2a21,21,0,0,0,9.57-6.29l8.69,10.1,6.3.75,26.69,3.26,5.07.58,2.75.33a16.86,16.86,0,0,1,4.45-4c1.44.1,1.46.46,1.74,1.54-.85.94-1.25,1.38-1,2.64,2.11.67,5.75-1.52,6-1.18.51,1.24-.22,3.39-1.21,5.47A10.1,10.1,0,0,1,222.23,368.41Z"/><path class="cls-31" d="M222.23,368.41a12,12,0,0,1-5.69-1.48c-5.2,1.5-37.77-.39-42.63-2.73-3.3-1.13-16.52-10.32-16.22-13.2a21,21,0,0,0,9.57-6.29l8.69,10.1,6.3.75,26.69,3.26,5.07.58,2.75.33a16.86,16.86,0,0,1,4.45-4c1.44.1,1.46.46,1.74,1.54-.85.94-1.25,1.38-1,2.64,2.11.67,5.75-1.52,6-1.18.51,1.24-.22,3.39-1.21,5.47A10.1,10.1,0,0,1,222.23,368.41Z"/><path class="cls-6" d="M166.3,343.38l6.58,6.61c-1.56,2.72-4.82,7.76-8.37,9.78-4.64-2.25-11-5.06-15.45-10.19Z"/><path class="cls-26" d="M138.25,508.69s-.26,3.93.82,5.21-10.14,1.32-10.14,1.32,3.2-5.83,1.82-8.39S138.25,508.69,138.25,508.69Z"/><path class="cls-14" d="M150.64,522.64l-21.85-1.73c-1.4-2.41-1.08-4.79.57-7.16a19.58,19.58,0,0,0,10-.71c2.66,2.58,6.77,4.76,11.52,6.77C152.38,520.59,152,521.56,150.64,522.64Z"/><rect class="cls-23" x="128.68" y="521.77" width="21.95" height="0.94" transform="translate(237.56 1053.9) rotate(-175.46)"/><path class="cls-22" d="M106,405.76a12.58,12.58,0,0,1,1.09,2.36c1.45,6.32,17.71,31.85,22.32,45.05,4.15,13.32,3.08,33.82.76,56.59a15.57,15.57,0,0,0,9.06.54c4.54-23,11.48-51.71,9.3-58.75a231.16,231.16,0,0,0-13.84-49.1l-.76-2.7-1.18-4.19-4.6,1.77-16.36,6.23Z"/><path class="cls-26" d="M87,501.23s-1.71,3.55-1.18,5.14-9.91-2.57-9.91-2.57,5.16-4.21,4.84-7.1S87,501.23,87,501.23Z"/><path class="cls-14" d="M93.25,518.81,73.64,509c-.39-2.76.8-4.85,3.21-6.43a19.61,19.61,0,0,0,9.53,3.09c1.5,3.39,4.5,6.95,8.14,10.59C95.63,517.56,94.93,518.33,93.25,518.81Z"/><rect class="cls-23" x="72.25" y="513.86" width="21.95" height="0.94" transform="translate(-72.21 1011.62) rotate(-153.45)"/><path class="cls-22" d="M105,396.34c0,.88-8.69,7.59-9,8.43-5.28,15.91,3.15,28.15,3.57,41.67C98.46,460.35,89.79,479,79.1,499.2a15.59,15.59,0,0,0,8.2,3.89c12.83-19.62,30-43.63,30.64-51a231.17,231.17,0,0,0,5.57-50.71l.31-2.79.47-4.32-4.92-.09-17.51-.35Z"/><path class="cls-18" d="M93.8,401.25c-1.3,5.63,42.59,14.84,44.31,11.09,1.93-19.58,6-26.34,16.22-44.37a.07.07,0,0,1,0-.05c1.67-3,3.38-6.13,5.13-9.59.38-.76.77-1.54,1.16-2.36q2.81-5.72,5.66-12.6a72.9,72.9,0,0,0-9.46-3.94c-3.8-.92-7.09-2.69-10.49-3.46-4.35-1-8-2.51-14.89-.85C116.9,341.63,113.27,375.71,93.8,401.25Z"/><path class="cls-27" d="M160.54,332.26,148.08,330c-.61,4.83-.43,4.6-4.79,5.07-2,8.63,17.59,17.25,14.87,4.92C153.93,338.08,157.3,336.4,160.54,332.26Z"/><path class="cls-32" d="M160.54,332.26,148.08,330c-.61,4.83-.43,4.6-4.79,5.07-2,8.63,17.59,17.25,14.87,4.92C153.93,338.08,157.3,336.4,160.54,332.26Z"/><path class="cls-6" d="M219.92,374.33H245a2.49,2.49,0,0,1,2.49,2.49v42.44a0,0,0,0,1,0,0h-30a0,0,0,0,1,0,0V376.82A2.49,2.49,0,0,1,219.92,374.33Z" transform="translate(677.39 513.01) rotate(135)"/><rect class="cls-19" x="177.92" y="321.15" width="45.39" height="87.62" rx="17.82" transform="translate(600.54 481.18) rotate(135)"/><rect class="cls-14" x="243" y="406.53" width="3.25" height="4.87" rx="1.08" transform="translate(706.78 525.18) rotate(135)"/><rect class="cls-14" x="246.29" y="403.19" width="3.25" height="4.87" rx="1.08" transform="translate(710.03 517.14) rotate(135)"/><rect class="cls-14" x="249.6" y="399.87" width="3.25" height="4.87" rx="1.08" transform="translate(713.35 509.13) rotate(135)"/><rect class="cls-14" x="239.65" y="409.82" width="3.25" height="4.87" rx="1.08" transform="translate(-220.84 291.35) rotate(-45)"/><rect class="cls-14" x="236.33" y="413.14" width="3.25" height="4.87" rx="1.08" transform="translate(-224.16 289.98) rotate(-45)"/><path class="cls-26" d="M188.6,386.07a11.93,11.93,0,0,1-5.27-2.6c-5.4.42-36.92-8-41.2-11.28-3-1.76-14.1-13.44-13.23-16.2a21,21,0,0,0,10.64-4.22L146,363.41l6,2L177.52,374l4.85,1.59,2.63.88c1.52-1.5,3.43-2.17,5.15-3,1.39.39,1.34.75,1.4,1.87-1,.75-1.51,1.1-1.49,2.39,1.93,1.08,5.94-.33,6.07,0,.26,1.32-.9,3.28-2.28,5.12A10.14,10.14,0,0,1,188.6,386.07Z"/><path class="cls-33" d="M188.6,386.07a11.93,11.93,0,0,1-5.27-2.6c-5.4.42-36.92-8-41.2-11.28-3-1.76-14.1-13.44-13.23-16.2a21,21,0,0,0,10.64-4.22L146,363.41l6,2L177.52,374l4.85,1.59,2.63.88c1.52-1.5,3.43-2.17,5.15-3,1.39.39,1.34.75,1.4,1.87-1,.75-1.51,1.1-1.49,2.39,1.93,1.08,5.94-.33,6.07,0,.26,1.32-.9,3.28-2.28,5.12A10.14,10.14,0,0,1,188.6,386.07Z"/><path class="cls-26" d="M160,338.73c-1.63.87-8.15-3.7-14.62-8.83l5.55-20,17.34,4.68C170.25,325.21,163.25,338,160,338.73Z"/><path class="cls-34" d="M160,338.73c-1.63.87-8.15-3.7-14.62-8.83l5.55-20,17.34,4.68C170.25,325.21,163.25,338,160,338.73Z"/><path class="cls-35" d="M178.28,314.27c1.84,2.35-3.94,10.65-10.12,10.15a15.38,15.38,0,0,1-8.55-5.44c-1.43,2.42-3.61,5.83-2.9,7.42a4.32,4.32,0,0,1-3.28-.26c.5-1.63.48-3.15-.55-4.19-.66-.63-.83-.67-2-.41-1.42.38-1.43,1.94-.64,3.14,2,2.73-1.24,7-2.75,8.73-2-1.2-3.74-5.58-4.24-7.56-.42-5-.85-6.57,3.14-14.09C157.18,299.35,162,310.6,178.28,314.27Z"/><g class="cls-36"><path class="cls-37" d="M349.5,251.43l-4.41,17.4,4.75-1.35a21.72,21.72,0,0,1-6.19,13.42,22,22,0,0,1-27.51,2.84l-3.93,6A29.28,29.28,0,0,0,348.74,286a28.93,28.93,0,0,0,8.34-20.55l5.28-1.5Z"/><path class="cls-37" d="M306.85,279.32l4.36-17.4-4.74,1.35a21.76,21.76,0,0,1,33.63-16.15l3.93-6a28.92,28.92,0,0,0-44.81,24.25L294,266.85Z"/></g><path class="cls-38" d="M453.22,454.77l-29.85-25.28a1.17,1.17,0,0,1-.42-.9v-51a1.55,1.55,0,0,1,0-.22,1.29,1.29,0,0,1,.19-.47,1.2,1.2,0,0,1,.37-.34,1.16,1.16,0,0,1,.38-.15,1.34,1.34,0,0,1,.4,0,1.15,1.15,0,0,1,.47.18,1.24,1.24,0,0,1,.35.37.88.88,0,0,1,.09.2l19.67,50.28h17.79l18.89-50.26a.67.67,0,0,1,.09-.21,1.2,1.2,0,0,1,.34-.37,1.29,1.29,0,0,1,.47-.19,1.41,1.41,0,0,1,.41,0,1.17,1.17,0,0,1,.75.48,1.29,1.29,0,0,1,.19.47,1.79,1.79,0,0,1,0,.23v51a1.18,1.18,0,0,1-.4.88l-28.68,25.29Zm-7.42-25L454,450.62l7.84-20.86Zm-18.5,0L451.21,450l-7.92-20.24Zm37,0-7.57,20.15,22.85-20.15Zm.87-2.34h16.33V384Zm-39.88,0h17.09l-17.09-43.69Z"/></g></g></svg>