<svg id="Capa_1" data-name="Capa 1" xmlns="http://www.w3.org/2000/svg" xmlns:xlink="http://www.w3.org/1999/xlink" viewBox="0 0 117.96 117.96"><defs><style>.cls-1{fill:url(#New_Gradient_Swatch_2);}.cls-2{fill:url(#New_Gradient_Swatch_2-2);}.cls-3{fill:none;stroke-miterlimit:10;stroke-width:2px;stroke:url(#New_Gradient_Swatch_2-3);}</style><linearGradient id="New_Gradient_Swatch_2" x1="63.57" y1="64.79" x2="73.93" y2="64.79" gradientUnits="userSpaceOnUse"><stop offset="0" stop-color="#d40b00"/><stop offset="1" stop-color="#ff5c00"/></linearGradient><linearGradient id="New_Gradient_Swatch_2-2" x1="44.68" y1="64.79" x2="55.03" y2="64.79" xlink:href="#New_Gradient_Swatch_2"/><linearGradient id="New_Gradient_Swatch_2-3" x1="28.08" y1="60.15" x2="89.88" y2="60.15" xlink:href="#New_Gradient_Swatch_2"/></defs><path class="cls-1" d="M63.57,64.79A5.18,5.18,0,1,1,68.75,70,5.18,5.18,0,0,1,63.57,64.79Z"/><path class="cls-2" d="M44.68,64.79A5.18,5.18,0,1,1,49.86,70,5.18,5.18,0,0,1,44.68,64.79Z"/><path id="Fill-3" class="cls-3" d="M70.08,77.64c-3.2,3.19-9.31,3.44-11.11,3.44s-7.91-.25-11.1-3.44a1.21,1.21,0,1,1,1.72-1.71c2,2,6.31,2.73,9.38,2.73s7.38-.72,9.39-2.73a1.21,1.21,0,0,1,1.72,0,1.23,1.23,0,0,1,0,1.71m18.8-17a6.54,6.54,0,0,0-11.09-4.71,32,32,0,0,0-17.5-5.55l3-14L73,38.4a4.7,4.7,0,1,0,.48-2.28L62.61,33.8a1.18,1.18,0,0,0-.88.16,1.13,1.13,0,0,0-.5.74L58,50.09a1.13,1.13,0,0,0,0,.26A32,32,0,0,0,40.15,55.9,6.54,6.54,0,1,0,33,66.58a13.14,13.14,0,0,0-.16,2C32.79,78.64,44.52,86.8,59,86.8s26.18-8.16,26.18-18.23a12.87,12.87,0,0,0-.15-2,6.57,6.57,0,0,0,3.88-6"/></svg>