<svg id="Capa_1" data-name="Capa 1" xmlns="http://www.w3.org/2000/svg" viewBox="0 0 117.96 117.96"><defs><style>.cls-1{fill:#2aa4ef;}</style></defs><path id="Twitter" class="cls-1" d="M82,44.13a19.26,19.26,0,0,1-6.12,2.4,9.51,9.51,0,0,0-7-3.12A9.91,9.91,0,0,0,59.5,55.53,27.11,27.11,0,0,1,39.65,45.21a10.07,10.07,0,0,0,3,13.19,9.5,9.5,0,0,1-4.36-1.23v.12A9.81,9.81,0,0,0,46,67a9.31,9.31,0,0,1-4.35.17,9.67,9.67,0,0,0,9,6.86,19,19,0,0,1-12,4.23,19.33,19.33,0,0,1-2.3-.14,26.8,26.8,0,0,0,14.76,4.44c17.72,0,27.4-15,27.4-28.1,0-.43,0-.86,0-1.28A19.8,19.8,0,0,0,83.32,48a18.69,18.69,0,0,1-5.53,1.55A9.84,9.84,0,0,0,82,44.13Z"/></svg>