<svg id="Layer_1" data-name="Layer 1" xmlns="http://www.w3.org/2000/svg" viewBox="0 0 96 92"><defs><style>.cls-1{fill:#7272fa;}</style></defs><path id="copy" class="cls-1" d="M52.42,32.54H41.16A1.41,1.41,0,0,0,39.75,34h0V50.84a1.41,1.41,0,0,0,1.41,1.41h7v2.82H51V52.25H48.2V49.44H51V46.62H48.2v2.82H42.57V35.36H51V41h2.82V34a1.41,1.41,0,0,0-1.41-1.41ZM48.2,42.4v1.4H51V41H49.6a1.41,1.41,0,0,0-1.4,1.41Zm5.63,18.3h2.81V57.88H53.83Zm0-16.9h2.81V41H53.83ZM48.2,59.29a1.41,1.41,0,0,0,1.4,1.41H51V57.88H48.2ZM60.86,41h-1.4V43.8h2.81V42.4A1.41,1.41,0,0,0,60.86,41ZM59.46,60.7h1.4a1.41,1.41,0,0,0,1.41-1.41h0V57.88H59.46Zm0-11.26h2.81V46.62H59.46Zm0,5.63h2.81V52.25H59.46Z"/></svg>