<svg id="Layer_2" data-name="Layer 2" xmlns="http://www.w3.org/2000/svg" xmlns:xlink="http://www.w3.org/1999/xlink" viewBox="0 0 1144.74 642.11"><defs><style>.cls-1{opacity:0.1;fill:url(#linear-gradient);}.cls-2{fill:#f9edff;}.cls-3{fill:url(#linear-gradient-2);}.cls-4{fill:url(#linear-gradient-3);}.cls-5{fill:#7500b2;}.cls-6{fill:url(#linear-gradient-4);}.cls-7{fill:url(#linear-gradient-5);}.cls-8{fill:#d7bfdd;}.cls-9{fill:url(#linear-gradient-6);}.cls-10{fill:#fff;}.cls-11{fill:url(#linear-gradient-7);}.cls-12{fill:url(#linear-gradient-8);}.cls-13{fill:#192b59;}.cls-14{fill:#f2dad4;}.cls-15{fill:url(#linear-gradient-9);}.cls-16{fill:url(#linear-gradient-10);}.cls-17{fill:url(#linear-gradient-11);}.cls-18{fill:url(#linear-gradient-12);}.cls-19{fill:#e64d4e;}.cls-20{fill:url(#linear-gradient-13);}.cls-21{fill:#176ad4;}.cls-22{fill:url(#linear-gradient-14);}.cls-23{fill:none;stroke:#fff;stroke-linecap:round;stroke-linejoin:bevel;stroke-width:4px;}</style><linearGradient id="linear-gradient" x1="606.51" y1="563.26" x2="605.17" y2="516.22" gradientUnits="userSpaceOnUse"><stop offset="0" stop-color="#510394"/><stop offset="0.12" stop-color="#4a0388"/><stop offset="0.34" stop-color="#380367"/><stop offset="0.63" stop-color="#1b0433"/><stop offset="0.85" stop-color="#030408"/></linearGradient><linearGradient id="linear-gradient-2" x1="319.55" y1="439.6" x2="271.38" y2="475.73" gradientTransform="matrix(-1, 0, 0, 1, 579.9, 0)" gradientUnits="userSpaceOnUse"><stop offset="0" stop-color="#4e9cff"/><stop offset="1" stop-color="#176ad4"/></linearGradient><linearGradient id="linear-gradient-3" x1="248.91" y1="469.91" x2="241.29" y2="541.58" gradientTransform="matrix(-1, 0, 0, 1, 579.9, 0)" gradientUnits="userSpaceOnUse"><stop offset="0" stop-color="#f2be3c"/><stop offset="1" stop-color="#ffac00"/></linearGradient><linearGradient id="linear-gradient-4" x1="695.63" y1="430.25" x2="642.91" y2="469.79" gradientTransform="matrix(-1, 0, 0, 1, 1543.41, 0)" xlink:href="#linear-gradient-2"/><linearGradient id="linear-gradient-5" x1="618.33" y1="463.41" x2="609.99" y2="541.85" gradientTransform="matrix(-1, 0, 0, 1, 1543.41, 0)" xlink:href="#linear-gradient-3"/><linearGradient id="linear-gradient-6" x1="566.96" y1="328.19" x2="608.29" y2="650.55" gradientUnits="userSpaceOnUse"><stop offset="0" stop-color="#510394"/><stop offset="0.14" stop-color="#4a0388"/><stop offset="0.4" stop-color="#380367"/><stop offset="0.75" stop-color="#1b0433"/><stop offset="1" stop-color="#030408"/></linearGradient><linearGradient id="linear-gradient-7" x1="375.47" y1="265.78" x2="431.24" y2="462.08" gradientTransform="matrix(1, 0, 0, 1, 0, 0)" xlink:href="#linear-gradient-2"/><linearGradient id="linear-gradient-8" x1="733.4" y1="343.95" x2="750.4" y2="476.54" gradientTransform="matrix(1, 0, 0, 1, 0, 0)" xlink:href="#linear-gradient-3"/><linearGradient id="linear-gradient-9" x1="797.93" y1="324.3" x2="801.6" y2="329.54" gradientTransform="matrix(-0.97, -0.24, -0.24, 0.97, 1648.6, 207)" gradientUnits="userSpaceOnUse"><stop offset="0" stop-color="#f2bfad"/><stop offset="1" stop-color="#f2dad4"/></linearGradient><linearGradient id="linear-gradient-10" x1="686.19" y1="326.86" x2="689.86" y2="332.11" gradientTransform="matrix(1, 0, 0, 1, 0, 0)" xlink:href="#linear-gradient-9"/><linearGradient id="linear-gradient-11" x1="686.25" y1="378.36" x2="791.49" y2="378.36" gradientUnits="userSpaceOnUse"><stop offset="0" stop-color="#4e9cff"/><stop offset="0.8" stop-color="#176ad4"/></linearGradient><linearGradient id="linear-gradient-12" x1="733.69" y1="366" x2="744.76" y2="366" gradientTransform="matrix(1, 0, 0, 1, 0, 0)" xlink:href="#linear-gradient-9"/><linearGradient id="linear-gradient-13" x1="737.65" y1="479.69" x2="757.99" y2="479.69" xlink:href="#linear-gradient-11"/><linearGradient id="linear-gradient-14" x1="790.94" y1="481.07" x2="767.98" y2="487.13" gradientTransform="matrix(1, 0, 0, 1, 0, 0)" xlink:href="#linear-gradient-2"/></defs><title>Artboard 46SVG-for-Verto</title><path class="cls-1" d="M1000,542.67c0,8.26-176.42,15-394,15s-394-6.69-394-15,176.41-14.94,394-14.94S1000,534.42,1000,542.67Z"/><path class="cls-2" d="M230.23,497.27c108,18.68,141.34-104.94,288.43-121.66C689.93,356.14,762.6,510.34,879.54,475.4c131.22-39.21,224-288.42,150.37-380C939.85-16.7,679.79,205.62,208.36,197.91c-50.51-.83-127.8-4.7-153.1,38.27C15.35,304,111.66,476.75,230.23,497.27Z"/><path class="cls-3" d="M282.4,439.57c-4.09,1.06-19.55.44-16.6-7.19,3.29-8.48,12.06-1.07,15.82,3.64a105.18,105.18,0,0,1-1.6-19.24c-2.78-3.34-8.66-24.56,2.91-23.51,15.16,1.38,1.73,21.47-1.76,23.75,0,4.89.33,14.59,2.54,23,.47-5.35,5.81-20.56,12.9-15.2,10.28,7.78-9.4,17.17-12.38,17A29.53,29.53,0,0,0,288,450c1.14,1.62,2.41,3.51,3.71,5.56l.07.08c.66-5.63,5.92-20.09,12.86-14.84,9.6,7.26-6.92,15.93-11.58,16.92A133.89,133.89,0,0,1,301.19,473c.33-5.08,10.3-15.48,14.27-9.53,2.21,3.31-9.49,14.11-13.34,11.69,2.2,5.37,3.52,10.39,3.06,14.06-.17,1.35-.41,2.94-.7,4.67,2.73-3,12.6-13.15,15.54-5.31,2.44,6.5-5.7,10.27-9.13,10.27-2.68,0-5.52-2.54-6.63-3.64-.16.93-.32,1.89-.49,2.87-1.38,8-3,17.63-2.55,23.42C303.55,517,314,498.14,320,510.25c3.11,6.21-5.7,11.41-9.13,12.55-2.81.94-7.83.1-9.55-.23a11.36,11.36,0,0,0,.39,1.77,67.8,67.8,0,0,0,6.78,13.56.57.57,0,0,1-.15.79.62.62,0,0,1-.32.09.56.56,0,0,1-.47-.25,73.84,73.84,0,0,1-5.79-10.86c-2.69-.33-13-1.74-16-3.72-3.42-2.29-9.55-9.79-4.56-12.56,7.72-4.29,15.81,7.11,19.36,13-1.32-4.42-.15-13.27,1.22-21.59-2.76.83-11.75-.78-14.87-2.86-3.43-2.28-9.33-8.2-5.71-11.41,9.07-8.07,18.66,9,20.77,13.11.22-1.29.44-2.56.65-3.8.57-3.31,1.11-6.44,1.41-8.81.43-3.41-.84-8.3-3.1-13.79a34.62,34.62,0,0,1-14.59,1.3c-8-1.14-12-7.36-9.13-10.27,4.95-4.95,19.58,5.31,23.36,8.11a126.54,126.54,0,0,0-9.07-17c-4.65,1.08-23.2.68-20.69-6.68s12-2.41,17.58,1.9c-.46-.67-.92-1.35-1.38-2A34.05,34.05,0,0,1,282.4,439.57Z"/><path class="cls-4" d="M315.46,510.25c9.58-3.83,11.92,10.83,12.43,15.64a56.47,56.47,0,0,0,2.05-22.49c-1.46,0-7.11-.31-11.06-2.28-4.56-2.28-7.38-11.42-3.42-12.55,6.65-1.9,12.5,9.62,14.28,13.55-.16-.89-.34-1.74-.57-2.56a102,102,0,0,1-3-19c-1.81,0-6.83-.21-9.61-1.13-3.42-1.15-9.22-10.09-4.57-11.42,6.42-1.83,12.1,7.37,14.09,11.07-.39-7-.1-13.84,1.1-18.47a45.3,45.3,0,0,1-1.49-9.72c0-4.56,5.3-13.55,10.27-9.13,9.09,8.08-4.53,17.52-7.79,19.59-1.11,4.56-1.35,11.14-1,18,2-5.13,10.29-23.61,20.16-14.72,3.8,3.41-4.56,11.41-10.27,13.69a32.75,32.75,0,0,1-9.81,2.29,100.88,100.88,0,0,0,2.95,18.68c.26.95.46,2,.64,3,2.16-4.37,12.23-22.93,23.34-14.85,4.62,3.36-4.56,11.42-9.13,13.7-3.92,2-11.89,2.06-14.08,2.05a57.56,57.56,0,0,1-2,22.5c3.35-5.07,13.16-18.1,20.61-9.71,4.42,5-7,9.19-10.27,10.27-2.87.95-9,1.24-10.92,1.3-1.62,4.91-3.83,9-6.41,11.12a.57.57,0,0,1-.8-.07.58.58,0,0,1,.07-.81c2.46-2,4.56-5.93,6.12-10.62a58.12,58.12,0,0,1-8.61-4.35C315.46,520.52,310.16,512.37,315.46,510.25Z"/><path class="cls-5" d="M290.92,538.78h51.93a.57.57,0,0,0,.57-.57.58.58,0,0,0-.57-.57H290.92a.58.58,0,0,0-.57.57A.57.57,0,0,0,290.92,538.78Z"/><path class="cls-5" d="M272.66,538.78h12a.56.56,0,0,0,.57-.57.57.57,0,0,0-.57-.57h-12a.57.57,0,0,0-.57.57A.56.56,0,0,0,272.66,538.78Z"/><path class="cls-6" d="M871.91,430.22c-4.47,1.16-21.39.48-18.16-7.87,3.59-9.29,13.19-1.17,17.3,4a115.54,115.54,0,0,1-1.75-21c-3-3.66-9.47-26.89,3.19-25.73,16.59,1.5,1.89,23.49-1.93,26,0,5.36.36,16,2.79,25.18.51-5.85,6.35-22.5,14.11-16.63,11.25,8.52-10.28,18.8-13.55,18.62a32.07,32.07,0,0,0,4.09,8.93c1.25,1.79,2.63,3.85,4.06,6.1l.07.08c.72-6.16,6.47-22,14.07-16.24,10.5,7.95-7.56,17.43-12.67,18.52a145.5,145.5,0,0,1,9,16.7c.35-5.57,11.27-16.94,15.61-10.44,2.41,3.63-10.38,15.45-14.6,12.8,2.4,5.88,3.85,11.37,3.35,15.38-.18,1.48-.45,3.22-.77,5.11,3-3.3,13.79-14.39,17-5.81,2.67,7.11-6.24,11.24-10,11.24-2.93,0-6-2.77-7.26-4q-.26,1.53-.54,3.15c-1.51,8.75-3.31,19.29-2.78,25.62,2.55-5,14-25.55,20.57-12.3,3.4,6.79-6.24,12.49-10,13.74-3.07,1-8.57.1-10.45-.26a11.77,11.77,0,0,0,.43,1.93,73.33,73.33,0,0,0,7.42,14.84.63.63,0,0,1-.18.87.59.59,0,0,1-.34.1.62.62,0,0,1-.52-.27,81.63,81.63,0,0,1-6.33-11.88c-3-.37-14.26-1.92-17.51-4.08-3.74-2.5-10.45-10.71-5-13.74,8.45-4.69,17.3,7.78,21.18,14.27-1.44-4.84-.16-14.53,1.34-23.63-3,.91-12.85-.85-16.28-3.13-3.74-2.5-10.2-9-6.24-12.49,9.93-8.83,20.42,9.87,22.73,14.36.24-1.42.48-2.82.71-4.17.63-3.62,1.22-7,1.54-9.64.47-3.73-.92-9.08-3.39-15.08a38.36,38.36,0,0,1-16,1.42c-8.74-1.25-13.18-8.06-10-11.24,5.42-5.42,21.43,5.81,25.57,8.87a138,138,0,0,0-9.93-18.57c-5.09,1.18-25.39.75-22.64-7.31s13.13-2.64,19.24,2.08c-.5-.74-1-1.48-1.51-2.2A37,37,0,0,1,871.91,430.22Z"/><path class="cls-7" d="M908.09,507.56c10.48-4.19,13,11.85,13.6,17.11a61.75,61.75,0,0,0,2.24-24.61c-1.59,0-7.78-.33-12.1-2.49-5-2.5-8.07-12.5-3.74-13.74,7.27-2.08,13.68,10.53,15.62,14.83-.17-1-.37-1.91-.61-2.8a111.17,111.17,0,0,1-3.25-20.78c-2,0-7.48-.23-10.52-1.24-3.74-1.25-10.09-11-5-12.49,7-2,13.23,8.07,15.41,12.11-.42-7.72-.1-15.15,1.21-20.21a49.56,49.56,0,0,1-1.63-10.63c0-5,5.79-14.83,11.24-10,9.94,8.84-5,19.17-8.53,21.44-1.21,5-1.48,12.19-1,19.65,2.24-5.61,11.26-25.84,22.07-16.11,4.15,3.74-5,12.49-11.24,15a35.58,35.58,0,0,1-10.74,2.5,110.46,110.46,0,0,0,3.22,20.44,32,32,0,0,1,.7,3.3c2.37-4.78,13.39-25.09,25.55-16.25,5.05,3.67-5,12.49-10,15-4.29,2.14-13,2.25-15.41,2.24A63,63,0,0,1,923,524.43c3.67-5.55,14.4-19.8,22.55-10.63,4.84,5.45-7.68,10.06-11.24,11.24-3.13,1.05-9.82,1.36-11.94,1.43-1.78,5.37-4.2,9.82-7,12.17a.64.64,0,0,1-.88-.08.62.62,0,0,1,.07-.88c2.7-2.24,5-6.49,6.7-11.62a64.7,64.7,0,0,1-9.42-4.76C908.09,518.8,902.29,509.88,908.09,507.56Z"/><path class="cls-5" d="M881.23,538.78h56.83a.63.63,0,0,0,0-1.25H881.23a.63.63,0,0,0,0,1.25Z"/><path class="cls-5" d="M861.25,538.78h13.11a.63.63,0,1,0,0-1.25H861.25a.63.63,0,0,0,0,1.25Z"/><path class="cls-8" d="M662.43,263.31a13.68,13.68,0,0,1-13.68-13.67V194.1a74.42,74.42,0,1,0-148.83,0v55.54a13.68,13.68,0,0,1-27.35,0V194.1a101.77,101.77,0,0,1,203.53,0v55.54A13.67,13.67,0,0,1,662.43,263.31Z"/><rect class="cls-9" x="426.9" y="242.64" width="296.14" height="296.14" rx="52.63"/><path class="cls-10" d="M595.49,452h-41a6.16,6.16,0,0,1-6.08-7.23l8.24-47.47a37.77,37.77,0,1,1,36.71,0l8.24,47.47a6.16,6.16,0,0,1-6.08,7.23Z"/><path class="cls-11" d="M493.7,343,410.15,322.9,326.59,343s-8.69,82.84,10,120.14,62.51,75.61,73.6,75.61,54.94-38.31,73.6-75.61S493.7,343,493.7,343Z"/><path class="cls-10" d="M410.15,526.43c-2.73,0-7-2-12.67-6a152,152,0,0,1-18-15.19c-14.9-14.45-27.6-31.05-34.85-45.56-6.85-13.69-10.42-35.64-10.6-65.23-.14-21.94,1.75-40.16,1.76-40.34a1.49,1.49,0,0,1,1.13-1.28l72.85-17.55a1.61,1.61,0,0,1,.69,0l72.86,17.55a1.48,1.48,0,0,1,1.12,1.28c0,.18,1.9,18.4,1.76,40.34-.18,29.59-3.75,51.54-10.59,65.23-7.26,14.51-20,31.11-34.85,45.56a152,152,0,0,1-18,15.19C417.13,524.42,412.87,526.43,410.15,526.43Zm-71.49-171c-.39,4.14-1.77,20.19-1.65,39,.18,28.7,3.74,50.8,10.28,63.89,7.11,14.22,19.6,30.54,34.27,44.76,13.77,13.36,24.81,20.36,28.59,20.36s14.81-7,28.58-20.36c14.67-14.22,27.16-30.54,34.27-44.76,6.55-13.09,10.1-35.19,10.29-63.89.11-18.83-1.26-34.88-1.65-39l-71.49-17.22Z"/><rect class="cls-12" x="622.99" y="433.82" width="257.33" height="104.96" rx="23.89"/><path class="cls-10" d="M845.17,484.86h-95.8a6,6,0,1,1,0-12.07h95.8a6,6,0,0,1,0,12.07Z"/><path class="cls-10" d="M845.17,510.58h-95.8a6,6,0,1,1,0-12.07h95.8a6,6,0,0,1,0,12.07Z"/><path class="cls-10" d="M665.5,505.6A14.62,14.62,0,1,1,680.12,491,14.63,14.63,0,0,1,665.5,505.6Zm0-20.58a6,6,0,1,0,6,6A6,6,0,0,0,665.5,485Z"/><path class="cls-10" d="M706.08,505.6A14.62,14.62,0,1,1,720.7,491,14.63,14.63,0,0,1,706.08,505.6Zm0-20.58a6,6,0,1,0,6,6A6,6,0,0,0,706.08,485Z"/><path class="cls-13" d="M725.75,416c0,2.46-.07,8.08,0,10.54a18.05,18.05,0,0,0,1.93,7.32c1,1.77,10.77,39.41,12.27,40.11s3.59,2.29,7,.7,5.48-3.79,5.48-5-5.18-22.83-6.48-25.52-2.09-8.58-1.69-9.27,2.09-1.2,2.09-1.2h18.55s4.79,2.65,5.11,4.32.61,25.15.61,28.58.54,9.48,1.28,10.49,4.37,1.07,7.26.74,4.31-1.08,4.58-1.95.78-30.53.78-34.29.83-11.28-1.65-14.31-13.29-9.11-14.66-9.55-3.08-5.86-4.68-6.6S725.75,416,725.75,416Z"/><path class="cls-14" d="M772.57,475.58c.67-1.2,2.67-1.5,4.58-1.47s2.38-.27,2.59.15a30.27,30.27,0,0,1,.17,4.08L772.19,485s-.74-1.32-1.06-2,.12-1.65.68-2.53a4.16,4.16,0,0,0,.79-2.14C772.6,477.75,772.16,476.31,772.57,475.58Z"/><path class="cls-14" d="M798.25,328.54a2.42,2.42,0,0,1,.78,2c-.1.8-.69,3.17-1.61,3.88s-2,1.28-2.19,1.65-5.74,9.43-6.07,9.38-4-3.1-3.76-4.42,3.57-5.59,4-6.62a4.41,4.41,0,0,0-.12-3.11c-.29-.56-1.06-3.47-.63-4.36a7.59,7.59,0,0,1,2.12-2.28c.52-.37,1.79-1.15,2.22-1s1,.82,1.42.94a8.77,8.77,0,0,1,2.24.53c.26.27.16.91.37,1s.94.51,1,1-.22.48,0,1Z"/><path class="cls-15" d="M796.55,331.16c.22.11,0,.6-.19.76a2.51,2.51,0,0,1-1.34.35,9.51,9.51,0,0,1-2.55-1.79c-.51-.65-.36-1.79-.74-2.07s-.81-.39-.76-.62.13-.83.47-.85.67,0,.61.25-.16.38-.2.62.16.86.38.91.53.06.45.34-.32,1.1.07,1.36,1.07.24,1.14.42.53.91,1,1,.9-.05.94-.23-.05-.57.14-.61S796.55,331.16,796.55,331.16Z"/><path class="cls-14" d="M683.58,327a2.4,2.4,0,0,0-1.24,1.74c-.1.8-.1,3.24.62,4.14s1.66,1.74,1.72,2.15,3.28,10.54,3.62,10.57,4.61-2,4.71-3.38-2.1-6.29-2.27-7.4a4.42,4.42,0,0,1,.87-3c.42-.47,1.87-3.11,1.68-4.08a7.8,7.8,0,0,0-1.51-2.72c-.42-.49-1.46-1.56-1.9-1.56s-1.14.57-1.61.57a8.89,8.89,0,0,0-2.3,0c-.32.19-.37.84-.59.86s-1,.27-1.26.74.09.52-.23.94Z"/><path class="cls-16" d="M684.6,330c-.25.05-.19.57,0,.78a2.5,2.5,0,0,0,1.21.67,9.87,9.87,0,0,0,2.91-1.12c.65-.5.78-1.65,1.21-1.83s.88-.18.9-.42.07-.84-.25-.94-.66-.15-.66.1a4.78,4.78,0,0,1,0,.64c0,.24-.36.8-.58.8s-.54-.07-.52.22,0,1.15-.41,1.3-1.09,0-1.2.13-.74.75-1.18.68-.87-.26-.87-.44.19-.55,0-.63S684.6,330,684.6,330Z"/><path class="cls-17" d="M693.81,339.72c-1.52-.69-4.36,4.53-6.65,5s.39,4.36,1.12,5.76,7.88,13.52,9.39,14.87,11.25,9,14.11,10.61,7.41,5.21,8.68,9.7,2.35,11.91,1.17,16.46-4.26,15-2.78,15.5,18.81-2.4,24.14-2.4,17.33-.51,19.12.18a18.76,18.76,0,0,0,5,1c.69,0-8-16.15-9.06-20.3s-2.25-11.41-.07-15.2,16-13.69,17.9-16.2,5.73-8.64,8.49-11.73,7.59-7.66,7.06-8.33-3.62-1.67-4.29-3-1.27-3.22-2.3-2.48a169.16,169.16,0,0,0-12.13,12.94c-1.41,2.05-11,10.67-12.69,11.28s-2.94,1.89-4.72.44a5.84,5.84,0,0,0-6.12-.73c-1.65.93-5.22,5-7.93,3.78s-6-3.88-6.63-3.88-1.87-.59-2.71.22-.92,2-1.64,1.76a30.24,30.24,0,0,0-7-1.26c-1.87.09-2.35,2.52-3.67,2.27s-10.9-3.84-14.32-8.11S694.84,340.19,693.81,339.72Z"/><path class="cls-18" d="M733.89,361.83a21.13,21.13,0,0,0-.19,3.06c0,.82,1.33,2.68,3.24,3.7s2.74,1.58,3.41,1.58,3.58-2.52,3.92-3a5.88,5.88,0,0,0,.48-2.66C744.66,364,733.89,361.83,733.89,361.83Z"/><path class="cls-19" d="M731.06,354.67c-.52-1.29-1.58-3.85-1.42-6s-.29-5.09,2.35-6.54,4.48-.18,5-.29,1.52-3.72,5.64-3,7.23,2.93,7.81,5.86-.2,9.84-1.07,11.72-7.62,2.19-9.31,2.19-8.34-1-8.51-1.69S731.06,354.67,731.06,354.67Z"/><path class="cls-14" d="M732.51,355.76c-.25-.71-1.16-2.4-2.1-1.72s.41,4.39.76,4.79.41,1,.89,1,.89-.31,1,.12,1.17,4.09,2.34,5.29,4.34,3.08,5.51,3.11,3.6-1.79,4.83-4.06,1.76-3.66,2.25-3.83a1.71,1.71,0,0,0,.94-1.62,6.94,6.94,0,0,1,.82-2.08c.17-.49.28-2.18-.23-2.18s-.61,1.8-.89,1.8,0-3.3-.38-3.89.19-2.37-.42-3.19-3.1-4.67-7.86-4.9-5.81,1.51-6.18,2.57.63,2.53.37,3.16-1.35,1.15-1.35,1.77.29,4,0,4.12S732.51,355.76,732.51,355.76Z"/><path class="cls-14" d="M743,470.58c0-1.35,2.51-2.34,3.83-2.34s3.27.09,3.44.47,2.38,5.2,2.38,5.58-4.8,2.09-5.5,2.06-1.84,0-2.07-.55A41.12,41.12,0,0,1,743,470.58Z"/><path class="cls-20" d="M738,482.94c-.18-1.65-.68-3.37,0-4.13s1.67-2.05,2.43-2.05,3.06.07,3.26,0c.75-.28.57-1.79.92-2.18a4.8,4.8,0,0,1,3.5-1.49c1.37,0,2.64,1,4.23.89.46,0,.53-.07.79.63s.37,1.85,1.13,2.54a15.23,15.23,0,0,1,2.91,4.53c.39,1.33.57,1.52.8,2.59s-3,2.45-5,1.89S738,482.94,738,482.94Z"/><path class="cls-21" d="M738.14,481.82c-.85,1.35,2.35,6.46,3.41,6.71s3,.45,3.65,0,1.25-1.15,1.65-1.1a1.8,1.8,0,0,1,1.21,1.37c.2.78.45,1.33.9,1.53a23,23,0,0,0,5.61,0c1.4-.25,4.55-1.9,4.7-2.65s-1.15-3.66-1.8-3.91-4.51-.2-5.31-.5-4.9-.8-7.16-2.6-3.65-2.16-5.26-.51Z"/><path class="cls-22" d="M770.81,482.33c-1,.37-1.4,6.22-1.49,8.14s8.27.17,8.27.17L788,487.37s3.72,1.44,4.42.11,1.19-4-.55-5.26-3.66-.25-4.33,0-2,1.38-2.46,1-2.94-4.41-3.65-4.8-.36-1.28-2.7-1.1a6.31,6.31,0,0,0-4.27,1.81C773.4,480.05,772.85,481.59,770.81,482.33Z"/><path class="cls-21" d="M769.52,490c-.52.79-.34,3.38,0,3.55a50.59,50.59,0,0,0,6.82.5c1.35-.06,4.46-.78,4.57-1.16s-.28-2.17,0-2.17,4.1.7,5.6.7,5.07-2.05,5.91-3.9.31-3.06-1.64-3.26-6.32,2.4-7.92,3.26-4,2-4.77,1.92-1.67-.84-4.07-.63S770,489.21,769.52,490Z"/><path class="cls-5" d="M440.9,168.07h-6a2.5,2.5,0,0,1,0-5h6a2.5,2.5,0,0,1,0,5Z"/><path class="cls-5" d="M422.5,168.07H410.11a2.5,2.5,0,0,1,0-5H422.5a2.5,2.5,0,0,1,0,5Zm-24.79,0h-12.4a2.5,2.5,0,0,1,0-5h12.4a2.5,2.5,0,0,1,0,5Z"/><path class="cls-5" d="M366.92,174.07a2.49,2.49,0,0,1-2.5-2.5v-6a2.49,2.49,0,0,1,2.5-2.5h6a2.5,2.5,0,0,1,0,5h-3.5v3.5A2.5,2.5,0,0,1,366.92,174.07Z"/><path class="cls-5" d="M366.92,285.6a2.49,2.49,0,0,1-2.5-2.5V272a2.5,2.5,0,0,1,5,0V283.1A2.5,2.5,0,0,1,366.92,285.6Zm0-22.3a2.49,2.49,0,0,1-2.5-2.5V249.64a2.5,2.5,0,1,1,5,0V260.8A2.5,2.5,0,0,1,366.92,263.3Zm0-22.31a2.49,2.49,0,0,1-2.5-2.5V227.34a2.5,2.5,0,1,1,5,0v11.15A2.5,2.5,0,0,1,366.92,241Zm0-22.31a2.49,2.49,0,0,1-2.5-2.5V205a2.5,2.5,0,0,1,5,0v11.15A2.5,2.5,0,0,1,366.92,218.68Zm0-22.3a2.49,2.49,0,0,1-2.5-2.5V182.73a2.5,2.5,0,1,1,5,0v11.15A2.5,2.5,0,0,1,366.92,196.38Z"/><path class="cls-5" d="M366.92,302.75a2.49,2.49,0,0,1-2.5-2.5v-6a2.5,2.5,0,0,1,5,0v6A2.5,2.5,0,0,1,366.92,302.75Z"/><path class="cls-5" d="M824.43,395.14a2.49,2.49,0,0,1-2.5-2.5v-12a2.5,2.5,0,0,1,5,0v12A2.49,2.49,0,0,1,824.43,395.14Zm0-24a2.49,2.49,0,0,1-2.5-2.5v-12a2.5,2.5,0,0,1,5,0v12A2.49,2.49,0,0,1,824.43,371.14Zm0-24a2.49,2.49,0,0,1-2.5-2.5v-12a2.5,2.5,0,0,1,5,0v12A2.49,2.49,0,0,1,824.43,347.14Zm0-24a2.49,2.49,0,0,1-2.5-2.5v-12a2.5,2.5,0,0,1,5,0v12A2.49,2.49,0,0,1,824.43,323.14Zm0-24a2.49,2.49,0,0,1-2.5-2.5v-12a2.5,2.5,0,0,1,5,0v12A2.49,2.49,0,0,1,824.43,299.14Zm0-24a2.49,2.49,0,0,1-2.5-2.5v-12a2.5,2.5,0,0,1,5,0v12A2.49,2.49,0,0,1,824.43,275.14Zm0-24a2.49,2.49,0,0,1-2.5-2.5v-12a2.5,2.5,0,0,1,5,0v12A2.49,2.49,0,0,1,824.43,251.14Zm0-24a2.49,2.49,0,0,1-2.5-2.5v-12a2.5,2.5,0,0,1,5,0v12A2.49,2.49,0,0,1,824.43,227.14Zm0-24a2.49,2.49,0,0,1-2.5-2.5v-12a2.5,2.5,0,0,1,5,0v12A2.49,2.49,0,0,1,824.43,203.14Zm0-24a2.49,2.49,0,0,1-2.5-2.5v-9.12a2.51,2.51,0,0,1,1.58-4.45h.92a2.5,2.5,0,0,1,2.5,2.5v11.07A2.49,2.49,0,0,1,824.43,179.14Zm-12.92-11.07h-12a2.5,2.5,0,0,1,0-5h12a2.5,2.5,0,0,1,0,5Zm-24,0h-12a2.5,2.5,0,0,1,0-5h12a2.5,2.5,0,0,1,0,5Zm-24,0h-12a2.5,2.5,0,0,1,0-5h12a2.5,2.5,0,0,1,0,5Zm-24,0h-12a2.5,2.5,0,0,1,0-5h12a2.5,2.5,0,0,1,0,5Zm-24,0h-12a2.5,2.5,0,0,1,0-5h12a2.5,2.5,0,0,1,0,5Z"/><path class="cls-23" d="M444.05,378.14,408.34,473.2l-37.18-95.06m0,0v63.57l37.18,31.49,35.71-31.49V378.14m-72.89,63.57h72.89"/></svg>