<svg id="_1" data-name=" 1" xmlns="http://www.w3.org/2000/svg" viewBox="0 0 190.53 188.98"><defs><style>.cls-1,.cls-2{fill:#b0b0b0;}.cls-2,.cls-3{stroke:#b0b0b0;}.cls-2{stroke-miterlimit:10;stroke-width:4px;}.cls-3{fill:none;stroke-linecap:round;stroke-linejoin:bevel;stroke-width:3px;}</style></defs><path class="cls-1" d="M164.35,76a2.65,2.65,0,0,1-2.58-2.09A64.94,64.94,0,0,0,35.58,71.09a2.65,2.65,0,1,1-5.12-1.37,70.24,70.24,0,0,1,136.49,3,2.65,2.65,0,0,1-2,3.15A2.22,2.22,0,0,1,164.35,76Z"/><path class="cls-1" d="M164.35,76a2.66,2.66,0,0,1-1.16-.27L143,65.81a2.65,2.65,0,0,1,2.33-4.76l17.81,8.73,8.76-17.43a2.65,2.65,0,0,1,4.73,2.38l-9.94,19.78A2.64,2.64,0,0,1,164.35,76Z"/><path class="cls-1" d="M98.23,164.78a70.66,70.66,0,0,1-68.65-55.19,2.65,2.65,0,0,1,5.18-1.14,64.94,64.94,0,0,0,126.18,2.8,2.65,2.65,0,0,1,5.13,1.36A70.32,70.32,0,0,1,98.23,164.78Z"/><path class="cls-1" d="M22.23,131.44a2.65,2.65,0,0,1-2.37-3.84l9.94-19.77a2.64,2.64,0,0,1,3.53-1.19l20.16,9.89a2.65,2.65,0,1,1-2.33,4.75l-17.8-8.73L24.6,130A2.65,2.65,0,0,1,22.23,131.44Z"/><path class="cls-2" d="M50.18,95.73a2.29,2.29,0,0,1-2.29-2.1c-.11-1.37-.17-2.76-.17-4.13A49.84,49.84,0,0,1,134.3,55.84,2.3,2.3,0,0,1,130.91,59,45.24,45.24,0,0,0,52.31,89.5c0,1.25.06,2.51.16,3.75a2.31,2.31,0,0,1-2.1,2.48Z"/><path class="cls-2" d="M97.55,142.8a49.39,49.39,0,0,1-36.17-15.56,2.3,2.3,0,1,1,3.33-3.16,44.83,44.83,0,0,0,32.84,14.13A45.3,45.3,0,0,0,142.79,93a44.63,44.63,0,0,0-.39-5.9,2.3,2.3,0,0,1,4.56-.6A49.87,49.87,0,0,1,97.55,142.8Z"/><path class="cls-3" d="M117.55,66.73,96.69,122.25,75,66.73m0,0v37.13l21.71,18.39,20.86-18.39V66.73M75,103.86h42.57"/></svg>