<svg xmlns="http://www.w3.org/2000/svg" width="512" height="512" viewBox="0 0 512 512" version="1.1">
	<rect x="0" y="0" width="100%" height="100%" fill="undefined" />
	<path d="M 239 5.585 C 237.075 5.808, 231.225 6.479, 226 7.076 C 121.111 19.053, 32.471 100.639, 11.009 204.957 C 3.499 241.456, 4.385 282.912, 13.423 318 C 47.901 451.851, 183.560 532.783, 317.500 499.408 C 406.470 477.239, 478.273 405.418, 499.863 317 C 505.745 292.908, 506.494 286.025, 506.494 256 C 506.494 227.938, 505.781 220.259, 501.403 201.162 C 477.940 98.805, 394.817 22.292, 291 7.492 C 280.114 5.940, 246.555 4.709, 239 5.585 M 115.223 87.557 L 113 89.113 113 212.036 L 113 334.958 122.750 343.394 C 128.113 348.035, 160.175 375.265, 194 403.906 C 251.580 452.661, 255.742 455.981, 259.296 455.990 C 262.897 455.999, 266.534 452.965, 329.796 397.179 C 366.483 364.828, 397.288 337.571, 398.250 336.608 C 401.034 333.823, 400.957 90.176, 398.171 87.655 C 395.796 85.506, 392.425 85.547, 390.361 87.750 C 389.460 88.713, 368.800 142.600, 344.451 207.500 L 300.180 325.500 258.360 325.500 L 216.540 325.500 170.434 207.500 C 145.075 142.600, 123.578 88.713, 122.663 87.750 C 120.607 85.586, 118.128 85.522, 115.223 87.557 M 125 225.833 L 125 326 164.485 326 L 203.971 326 201.887 320.750 C 200.741 317.863, 183.160 272.975, 162.819 221 C 142.477 169.025, 125.646 126.313, 125.417 126.083 C 125.187 125.854, 125 170.742, 125 225.833 M 350.500 225.552 C 330.150 279.752, 313.350 324.526, 313.167 325.049 C 312.960 325.639, 327.082 326, 350.417 326 L 388 326 388 226.500 C 388 171.775, 387.887 127.001, 387.750 127.003 C 387.613 127.005, 370.850 171.352, 350.500 225.552 M 136 338.606 C 136 338.939, 137.012 340.014, 138.250 340.993 C 139.488 341.973, 163.654 362.384, 191.953 386.351 C 220.252 410.318, 243.583 429.750, 243.800 429.533 C 244.278 429.055, 210.062 341.021, 208.710 339.250 C 207.711 337.943, 136 337.307, 136 338.606 M 222 338.741 C 222 339.537, 258.072 432.221, 258.652 432.917 C 258.843 433.146, 259.221 433.112, 259.492 432.842 C 260.107 432.227, 294.993 339.776, 294.997 338.750 C 294.999 338.337, 278.575 338, 258.500 338 C 238.425 338, 222 338.333, 222 338.741 M 291.124 383.663 C 281.702 408.778, 274.108 429.441, 274.248 429.582 C 274.389 429.722, 281.748 423.461, 290.602 415.668 C 363.057 351.901, 377 339.496, 377 338.797 C 377 338.359, 361.532 338, 342.628 338 L 308.256 338 291.124 383.663 " stroke="none" fill="undefined" fill-rule="evenodd"/>
</svg>