<?xml version="1.0" encoding="utf-8"?>
<!-- Generator: Adobe Illustrator 21.0.0, SVG Export Plug-In . SVG Version: 6.00 Build 0)  -->
<svg version="1.1" id="Layer_1" xmlns="http://www.w3.org/2000/svg" xmlns:xlink="http://www.w3.org/1999/xlink" x="0px" y="0px"
	 viewBox="0 0 400 400" style="enable-background:new 0 0 400 400;" xml:space="preserve">
<style type="text/css">
	.st0{fill:#FFFFFF;stroke:#FFFFFF;stroke-width:7;stroke-miterlimit:10;}
</style>
<title>Verto Vulps Logo</title>
<path class="st0" d="M341.8,142.3v116.3c0.1,2.8-1,5.5-3.2,7.3L209,379.9c-3.7,2.9-8.9,2.9-12.6,0L68.9,272c-2.1-2-4.4-3.9-6.7-5.7
	c-2.7-1.9-4.1-5.1-3.9-8.3V27c0-5.8,1.4-8.3,5.1-9c3.7-0.7,5.8,1.2,7.8,6.5l61,156.5c9.2,23.5,17.7,46.9,27.6,70.8
	c0.4,1.8,2.2,3.1,4.1,2.8h75.4c1.7,0.2,3.3-0.8,3.7-2.5l64.4-171.7l21.4-57c1.4-3.9,4.3-5.7,7.4-5.1s5.1,3.5,4.8,6.5v21.6
	C341.5,78.4,341.8,110.3,341.8,142.3z M186.9,354.6L186.9,354.6c0-0.3,0-0.6,0-0.9l-33.3-85.5c0-2-1.9-2-3.5-2H82.5l1.9,1.6
	l79.3,67.3c7.4,7.1,15.1,13.7,23.2,20L186.9,354.6L186.9,354.6z M71.7,58L71.7,58v192.7c0,1.9,0,2.8,2.7,2.8h71.8
	c2.6,0,2.6,0,1.8-2.8s-3-7.8-4.6-11.7L88.5,98.5L71.7,58z M329.6,59.1c-1.1,0-1.1,1.2-1.2,1.8l-33.5,88.5
	c-12.5,33.4-25.1,66.8-37.7,100.2c-1.1,2.8,0,3.4,2.3,3.4h66.7c2.8,0,3.5,0,3.5-3.5V61.9L329.6,59.1z M202.8,359.9l0.9-2l33.4-88.5
	c0.9-2.3,0-2.6-1.9-2.6h-65.6c-3,0-2.8,0-1.9,3.2c4.6,11.5,9,23.2,13.6,35.4L202.8,359.9z M218.2,354.6L218.2,354.6l100-88.5h-65
	c-2.3,0-2.8,1.2-3.4,3l-28,74.9L218.2,354.6z"/>
</svg>
