<?xml version="1.0" encoding="utf-8"?>
<!-- Generator: Adobe Illustrator 21.0.0, SVG Export Plug-In . SVG Version: 6.00 Build 0)  -->
<svg version="1.1" id="Layer_1" xmlns="http://www.w3.org/2000/svg" xmlns:xlink="http://www.w3.org/1999/xlink" x="0px" y="0px"
	 viewBox="0 0 33.9 33.2" style="enable-background:new 0 0 33.9 33.2;" xml:space="preserve">
<style type="text/css">
	.st0{fill:#494949;}
</style>
<g>
	<path class="st0" d="M17,1.5C8.7,1.5,1.8,8.3,1.8,16.6s6.8,15.1,15.1,15.1S32,24.9,32,16.6C32.1,8.3,25.3,1.5,17,1.5z M17,31.6
		c-8.2,0-15-6.7-15-15s6.7-15,15-15c8.2,0,15,6.7,15,15S25.2,31.6,17,31.6z"/>
	<path class="st0" d="M17,32.2c-8.6,0-15.6-7-15.6-15.6S8.4,1,17,1s15.6,7,15.6,15.6S25.6,32.2,17,32.2z M17,2.2
		C9,2.2,2.5,8.7,2.5,16.7S9,31.2,17,31.2s14.5-6.5,14.5-14.5C31.4,8.6,25,2.2,17,2.2z"/>
</g>
<g id="Path_1275">
	<path class="st0" d="M17.1,27.1L17.1,27.1L17.1,27.1L17.1,27.1L17.1,27.1L17.1,27.1L17.1,27.1L17.1,27.1L17.1,27.1L17.1,27.1
		L17.1,27.1L17.1,27.1L17.1,27.1L17.1,27.1L17.1,27.1L17.1,27.1L17.1,27.1L17.1,27.1L17.1,27.1L17.1,27.1L17.1,27.1L17.1,27.1
		L17.1,27.1L17.1,27.1L17.1,27.1L17.1,27.1L17.1,27.1c-0.1,0-0.2,0-0.3-0.1l0,0l-7-5.9c-0.1-0.1-0.2-0.2-0.2-0.4V8.9V8.8
		c0-0.1,0-0.1,0.1-0.2c0-0.1,0.1-0.1,0.2-0.1c0,0,0.1-0.1,0.2-0.1c0.1,0,0.1,0,0.2,0c0.1,0,0.1,0,0.2,0.1c0.1,0,0.1,0.1,0.1,0.2v0.1
		l4.6,11.6h3.9l4.3-11.6V8.7c0-0.1,0.1-0.1,0.1-0.2c0.1,0,0.1-0.1,0.2-0.1c0.1,0,0.1,0,0.2,0c0.1,0,0.1,0,0.2,0.1
		c0.1,0,0.1,0.1,0.2,0.1c0,0.1,0.1,0.1,0.1,0.2v0.1v11.9c0,0.1,0,0.2-0.1,0.3l0,0l0,0l0,0l0,0l0,0l0,0l0,0l0,0L17.5,27l0,0
		C17.4,27.1,17.3,27.1,17.1,27.1L17.1,27.1C17.2,27.1,17.2,27.1,17.1,27.1L17.1,27.1C17.2,27.1,17.2,27.1,17.1,27.1L17.1,27.1
		C17.2,27.1,17.2,27.1,17.1,27.1L17.1,27.1L17.1,27.1L17.1,27.1L17.1,27.1L17.1,27.1L17.1,27.1L17.1,27.1L17.1,27.1L17.1,27.1
		L17.1,27.1L17.1,27.1L17.1,27.1L17.1,27.1z M15.5,21.2l1.6,4l1.5-4H15.5z M11.5,21.2l4.4,3.7l-1.5-3.7H11.5z M19.7,21.2l-1.4,3.7
		l4.2-3.7H19.7z M20.1,20.2h3.3v-8.6L20.1,20.2z M10.6,20.2H14l-3.4-8.8V20.2z"/>
</g>
</svg>
