<svg xmlns="http://www.w3.org/2000/svg" xmlns:xlink="http://www.w3.org/1999/xlink" viewBox="0 0 1405.64 810.89"><defs><style>.cls-1,.cls-44{fill:none;}.cls-2{isolation:isolate;}.cls-3,.cls-43{fill:#fff;}.cls-4{fill:#badefb;}.cls-5{opacity:0.21;}.cls-39,.cls-5{mix-blend-mode:multiply;}.cls-6{clip-path:url(#clip-path);}.cls-7{clip-path:url(#clip-path-2);}.cls-8{fill:#4079e2;}.cls-9{clip-path:url(#clip-path-3);}.cls-10{clip-path:url(#clip-path-4);}.cls-11{clip-path:url(#clip-path-5);}.cls-12{clip-path:url(#clip-path-6);}.cls-13{clip-path:url(#clip-path-7);}.cls-14{clip-path:url(#clip-path-8);}.cls-15{clip-path:url(#clip-path-9);}.cls-16{clip-path:url(#clip-path-10);}.cls-17{clip-path:url(#clip-path-11);}.cls-18{clip-path:url(#clip-path-12);}.cls-19{clip-path:url(#clip-path-13);}.cls-20{clip-path:url(#clip-path-14);}.cls-21{clip-path:url(#clip-path-15);}.cls-22{clip-path:url(#clip-path-16);}.cls-23{clip-path:url(#clip-path-17);}.cls-24{clip-path:url(#clip-path-18);}.cls-25{clip-path:url(#clip-path-19);}.cls-26{clip-path:url(#clip-path-20);}.cls-27{clip-path:url(#clip-path-21);}.cls-28{clip-path:url(#clip-path-22);}.cls-29{clip-path:url(#clip-path-23);}.cls-30{clip-path:url(#clip-path-24);}.cls-31{clip-path:url(#clip-path-25);}.cls-32{clip-path:url(#clip-path-26);}.cls-33{clip-path:url(#clip-path-27);}.cls-34{clip-path:url(#clip-path-28);}.cls-35{clip-path:url(#clip-path-29);}.cls-36,.cls-39{fill:#f79a45;}.cls-37{fill:#f8ad43;}.cls-38{fill:#f8d24a;}.cls-39{opacity:0.5;}.cls-40{fill:#7900ff;}.cls-41{fill:#dbedff;}.cls-42{fill:#002e6b;}.cls-43{opacity:0.22;}.cls-44{stroke:#f0a33e;stroke-linecap:round;stroke-linejoin:bevel;stroke-width:12px;}.cls-45{fill:#f0a33e;}.cls-46{clip-path:url(#clip-path-30);}.cls-47{fill:#97caff;}.cls-48{fill:#0e163b;}.cls-49{fill:#fea086;}</style><clipPath id="clip-path"><path class="cls-1" d="M344.49,195.43A258.79,258.79,0,0,1,403.6,139.6C464.28,97.9,539.83,78.49,614.86,69c121.85-15.5,434.67-33.48,446.58,134.67,2.27,32.06-9,65.66,3.53,95.65,27.66,66.14,143.92,63.42,178.34,126.83C1281,495.5,1182.1,570.34,1126.66,603c-67.39,39.69-147.1,61.19-226.57,66.66-70.19,4.83-140.6-1.42-209.72-12.73-57-9.32-128.22-16.21-180.4-40.31-89.32-41.24-112.3-127.71-153.72-203.07-27.52-50.06-62.37-95.89-45.52-152.88C317.63,237.32,329.35,215.31,344.49,195.43Z"/></clipPath><clipPath id="clip-path-2"><rect class="cls-1" x="1237.67" y="0.25" width="167.58" height="154.12"/></clipPath><clipPath id="clip-path-3"><rect class="cls-1" x="1237.67" y="154.37" width="167.58" height="154.12"/></clipPath><clipPath id="clip-path-4"><rect class="cls-1" x="1237.67" y="308.49" width="167.58" height="154.12"/></clipPath><clipPath id="clip-path-5"><rect class="cls-1" x="1237.67" y="462.61" width="167.58" height="154.12"/></clipPath><clipPath id="clip-path-6"><rect class="cls-1" x="1070.09" y="0.25" width="167.57" height="154.12"/></clipPath><clipPath id="clip-path-7"><rect class="cls-1" x="1070.09" y="154.37" width="167.57" height="154.12"/></clipPath><clipPath id="clip-path-8"><rect class="cls-1" x="1070.09" y="308.49" width="167.57" height="154.12"/></clipPath><clipPath id="clip-path-9"><rect class="cls-1" x="1070.09" y="462.61" width="167.57" height="154.12"/></clipPath><clipPath id="clip-path-10"><rect class="cls-1" x="902.52" y="0.25" width="167.58" height="154.12"/></clipPath><clipPath id="clip-path-11"><rect class="cls-1" x="902.52" y="154.37" width="167.58" height="154.12"/></clipPath><clipPath id="clip-path-12"><rect class="cls-1" x="902.52" y="308.49" width="167.58" height="154.12"/></clipPath><clipPath id="clip-path-13"><rect class="cls-1" x="902.52" y="462.61" width="167.58" height="154.12"/></clipPath><clipPath id="clip-path-14"><rect class="cls-1" x="734.94" y="0.25" width="167.58" height="154.12"/></clipPath><clipPath id="clip-path-15"><rect class="cls-1" x="734.94" y="154.37" width="167.58" height="154.12"/></clipPath><clipPath id="clip-path-16"><rect class="cls-1" x="734.94" y="308.49" width="167.58" height="154.12"/></clipPath><clipPath id="clip-path-17"><rect class="cls-1" x="734.94" y="462.61" width="167.58" height="154.12"/></clipPath><clipPath id="clip-path-18"><rect class="cls-1" x="567.37" y="0.25" width="167.58" height="154.12"/></clipPath><clipPath id="clip-path-19"><rect class="cls-1" x="567.37" y="154.37" width="167.58" height="154.12"/></clipPath><clipPath id="clip-path-20"><rect class="cls-1" x="567.37" y="308.49" width="167.58" height="154.12"/></clipPath><clipPath id="clip-path-21"><rect class="cls-1" x="567.37" y="462.61" width="167.58" height="154.12"/></clipPath><clipPath id="clip-path-22"><rect class="cls-1" x="399.79" y="0.25" width="167.57" height="154.12"/></clipPath><clipPath id="clip-path-23"><rect class="cls-1" x="399.79" y="154.37" width="167.57" height="154.12"/></clipPath><clipPath id="clip-path-24"><rect class="cls-1" x="399.79" y="308.49" width="167.57" height="154.12"/></clipPath><clipPath id="clip-path-25"><rect class="cls-1" x="399.79" y="462.61" width="167.57" height="154.12"/></clipPath><clipPath id="clip-path-26"><rect class="cls-1" x="232.22" y="0.25" width="167.57" height="154.12"/></clipPath><clipPath id="clip-path-27"><rect class="cls-1" x="232.22" y="154.37" width="167.57" height="154.12"/></clipPath><clipPath id="clip-path-28"><rect class="cls-1" x="232.22" y="308.49" width="167.57" height="154.12"/></clipPath><clipPath id="clip-path-29"><rect class="cls-1" x="232.22" y="462.61" width="167.57" height="154.12"/></clipPath><clipPath id="clip-path-30"><rect class="cls-1" x="423.83" y="140.56" width="890.37" height="598.7" transform="translate(1738.03 879.83) rotate(180)"/></clipPath></defs><title>Artboard 16SVG-for-Verto</title><g class="cls-2"><g id="Ñëîé_7" data-name="Ñëîé 7"><path class="cls-3" d="M1329,130.05c-.47-.35-1-.69-1.5-1a75.1,75.1,0,0,0-17.57-8.13c-47.87-16.06-100.75-4.85-133.57,28.34-11.64,11.77-20.78,25.9-29.19,40.38-41.35,71.15-66.79,153-74.4,238.54L1072.4,521c11.57-21.11,94.54-97.14,110.84-114.36,24.3-25.62,54.43-44.69,83.09-65.2s56.68-43.29,74.7-74.08S1366,196.21,1351,160c-4.07-9.84-9.9-19.45-17.88-26.57A47.35,47.35,0,0,0,1329,130.05Z"/><path class="cls-4" d="M1070.89,526.9l.33-98.89c7.62-85.58,33.41-168.28,74.6-239.15,7.62-13.12,17.08-28.21,29.43-40.68,16.3-16.5,37.71-27.93,61.89-33.06a139.55,139.55,0,0,1,73.22,4.34,76.42,76.42,0,0,1,17.91,8.31l.15.09c.48.33,1,.65,1.42,1a48.87,48.87,0,0,1,4.31,3.49c7.41,6.61,13.56,15.74,18.26,27.11,13.87,33.62,10.1,74.25-10.09,108.68-18.35,31.36-47,54.36-75.12,74.54-5.42,3.88-11,7.78-16.38,11.54-23,16.13-46.89,32.8-66.49,53.47-4.6,4.86-14.27,14.18-26.52,26-30.22,29.11-75.89,73.1-84.09,88.08Zm3.33-98.68-.3,87.67c13.08-18.21,54-57.59,81.81-84.41,12.22-11.77,21.87-21.06,26.42-25.88,19.81-20.88,43.78-37.64,66.95-53.86,5.38-3.76,10.94-7.65,16.35-11.52,27.9-20,56.21-42.74,74.28-73.62,19.72-33.63,23.42-73.26,9.9-106-4.52-11-10.4-19.71-17.49-26a45.07,45.07,0,0,0-4.06-3.29h0c-.41-.31-.85-.6-1.3-.9l-.14-.09a73.55,73.55,0,0,0-17.22-8c-47.6-16-99.42-5-132,28-12.11,12.24-21.44,27.13-29,40.09C1107.46,260.84,1081.8,343.09,1074.22,428.22Z"/><path class="cls-3" d="M1297.41,151.16A2163.89,2163.89,0,0,0,1102,450.9Z"/><path class="cls-4" d="M1103.29,451.62l-2.64-1.43a2169.37,2169.37,0,0,1,195.58-299.95l2.37,1.84A2165.87,2165.87,0,0,0,1103.29,451.62Z"/><g class="cls-5"><g class="cls-6"><g class="cls-7"><rect class="cls-8" x="1404.66" y="145.12" width="168.74" height="3.08"/><rect class="cls-8" x="1404.66" y="114.3" width="168.74" height="3.08"/><rect class="cls-8" x="1404.66" y="83.47" width="168.74" height="3.08"/><rect class="cls-8" x="1404.66" y="52.65" width="168.74" height="3.08"/><rect class="cls-8" x="1404.66" y="21.82" width="168.74" height="3.08"/><rect class="cls-8" x="1404.66" y="129.71" width="168.74" height="3.08"/><rect class="cls-8" x="1404.66" y="98.89" width="168.74" height="3.08"/><rect class="cls-8" x="1404.66" y="68.06" width="168.74" height="3.08"/><rect class="cls-8" x="1404.66" y="37.24" width="168.74" height="3.08"/><rect class="cls-8" x="1404.66" y="6.41" width="168.74" height="3.08"/><rect class="cls-8" x="1237.08" y="145.12" width="168.74" height="3.08"/><rect class="cls-8" x="1237.08" y="114.3" width="168.74" height="3.08"/><rect class="cls-8" x="1237.08" y="83.47" width="168.74" height="3.08"/><rect class="cls-8" x="1237.08" y="52.65" width="168.74" height="3.08"/><rect class="cls-8" x="1237.08" y="21.82" width="168.74" height="3.08"/><rect class="cls-8" x="1237.08" y="129.71" width="168.74" height="3.08"/><rect class="cls-8" x="1237.08" y="98.89" width="168.74" height="3.08"/><rect class="cls-8" x="1237.08" y="68.06" width="168.74" height="3.08"/><rect class="cls-8" x="1237.08" y="37.24" width="168.74" height="3.08"/><rect class="cls-8" x="1237.08" y="6.41" width="168.74" height="3.08"/><rect class="cls-8" x="1069.51" y="145.12" width="168.74" height="3.08"/><rect class="cls-8" x="1069.51" y="114.3" width="168.74" height="3.08"/><rect class="cls-8" x="1069.51" y="83.47" width="168.74" height="3.08"/><rect class="cls-8" x="1069.51" y="52.65" width="168.74" height="3.08"/><rect class="cls-8" x="1069.51" y="21.82" width="168.74" height="3.08"/><rect class="cls-8" x="1069.51" y="129.71" width="168.74" height="3.08"/><rect class="cls-8" x="1069.51" y="98.89" width="168.74" height="3.08"/><rect class="cls-8" x="1069.51" y="68.06" width="168.74" height="3.08"/><rect class="cls-8" x="1069.51" y="37.24" width="168.74" height="3.08"/><rect class="cls-8" x="1069.51" y="6.41" width="168.74" height="3.08"/></g><g class="cls-9"><rect class="cls-8" x="1404.66" y="299.24" width="168.74" height="3.08"/><rect class="cls-8" x="1404.66" y="268.42" width="168.74" height="3.08"/><rect class="cls-8" x="1404.66" y="237.59" width="168.74" height="3.08"/><rect class="cls-8" x="1404.66" y="206.77" width="168.74" height="3.08"/><rect class="cls-8" x="1404.66" y="175.95" width="168.74" height="3.08"/><rect class="cls-8" x="1404.66" y="283.83" width="168.74" height="3.08"/><rect class="cls-8" x="1404.66" y="253.01" width="168.74" height="3.08"/><rect class="cls-8" x="1404.66" y="222.18" width="168.74" height="3.08"/><rect class="cls-8" x="1404.66" y="191.36" width="168.74" height="3.08"/><rect class="cls-8" x="1404.66" y="160.53" width="168.74" height="3.08"/><rect class="cls-8" x="1237.08" y="299.24" width="168.74" height="3.08"/><rect class="cls-8" x="1237.08" y="268.42" width="168.74" height="3.08"/><rect class="cls-8" x="1237.08" y="237.59" width="168.74" height="3.08"/><rect class="cls-8" x="1237.08" y="206.77" width="168.74" height="3.08"/><rect class="cls-8" x="1237.08" y="175.95" width="168.74" height="3.08"/><rect class="cls-8" x="1237.08" y="283.83" width="168.74" height="3.08"/><rect class="cls-8" x="1237.08" y="253.01" width="168.74" height="3.08"/><rect class="cls-8" x="1237.08" y="222.18" width="168.74" height="3.08"/><rect class="cls-8" x="1237.08" y="191.36" width="168.74" height="3.08"/><rect class="cls-8" x="1237.08" y="160.53" width="168.74" height="3.08"/><rect class="cls-8" x="1069.51" y="299.24" width="168.74" height="3.08"/><rect class="cls-8" x="1069.51" y="268.42" width="168.74" height="3.08"/><rect class="cls-8" x="1069.51" y="237.59" width="168.74" height="3.08"/><rect class="cls-8" x="1069.51" y="206.77" width="168.74" height="3.08"/><rect class="cls-8" x="1069.51" y="175.95" width="168.74" height="3.08"/><rect class="cls-8" x="1069.51" y="283.83" width="168.74" height="3.08"/><rect class="cls-8" x="1069.51" y="253.01" width="168.74" height="3.08"/><rect class="cls-8" x="1069.51" y="222.18" width="168.74" height="3.08"/><rect class="cls-8" x="1069.51" y="191.36" width="168.74" height="3.08"/><rect class="cls-8" x="1069.51" y="160.53" width="168.74" height="3.08"/></g><g class="cls-10"><rect class="cls-8" x="1404.66" y="453.36" width="168.74" height="3.08"/><rect class="cls-8" x="1404.66" y="422.54" width="168.74" height="3.08"/><rect class="cls-8" x="1404.66" y="391.72" width="168.74" height="3.08"/><rect class="cls-8" x="1404.66" y="360.89" width="168.74" height="3.08"/><rect class="cls-8" x="1404.66" y="330.07" width="168.74" height="3.08"/><rect class="cls-8" x="1404.66" y="437.95" width="168.74" height="3.08"/><rect class="cls-8" x="1404.66" y="407.13" width="168.74" height="3.08"/><rect class="cls-8" x="1404.66" y="376.3" width="168.74" height="3.08"/><rect class="cls-8" x="1404.66" y="345.48" width="168.74" height="3.08"/><rect class="cls-8" x="1404.66" y="314.66" width="168.74" height="3.08"/><rect class="cls-8" x="1237.08" y="453.36" width="168.74" height="3.08"/><rect class="cls-8" x="1237.08" y="422.54" width="168.74" height="3.08"/><rect class="cls-8" x="1237.08" y="391.72" width="168.74" height="3.08"/><rect class="cls-8" x="1237.08" y="360.89" width="168.74" height="3.08"/><rect class="cls-8" x="1237.08" y="330.07" width="168.74" height="3.08"/><rect class="cls-8" x="1237.08" y="437.95" width="168.74" height="3.08"/><rect class="cls-8" x="1237.08" y="407.13" width="168.74" height="3.08"/><rect class="cls-8" x="1237.08" y="376.3" width="168.74" height="3.08"/><rect class="cls-8" x="1237.08" y="345.48" width="168.74" height="3.08"/><rect class="cls-8" x="1237.08" y="314.66" width="168.74" height="3.08"/><rect class="cls-8" x="1069.51" y="453.36" width="168.74" height="3.08"/><rect class="cls-8" x="1069.51" y="422.54" width="168.74" height="3.08"/><rect class="cls-8" x="1069.51" y="391.72" width="168.74" height="3.08"/><rect class="cls-8" x="1069.51" y="360.89" width="168.74" height="3.08"/><rect class="cls-8" x="1069.51" y="330.07" width="168.74" height="3.08"/><rect class="cls-8" x="1069.51" y="437.95" width="168.74" height="3.08"/><rect class="cls-8" x="1069.51" y="407.13" width="168.74" height="3.08"/><rect class="cls-8" x="1069.51" y="376.3" width="168.74" height="3.08"/><rect class="cls-8" x="1069.51" y="345.48" width="168.74" height="3.08"/><rect class="cls-8" x="1069.51" y="314.66" width="168.74" height="3.08"/></g><g class="cls-11"><rect class="cls-8" x="1404.66" y="607.48" width="168.74" height="3.08"/><rect class="cls-8" x="1404.66" y="576.66" width="168.74" height="3.08"/><rect class="cls-8" x="1404.66" y="545.84" width="168.74" height="3.08"/><rect class="cls-8" x="1404.66" y="515.01" width="168.74" height="3.08"/><rect class="cls-8" x="1404.66" y="484.19" width="168.74" height="3.08"/><rect class="cls-8" x="1404.66" y="592.07" width="168.74" height="3.08"/><rect class="cls-8" x="1404.66" y="561.25" width="168.74" height="3.08"/><rect class="cls-8" x="1404.66" y="530.42" width="168.74" height="3.08"/><rect class="cls-8" x="1404.66" y="499.6" width="168.74" height="3.08"/><rect class="cls-8" x="1404.66" y="468.78" width="168.74" height="3.08"/><rect class="cls-8" x="1237.08" y="607.48" width="168.74" height="3.08"/><rect class="cls-8" x="1237.08" y="576.66" width="168.74" height="3.08"/><rect class="cls-8" x="1237.08" y="545.84" width="168.74" height="3.08"/><rect class="cls-8" x="1237.08" y="515.01" width="168.74" height="3.08"/><rect class="cls-8" x="1237.08" y="484.19" width="168.74" height="3.08"/><rect class="cls-8" x="1237.08" y="592.07" width="168.74" height="3.08"/><rect class="cls-8" x="1237.08" y="561.25" width="168.74" height="3.08"/><rect class="cls-8" x="1237.08" y="530.42" width="168.74" height="3.08"/><rect class="cls-8" x="1237.08" y="499.6" width="168.74" height="3.08"/><rect class="cls-8" x="1237.08" y="468.78" width="168.74" height="3.08"/><rect class="cls-8" x="1069.51" y="607.48" width="168.74" height="3.08"/><rect class="cls-8" x="1069.51" y="576.66" width="168.74" height="3.08"/><rect class="cls-8" x="1069.51" y="545.84" width="168.74" height="3.08"/><rect class="cls-8" x="1069.51" y="515.01" width="168.74" height="3.08"/><rect class="cls-8" x="1069.51" y="484.19" width="168.74" height="3.08"/><rect class="cls-8" x="1069.51" y="592.07" width="168.74" height="3.08"/><rect class="cls-8" x="1069.51" y="561.25" width="168.74" height="3.08"/><rect class="cls-8" x="1069.51" y="530.42" width="168.74" height="3.08"/><rect class="cls-8" x="1069.51" y="499.6" width="168.74" height="3.08"/><rect class="cls-8" x="1069.51" y="468.78" width="168.74" height="3.08"/></g><g class="cls-12"><rect class="cls-8" x="1237.08" y="145.12" width="168.74" height="3.08"/><rect class="cls-8" x="1237.08" y="114.3" width="168.74" height="3.08"/><rect class="cls-8" x="1237.08" y="83.47" width="168.74" height="3.08"/><rect class="cls-8" x="1237.08" y="52.65" width="168.74" height="3.08"/><rect class="cls-8" x="1237.08" y="21.82" width="168.74" height="3.08"/><rect class="cls-8" x="1237.08" y="129.71" width="168.74" height="3.08"/><rect class="cls-8" x="1237.08" y="98.89" width="168.74" height="3.08"/><rect class="cls-8" x="1237.08" y="68.06" width="168.74" height="3.08"/><rect class="cls-8" x="1237.08" y="37.24" width="168.74" height="3.08"/><rect class="cls-8" x="1237.08" y="6.41" width="168.74" height="3.08"/><rect class="cls-8" x="1069.51" y="145.12" width="168.74" height="3.08"/><rect class="cls-8" x="1069.51" y="114.3" width="168.74" height="3.08"/><rect class="cls-8" x="1069.51" y="83.47" width="168.74" height="3.08"/><rect class="cls-8" x="1069.51" y="52.65" width="168.74" height="3.08"/><rect class="cls-8" x="1069.51" y="21.82" width="168.74" height="3.08"/><rect class="cls-8" x="1069.51" y="129.71" width="168.74" height="3.08"/><rect class="cls-8" x="1069.51" y="98.89" width="168.74" height="3.08"/><rect class="cls-8" x="1069.51" y="68.06" width="168.74" height="3.08"/><rect class="cls-8" x="1069.51" y="37.24" width="168.74" height="3.08"/><rect class="cls-8" x="1069.51" y="6.41" width="168.74" height="3.08"/><rect class="cls-8" x="901.93" y="145.12" width="168.74" height="3.08"/><rect class="cls-8" x="901.93" y="114.3" width="168.74" height="3.08"/><rect class="cls-8" x="901.93" y="83.47" width="168.74" height="3.08"/><rect class="cls-8" x="901.93" y="52.65" width="168.74" height="3.08"/><rect class="cls-8" x="901.93" y="21.82" width="168.74" height="3.08"/><rect class="cls-8" x="901.93" y="129.71" width="168.74" height="3.08"/><rect class="cls-8" x="901.93" y="98.89" width="168.74" height="3.08"/><rect class="cls-8" x="901.93" y="68.06" width="168.74" height="3.08"/><rect class="cls-8" x="901.93" y="37.24" width="168.74" height="3.08"/><rect class="cls-8" x="901.93" y="6.41" width="168.74" height="3.08"/></g><g class="cls-13"><rect class="cls-8" x="1237.08" y="299.24" width="168.74" height="3.08"/><rect class="cls-8" x="1237.08" y="268.42" width="168.74" height="3.08"/><rect class="cls-8" x="1237.08" y="237.59" width="168.74" height="3.08"/><rect class="cls-8" x="1237.08" y="206.77" width="168.74" height="3.08"/><rect class="cls-8" x="1237.08" y="175.95" width="168.74" height="3.08"/><rect class="cls-8" x="1237.08" y="283.83" width="168.74" height="3.08"/><rect class="cls-8" x="1237.08" y="253.01" width="168.74" height="3.08"/><rect class="cls-8" x="1237.08" y="222.18" width="168.74" height="3.08"/><rect class="cls-8" x="1237.08" y="191.36" width="168.74" height="3.08"/><rect class="cls-8" x="1237.08" y="160.53" width="168.74" height="3.08"/><rect class="cls-8" x="1069.51" y="299.24" width="168.74" height="3.08"/><rect class="cls-8" x="1069.51" y="268.42" width="168.74" height="3.08"/><rect class="cls-8" x="1069.51" y="237.59" width="168.74" height="3.08"/><rect class="cls-8" x="1069.51" y="206.77" width="168.74" height="3.08"/><rect class="cls-8" x="1069.51" y="175.95" width="168.74" height="3.08"/><rect class="cls-8" x="1069.51" y="283.83" width="168.74" height="3.08"/><rect class="cls-8" x="1069.51" y="253.01" width="168.74" height="3.08"/><rect class="cls-8" x="1069.51" y="222.18" width="168.74" height="3.08"/><rect class="cls-8" x="1069.51" y="191.36" width="168.74" height="3.08"/><rect class="cls-8" x="1069.51" y="160.53" width="168.74" height="3.08"/><rect class="cls-8" x="901.93" y="299.24" width="168.74" height="3.08"/><rect class="cls-8" x="901.93" y="268.42" width="168.74" height="3.08"/><rect class="cls-8" x="901.93" y="237.59" width="168.74" height="3.08"/><rect class="cls-8" x="901.93" y="206.77" width="168.74" height="3.08"/><rect class="cls-8" x="901.93" y="175.95" width="168.74" height="3.08"/><rect class="cls-8" x="901.93" y="283.83" width="168.74" height="3.08"/><rect class="cls-8" x="901.93" y="253.01" width="168.74" height="3.08"/><rect class="cls-8" x="901.93" y="222.18" width="168.74" height="3.08"/><rect class="cls-8" x="901.93" y="191.36" width="168.74" height="3.08"/><rect class="cls-8" x="901.93" y="160.53" width="168.74" height="3.08"/></g><g class="cls-14"><rect class="cls-8" x="1237.08" y="453.36" width="168.74" height="3.08"/><rect class="cls-8" x="1237.08" y="422.54" width="168.74" height="3.08"/><rect class="cls-8" x="1237.08" y="391.72" width="168.74" height="3.08"/><rect class="cls-8" x="1237.08" y="360.89" width="168.74" height="3.08"/><rect class="cls-8" x="1237.08" y="330.07" width="168.74" height="3.08"/><rect class="cls-8" x="1237.08" y="437.95" width="168.74" height="3.08"/><rect class="cls-8" x="1237.08" y="407.13" width="168.74" height="3.08"/><rect class="cls-8" x="1237.08" y="376.3" width="168.74" height="3.08"/><rect class="cls-8" x="1237.08" y="345.48" width="168.74" height="3.08"/><rect class="cls-8" x="1237.08" y="314.66" width="168.74" height="3.08"/><rect class="cls-8" x="1069.51" y="453.36" width="168.74" height="3.08"/><rect class="cls-8" x="1069.51" y="422.54" width="168.74" height="3.08"/><rect class="cls-8" x="1069.51" y="391.72" width="168.74" height="3.08"/><rect class="cls-8" x="1069.51" y="360.89" width="168.74" height="3.08"/><rect class="cls-8" x="1069.51" y="330.07" width="168.74" height="3.08"/><rect class="cls-8" x="1069.51" y="437.95" width="168.74" height="3.08"/><rect class="cls-8" x="1069.51" y="407.13" width="168.74" height="3.08"/><rect class="cls-8" x="1069.51" y="376.3" width="168.74" height="3.08"/><rect class="cls-8" x="1069.51" y="345.48" width="168.74" height="3.08"/><rect class="cls-8" x="1069.51" y="314.66" width="168.74" height="3.08"/><rect class="cls-8" x="901.93" y="453.36" width="168.74" height="3.08"/><rect class="cls-8" x="901.93" y="422.54" width="168.74" height="3.08"/><rect class="cls-8" x="901.93" y="391.72" width="168.74" height="3.08"/><rect class="cls-8" x="901.93" y="360.89" width="168.74" height="3.08"/><rect class="cls-8" x="901.93" y="330.07" width="168.74" height="3.08"/><rect class="cls-8" x="901.93" y="437.95" width="168.74" height="3.08"/><rect class="cls-8" x="901.93" y="407.13" width="168.74" height="3.08"/><rect class="cls-8" x="901.93" y="376.3" width="168.74" height="3.08"/><rect class="cls-8" x="901.93" y="345.48" width="168.74" height="3.08"/><rect class="cls-8" x="901.93" y="314.66" width="168.74" height="3.08"/></g><g class="cls-15"><rect class="cls-8" x="1237.08" y="607.48" width="168.74" height="3.08"/><rect class="cls-8" x="1237.08" y="576.66" width="168.74" height="3.08"/><rect class="cls-8" x="1237.08" y="545.84" width="168.74" height="3.08"/><rect class="cls-8" x="1237.08" y="515.01" width="168.74" height="3.08"/><rect class="cls-8" x="1237.08" y="484.19" width="168.74" height="3.08"/><rect class="cls-8" x="1237.08" y="592.07" width="168.74" height="3.08"/><rect class="cls-8" x="1237.08" y="561.25" width="168.74" height="3.08"/><rect class="cls-8" x="1237.08" y="530.42" width="168.74" height="3.08"/><rect class="cls-8" x="1237.08" y="499.6" width="168.74" height="3.08"/><rect class="cls-8" x="1237.08" y="468.78" width="168.74" height="3.08"/><rect class="cls-8" x="1069.51" y="607.48" width="168.74" height="3.08"/><rect class="cls-8" x="1069.51" y="576.66" width="168.74" height="3.08"/><rect class="cls-8" x="1069.51" y="545.84" width="168.74" height="3.08"/><rect class="cls-8" x="1069.51" y="515.01" width="168.74" height="3.08"/><rect class="cls-8" x="1069.51" y="484.19" width="168.74" height="3.08"/><rect class="cls-8" x="1069.51" y="592.07" width="168.74" height="3.08"/><rect class="cls-8" x="1069.51" y="561.25" width="168.74" height="3.08"/><rect class="cls-8" x="1069.51" y="530.42" width="168.74" height="3.08"/><rect class="cls-8" x="1069.51" y="499.6" width="168.74" height="3.08"/><rect class="cls-8" x="1069.51" y="468.78" width="168.74" height="3.08"/><rect class="cls-8" x="901.93" y="607.48" width="168.74" height="3.08"/><rect class="cls-8" x="901.93" y="576.66" width="168.74" height="3.08"/><rect class="cls-8" x="901.93" y="545.84" width="168.74" height="3.08"/><rect class="cls-8" x="901.93" y="515.01" width="168.74" height="3.08"/><rect class="cls-8" x="901.93" y="484.19" width="168.74" height="3.08"/><rect class="cls-8" x="901.93" y="592.07" width="168.74" height="3.08"/><rect class="cls-8" x="901.93" y="561.25" width="168.74" height="3.08"/><rect class="cls-8" x="901.93" y="530.42" width="168.74" height="3.08"/><rect class="cls-8" x="901.93" y="499.6" width="168.74" height="3.08"/><rect class="cls-8" x="901.93" y="468.78" width="168.74" height="3.08"/></g><g class="cls-16"><rect class="cls-8" x="1069.51" y="145.12" width="168.74" height="3.08"/><rect class="cls-8" x="1069.51" y="114.3" width="168.74" height="3.08"/><rect class="cls-8" x="1069.51" y="83.47" width="168.74" height="3.08"/><rect class="cls-8" x="1069.51" y="52.65" width="168.74" height="3.08"/><rect class="cls-8" x="1069.51" y="21.82" width="168.74" height="3.08"/><rect class="cls-8" x="1069.51" y="129.71" width="168.74" height="3.08"/><rect class="cls-8" x="1069.51" y="98.89" width="168.74" height="3.08"/><rect class="cls-8" x="1069.51" y="68.06" width="168.74" height="3.08"/><rect class="cls-8" x="1069.51" y="37.24" width="168.74" height="3.08"/><rect class="cls-8" x="1069.51" y="6.41" width="168.74" height="3.08"/><rect class="cls-8" x="901.93" y="145.12" width="168.74" height="3.08"/><rect class="cls-8" x="901.93" y="114.3" width="168.74" height="3.08"/><rect class="cls-8" x="901.93" y="83.47" width="168.74" height="3.08"/><rect class="cls-8" x="901.93" y="52.65" width="168.74" height="3.08"/><rect class="cls-8" x="901.93" y="21.82" width="168.74" height="3.08"/><rect class="cls-8" x="901.93" y="129.71" width="168.74" height="3.08"/><rect class="cls-8" x="901.93" y="98.89" width="168.74" height="3.08"/><rect class="cls-8" x="901.93" y="68.06" width="168.74" height="3.08"/><rect class="cls-8" x="901.93" y="37.24" width="168.74" height="3.08"/><rect class="cls-8" x="901.93" y="6.41" width="168.74" height="3.08"/><rect class="cls-8" x="734.36" y="145.12" width="168.74" height="3.08"/><rect class="cls-8" x="734.36" y="114.3" width="168.74" height="3.08"/><rect class="cls-8" x="734.36" y="83.47" width="168.74" height="3.08"/><rect class="cls-8" x="734.36" y="52.65" width="168.74" height="3.08"/><rect class="cls-8" x="734.36" y="21.82" width="168.74" height="3.08"/><rect class="cls-8" x="734.36" y="129.71" width="168.74" height="3.08"/><rect class="cls-8" x="734.36" y="98.89" width="168.74" height="3.08"/><rect class="cls-8" x="734.36" y="68.06" width="168.74" height="3.08"/><rect class="cls-8" x="734.36" y="37.24" width="168.74" height="3.08"/><rect class="cls-8" x="734.36" y="6.41" width="168.74" height="3.08"/></g><g class="cls-17"><rect class="cls-8" x="1069.51" y="299.24" width="168.74" height="3.08"/><rect class="cls-8" x="1069.51" y="268.42" width="168.74" height="3.08"/><rect class="cls-8" x="1069.51" y="237.59" width="168.74" height="3.08"/><rect class="cls-8" x="1069.51" y="206.77" width="168.74" height="3.08"/><rect class="cls-8" x="1069.51" y="175.95" width="168.74" height="3.08"/><rect class="cls-8" x="1069.51" y="283.83" width="168.74" height="3.08"/><rect class="cls-8" x="1069.51" y="253.01" width="168.74" height="3.08"/><rect class="cls-8" x="1069.51" y="222.18" width="168.74" height="3.08"/><rect class="cls-8" x="1069.51" y="191.36" width="168.74" height="3.08"/><rect class="cls-8" x="1069.51" y="160.53" width="168.74" height="3.08"/><rect class="cls-8" x="901.93" y="299.24" width="168.74" height="3.08"/><rect class="cls-8" x="901.93" y="268.42" width="168.74" height="3.08"/><rect class="cls-8" x="901.93" y="237.59" width="168.74" height="3.08"/><rect class="cls-8" x="901.93" y="206.77" width="168.74" height="3.08"/><rect class="cls-8" x="901.93" y="175.95" width="168.74" height="3.08"/><rect class="cls-8" x="901.93" y="283.83" width="168.74" height="3.08"/><rect class="cls-8" x="901.93" y="253.01" width="168.74" height="3.08"/><rect class="cls-8" x="901.93" y="222.18" width="168.74" height="3.08"/><rect class="cls-8" x="901.93" y="191.36" width="168.74" height="3.08"/><rect class="cls-8" x="901.93" y="160.53" width="168.74" height="3.08"/><rect class="cls-8" x="734.36" y="299.24" width="168.74" height="3.08"/><rect class="cls-8" x="734.36" y="268.42" width="168.74" height="3.08"/><rect class="cls-8" x="734.36" y="237.59" width="168.74" height="3.08"/><rect class="cls-8" x="734.36" y="206.77" width="168.74" height="3.08"/><rect class="cls-8" x="734.36" y="175.95" width="168.74" height="3.08"/><rect class="cls-8" x="734.36" y="283.83" width="168.74" height="3.08"/><rect class="cls-8" x="734.36" y="253.01" width="168.74" height="3.08"/><rect class="cls-8" x="734.36" y="222.18" width="168.74" height="3.08"/><rect class="cls-8" x="734.36" y="191.36" width="168.74" height="3.08"/><rect class="cls-8" x="734.36" y="160.53" width="168.74" height="3.08"/></g><g class="cls-18"><rect class="cls-8" x="1069.51" y="453.36" width="168.74" height="3.08"/><rect class="cls-8" x="1069.51" y="422.54" width="168.74" height="3.08"/><rect class="cls-8" x="1069.51" y="391.72" width="168.74" height="3.08"/><rect class="cls-8" x="1069.51" y="360.89" width="168.74" height="3.08"/><rect class="cls-8" x="1069.51" y="330.07" width="168.74" height="3.08"/><rect class="cls-8" x="1069.51" y="437.95" width="168.74" height="3.08"/><rect class="cls-8" x="1069.51" y="407.13" width="168.74" height="3.08"/><rect class="cls-8" x="1069.51" y="376.3" width="168.74" height="3.08"/><rect class="cls-8" x="1069.51" y="345.48" width="168.74" height="3.08"/><rect class="cls-8" x="1069.51" y="314.66" width="168.74" height="3.08"/><rect class="cls-8" x="901.93" y="453.36" width="168.74" height="3.08"/><rect class="cls-8" x="901.93" y="422.54" width="168.74" height="3.08"/><rect class="cls-8" x="901.93" y="391.72" width="168.74" height="3.08"/><rect class="cls-8" x="901.93" y="360.89" width="168.74" height="3.08"/><rect class="cls-8" x="901.93" y="330.07" width="168.74" height="3.08"/><rect class="cls-8" x="901.93" y="437.95" width="168.74" height="3.08"/><rect class="cls-8" x="901.93" y="407.13" width="168.74" height="3.08"/><rect class="cls-8" x="901.93" y="376.3" width="168.74" height="3.08"/><rect class="cls-8" x="901.93" y="345.48" width="168.74" height="3.08"/><rect class="cls-8" x="901.93" y="314.66" width="168.74" height="3.08"/><rect class="cls-8" x="734.36" y="453.36" width="168.74" height="3.08"/><rect class="cls-8" x="734.36" y="422.54" width="168.74" height="3.08"/><rect class="cls-8" x="734.36" y="391.72" width="168.74" height="3.08"/><rect class="cls-8" x="734.36" y="360.89" width="168.74" height="3.08"/><rect class="cls-8" x="734.36" y="330.07" width="168.74" height="3.08"/><rect class="cls-8" x="734.36" y="437.95" width="168.74" height="3.08"/><rect class="cls-8" x="734.36" y="407.13" width="168.74" height="3.08"/><rect class="cls-8" x="734.36" y="376.3" width="168.74" height="3.08"/><rect class="cls-8" x="734.36" y="345.48" width="168.74" height="3.08"/><rect class="cls-8" x="734.36" y="314.66" width="168.74" height="3.08"/></g><g class="cls-19"><rect class="cls-8" x="1069.51" y="607.48" width="168.74" height="3.08"/><rect class="cls-8" x="1069.51" y="576.66" width="168.74" height="3.08"/><rect class="cls-8" x="1069.51" y="545.84" width="168.74" height="3.08"/><rect class="cls-8" x="1069.51" y="515.01" width="168.74" height="3.08"/><rect class="cls-8" x="1069.51" y="484.19" width="168.74" height="3.08"/><rect class="cls-8" x="1069.51" y="592.07" width="168.74" height="3.08"/><rect class="cls-8" x="1069.51" y="561.25" width="168.74" height="3.08"/><rect class="cls-8" x="1069.51" y="530.42" width="168.74" height="3.08"/><rect class="cls-8" x="1069.51" y="499.6" width="168.74" height="3.08"/><rect class="cls-8" x="1069.51" y="468.78" width="168.74" height="3.08"/><rect class="cls-8" x="901.93" y="607.48" width="168.74" height="3.08"/><rect class="cls-8" x="901.93" y="576.66" width="168.74" height="3.08"/><rect class="cls-8" x="901.93" y="545.84" width="168.74" height="3.08"/><rect class="cls-8" x="901.93" y="515.01" width="168.74" height="3.08"/><rect class="cls-8" x="901.93" y="484.19" width="168.74" height="3.08"/><rect class="cls-8" x="901.93" y="592.07" width="168.74" height="3.08"/><rect class="cls-8" x="901.93" y="561.25" width="168.74" height="3.08"/><rect class="cls-8" x="901.93" y="530.42" width="168.74" height="3.08"/><rect class="cls-8" x="901.93" y="499.6" width="168.74" height="3.08"/><rect class="cls-8" x="901.93" y="468.78" width="168.74" height="3.08"/><rect class="cls-8" x="734.36" y="607.48" width="168.74" height="3.08"/><rect class="cls-8" x="734.36" y="576.66" width="168.74" height="3.08"/><rect class="cls-8" x="734.36" y="545.84" width="168.74" height="3.08"/><rect class="cls-8" x="734.36" y="515.01" width="168.74" height="3.08"/><rect class="cls-8" x="734.36" y="484.19" width="168.74" height="3.08"/><rect class="cls-8" x="734.36" y="592.07" width="168.74" height="3.08"/><rect class="cls-8" x="734.36" y="561.25" width="168.74" height="3.08"/><rect class="cls-8" x="734.36" y="530.42" width="168.74" height="3.08"/><rect class="cls-8" x="734.36" y="499.6" width="168.74" height="3.08"/><rect class="cls-8" x="734.36" y="468.78" width="168.74" height="3.08"/></g><g class="cls-20"><rect class="cls-8" x="901.93" y="145.12" width="168.74" height="3.08"/><rect class="cls-8" x="901.93" y="114.3" width="168.74" height="3.08"/><rect class="cls-8" x="901.93" y="83.47" width="168.74" height="3.08"/><rect class="cls-8" x="901.93" y="52.65" width="168.74" height="3.08"/><rect class="cls-8" x="901.93" y="21.82" width="168.74" height="3.08"/><rect class="cls-8" x="901.93" y="129.71" width="168.74" height="3.08"/><rect class="cls-8" x="901.93" y="98.89" width="168.74" height="3.08"/><rect class="cls-8" x="901.93" y="68.06" width="168.74" height="3.08"/><rect class="cls-8" x="901.93" y="37.24" width="168.74" height="3.08"/><rect class="cls-8" x="901.93" y="6.41" width="168.74" height="3.08"/><rect class="cls-8" x="734.36" y="145.12" width="168.74" height="3.08"/><rect class="cls-8" x="734.36" y="114.3" width="168.74" height="3.08"/><rect class="cls-8" x="734.36" y="83.47" width="168.74" height="3.08"/><rect class="cls-8" x="734.36" y="52.65" width="168.74" height="3.08"/><rect class="cls-8" x="734.36" y="21.82" width="168.74" height="3.08"/><rect class="cls-8" x="734.36" y="129.71" width="168.74" height="3.08"/><rect class="cls-8" x="734.36" y="98.89" width="168.74" height="3.08"/><rect class="cls-8" x="734.36" y="68.06" width="168.74" height="3.08"/><rect class="cls-8" x="734.36" y="37.24" width="168.74" height="3.08"/><rect class="cls-8" x="734.36" y="6.41" width="168.74" height="3.08"/><rect class="cls-8" x="566.78" y="145.12" width="168.74" height="3.08"/><rect class="cls-8" x="566.78" y="114.3" width="168.74" height="3.08"/><rect class="cls-8" x="566.78" y="83.47" width="168.74" height="3.08"/><rect class="cls-8" x="566.78" y="52.65" width="168.74" height="3.08"/><rect class="cls-8" x="566.78" y="21.82" width="168.74" height="3.08"/><rect class="cls-8" x="566.78" y="129.71" width="168.74" height="3.08"/><rect class="cls-8" x="566.78" y="98.89" width="168.74" height="3.08"/><rect class="cls-8" x="566.78" y="68.06" width="168.74" height="3.08"/><rect class="cls-8" x="566.78" y="37.24" width="168.74" height="3.08"/><rect class="cls-8" x="566.78" y="6.41" width="168.74" height="3.08"/></g><g class="cls-21"><rect class="cls-8" x="901.93" y="299.24" width="168.74" height="3.08"/><rect class="cls-8" x="901.93" y="268.42" width="168.74" height="3.08"/><rect class="cls-8" x="901.93" y="237.59" width="168.74" height="3.08"/><rect class="cls-8" x="901.93" y="206.77" width="168.74" height="3.08"/><rect class="cls-8" x="901.93" y="175.95" width="168.74" height="3.08"/><rect class="cls-8" x="901.93" y="283.83" width="168.74" height="3.08"/><rect class="cls-8" x="901.93" y="253.01" width="168.74" height="3.08"/><rect class="cls-8" x="901.93" y="222.18" width="168.74" height="3.08"/><rect class="cls-8" x="901.93" y="191.36" width="168.74" height="3.08"/><rect class="cls-8" x="901.93" y="160.53" width="168.74" height="3.08"/><rect class="cls-8" x="734.36" y="299.24" width="168.74" height="3.08"/><rect class="cls-8" x="734.36" y="268.42" width="168.74" height="3.08"/><rect class="cls-8" x="734.36" y="237.59" width="168.74" height="3.08"/><rect class="cls-8" x="734.36" y="206.77" width="168.74" height="3.08"/><rect class="cls-8" x="734.36" y="175.95" width="168.74" height="3.08"/><rect class="cls-8" x="734.36" y="283.83" width="168.74" height="3.08"/><rect class="cls-8" x="734.36" y="253.01" width="168.74" height="3.08"/><rect class="cls-8" x="734.36" y="222.18" width="168.74" height="3.08"/><rect class="cls-8" x="734.36" y="191.36" width="168.74" height="3.08"/><rect class="cls-8" x="734.36" y="160.53" width="168.74" height="3.08"/><rect class="cls-8" x="566.78" y="299.24" width="168.74" height="3.08"/><rect class="cls-8" x="566.78" y="268.42" width="168.74" height="3.08"/><rect class="cls-8" x="566.78" y="237.59" width="168.74" height="3.08"/><rect class="cls-8" x="566.78" y="206.77" width="168.74" height="3.08"/><rect class="cls-8" x="566.78" y="175.95" width="168.74" height="3.08"/><rect class="cls-8" x="566.78" y="283.83" width="168.74" height="3.08"/><rect class="cls-8" x="566.78" y="253.01" width="168.74" height="3.08"/><rect class="cls-8" x="566.78" y="222.18" width="168.74" height="3.08"/><rect class="cls-8" x="566.78" y="191.36" width="168.74" height="3.08"/><rect class="cls-8" x="566.78" y="160.53" width="168.74" height="3.08"/></g><g class="cls-22"><rect class="cls-8" x="901.93" y="453.36" width="168.74" height="3.08"/><rect class="cls-8" x="901.93" y="422.54" width="168.74" height="3.08"/><rect class="cls-8" x="901.93" y="391.72" width="168.74" height="3.08"/><rect class="cls-8" x="901.93" y="360.89" width="168.74" height="3.08"/><rect class="cls-8" x="901.93" y="330.07" width="168.74" height="3.08"/><rect class="cls-8" x="901.93" y="437.95" width="168.74" height="3.08"/><rect class="cls-8" x="901.93" y="407.13" width="168.74" height="3.08"/><rect class="cls-8" x="901.93" y="376.3" width="168.74" height="3.08"/><rect class="cls-8" x="901.93" y="345.48" width="168.74" height="3.08"/><rect class="cls-8" x="901.93" y="314.66" width="168.74" height="3.08"/><rect class="cls-8" x="734.36" y="453.36" width="168.74" height="3.08"/><rect class="cls-8" x="734.36" y="422.54" width="168.74" height="3.08"/><rect class="cls-8" x="734.36" y="391.72" width="168.74" height="3.08"/><rect class="cls-8" x="734.36" y="360.89" width="168.74" height="3.08"/><rect class="cls-8" x="734.36" y="330.07" width="168.74" height="3.08"/><rect class="cls-8" x="734.36" y="437.95" width="168.74" height="3.08"/><rect class="cls-8" x="734.36" y="407.13" width="168.74" height="3.08"/><rect class="cls-8" x="734.36" y="376.3" width="168.74" height="3.08"/><rect class="cls-8" x="734.36" y="345.48" width="168.74" height="3.08"/><rect class="cls-8" x="734.36" y="314.66" width="168.74" height="3.08"/><rect class="cls-8" x="566.78" y="453.36" width="168.74" height="3.08"/><rect class="cls-8" x="566.78" y="422.54" width="168.74" height="3.08"/><rect class="cls-8" x="566.78" y="391.72" width="168.74" height="3.08"/><rect class="cls-8" x="566.78" y="360.89" width="168.74" height="3.08"/><rect class="cls-8" x="566.78" y="330.07" width="168.74" height="3.08"/><rect class="cls-8" x="566.78" y="437.95" width="168.74" height="3.08"/><rect class="cls-8" x="566.78" y="407.13" width="168.74" height="3.08"/><rect class="cls-8" x="566.78" y="376.3" width="168.74" height="3.08"/><rect class="cls-8" x="566.78" y="345.48" width="168.74" height="3.08"/><rect class="cls-8" x="566.78" y="314.66" width="168.74" height="3.08"/></g><g class="cls-23"><rect class="cls-8" x="901.93" y="607.48" width="168.74" height="3.08"/><rect class="cls-8" x="901.93" y="576.66" width="168.74" height="3.08"/><rect class="cls-8" x="901.93" y="545.84" width="168.74" height="3.08"/><rect class="cls-8" x="901.93" y="515.01" width="168.74" height="3.08"/><rect class="cls-8" x="901.93" y="484.19" width="168.74" height="3.08"/><rect class="cls-8" x="901.93" y="592.07" width="168.74" height="3.08"/><rect class="cls-8" x="901.93" y="561.25" width="168.74" height="3.08"/><rect class="cls-8" x="901.93" y="530.42" width="168.74" height="3.08"/><rect class="cls-8" x="901.93" y="499.6" width="168.74" height="3.08"/><rect class="cls-8" x="901.93" y="468.78" width="168.74" height="3.08"/><rect class="cls-8" x="734.36" y="607.48" width="168.74" height="3.08"/><rect class="cls-8" x="734.36" y="576.66" width="168.74" height="3.08"/><rect class="cls-8" x="734.36" y="545.84" width="168.74" height="3.08"/><rect class="cls-8" x="734.36" y="515.01" width="168.74" height="3.08"/><rect class="cls-8" x="734.36" y="484.19" width="168.74" height="3.08"/><rect class="cls-8" x="734.36" y="592.07" width="168.74" height="3.08"/><rect class="cls-8" x="734.36" y="561.25" width="168.74" height="3.08"/><rect class="cls-8" x="734.36" y="530.42" width="168.74" height="3.08"/><rect class="cls-8" x="734.36" y="499.6" width="168.74" height="3.08"/><rect class="cls-8" x="734.36" y="468.78" width="168.74" height="3.08"/><rect class="cls-8" x="566.78" y="607.48" width="168.74" height="3.08"/><rect class="cls-8" x="566.78" y="576.66" width="168.74" height="3.08"/><rect class="cls-8" x="566.78" y="545.84" width="168.74" height="3.08"/><rect class="cls-8" x="566.78" y="515.01" width="168.74" height="3.08"/><rect class="cls-8" x="566.78" y="484.19" width="168.74" height="3.08"/><rect class="cls-8" x="566.78" y="592.07" width="168.74" height="3.08"/><rect class="cls-8" x="566.78" y="561.25" width="168.74" height="3.08"/><rect class="cls-8" x="566.78" y="530.42" width="168.74" height="3.08"/><rect class="cls-8" x="566.78" y="499.6" width="168.74" height="3.08"/><rect class="cls-8" x="566.78" y="468.78" width="168.74" height="3.08"/></g><g class="cls-24"><rect class="cls-8" x="734.36" y="145.12" width="168.74" height="3.08"/><rect class="cls-8" x="734.36" y="114.3" width="168.74" height="3.08"/><rect class="cls-8" x="734.36" y="83.47" width="168.74" height="3.08"/><rect class="cls-8" x="734.36" y="52.65" width="168.74" height="3.08"/><rect class="cls-8" x="734.36" y="21.82" width="168.74" height="3.08"/><rect class="cls-8" x="734.36" y="129.71" width="168.74" height="3.08"/><rect class="cls-8" x="734.36" y="98.89" width="168.74" height="3.08"/><rect class="cls-8" x="734.36" y="68.06" width="168.74" height="3.08"/><rect class="cls-8" x="734.36" y="37.24" width="168.74" height="3.08"/><rect class="cls-8" x="734.36" y="6.41" width="168.74" height="3.08"/><rect class="cls-8" x="566.78" y="145.12" width="168.74" height="3.08"/><rect class="cls-8" x="566.78" y="114.3" width="168.74" height="3.08"/><rect class="cls-8" x="566.78" y="83.47" width="168.74" height="3.08"/><rect class="cls-8" x="566.78" y="52.65" width="168.74" height="3.08"/><rect class="cls-8" x="566.78" y="21.82" width="168.74" height="3.08"/><rect class="cls-8" x="566.78" y="129.71" width="168.74" height="3.08"/><rect class="cls-8" x="566.78" y="98.89" width="168.74" height="3.08"/><rect class="cls-8" x="566.78" y="68.06" width="168.74" height="3.08"/><rect class="cls-8" x="566.78" y="37.24" width="168.74" height="3.08"/><rect class="cls-8" x="566.78" y="6.41" width="168.74" height="3.08"/><rect class="cls-8" x="399.21" y="145.12" width="168.74" height="3.08"/><rect class="cls-8" x="399.21" y="114.3" width="168.74" height="3.08"/><rect class="cls-8" x="399.21" y="83.47" width="168.74" height="3.08"/><rect class="cls-8" x="399.21" y="52.65" width="168.74" height="3.08"/><rect class="cls-8" x="399.21" y="21.82" width="168.74" height="3.08"/><rect class="cls-8" x="399.21" y="129.71" width="168.74" height="3.08"/><rect class="cls-8" x="399.21" y="98.89" width="168.74" height="3.08"/><rect class="cls-8" x="399.21" y="68.06" width="168.74" height="3.08"/><rect class="cls-8" x="399.21" y="37.24" width="168.74" height="3.08"/><rect class="cls-8" x="399.21" y="6.41" width="168.74" height="3.08"/></g><g class="cls-25"><rect class="cls-8" x="734.36" y="299.24" width="168.74" height="3.08"/><rect class="cls-8" x="734.36" y="268.42" width="168.74" height="3.08"/><rect class="cls-8" x="734.36" y="237.59" width="168.74" height="3.08"/><rect class="cls-8" x="734.36" y="206.77" width="168.74" height="3.08"/><rect class="cls-8" x="734.36" y="175.95" width="168.74" height="3.08"/><rect class="cls-8" x="734.36" y="283.83" width="168.74" height="3.08"/><rect class="cls-8" x="734.36" y="253.01" width="168.74" height="3.08"/><rect class="cls-8" x="734.36" y="222.18" width="168.74" height="3.08"/><rect class="cls-8" x="734.36" y="191.36" width="168.74" height="3.08"/><rect class="cls-8" x="734.36" y="160.53" width="168.74" height="3.08"/><rect class="cls-8" x="566.78" y="299.24" width="168.74" height="3.08"/><rect class="cls-8" x="566.78" y="268.42" width="168.74" height="3.08"/><rect class="cls-8" x="566.78" y="237.59" width="168.74" height="3.08"/><rect class="cls-8" x="566.78" y="206.77" width="168.74" height="3.08"/><rect class="cls-8" x="566.78" y="175.95" width="168.74" height="3.08"/><rect class="cls-8" x="566.78" y="283.83" width="168.74" height="3.08"/><rect class="cls-8" x="566.78" y="253.01" width="168.74" height="3.08"/><rect class="cls-8" x="566.78" y="222.18" width="168.74" height="3.08"/><rect class="cls-8" x="566.78" y="191.36" width="168.74" height="3.08"/><rect class="cls-8" x="566.78" y="160.53" width="168.74" height="3.08"/><rect class="cls-8" x="399.21" y="299.24" width="168.74" height="3.08"/><rect class="cls-8" x="399.21" y="268.42" width="168.74" height="3.08"/><rect class="cls-8" x="399.21" y="237.59" width="168.74" height="3.08"/><rect class="cls-8" x="399.21" y="206.77" width="168.74" height="3.08"/><rect class="cls-8" x="399.21" y="175.95" width="168.74" height="3.08"/><rect class="cls-8" x="399.21" y="283.83" width="168.74" height="3.08"/><rect class="cls-8" x="399.21" y="253.01" width="168.74" height="3.08"/><rect class="cls-8" x="399.21" y="222.18" width="168.74" height="3.08"/><rect class="cls-8" x="399.21" y="191.36" width="168.74" height="3.08"/><rect class="cls-8" x="399.21" y="160.53" width="168.74" height="3.08"/></g><g class="cls-26"><rect class="cls-8" x="734.36" y="453.36" width="168.74" height="3.08"/><rect class="cls-8" x="734.36" y="422.54" width="168.74" height="3.08"/><rect class="cls-8" x="734.36" y="391.72" width="168.74" height="3.08"/><rect class="cls-8" x="734.36" y="360.89" width="168.74" height="3.08"/><rect class="cls-8" x="734.36" y="330.07" width="168.74" height="3.08"/><rect class="cls-8" x="734.36" y="437.95" width="168.74" height="3.08"/><rect class="cls-8" x="734.36" y="407.13" width="168.74" height="3.08"/><rect class="cls-8" x="734.36" y="376.3" width="168.74" height="3.08"/><rect class="cls-8" x="734.36" y="345.48" width="168.74" height="3.08"/><rect class="cls-8" x="734.36" y="314.66" width="168.74" height="3.08"/><rect class="cls-8" x="566.78" y="453.36" width="168.74" height="3.08"/><rect class="cls-8" x="566.78" y="422.54" width="168.74" height="3.08"/><rect class="cls-8" x="566.78" y="391.72" width="168.74" height="3.08"/><rect class="cls-8" x="566.78" y="360.89" width="168.74" height="3.08"/><rect class="cls-8" x="566.78" y="330.07" width="168.74" height="3.08"/><rect class="cls-8" x="566.78" y="437.95" width="168.74" height="3.08"/><rect class="cls-8" x="566.78" y="407.13" width="168.74" height="3.08"/><rect class="cls-8" x="566.78" y="376.3" width="168.74" height="3.08"/><rect class="cls-8" x="566.78" y="345.48" width="168.74" height="3.08"/><rect class="cls-8" x="566.78" y="314.66" width="168.74" height="3.08"/><rect class="cls-8" x="399.21" y="453.36" width="168.74" height="3.08"/><rect class="cls-8" x="399.21" y="422.54" width="168.74" height="3.08"/><rect class="cls-8" x="399.21" y="391.72" width="168.74" height="3.08"/><rect class="cls-8" x="399.21" y="360.89" width="168.74" height="3.08"/><rect class="cls-8" x="399.21" y="330.07" width="168.74" height="3.08"/><rect class="cls-8" x="399.21" y="437.95" width="168.74" height="3.08"/><rect class="cls-8" x="399.21" y="407.13" width="168.74" height="3.08"/><rect class="cls-8" x="399.21" y="376.3" width="168.74" height="3.08"/><rect class="cls-8" x="399.21" y="345.48" width="168.74" height="3.08"/><rect class="cls-8" x="399.21" y="314.66" width="168.74" height="3.08"/></g><g class="cls-27"><rect class="cls-8" x="734.36" y="607.48" width="168.74" height="3.08"/><rect class="cls-8" x="734.36" y="576.66" width="168.74" height="3.08"/><rect class="cls-8" x="734.36" y="545.84" width="168.74" height="3.08"/><rect class="cls-8" x="734.36" y="515.01" width="168.74" height="3.08"/><rect class="cls-8" x="734.36" y="484.19" width="168.74" height="3.08"/><rect class="cls-8" x="734.36" y="592.07" width="168.74" height="3.08"/><rect class="cls-8" x="734.36" y="561.25" width="168.74" height="3.08"/><rect class="cls-8" x="734.36" y="530.42" width="168.74" height="3.08"/><rect class="cls-8" x="734.36" y="499.6" width="168.74" height="3.08"/><rect class="cls-8" x="734.36" y="468.78" width="168.74" height="3.08"/><rect class="cls-8" x="566.78" y="607.48" width="168.74" height="3.08"/><rect class="cls-8" x="566.78" y="576.66" width="168.74" height="3.08"/><rect class="cls-8" x="566.78" y="545.84" width="168.74" height="3.08"/><rect class="cls-8" x="566.78" y="515.01" width="168.74" height="3.08"/><rect class="cls-8" x="566.78" y="484.19" width="168.74" height="3.08"/><rect class="cls-8" x="566.78" y="592.07" width="168.74" height="3.08"/><rect class="cls-8" x="566.78" y="561.25" width="168.74" height="3.08"/><rect class="cls-8" x="566.78" y="530.42" width="168.74" height="3.08"/><rect class="cls-8" x="566.78" y="499.6" width="168.74" height="3.08"/><rect class="cls-8" x="566.78" y="468.78" width="168.74" height="3.08"/><rect class="cls-8" x="399.21" y="607.48" width="168.74" height="3.08"/><rect class="cls-8" x="399.21" y="576.66" width="168.74" height="3.08"/><rect class="cls-8" x="399.21" y="545.84" width="168.74" height="3.08"/><rect class="cls-8" x="399.21" y="515.01" width="168.74" height="3.08"/><rect class="cls-8" x="399.21" y="484.19" width="168.74" height="3.08"/><rect class="cls-8" x="399.21" y="592.07" width="168.74" height="3.08"/><rect class="cls-8" x="399.21" y="561.25" width="168.74" height="3.08"/><rect class="cls-8" x="399.21" y="530.42" width="168.74" height="3.08"/><rect class="cls-8" x="399.21" y="499.6" width="168.74" height="3.08"/><rect class="cls-8" x="399.21" y="468.78" width="168.74" height="3.08"/></g><g class="cls-28"><rect class="cls-8" x="566.78" y="145.12" width="168.74" height="3.08"/><rect class="cls-8" x="566.78" y="114.3" width="168.74" height="3.08"/><rect class="cls-8" x="566.78" y="83.47" width="168.74" height="3.08"/><rect class="cls-8" x="566.78" y="52.65" width="168.74" height="3.08"/><rect class="cls-8" x="566.78" y="21.82" width="168.74" height="3.08"/><rect class="cls-8" x="566.78" y="129.71" width="168.74" height="3.08"/><rect class="cls-8" x="566.78" y="98.89" width="168.74" height="3.08"/><rect class="cls-8" x="566.78" y="68.06" width="168.74" height="3.08"/><rect class="cls-8" x="566.78" y="37.24" width="168.74" height="3.08"/><rect class="cls-8" x="566.78" y="6.41" width="168.74" height="3.08"/><rect class="cls-8" x="399.21" y="145.12" width="168.74" height="3.08"/><rect class="cls-8" x="399.21" y="114.3" width="168.74" height="3.08"/><rect class="cls-8" x="399.21" y="83.47" width="168.74" height="3.08"/><rect class="cls-8" x="399.21" y="52.65" width="168.74" height="3.08"/><rect class="cls-8" x="399.21" y="21.82" width="168.74" height="3.08"/><rect class="cls-8" x="399.21" y="129.71" width="168.74" height="3.08"/><rect class="cls-8" x="399.21" y="98.89" width="168.74" height="3.08"/><rect class="cls-8" x="399.21" y="68.06" width="168.74" height="3.08"/><rect class="cls-8" x="399.21" y="37.24" width="168.74" height="3.08"/><rect class="cls-8" x="399.21" y="6.41" width="168.74" height="3.08"/><rect class="cls-8" x="231.63" y="145.12" width="168.74" height="3.08"/><rect class="cls-8" x="231.63" y="114.3" width="168.74" height="3.08"/><rect class="cls-8" x="231.63" y="83.47" width="168.74" height="3.08"/><rect class="cls-8" x="231.63" y="52.65" width="168.74" height="3.08"/><rect class="cls-8" x="231.63" y="21.82" width="168.74" height="3.08"/><rect class="cls-8" x="231.63" y="129.71" width="168.74" height="3.08"/><rect class="cls-8" x="231.63" y="98.89" width="168.74" height="3.08"/><rect class="cls-8" x="231.63" y="68.06" width="168.74" height="3.08"/><rect class="cls-8" x="231.63" y="37.24" width="168.74" height="3.08"/><rect class="cls-8" x="231.63" y="6.41" width="168.74" height="3.08"/></g><g class="cls-29"><rect class="cls-8" x="566.78" y="299.24" width="168.74" height="3.08"/><rect class="cls-8" x="566.78" y="268.42" width="168.74" height="3.08"/><rect class="cls-8" x="566.78" y="237.59" width="168.74" height="3.08"/><rect class="cls-8" x="566.78" y="206.77" width="168.74" height="3.08"/><rect class="cls-8" x="566.78" y="175.95" width="168.74" height="3.08"/><rect class="cls-8" x="566.78" y="283.83" width="168.74" height="3.08"/><rect class="cls-8" x="566.78" y="253.01" width="168.74" height="3.08"/><rect class="cls-8" x="566.78" y="222.18" width="168.74" height="3.08"/><rect class="cls-8" x="566.78" y="191.36" width="168.74" height="3.08"/><rect class="cls-8" x="566.78" y="160.53" width="168.74" height="3.08"/><rect class="cls-8" x="399.21" y="299.24" width="168.74" height="3.08"/><rect class="cls-8" x="399.21" y="268.42" width="168.74" height="3.08"/><rect class="cls-8" x="399.21" y="237.59" width="168.74" height="3.08"/><rect class="cls-8" x="399.21" y="206.77" width="168.74" height="3.08"/><rect class="cls-8" x="399.21" y="175.95" width="168.74" height="3.08"/><rect class="cls-8" x="399.21" y="283.83" width="168.74" height="3.08"/><rect class="cls-8" x="399.21" y="253.01" width="168.74" height="3.08"/><rect class="cls-8" x="399.21" y="222.18" width="168.74" height="3.08"/><rect class="cls-8" x="399.21" y="191.36" width="168.74" height="3.08"/><rect class="cls-8" x="399.21" y="160.53" width="168.74" height="3.08"/><rect class="cls-8" x="231.63" y="299.24" width="168.74" height="3.08"/><rect class="cls-8" x="231.63" y="268.42" width="168.74" height="3.08"/><rect class="cls-8" x="231.63" y="237.59" width="168.74" height="3.08"/><rect class="cls-8" x="231.63" y="206.77" width="168.74" height="3.08"/><rect class="cls-8" x="231.63" y="175.95" width="168.74" height="3.08"/><rect class="cls-8" x="231.63" y="283.83" width="168.74" height="3.08"/><rect class="cls-8" x="231.63" y="253.01" width="168.74" height="3.08"/><rect class="cls-8" x="231.63" y="222.18" width="168.74" height="3.08"/><rect class="cls-8" x="231.63" y="191.36" width="168.74" height="3.08"/><rect class="cls-8" x="231.63" y="160.53" width="168.74" height="3.08"/></g><g class="cls-30"><rect class="cls-8" x="566.78" y="453.36" width="168.74" height="3.08"/><rect class="cls-8" x="566.78" y="422.54" width="168.74" height="3.08"/><rect class="cls-8" x="566.78" y="391.72" width="168.74" height="3.08"/><rect class="cls-8" x="566.78" y="360.89" width="168.74" height="3.08"/><rect class="cls-8" x="566.78" y="330.07" width="168.74" height="3.08"/><rect class="cls-8" x="566.78" y="437.95" width="168.74" height="3.08"/><rect class="cls-8" x="566.78" y="407.13" width="168.74" height="3.08"/><rect class="cls-8" x="566.78" y="376.3" width="168.74" height="3.08"/><rect class="cls-8" x="566.78" y="345.48" width="168.74" height="3.08"/><rect class="cls-8" x="566.78" y="314.66" width="168.74" height="3.08"/><rect class="cls-8" x="399.21" y="453.36" width="168.74" height="3.08"/><rect class="cls-8" x="399.21" y="422.54" width="168.74" height="3.08"/><rect class="cls-8" x="399.21" y="391.72" width="168.74" height="3.08"/><rect class="cls-8" x="399.21" y="360.89" width="168.74" height="3.08"/><rect class="cls-8" x="399.21" y="330.07" width="168.74" height="3.08"/><rect class="cls-8" x="399.21" y="437.95" width="168.74" height="3.08"/><rect class="cls-8" x="399.21" y="407.13" width="168.74" height="3.08"/><rect class="cls-8" x="399.21" y="376.3" width="168.74" height="3.08"/><rect class="cls-8" x="399.21" y="345.48" width="168.74" height="3.08"/><rect class="cls-8" x="399.21" y="314.66" width="168.74" height="3.08"/><rect class="cls-8" x="231.63" y="453.36" width="168.74" height="3.08"/><rect class="cls-8" x="231.63" y="422.54" width="168.74" height="3.08"/><rect class="cls-8" x="231.63" y="391.72" width="168.74" height="3.08"/><rect class="cls-8" x="231.63" y="360.89" width="168.74" height="3.08"/><rect class="cls-8" x="231.63" y="330.07" width="168.74" height="3.08"/><rect class="cls-8" x="231.63" y="437.95" width="168.74" height="3.08"/><rect class="cls-8" x="231.63" y="407.13" width="168.74" height="3.08"/><rect class="cls-8" x="231.63" y="376.3" width="168.74" height="3.08"/><rect class="cls-8" x="231.63" y="345.48" width="168.74" height="3.08"/><rect class="cls-8" x="231.63" y="314.66" width="168.74" height="3.08"/></g><g class="cls-31"><rect class="cls-8" x="566.78" y="607.48" width="168.74" height="3.08"/><rect class="cls-8" x="566.78" y="576.66" width="168.74" height="3.08"/><rect class="cls-8" x="566.78" y="545.84" width="168.74" height="3.08"/><rect class="cls-8" x="566.78" y="515.01" width="168.74" height="3.08"/><rect class="cls-8" x="566.78" y="484.19" width="168.74" height="3.08"/><rect class="cls-8" x="566.78" y="592.07" width="168.74" height="3.08"/><rect class="cls-8" x="566.78" y="561.25" width="168.74" height="3.08"/><rect class="cls-8" x="566.78" y="530.42" width="168.74" height="3.08"/><rect class="cls-8" x="566.78" y="499.6" width="168.74" height="3.08"/><rect class="cls-8" x="566.78" y="468.78" width="168.74" height="3.08"/><rect class="cls-8" x="399.21" y="607.48" width="168.74" height="3.08"/><rect class="cls-8" x="399.21" y="576.66" width="168.74" height="3.08"/><rect class="cls-8" x="399.21" y="545.84" width="168.74" height="3.08"/><rect class="cls-8" x="399.21" y="515.01" width="168.74" height="3.08"/><rect class="cls-8" x="399.21" y="484.19" width="168.74" height="3.08"/><rect class="cls-8" x="399.21" y="592.07" width="168.74" height="3.08"/><rect class="cls-8" x="399.21" y="561.25" width="168.74" height="3.08"/><rect class="cls-8" x="399.21" y="530.42" width="168.74" height="3.08"/><rect class="cls-8" x="399.21" y="499.6" width="168.74" height="3.08"/><rect class="cls-8" x="399.21" y="468.78" width="168.74" height="3.08"/><rect class="cls-8" x="231.63" y="607.48" width="168.74" height="3.08"/><rect class="cls-8" x="231.63" y="576.66" width="168.74" height="3.08"/><rect class="cls-8" x="231.63" y="545.84" width="168.74" height="3.08"/><rect class="cls-8" x="231.63" y="515.01" width="168.74" height="3.08"/><rect class="cls-8" x="231.63" y="484.19" width="168.74" height="3.08"/><rect class="cls-8" x="231.63" y="592.07" width="168.74" height="3.08"/><rect class="cls-8" x="231.63" y="561.25" width="168.74" height="3.08"/><rect class="cls-8" x="231.63" y="530.42" width="168.74" height="3.08"/><rect class="cls-8" x="231.63" y="499.6" width="168.74" height="3.08"/><rect class="cls-8" x="231.63" y="468.78" width="168.74" height="3.08"/></g><g class="cls-32"><rect class="cls-8" x="399.21" y="145.12" width="168.74" height="3.08"/><rect class="cls-8" x="399.21" y="114.3" width="168.74" height="3.08"/><rect class="cls-8" x="399.21" y="83.47" width="168.74" height="3.08"/><rect class="cls-8" x="399.21" y="52.65" width="168.74" height="3.08"/><rect class="cls-8" x="399.21" y="21.82" width="168.74" height="3.08"/><rect class="cls-8" x="399.21" y="129.71" width="168.74" height="3.08"/><rect class="cls-8" x="399.21" y="98.89" width="168.74" height="3.08"/><rect class="cls-8" x="399.21" y="68.06" width="168.74" height="3.08"/><rect class="cls-8" x="399.21" y="37.24" width="168.74" height="3.08"/><rect class="cls-8" x="399.21" y="6.41" width="168.74" height="3.08"/><rect class="cls-8" x="231.63" y="145.12" width="168.74" height="3.08"/><rect class="cls-8" x="231.63" y="114.3" width="168.74" height="3.08"/><rect class="cls-8" x="231.63" y="83.47" width="168.74" height="3.08"/><rect class="cls-8" x="231.63" y="52.65" width="168.74" height="3.08"/><rect class="cls-8" x="231.63" y="21.82" width="168.74" height="3.08"/><rect class="cls-8" x="231.63" y="129.71" width="168.74" height="3.08"/><rect class="cls-8" x="231.63" y="98.89" width="168.74" height="3.08"/><rect class="cls-8" x="231.63" y="68.06" width="168.74" height="3.08"/><rect class="cls-8" x="231.63" y="37.24" width="168.74" height="3.08"/><rect class="cls-8" x="231.63" y="6.41" width="168.74" height="3.08"/><rect class="cls-8" x="64.06" y="145.12" width="168.74" height="3.08"/><rect class="cls-8" x="64.06" y="114.3" width="168.74" height="3.08"/><rect class="cls-8" x="64.06" y="83.47" width="168.74" height="3.08"/><rect class="cls-8" x="64.06" y="52.65" width="168.74" height="3.08"/><rect class="cls-8" x="64.06" y="21.82" width="168.74" height="3.08"/><rect class="cls-8" x="64.06" y="129.71" width="168.74" height="3.08"/><rect class="cls-8" x="64.06" y="98.89" width="168.74" height="3.08"/><rect class="cls-8" x="64.06" y="68.06" width="168.74" height="3.08"/><rect class="cls-8" x="64.06" y="37.24" width="168.74" height="3.08"/><rect class="cls-8" x="64.06" y="6.41" width="168.74" height="3.08"/></g><g class="cls-33"><rect class="cls-8" x="399.21" y="299.24" width="168.74" height="3.08"/><rect class="cls-8" x="399.21" y="268.42" width="168.74" height="3.08"/><rect class="cls-8" x="399.21" y="237.59" width="168.74" height="3.08"/><rect class="cls-8" x="399.21" y="206.77" width="168.74" height="3.08"/><rect class="cls-8" x="399.21" y="175.95" width="168.74" height="3.08"/><rect class="cls-8" x="399.21" y="283.83" width="168.74" height="3.08"/><rect class="cls-8" x="399.21" y="253.01" width="168.74" height="3.08"/><rect class="cls-8" x="399.21" y="222.18" width="168.74" height="3.08"/><rect class="cls-8" x="399.21" y="191.36" width="168.74" height="3.08"/><rect class="cls-8" x="399.21" y="160.53" width="168.74" height="3.08"/><rect class="cls-8" x="231.63" y="299.24" width="168.74" height="3.08"/><rect class="cls-8" x="231.63" y="268.42" width="168.74" height="3.08"/><rect class="cls-8" x="231.63" y="237.59" width="168.74" height="3.08"/><rect class="cls-8" x="231.63" y="206.77" width="168.74" height="3.08"/><rect class="cls-8" x="231.63" y="175.95" width="168.74" height="3.08"/><rect class="cls-8" x="231.63" y="283.83" width="168.74" height="3.08"/><rect class="cls-8" x="231.63" y="253.01" width="168.74" height="3.08"/><rect class="cls-8" x="231.63" y="222.18" width="168.74" height="3.08"/><rect class="cls-8" x="231.63" y="191.36" width="168.74" height="3.08"/><rect class="cls-8" x="231.63" y="160.53" width="168.74" height="3.08"/><rect class="cls-8" x="64.06" y="299.24" width="168.74" height="3.08"/><rect class="cls-8" x="64.06" y="268.42" width="168.74" height="3.08"/><rect class="cls-8" x="64.06" y="237.59" width="168.74" height="3.08"/><rect class="cls-8" x="64.06" y="206.77" width="168.74" height="3.08"/><rect class="cls-8" x="64.06" y="175.95" width="168.74" height="3.08"/><rect class="cls-8" x="64.06" y="283.83" width="168.74" height="3.08"/><rect class="cls-8" x="64.06" y="253.01" width="168.74" height="3.08"/><rect class="cls-8" x="64.06" y="222.18" width="168.74" height="3.08"/><rect class="cls-8" x="64.06" y="191.36" width="168.74" height="3.08"/><rect class="cls-8" x="64.06" y="160.53" width="168.74" height="3.08"/></g><g class="cls-34"><rect class="cls-8" x="399.21" y="453.36" width="168.74" height="3.08"/><rect class="cls-8" x="399.21" y="422.54" width="168.74" height="3.08"/><rect class="cls-8" x="399.21" y="391.72" width="168.74" height="3.08"/><rect class="cls-8" x="399.21" y="360.89" width="168.74" height="3.08"/><rect class="cls-8" x="399.21" y="330.07" width="168.74" height="3.08"/><rect class="cls-8" x="399.21" y="437.95" width="168.74" height="3.08"/><rect class="cls-8" x="399.21" y="407.13" width="168.74" height="3.08"/><rect class="cls-8" x="399.21" y="376.3" width="168.74" height="3.08"/><rect class="cls-8" x="399.21" y="345.48" width="168.74" height="3.08"/><rect class="cls-8" x="399.21" y="314.66" width="168.74" height="3.08"/><rect class="cls-8" x="231.63" y="453.36" width="168.74" height="3.08"/><rect class="cls-8" x="231.63" y="422.54" width="168.74" height="3.08"/><rect class="cls-8" x="231.63" y="391.72" width="168.74" height="3.08"/><rect class="cls-8" x="231.63" y="360.89" width="168.74" height="3.08"/><rect class="cls-8" x="231.63" y="330.07" width="168.74" height="3.08"/><rect class="cls-8" x="231.63" y="437.95" width="168.74" height="3.08"/><rect class="cls-8" x="231.63" y="407.13" width="168.74" height="3.08"/><rect class="cls-8" x="231.63" y="376.3" width="168.74" height="3.08"/><rect class="cls-8" x="231.63" y="345.48" width="168.74" height="3.08"/><rect class="cls-8" x="231.63" y="314.66" width="168.74" height="3.08"/><rect class="cls-8" x="64.06" y="453.36" width="168.74" height="3.08"/><rect class="cls-8" x="64.06" y="422.54" width="168.74" height="3.08"/><rect class="cls-8" x="64.06" y="391.72" width="168.74" height="3.08"/><rect class="cls-8" x="64.06" y="360.89" width="168.74" height="3.08"/><rect class="cls-8" x="64.06" y="330.07" width="168.74" height="3.08"/><rect class="cls-8" x="64.06" y="437.95" width="168.74" height="3.08"/><rect class="cls-8" x="64.06" y="407.13" width="168.74" height="3.08"/><rect class="cls-8" x="64.06" y="376.3" width="168.74" height="3.08"/><rect class="cls-8" x="64.06" y="345.48" width="168.74" height="3.08"/><rect class="cls-8" x="64.06" y="314.66" width="168.74" height="3.08"/></g><g class="cls-35"><rect class="cls-8" x="399.21" y="607.48" width="168.74" height="3.08"/><rect class="cls-8" x="399.21" y="576.66" width="168.74" height="3.08"/><rect class="cls-8" x="399.21" y="545.84" width="168.74" height="3.08"/><rect class="cls-8" x="399.21" y="515.01" width="168.74" height="3.08"/><rect class="cls-8" x="399.21" y="484.19" width="168.74" height="3.08"/><rect class="cls-8" x="399.21" y="592.07" width="168.74" height="3.08"/><rect class="cls-8" x="399.21" y="561.25" width="168.74" height="3.08"/><rect class="cls-8" x="399.21" y="530.42" width="168.74" height="3.08"/><rect class="cls-8" x="399.21" y="499.6" width="168.74" height="3.08"/><rect class="cls-8" x="399.21" y="468.78" width="168.74" height="3.08"/><rect class="cls-8" x="231.63" y="607.48" width="168.74" height="3.08"/><rect class="cls-8" x="231.63" y="576.66" width="168.74" height="3.08"/><rect class="cls-8" x="231.63" y="545.84" width="168.74" height="3.08"/><rect class="cls-8" x="231.63" y="515.01" width="168.74" height="3.08"/><rect class="cls-8" x="231.63" y="484.19" width="168.74" height="3.08"/><rect class="cls-8" x="231.63" y="592.07" width="168.74" height="3.08"/><rect class="cls-8" x="231.63" y="561.25" width="168.74" height="3.08"/><rect class="cls-8" x="231.63" y="530.42" width="168.74" height="3.08"/><rect class="cls-8" x="231.63" y="499.6" width="168.74" height="3.08"/><rect class="cls-8" x="231.63" y="468.78" width="168.74" height="3.08"/><rect class="cls-8" x="64.06" y="607.48" width="168.74" height="3.08"/><rect class="cls-8" x="64.06" y="576.66" width="168.74" height="3.08"/><rect class="cls-8" x="64.06" y="545.84" width="168.74" height="3.08"/><rect class="cls-8" x="64.06" y="515.01" width="168.74" height="3.08"/><rect class="cls-8" x="64.06" y="484.19" width="168.74" height="3.08"/><rect class="cls-8" x="64.06" y="592.07" width="168.74" height="3.08"/><rect class="cls-8" x="64.06" y="561.25" width="168.74" height="3.08"/><rect class="cls-8" x="64.06" y="530.42" width="168.74" height="3.08"/><rect class="cls-8" x="64.06" y="499.6" width="168.74" height="3.08"/><rect class="cls-8" x="64.06" y="468.78" width="168.74" height="3.08"/></g></g></g><path class="cls-3" d="M188.62,452.2c.42-.67.89-1.35,1.37-2,5-7.18,11.4-13.55,18.09-19.51,52.61-46.75,126.33-68,186.26-53.51,21.25,5.11,40.57,14.28,59.17,24.26,91.33,49,168.07,119.23,224,204.45L728,703.32c-26.2-15-173.44-43.19-203.61-51.13-44.92-11.79-93.78-13.05-141.53-16.74S287,625.28,247.3,604.14,177,544.86,176.55,497.47c-.11-12.89,2.17-26.63,8.54-39.09A62.49,62.49,0,0,1,188.62,452.2Z"/><path class="cls-4" d="M731.71,707.15l-4.42-2.53C708.66,694,626.41,676.17,572,664.4c-22-4.76-39.43-8.52-47.94-10.76-36.29-9.52-75.84-12.19-114.09-14.77-8.92-.61-18.15-1.23-27.18-1.93-46.89-3.65-95.84-10-136.19-31.48-44.4-23.61-71.15-64-71.54-108-.12-14.86,2.81-28.25,8.71-39.8a63.72,63.72,0,0,1,3.59-6.3c.4-.63.85-1.27,1.3-1.92l.11-.15c4.4-6.28,10.22-12.56,18.33-19.78a235.65,235.65,0,0,1,91-50c33.57-9.65,67-11,96.64-3.83,22.48,5.41,42.7,15.37,59.52,24.4,91,48.83,168.6,119.7,224.55,205l.08.13Zm-376.78-333c-50.33,0-104.34,20.78-145.85,57.67-7.92,7.06-13.6,13.18-17.86,19.25l-.11.16c-.42.6-.85,1.21-1.22,1.8v0a58.14,58.14,0,0,0-3.44,6c-5.69,11.12-8.51,24-8.39,38.41.38,42.89,26.53,82.27,69.95,105.35,39.87,21.24,88.45,27.52,135,31.14,9,.7,18.24,1.32,27.15,1.92,38.39,2.59,78.08,5.27,114.65,14.87,8.45,2.22,25.82,6,47.81,10.73,51.27,11.09,127.14,27.5,152,38.48l-48.39-93.33C620.54,521.81,543.28,451.31,452.8,402.73c-16.66-8.94-36.67-18.79-58.81-24.12A166.59,166.59,0,0,0,354.93,374.11Z"/><path class="cls-3" d="M240.38,454.72A2645.52,2645.52,0,0,1,652.36,648Z"/><path class="cls-4" d="M651.6,649.34A2648.74,2648.74,0,0,0,239.86,456.13l1-2.82A2653.43,2653.43,0,0,1,653.11,646.74Z"/><path class="cls-4" d="M393.83,345c22.77,12.51,44.92,26.28,66.7,40.7-50-63.38-16-113.41-16-113.41,57,72.49,44.49,113.6,37,127.41,13.38,9.36,26.43,19.16,39.35,29.19-33.14-76.09,14.31-116.17,14.31-116.17,32.78,79.13,14.85,116,3.34,129.88,20.84,16.91,40.94,34.75,60.38,53.24-27.94-83.62,26.72-119.29,26.72-119.29,24.1,86.9-1.93,120.49-14.54,131.08a1004.78,1004.78,0,0,1,120.92,143c4.47,6.43-5.86,13-10.33,6.54a983,983,0,0,0-71.56-90.91c-99.13,37.06-127.94-7-127.94-7C568.76,532.23,604.05,534,627.37,542c-18-19-36.41-37.52-55.82-55.09-2.42,5.28-26.71,50.75-134.72,29.86,0,0,35.68-63.24,133.77-30.74A995.85,995.85,0,0,0,472,408c-94.23,63.47-133.65,24.23-133.65,24.23C390.47,385,434.14,389.88,457,398c-21.3-14.23-43-27.74-65.18-40.08-108-1-118.49-53.11-118.49-53.11C347.72,293.43,381,325.85,393.83,345Z"/><rect class="cls-36" x="316.71" y="639.94" width="168.88" height="32.84" transform="translate(802.31 1312.71) rotate(180)"/><rect class="cls-37" x="328.24" y="639.94" width="98.56" height="32.84" transform="translate(755.04 1312.71) rotate(180)"/><rect class="cls-38" x="345.52" y="639.94" width="15.79" height="32.84" transform="translate(706.84 1312.71) rotate(180)"/><rect class="cls-39" x="316.71" y="667.88" width="168.88" height="4.9" transform="translate(802.31 1340.65) rotate(180)"/><rect class="cls-36" x="328.97" y="607.1" width="168.88" height="32.84" transform="translate(826.81 1247.03) rotate(180)"/><rect class="cls-37" x="340.49" y="607.1" width="98.56" height="32.84" transform="translate(779.55 1247.03) rotate(180)"/><rect class="cls-38" x="357.78" y="607.1" width="15.79" height="32.84" transform="translate(731.34 1247.03) rotate(180)"/><rect class="cls-39" x="328.97" y="635.04" width="168.88" height="4.9" transform="translate(826.81 1274.97) rotate(180)"/><rect class="cls-36" x="316.71" y="574.26" width="168.88" height="32.84" transform="translate(802.31 1181.35) rotate(180)"/><rect class="cls-37" x="328.24" y="574.26" width="98.56" height="32.84" transform="translate(755.04 1181.35) rotate(180)"/><rect class="cls-38" x="345.52" y="574.26" width="15.79" height="32.84" transform="translate(706.84 1181.35) rotate(180)"/><rect class="cls-39" x="316.71" y="602.2" width="168.88" height="4.9" transform="translate(802.31 1209.3) rotate(180)"/><rect class="cls-36" x="341.22" y="541.42" width="168.88" height="32.84" transform="translate(851.31 1115.68) rotate(180)"/><rect class="cls-37" x="352.75" y="541.42" width="98.56" height="32.84" transform="translate(804.05 1115.68) rotate(180)"/><rect class="cls-38" x="370.03" y="541.42" width="15.79" height="32.84" transform="translate(755.84 1115.68) rotate(180)"/><rect class="cls-39" x="341.22" y="569.36" width="168.88" height="4.9" transform="translate(851.31 1143.62) rotate(180)"/><rect class="cls-36" x="306.96" y="508.58" width="168.88" height="32.84" transform="translate(782.8 1050) rotate(180)"/><rect class="cls-37" x="318.49" y="508.58" width="98.56" height="32.84" transform="translate(735.54 1050) rotate(180)"/><rect class="cls-38" x="335.77" y="508.58" width="15.79" height="32.84" transform="translate(687.34 1050) rotate(180)"/><rect class="cls-39" x="306.96" y="536.52" width="168.88" height="4.9" transform="translate(782.8 1077.94) rotate(180)"/><rect class="cls-40" x="543.24" y="285.11" width="742.59" height="486" rx="10.58"/><rect class="cls-41" x="565.67" y="299.8" width="697.72" height="437.81" rx="10.58"/><rect class="cls-36" x="35.29" y="639.03" width="189.59" height="33.74"/><rect class="cls-37" x="101.29" y="639.03" width="110.65" height="33.74"/><rect class="cls-38" x="174.81" y="639.03" width="17.72" height="33.74"/><rect class="cls-39" x="35.29" y="667.74" width="189.59" height="5.03"/><rect class="cls-36" x="21.53" y="605.29" width="189.59" height="33.74"/><rect class="cls-37" x="87.53" y="605.29" width="110.65" height="33.74"/><rect class="cls-38" x="161.06" y="605.29" width="17.72" height="33.74"/><rect class="cls-39" x="21.53" y="634" width="189.59" height="5.03"/><rect class="cls-36" x="35.29" y="571.55" width="189.59" height="33.74"/><rect class="cls-37" x="101.29" y="571.55" width="110.65" height="33.74"/><rect class="cls-38" x="174.81" y="571.55" width="17.72" height="33.74"/><rect class="cls-39" x="35.29" y="600.26" width="189.59" height="5.03"/><path class="cls-42" d="M1106.42,90.2a8.75,8.75,0,0,1-17.49,0c.09-11.32,17-11.24,17.49,0,.11,2.64,4.23,2.65,4.12,0-.3-7-5.65-12.84-12.87-12.87a12.87,12.87,0,0,0,0,25.73c7.22,0,12.57-5.88,12.87-12.86C1110.65,87.54,1106.53,87.55,1106.42,90.2Z"/><path class="cls-42" d="M444.47,454.72c-.13,3.16-2.37,5.75-5.42,5.78a5.65,5.65,0,0,1-5.41-5.78c.05-7.47,10.53-7.42,10.83,0a1.28,1.28,0,1,0,2.55,0c-.19-4.63-3.5-8.48-8-8.5s-8,3.89-8,8.5,3.63,8.5,8,8.5,7.79-3.88,8-8.5A1.28,1.28,0,1,0,444.47,454.72Z"/><path class="cls-42" d="M335.57,155.94l-5.7-5.7,5.7-5.7a1.25,1.25,0,0,0-1.77-1.77l-5.7,5.7L322.68,143a1.26,1.26,0,0,0-1.77,1.78q2.71,2.7,5.42,5.42l-5.42,5.42a1.25,1.25,0,0,0,1.77,1.77L328.1,152l5.7,5.7A1.25,1.25,0,0,0,335.57,155.94Z"/><path class="cls-42" d="M1305.93,340.68l-5.7-5.69,5.7-5.7a1.25,1.25,0,0,0-1.77-1.77l-5.7,5.7-5.42-5.43a1.25,1.25,0,0,0-1.77,1.77l5.42,5.43q-2.71,2.7-5.42,5.42a1.25,1.25,0,0,0,1.77,1.77q2.7-2.71,5.42-5.42l5.7,5.7A1.26,1.26,0,0,0,1305.93,340.68Z"/><circle class="cls-36" cx="537.33" cy="201.47" r="152.82" transform="translate(-14.79 45.01) rotate(-4.73)"/><circle class="cls-38" cx="537.33" cy="201.47" r="125.76" transform="translate(14.92 438.96) rotate(-45)"/><path class="cls-43" d="M579.66,83,447.4,289.34A125.14,125.14,0,0,0,464.61,304L600.18,92.56A124.75,124.75,0,0,0,579.66,83Zm34.28,18.73-135.25,211a125.16,125.16,0,0,0,55.42,14.43L650.23,146A126.29,126.29,0,0,0,613.94,101.76Zm-73.39-26L424.44,256.9A125.8,125.8,0,0,0,437.56,278L565.22,78.85A125.94,125.94,0,0,0,540.55,75.79Z"/><path class="cls-44" d="M601.2,120.92,538.62,287.49,473.46,120.92m0,0V232.31l65.16,55.18,62.58-55.18V120.92M473.46,232.31H601.2"/><circle class="cls-36" cx="674.36" cy="641.82" r="95.8" transform="translate(-94.1 116.31) rotate(-9.22)"/><circle class="cls-38" cx="674.36" cy="641.82" r="78.84"/><path class="cls-43" d="M700.9,567.58,618,696.91a79.76,79.76,0,0,0,10.79,9.21l85-132.57A77.52,77.52,0,0,0,700.9,567.58Zm21.48,11.74L637.6,711.56a78.4,78.4,0,0,0,34.74,9.05l72.79-113.54A79.11,79.11,0,0,0,722.38,579.32Zm-46-16.28L603.59,676.57a79.42,79.42,0,0,0,8.22,13.22l80-124.83A78.69,78.69,0,0,0,676.38,563Z"/><polygon class="cls-45" points="679.41 678.85 637.85 658.56 683.51 706.08 713.73 646.64 679.41 678.85"/><polygon class="cls-45" points="718.08 633.32 678.2 670.75 629.9 647.17 665.01 578.09 718.08 633.32"/><circle class="cls-36" cx="793.41" cy="641.82" r="95.8" transform="translate(-92.56 135.38) rotate(-9.22)"/><circle class="cls-38" cx="793.41" cy="641.82" r="78.84"/><path class="cls-43" d="M819.94,567.58,737,696.91a79.76,79.76,0,0,0,10.79,9.21l85-132.57A77.62,77.62,0,0,0,819.94,567.58Zm21.49,11.74L756.65,711.56a78.37,78.37,0,0,0,34.74,9.05l72.79-113.54A79.22,79.22,0,0,0,841.43,579.32Zm-46-16.28L722.64,676.57a79.42,79.42,0,0,0,8.22,13.22l80-124.83A78.69,78.69,0,0,0,795.43,563Z"/><polygon class="cls-45" points="763.4 626.46 760.68 670.72 771.49 642.34 763.4 626.46"/><path class="cls-45" d="M792.28,675l7-1.15,6.76-1.12L810.89,636,788.16,609l-12.6,33.08Z"/><polygon class="cls-45" points="785.6 605.3 781.22 583.74 764.1 619.62 773.28 637.64 785.6 605.3"/><polygon class="cls-45" points="834.67 658.39 817.23 616.58 814.8 634.84 834.67 658.39"/><polygon class="cls-45" points="811.56 630.99 814.25 610.77 784.83 582.79 789.25 604.56 811.56 630.99"/><path class="cls-45" d="M809.85,672.05l27.65-4.53-23.36-27.69Z"/><path class="cls-45" d="M806.6,696.51l28.32-24.79-25.58,4.19Z"/><path class="cls-45" d="M788.42,675.6l-14.65-28.78L761,680.3c2.7-.53,7.15-1.31,14.56-2.56Z"/><path class="cls-45" d="M764.58,683.44l35.07,14.22-9.45-18.58C779.49,680.87,770.25,682.43,764.58,683.44Z"/><path class="cls-45" d="M794.05,678.44l8.88,17.44,2.57-19.33Z"/><circle class="cls-36" cx="981.5" cy="641.82" r="95.8" transform="translate(-76.51 135.96) rotate(-7.63)"/><circle class="cls-38" cx="981.5" cy="641.82" r="78.84"/><path class="cls-43" d="M1008,567.58,925.13,696.91a79.07,79.07,0,0,0,10.78,9.21l85-132.57A77.52,77.52,0,0,0,1008,567.58Zm21.49,11.74L944.74,711.56a78.41,78.41,0,0,0,34.75,9.05l72.78-113.54A79.19,79.19,0,0,0,1029.53,579.32Zm-46-16.28L910.73,676.57A78.82,78.82,0,0,0,919,689.79L999,565A78.88,78.88,0,0,0,983.52,563Z"/><polygon class="cls-45" points="951.5 626.46 948.78 670.72 959.59 642.34 951.5 626.46"/><path class="cls-45" d="M980.37,675l7-1.15,6.77-1.12L999,636,976.26,609l-12.6,33.08Z"/><polygon class="cls-45" points="973.69 605.3 969.32 583.74 952.2 619.62 961.38 637.64 973.69 605.3"/><polygon class="cls-45" points="1022.77 658.39 1005.33 616.58 1002.9 634.84 1022.77 658.39"/><polygon class="cls-45" points="999.65 630.99 1002.34 610.77 972.93 582.79 977.34 604.56 999.65 630.99"/><path class="cls-45" d="M998,672.05l27.65-4.53-23.37-27.69Z"/><path class="cls-45" d="M994.7,696.51,1023,671.72l-25.58,4.19Z"/><path class="cls-45" d="M976.52,675.6l-14.65-28.78L949.12,680.3c2.7-.53,7.15-1.31,14.56-2.56Z"/><path class="cls-45" d="M952.67,683.44l35.08,14.22-9.46-18.58C967.59,680.87,958.34,682.43,952.67,683.44Z"/><path class="cls-45" d="M982.15,678.44,991,695.88l2.57-19.33Z"/><circle class="cls-36" cx="1113.65" cy="641.82" r="95.8" transform="matrix(0.99, -0.16, 0.16, 0.99, -88.43, 186.67)"/><circle class="cls-38" cx="1113.65" cy="641.82" r="78.84"/><path class="cls-43" d="M1140.18,567.58l-82.91,129.33a79.67,79.67,0,0,0,10.78,9.21l85-132.57A78,78,0,0,0,1140.18,567.58Zm21.49,11.74-84.78,132.24a78.33,78.33,0,0,0,34.74,9.05l72.79-113.54A79.22,79.22,0,0,0,1161.67,579.32Zm-46-16.28-72.79,113.53a78.12,78.12,0,0,0,8.22,13.22l80-124.83A78.69,78.69,0,0,0,1115.67,563Z"/><path class="cls-45" d="M1145,636a19.48,19.48,0,0,0-12.5-3.26,18.26,18.26,0,0,0,4.35-9.69,21.56,21.56,0,0,0-1.38-11.12,21,21,0,0,0-5.74-8.31,20.62,20.62,0,0,0-7.89-4.44,18,18,0,0,0-8.47-.38,65.19,65.19,0,0,0-10.25,3.18l-3.67-9.27-5,2,3.66,9.24-5.45,2.16-3.66-9.25-5,2,3.66,9.25-14.32,5.66,31,78.23,14.32-5.66,2.7,6.81,5-2-2.7-6.82,4.13-1.63,1.32-.54,2.7,6.84,5-2-2.73-6.9c5.21-2.17,8.64-3.7,10.26-4.59a19.67,19.67,0,0,0,7.87-7.4,22.07,22.07,0,0,0,2.79-10.43,28.06,28.06,0,0,0-1.92-11.24A22.13,22.13,0,0,0,1145,636Zm-52.63-14.73,8-3.16q9.84-3.9,12-4.45a8.26,8.26,0,0,1,6.34.68,10,10,0,0,1,4.1,5.19,9.58,9.58,0,0,1,.37,6.92,9.38,9.38,0,0,1-4.52,5q-1.86,1-10,4.27l-9.13,3.61Zm46.67,37.55a9.06,9.06,0,0,1-3.82,5.12q-1.83,1.27-9.36,4.26l-12.89,5.1-8.29-20.92,11.25-4.45q9.49-3.75,12.79-3.76a9.26,9.26,0,0,1,5.77,1.85,12.07,12.07,0,0,1,3.87,5.38A11.22,11.22,0,0,1,1139.05,658.8Z"/><circle class="cls-36" cx="1242.22" cy="641.82" r="95.8" transform="translate(-94.58 231.94) rotate(-10.28)"/><circle class="cls-38" cx="1242.22" cy="641.82" r="78.84"/><path class="cls-43" d="M1268.75,567.58l-82.91,129.33a79.76,79.76,0,0,0,10.79,9.21l85-132.57A77.62,77.62,0,0,0,1268.75,567.58Zm21.49,11.74-84.78,132.24a78.37,78.37,0,0,0,34.74,9.05L1313,607.07A79.22,79.22,0,0,0,1290.24,579.32Zm-46-16.28-72.79,113.53a79.42,79.42,0,0,0,8.22,13.22l80-124.83A78.69,78.69,0,0,0,1244.24,563Z"/><path class="cls-45" d="M1214.28,601.91l16.36-6.92,17.64,74.75,43.31-18.36,4.35,17.13-60,25.33Z"/><polygon class="cls-45" points="1252.21 635.16 1215.5 661.94 1213.9 653.01 1250.42 626.31 1252.21 635.16"/><g class="cls-46"><path class="cls-3" d="M597.34,378.73s46.59,47.47,81.31,85.62c13,14.23,27.57-10.51,32.61-21.94,9.74-22.13,18.08-45.25,34.49-63.56,27.57-30.77,68.23-45.12,108.08-51.35s81.08-10.21,120.53-1.4c26.8,6,51.17,17.37,73.69,32,34.29,22.21,64.31,51.87,92.11,81.31,31.66,33.53,95.95,86.25,65.68,138.12-13.52,23.16-164.68,100-164.68,100l-16.06-20.06s85.79-97.56,89.65-105.17S1062,505.9,1046.62,520s-38.21,133.37-38.21,133.37c-85.77,67.81-191.38,0-191.38,0-6-3.86-8.62-39.62-10.06-46.4-5.27-24.86-.77-47.11-9-70.84-3.64-10.5-12.16-13.46-22.9-9.7-35.47,12.45-65.47,69.49-106.67,35-27.24-22.8-40.69-59.63-55.38-90.62a668.53,668.53,0,0,1-32-79.27C589.76,389.11,597.34,378.73,597.34,378.73Z"/><path class="cls-47" d="M920.36,684a180.27,180.27,0,0,1-39.91-4.65,222.77,222.77,0,0,1-63.69-25.5c-4.72-3-7.28-23.68-9-37.34-.53-4.32-1-7.72-1.31-9.38-2.29-10.79-2.74-21.17-3.19-31.2-.59-13.47-1.15-26.18-5.8-39.58-1.61-4.64-4.21-7.85-7.72-9.55-3.88-1.87-8.91-1.81-14.54.16-11.55,4-22.74,13-33.55,21.74-22.42,18-45.6,36.63-73.61,13.19-22.92-19.18-35.88-47.74-48.41-75.36-2.43-5.36-4.73-10.42-7.11-15.44a663.52,663.52,0,0,1-32-79.33l-.16-.49.5-.14c8.48-2.41,16-12.58,16.06-12.68l.35-.48.41.43c.47.47,47,47.92,81.32,85.63,2.92,3.22,6.13,4.56,9.51,4,9.27-1.51,18.36-16.93,22.27-25.81,1.5-3.4,3-6.82,4.43-10.25,8-18.63,16.21-37.89,30.14-53.45,23.91-26.67,60.37-44,108.38-51.51,38.77-6.06,80.23-10.43,120.72-1.38,25.08,5.6,49.24,16.07,73.85,32,34.71,22.48,64.83,52.4,92.2,81.39,4,4.22,8.5,8.75,13.27,13.54,33.39,33.56,79.13,79.51,52.48,125.17-13.43,23-158.71,97.08-164.89,100.22l-.36.19-16.57-20.72.28-.31c.85-1,85.79-97.6,89.57-105.07.89-1.76-2.58-6.83-12.33-14.23-16.82-12.75-45-26.58-55-17.41-15.13,13.87-37.83,131.91-38.06,133.1l0,.18-.15.11C979.59,676.84,948.14,684,920.36,684Zm-137-159.56a15.67,15.67,0,0,1,6.84,1.46c3.76,1.82,6.53,5.22,8.23,10.13,4.7,13.53,5.26,26.31,5.86,39.85.44,10,.9,20.33,3.17,31,.36,1.69.79,5.12,1.32,9.45C810.35,629,813,650.21,817.3,653a221.61,221.61,0,0,0,63.4,25.37c33.72,7.69,83.15,9.55,127.26-25.23,1.34-7,23.11-119.51,38.32-133.45,10.43-9.57,39.2,4.39,56.29,17.34,3.47,2.63,14.63,11.52,12.62,15.48-3.76,7.45-83.17,97.83-89.44,105l15.54,19.42c8.27-4.22,151.15-77.42,164.12-99.64,26.26-45-19.16-90.64-52.33-124-4.78-4.8-9.29-9.33-13.28-13.56-27.34-29-57.41-58.82-92-81.24-24.51-15.88-48.56-26.31-73.53-31.89-40.32-9-81.67-4.65-120.35,1.4-47.77,7.47-84,24.7-107.78,51.19-13.83,15.43-22,34.62-30,53.17-1.47,3.43-2.94,6.86-4.44,10.27-1.1,2.49-11.09,24.44-23,26.39-3.74.61-7.24-.85-10.41-4.33-32.6-35.82-76.22-80.42-80.89-85.19-1.58,2.05-8.11,10-15.74,12.43a663.72,663.72,0,0,0,31.81,78.72c2.38,5,4.68,10.09,7.11,15.45,12.49,27.52,25.4,56,48.14,75,27.39,22.92,49.22,5.37,72.34-13.2,10.88-8.75,22.14-17.79,33.85-21.9A25.82,25.82,0,0,1,783.36,524.42Z"/><path class="cls-48" d="M817,653.41s109.47,51.1,191.38,0c0,0,62.63,86.11,58.78,166s-40.5,150-26,178.56,31.81,99.92,16.39,167.4S1020.91,1280,1020.91,1280h-26s-12.54-175-31.82-220-30.85-99-34.71-149.11-10.28-87.76-15.42-91.44-24.68,146.71-15.55,189.14,10.41,165-33.3,271.45H833.23s-17.94-211.51-30.49-262.23c-9.92-40.15-19.58-263,11.46-356.45C815.11,658.55,816.06,655.92,817,653.41Z"/><path class="cls-49" d="M995.84,653.41c7.71,0,29.26,4,29.26,4l16.06,20.06s-10.61,5.79-26,1.93-29.88,9.64-37.6,7.72S988.13,653.41,995.84,653.41Z"/><path class="cls-49" d="M520.67,364.87c12.86,5.45,35.62,0,35.62,0s-16.33-4.45-12.87-7.42,26.22,4.95,34.14,4.95,19.78,16.33,19.78,16.33C592.89,395.05,581,391.59,581,391.59s-9.4-9.4-25.23-7.42-50-10.89-50.08-16.41S507.8,359.43,520.67,364.87Z"/><path class="cls-49" d="M938.21,217.71c7.49,3.37,14.35,8.58,18.51,15.66,5,8.55,5.72,19,4.8,28.9-.3,3.2-.59,6.54-.93,10-1.93,19.34-5.3,41.18-18.56,55.15-10.57,11.13-25.71,13-40.26,10.88-28.55-4.23-36.48-52.35-36.48-52.35s-3.7-20.62,0-38.59C872.31,213.22,910.05,205.05,938.21,217.71Z"/><path class="cls-48" d="M861.72,230.63c-.9,7.14-8,15.07-6.46,21.41s10.44,21.32,10.44,21.32h0c-.76,4.76-.13,13.93-.13,20.32,0,9.52-7.14,34.9-2,44.81s18.64,16.66,25.38,15.73,8.33,11.64,29.74,12.43,19-11.5,27.76-12.43,25.78-14.14,22.43-26-1.41-21.41-.22-30.14c.79-5.79-.71-18.55-1.81-26.48a46.76,46.76,0,0,0,7-7c6.74-8.11,7.53-12.87,4-18.43s-8.61-17.05-8.47-25.77-5.81-14.28-9.77-15.47S954.4,193,950,185s-31.75-15.86-34.51-6.74-9.11,13.49-14.66,10.71-23.4-1.59-23,7.53.79,10.32-3.17,14.68S862.63,223.49,861.72,230.63Zm20.74,22.08a100.6,100.6,0,0,0,13.74-10.2c3.44-3,6.84-6.61,7.65-11.13a5.39,5.39,0,0,1,.77-2.45c1.36-1.74,4.1-.54,6,.61a38.14,38.14,0,0,0,14.64,5.16c4.57.6,9.29.39,13.7,1.73,5,1.53,9.18,4.93,13.21,8.26,5.28,4.35,11,9.56,11.22,16.39.11,3.15-1,6.19-2.12,9.14-3.44,9.19-7.24,18.87-15,24.84a11.16,11.16,0,0,1-3.87,2.07c-2.09.54-4.3.08-6.43-.3a85.41,85.41,0,0,0-38.15,1.9c-2.48.7-5.25,1.49-7.51.27a5.82,5.82,0,0,1-1.29-1A16,16,0,0,1,887.3,296C878.14,283.17,863.15,264.67,882.46,252.71Z"/><path class="cls-49" d="M920.3,302.41c4.49,0,10.21,3.06,9.52,5.78-.27,1.08-1.57,2.11-4.39,2.86-3.76,1-15.58,2.35-17.42-2.69C906.42,304,910.78,302.41,920.3,302.41Z"/></g></g></g></svg>