<svg xmlns="http://www.w3.org/2000/svg" xmlns:xlink="http://www.w3.org/1999/xlink" viewBox="0 0 1139.74 652.6"><defs><style>.cls-1{opacity:0.1;fill:url(#linear-gradient);}.cls-2{fill:#f9edff;}.cls-3{fill:url(#linear-gradient-2);}.cls-4{fill:url(#linear-gradient-3);}.cls-5{fill:#7500b2;}.cls-6{fill:url(#linear-gradient-4);}.cls-7{fill:url(#linear-gradient-5);}.cls-8{fill:#f6d5f7;}.cls-9{fill:url(#linear-gradient-6);}.cls-10{fill:#e64d4e;}.cls-11{fill:#f29e19;}.cls-12{fill:#1fdd3a;}.cls-13{fill:#fff3ff;}.cls-14{fill:url(#linear-gradient-7);}.cls-15{fill:url(#linear-gradient-8);}.cls-16{fill:url(#linear-gradient-9);}.cls-17{fill:#f2dad4;}.cls-18{fill:#192b59;}.cls-19{fill:url(#linear-gradient-10);}.cls-20{fill:url(#linear-gradient-11);}.cls-21{fill:url(#linear-gradient-12);}.cls-22{fill:url(#linear-gradient-13);}.cls-23{fill:url(#linear-gradient-14);}.cls-24{fill:url(#linear-gradient-15);}.cls-25{fill:url(#linear-gradient-16);}.cls-26,.cls-28{fill:#fff;}.cls-26{opacity:0.37;}.cls-27{fill:#220b3d;}.cls-29{fill:url(#linear-gradient-17);}.cls-30{fill:none;stroke:#fff;stroke-linecap:round;stroke-linejoin:bevel;stroke-width:5px;}</style><linearGradient id="linear-gradient" x1="609.79" y1="556.19" x2="608.44" y2="509.16" gradientUnits="userSpaceOnUse"><stop offset="0" stop-color="#510394"/><stop offset="0.12" stop-color="#4a0388"/><stop offset="0.34" stop-color="#380367"/><stop offset="0.63" stop-color="#1b0433"/><stop offset="0.85" stop-color="#030408"/></linearGradient><linearGradient id="linear-gradient-2" x1="334.87" y1="449.34" x2="294.85" y2="479.35" gradientUnits="userSpaceOnUse"><stop offset="0" stop-color="#4e9cff"/><stop offset="1" stop-color="#176ad4"/></linearGradient><linearGradient id="linear-gradient-3" x1="276.19" y1="474.51" x2="269.86" y2="534.04" gradientUnits="userSpaceOnUse"><stop offset="0" stop-color="#f2be3c"/><stop offset="1" stop-color="#ffac00"/></linearGradient><linearGradient id="linear-gradient-4" x1="694.27" y1="435.62" x2="647.59" y2="470.63" gradientTransform="matrix(-1, 0, 0, 1, 1549.97, 0)" xlink:href="#linear-gradient-2"/><linearGradient id="linear-gradient-5" x1="625.83" y1="464.98" x2="618.44" y2="534.43" gradientTransform="matrix(-1, 0, 0, 1, 1549.97, 0)" xlink:href="#linear-gradient-3"/><linearGradient id="linear-gradient-6" x1="375.94" y1="240.16" x2="781.24" y2="240.16" gradientUnits="userSpaceOnUse"><stop offset="0" stop-color="#510394"/><stop offset="0.14" stop-color="#4a0388"/><stop offset="0.4" stop-color="#380367"/><stop offset="0.75" stop-color="#1b0433"/><stop offset="1" stop-color="#030408"/></linearGradient><linearGradient id="linear-gradient-7" x1="341.65" y1="540.01" x2="357.25" y2="518.72" gradientUnits="userSpaceOnUse"><stop offset="0" stop-color="#4e9cff"/><stop offset="0.99" stop-color="#176ad4"/></linearGradient><linearGradient id="linear-gradient-8" x1="352.39" y1="531.53" x2="381.29" y2="507.52" xlink:href="#linear-gradient-7"/><linearGradient id="linear-gradient-9" x1="415.64" y1="452.03" x2="205.92" y2="445.99" gradientUnits="userSpaceOnUse"><stop offset="0" stop-color="#f2bfad"/><stop offset="0.51" stop-color="#f2dad4"/></linearGradient><linearGradient id="linear-gradient-10" x1="362.92" y1="224.26" x2="428.56" y2="276.85" gradientUnits="userSpaceOnUse"><stop offset="0" stop-color="#f2bfad"/><stop offset="1" stop-color="#f2dad4"/></linearGradient><linearGradient id="linear-gradient-11" x1="332.75" y1="266.16" x2="407.79" y2="335.43" xlink:href="#linear-gradient-7"/><linearGradient id="linear-gradient-12" x1="404.8" y1="266.26" x2="409.13" y2="270.25" xlink:href="#linear-gradient-10"/><linearGradient id="linear-gradient-13" x1="337.57" y1="236.97" x2="374.47" y2="236.97" xlink:href="#linear-gradient-10"/><linearGradient id="linear-gradient-14" x1="433.27" y1="525.49" x2="460.76" y2="525.49" gradientTransform="matrix(-1, 0, 0, 1, 1292.46, 0)" xlink:href="#linear-gradient-7"/><linearGradient id="linear-gradient-15" x1="820.01" y1="225.4" x2="848.37" y2="225.4" xlink:href="#linear-gradient-10"/><linearGradient id="linear-gradient-16" x1="840.32" y1="302.38" x2="957.84" y2="480.99" xlink:href="#linear-gradient-6"/><linearGradient id="linear-gradient-17" x1="782.8" y1="525.49" x2="810.29" y2="525.49" xlink:href="#linear-gradient-7"/></defs><title>Artboard 44SVG-for-Verto</title><g id="Layer_2" data-name="Layer 2"><path class="cls-1" d="M1003.22,535.61c0,8.25-176.41,14.94-394,14.94s-394-6.69-394-14.94,176.41-15,394-15S1003.22,527.35,1003.22,535.61Z"/><path class="cls-2" d="M233.51,490.21c108,18.67,141.34-104.94,288.43-121.66,171.27-19.47,243.94,134.72,360.88,99.78,131.22-39.2,224-288.41,150.36-380C943.12-23.76,683.07,198.56,211.64,190.84c-50.51-.83-127.8-4.69-153.1,38.28C18.63,296.91,114.94,469.69,233.51,490.21Z"/><path class="cls-3" d="M316.55,449.31c3.39.89,16.24.37,13.78-6-2.72-7-10-.89-13.13,3a87.7,87.7,0,0,0,1.33-16c2.31-2.77,7.19-20.4-2.42-19.53-12.59,1.15-1.44,17.83,1.46,19.73a80.83,80.83,0,0,1-2.11,19.11c-.39-4.44-4.82-17.08-10.71-12.62-8.54,6.46,7.8,14.26,10.28,14.13a24.46,24.46,0,0,1-3.1,6.78c-.95,1.35-2,2.92-3.08,4.62l-.06.07c-.55-4.68-4.91-16.69-10.68-12.33-8,6,5.74,13.23,9.62,14.05a112.05,112.05,0,0,0-6.79,12.68c-.27-4.22-8.56-12.86-11.85-7.92-1.83,2.75,7.88,11.73,11.08,9.72-1.83,4.46-2.92,8.63-2.54,11.67.14,1.12.34,2.45.58,3.88-2.27-2.51-10.47-10.93-12.91-4.41-2,5.4,4.74,8.53,7.58,8.53,2.23,0,4.59-2.11,5.51-3,.13.78.27,1.58.41,2.39,1.15,6.65,2.52,14.65,2.11,19.46C299,513.6,290.33,498,285.3,508c-2.58,5.16,4.74,9.48,7.58,10.43,2.34.77,6.51.07,7.93-.2a9.19,9.19,0,0,1-.32,1.47A55.71,55.71,0,0,1,294.86,531a.47.47,0,0,0,.13.66.5.5,0,0,0,.26.08.49.49,0,0,0,.4-.21,62.24,62.24,0,0,0,4.8-9c2.24-.28,10.82-1.45,13.29-3.1,2.84-1.89,7.93-8.12,3.79-10.42-6.41-3.57-13.14,5.9-16.08,10.83,1.09-3.68.12-11-1-17.93,2.3.68,9.76-.65,12.36-2.38,2.84-1.9,7.75-6.81,4.74-9.48-7.54-6.7-15.5,7.49-17.26,10.89-.18-1.07-.36-2.13-.54-3.16-.47-2.75-.92-5.35-1.16-7.32-.36-2.82.7-6.89,2.57-11.44a29,29,0,0,0,12.12,1.07c6.64-.94,10-6.11,7.59-8.53-4.12-4.11-16.27,4.41-19.41,6.73A105.15,105.15,0,0,1,309,464.16c3.87.9,19.28.57,17.19-5.55s-10-2-14.6,1.59l1.14-1.68A27.94,27.94,0,0,0,316.55,449.31Z"/><path class="cls-4" d="M289.09,508c-8-3.18-9.9,9-10.32,13a46.94,46.94,0,0,1-1.71-18.68c1.21,0,5.91-.26,9.19-1.9,3.79-1.89,6.13-9.48,2.84-10.42-5.52-1.58-10.38,8-11.86,11.25.13-.73.28-1.44.47-2.12a84,84,0,0,0,2.46-15.78,33,33,0,0,0,8-.94c2.85-.94,7.66-8.37,3.79-9.48-5.32-1.52-10,6.13-11.69,9.2.32-5.86.08-11.5-.92-15.35a37.11,37.11,0,0,0,1.24-8.07c0-3.79-4.4-11.25-8.53-7.58-7.55,6.71,3.76,14.55,6.47,16.27.92,3.79,1.12,9.25.79,14.92-1.69-4.27-8.54-19.61-16.74-12.23-3.15,2.84,3.79,9.48,8.53,11.38a27.23,27.23,0,0,0,8.15,1.89,83.31,83.31,0,0,1-2.45,15.52c-.21.79-.39,1.63-.53,2.5-1.8-3.63-10.16-19-19.39-12.33-3.83,2.79,3.79,9.48,7.58,11.37,3.26,1.63,9.88,1.72,11.7,1.71a47.83,47.83,0,0,0,1.63,18.69c-2.79-4.22-10.93-15-17.12-8.07-3.67,4.13,5.84,7.63,8.53,8.53,2.38.79,7.46,1,9.07,1.08,1.35,4.08,3.18,7.45,5.32,9.24a.51.51,0,0,0,.31.11.48.48,0,0,0,.3-.84c-2-1.7-3.79-4.93-5.08-8.82a49.63,49.63,0,0,0,7.15-3.61C289.09,516.55,293.49,509.78,289.09,508Z"/><path class="cls-5" d="M309.47,531.72H266.34a.48.48,0,0,1,0-1h43.13a.48.48,0,1,1,0,1Z"/><path class="cls-5" d="M324.64,531.72h-9.95a.48.48,0,1,1,0-1h9.95a.48.48,0,0,1,0,1Z"/><path class="cls-6" d="M877.06,435.59c-4,1-18.94.43-16.08-7,3.18-8.22,11.68-1,15.32,3.52a102.21,102.21,0,0,1-1.55-18.63c-2.69-3.24-8.38-23.8,2.83-22.79,14.69,1.34,1.67,20.8-1.71,23,0,4.75.32,14.15,2.46,22.3.46-5.18,5.63-19.92,12.5-14.72,10,7.54-9.1,16.64-12,16.48a28.52,28.52,0,0,0,3.62,7.91c1.11,1.58,2.33,3.4,3.59,5.39l.07.08c.64-5.46,5.73-19.47,12.46-14.38,9.3,7-6.7,15.44-11.22,16.39A130.51,130.51,0,0,1,895.27,468c.31-4.93,10-15,13.82-9.24,2.14,3.21-9.19,13.68-12.92,11.33,2.13,5.21,3.41,10.07,3,13.62-.17,1.31-.41,2.86-.68,4.53,2.64-2.93,12.21-12.75,15.06-5.15,2.36,6.3-5.53,9.95-8.85,9.95-2.6,0-5.35-2.45-6.43-3.52-.15.9-.31,1.83-.48,2.78-1.33,7.75-2.93,17.08-2.46,22.7,2.26-4.39,12.35-22.63,18.22-10.9,3,6-5.53,11.06-8.85,12.17-2.72.9-7.59.09-9.25-.24a10.53,10.53,0,0,0,.37,1.72,66.33,66.33,0,0,0,6.57,13.14.55.55,0,0,1-.15.76.5.5,0,0,1-.31.1.57.57,0,0,1-.46-.25,72.52,72.52,0,0,1-5.6-10.52c-2.61-.32-12.62-1.69-15.5-3.61-3.32-2.21-9.26-9.48-4.42-12.16,7.48-4.16,15.32,6.89,18.76,12.63-1.28-4.28-.15-12.86,1.18-20.92-2.68.81-11.38-.75-14.41-2.77-3.32-2.21-9-7.94-5.53-11.06,8.79-7.81,18.08,8.74,20.13,12.71.21-1.25.42-2.49.63-3.68.55-3.22,1.07-6.25,1.36-8.55.41-3.29-.82-8-3-13.35a33.57,33.57,0,0,1-14.14,1.26c-7.74-1.11-11.66-7.13-8.84-9.95,4.8-4.8,19,5.14,22.64,7.85a122.64,122.64,0,0,0-8.79-16.44c-4.51,1-22.48.66-20-6.47s11.63-2.34,17,1.85l-1.34-2A32.85,32.85,0,0,1,877.06,435.59Z"/><path class="cls-7" d="M909.09,504.07c9.28-3.71,11.55,10.5,12,15.15a54.42,54.42,0,0,0,2-21.79c-1.41,0-6.89-.29-10.71-2.21-4.42-2.21-7.15-11.06-3.32-12.16,6.44-1.84,12.11,9.33,13.84,13.13-.15-.86-.33-1.69-.55-2.48a98.56,98.56,0,0,1-2.87-18.4c-1.75,0-6.62-.2-9.31-1.1-3.32-1.1-8.94-9.77-4.43-11,6.22-1.78,11.72,7.14,13.65,10.72-.37-6.84-.09-13.42,1.07-17.9a43.49,43.49,0,0,1-1.45-9.41c0-4.42,5.14-13.13,10-8.85,8.8,7.83-4.39,17-7.56,19-1.06,4.42-1.3,10.79-.92,17.4,2-5,10-22.87,19.54-14.26,3.67,3.31-4.43,11.06-10,13.27a31.46,31.46,0,0,1-9.5,2.21,97.57,97.57,0,0,0,2.85,18.1c.25.93.45,1.91.62,2.92,2.1-4.23,11.85-22.22,22.62-14.38,4.47,3.25-4.42,11.05-8.85,13.26-3.79,1.9-11.52,2-13.64,2a55.87,55.87,0,0,1-1.9,21.8c3.25-4.91,12.75-17.53,20-9.41,4.28,4.82-6.81,8.9-10,9.95-2.77.93-8.7,1.2-10.57,1.27-1.58,4.75-3.72,8.69-6.21,10.77a.55.55,0,0,1-.36.13.56.56,0,0,1-.42-.2.55.55,0,0,1,.07-.78c2.38-2,4.42-5.75,5.93-10.29a57.35,57.35,0,0,1-8.34-4.21C909.09,514,904,506.12,909.09,504.07Z"/><path class="cls-5" d="M885.32,531.72h50.31a.56.56,0,0,0,0-1.11H885.32a.56.56,0,1,0,0,1.11Z"/><path class="cls-5" d="M867.62,531.72h11.61a.56.56,0,1,0,0-1.11H867.62a.56.56,0,0,0,0,1.11Z"/><rect class="cls-5" x="375.94" y="247.8" width="405.29" height="219.06"/><rect class="cls-8" x="375.94" y="247.8" width="405.29" height="19.84"/><rect class="cls-9" x="375.94" y="232.51" width="405.29" height="15.28"/><path class="cls-10" d="M393.19,240.15a3.41,3.41,0,1,1-3.41-3.41A3.41,3.41,0,0,1,393.19,240.15Z"/><path class="cls-11" d="M402.61,240.15a3.41,3.41,0,1,1-3.41-3.41A3.41,3.41,0,0,1,402.61,240.15Z"/><path class="cls-12" d="M412,240.15a3.41,3.41,0,1,1-3.41-3.41A3.41,3.41,0,0,1,412,240.15Z"/><rect class="cls-13" x="426.67" y="252.27" width="331.89" height="10.89"/><path class="cls-13" d="M402.61,257.72a3.41,3.41,0,1,1-3.41-3.41A3.41,3.41,0,0,1,402.61,257.72Z"/><path class="cls-13" d="M412,257.72a3.41,3.41,0,1,1-3.41-3.41A3.41,3.41,0,0,1,412,257.72Z"/><path class="cls-14" d="M346.48,514.67c-2.07,4-2.5,7.27-3.62,9.64s-1.89,4.47-1.2,6A25.94,25.94,0,0,1,343,533.9c.3,1-.26,4.26.95,5.47s4.73,2.28,7.48,1.85,5.3-1.9,5.64-4.18,1.75-7.87,2.27-10,1.64-3.87.7-6.37S346.48,514.67,346.48,514.67Z"/><path class="cls-15" d="M368.57,494.38c2.29,1.79,4.22,3.59,4.84,6a24.5,24.5,0,0,1,1,7.56c-.15,2.66-.62,7.23.35,9.32s2.31,7.45,2,9.07-.93,1.53-.6,2.5,1.78,4.91.66,6.11-11.36,7.08-13,6.84-2.86-1.32-4.51-4.55-2.61-6.62-1.42-12.16S368.57,494.38,368.57,494.38Z"/><path class="cls-16" d="M325.64,376.57c0,2,2.31,18.17,3.4,22.66S333,415.3,332.79,417a38.44,38.44,0,0,0,.78,8c.41,1.66.12,16,.34,17.92s7.29,40,8.87,44.17,3.17,9.23,3.17,11.37,0,5.38.52,6.58a10.08,10.08,0,0,1,.47,5.59c-.47,2-2.4,10.54-2.35,12.11s1.57,2,6.11,1.83,6-.26,7.05-1.52,1.93-12.42,1.45-15.06-.42-20.94-3.74-36.28-6.68-57-4.36-69,8.41-26.29,4.36-26.84S325.64,376.57,325.64,376.57Z"/><path class="cls-17" d="M347.94,380.61c-1.64,4.69-9,29.82-10.43,35.17-1.72,6.57-1.46,18.21,2.41,22.43s7.67,23.53,8.84,28.92,7.15,24.38,7.39,28.48-.26,13.53.6,16a24.46,24.46,0,0,1,1.61,7.15c0,1.93-.07,5.67.6,6.54s8.94.73,11.41-1.2,3.41-6.41,1.67-12.49-2.47-9.48-1.94-10.68-.13-3.8-1.06-6.34-2.3-14.76-2.11-26.27-.14-20.75-2.93-26.21-6.42-6.55-5.82-12,16.25-42.68,16.25-45.35S347.94,380.61,347.94,380.61Z"/><path class="cls-18" d="M329.43,324.81c-1.89,4.52-5.22,16.83-6.74,21.37s-.8,13.22-2.52,17.56-3.53,12.71-1.21,14.13,20.18,4.33,24.21,4.23,12.72-.7,17.56.71,13.22,4.94,15.84,4.64,3.23-18.66,3.84-25.83,4-18.26,3.93-21.29-1.21-8.67-2.62-10.59S329.43,324.81,329.43,324.81Z"/><path class="cls-19" d="M383.35,248.32c3.48,1.35,7.22,2.34,9,5.41s6.13,20.7,7,22.74,9.94,18.06,11.21,18.06,17.25-9,21.9-13.93,10.32-14,11.74-15a29.29,29.29,0,0,1,5.85-3.3c.87-.15,1.84.2,2.65-.77s5.73-6.65,6.06-7.11,2-2.16,3.17-1.94-.14,2.59-.9,3.44-4.45,5.46-4.59,6.23-.11,8.76-.16,9.88.05,3.39-1.81,4.7a91.06,91.06,0,0,1-10,5.59c-2.13.92-16.74,16.31-19,19s-13.36,11.28-14.93,11.28-10.29-6.45-14.13-12.21-16.3-27.47-17.87-33.84S383.35,248.32,383.35,248.32Z"/><path class="cls-20" d="M323.59,262.53c1.72,5.77,13,35.7,11.39,42.36s-6.17,18.14-6.37,20.39,20.49,5.79,28.14,6.28,24.31,2.94,26.17,1.17-2.94-23.52-2.74-30.39,2.55-28.23,2.64-31.56-.39-22.22-3.1-24.47-24.7-7.56-31.92-3.38S323.59,262.53,323.59,262.53Z"/><path class="cls-21" d="M403.28,267.24c1.44,1.54,2.6,2.74,3.46,2.74s2.43-1.08,2.43-1.8-2-2.46-3.53-2.46A3,3,0,0,0,403.28,267.24Z"/><path class="cls-22" d="M345.71,224.54c-.15,3,.43,11.54-.43,13.2s-6.77,1.72-7.63,3,5.27,9.54,6.39,9.61,10.47-1.38,14.61-1.51,14.1,2,15.52,2.37-2.58-13.17-4.06-17-2.69-9.29-6.59-11S345.71,224.54,345.71,224.54Z"/><path class="cls-10" d="M353.93,189.09c-2.89-1.09-8.74-.55-12.1,5.85s-7.57,10.7-8.12,17.25-1.92,8.84-1.92,11.54.92,5.82-1,7.61-3.58,6.18-1.89,9.6,1.59,4.88,1.51,6.76,7.72,12.43,10.66,15.77,7,20.49,15,18.57,3.5-14.51,2.49-18-3.69-5-3.47-8.11-.29-9.84-4.24-14.81-5.82-10.42-5.09-16.62,17.89-.64,18.29.7a15.49,15.49,0,0,1,1.24,7.82c-.51,3.88-3,8.49-.58,12.58s5.12,7.39,4,11.12-.6,12,1.74,15-1.9,10.37,2.41,14.51,15.55,10.37,16.85-1.46-1.38-18.66,0-22.63-.69-9.76-2.85-12.53-4.32-6.3-4.06-10.45a44.93,44.93,0,0,0-2.33-15.29c-1.56-4.14-3.37-8.63-3.37-12.35s-4.32-12-7.6-15.8S362,188.43,359.15,188A8.43,8.43,0,0,0,353.93,189.09Z"/><path class="cls-17" d="M353.68,194.49c-3.76-.69-8.9.63-10,4.42s.79,9.28,0,11.42-1.11,6.93-.71,10.2,5.69,11.65,12.86,11.45,11.24-9.49,11.41-11.79-1.53-11.84-2.57-15.39-6.42-8.35-7.83-9.31A6.11,6.11,0,0,0,353.68,194.49Z"/><path class="cls-17" d="M320.19,243.23c-4.95,3.58-2.73,11.64-.93,14.66S329.18,276,335.64,283s10.68,9.94,19.39,7.18,38.09-19,39.68-19.09a20.32,20.32,0,0,0,5.09-1.37c1.39-.52,5-3,5.83-2.81s2.3,1.08,1.77,1.65-.89,1.15-.66,1.46,2.5-.42,3-.54,1.91-1.07,1.95-1.68,1.69-.85,1.69-1.58-.57-.8,0-1.61,1.61-2,1.34-3.18-3.37-3-3.56-3.92,3.65-4.84,4.51-5.54,3.92-3.15,4-3.72.29-1.6-.35-1.88-7.86,4.87-9.14,6.17-5.28,3.28-6.84,4.52a117.27,117.27,0,0,1-11.17,6.47c-1.15.44-22.38,7.16-27.25,8.23s-14.26,3.15-15.09,2.06-17.15-21.38-18.09-23.1S327,238.33,320.19,243.23Z"/><path class="cls-17" d="M832.07,506.87c0,1.67.39,9.75,1.15,9.79s11.66-2.26,12.22-3.2.51-4.39.51-5.18S832.07,506.87,832.07,506.87Z"/><path class="cls-18" d="M865,388c-1,5.26-5.77,27-7.38,34.06s-1.64,22.8-1.5,27.52a126.14,126.14,0,0,1-2.07,23.32c-1.67,9.16-2.37,17.63-3,21.76s-3.08,14.59-4.13,15-14.68,0-15.9-1.25.67-16.47,1.5-22.24.25-20.78,1-26,1.54-16.12-.09-23.8-.78-25.65-.55-34.34S865,388,865,388Z"/><path class="cls-23" d="M847.4,512.51c.57,1.42,2.81,1.59,3.33,4.75.35,2.15.85,6.82,3.38,9.67s4.91,4.17,5.07,8a6.51,6.51,0,0,1-6.23,6.81c-3.54.26-9.51,0-12.2-2.43s-2.69-4.6-3.54-5.76-4.65-3.85-5.07-5.12-.58-10.7-.3-12,3.32-4.41,4.71-5,3.29-2.25,5.43-2.25S846.87,511.17,847.4,512.51Z"/><path class="cls-17" d="M809.92,509.62c0,1.67-.39,7-1.15,7s-11.67-2.26-12.23-3.2-.51-4.39-.51-5.18S809.92,509.62,809.92,509.62Z"/><path class="cls-18" d="M794.52,386.69c.23,5.35,1.86,27.55,2.44,34.76s-1.63,22.8-2.44,27.46a126.76,126.76,0,0,0-1.28,23.37c.35,9.3-.17,17.79-.08,22s1,14.87,1.94,15.43,14.54,2.07,15.92,1,1.69-16.39,1.69-22.23,2.72-20.6,2.72-25.85.78-16.18,3.48-23.54,4.44-25.28,5.45-33.91S794.52,386.69,794.52,386.69Z"/><path class="cls-24" d="M823.21,213.71s.7,6.83-.17,11.55c-.62,3.3-3.33,5-3,6,3.48,10.18,27,4.15,28.24,3.43.55-.31-1.41-4.2-2.1-5.89s0-11.25,0-11.25Z"/><path class="cls-10" d="M819.59,198.38c-1-3.58-2.28-10.56-1.18-12.24.91-1.36,3.2-2,3.62-2.82s-1.17-5.48,7.57-8.85,18.28,3.05,20.67,9.69.91,16.05,0,17.47-29.95-.92-29.95-.92Z"/><path class="cls-17" d="M821.51,199.41s1.19,16.05,2,17.54,6.8,7.64,12.45,7.64,11.12-6.31,11.78-7.64,1.54-16.13,1.54-17.54S850.67,185,841,182.77s-14.2-.59-16.71,1.68.36,7.15-.12,8.23S821.2,195.58,821.51,199.41Z"/><path class="cls-17" d="M853.28,197.77a4.13,4.13,0,0,1,1.39,4.87c-.77,1.62-1.93,6-3,6.1s-2.4.7-3,0-.82-8.91.46-9.12S851.81,197,853.28,197.77Z"/><path class="cls-17" d="M818.61,197.77c-1.36.71-2.16,3.25-1.39,4.87s1.93,6,3,6.1,2.4.7,3,0,.81-8.91-.47-9.12S820.08,197,818.61,197.77Z"/><path class="cls-10" d="M849.71,196.66c-.9-1.64.61,7-1.77,11.38s-5.92,11-7.74,11c-.83,0-.17-4-1.21-4.58a13,13,0,0,0-3.4-.4,13.45,13.45,0,0,0-3.4.4c-.88.45.44,4.58-1.21,4.58-2.88,0-5.36-6.63-7.74-11s-.88-13-1.78-11.38c-.49.91.52,11.17.52,11.17s.56,8.08,2.16,11.1,8.72,6.33,11.45,6.33,9.85-3.31,11.45-6.33,2.16-11.1,2.16-11.1S850.21,197.57,849.71,196.66Z"/><path class="cls-25" d="M909.67,247.89l-74.08-17.84L761.5,247.89s-7.7,73.45,8.83,106.52,55.43,67,65.26,67,48.72-34,65.25-67S909.67,247.89,909.67,247.89Z"/><path class="cls-26" d="M835.59,410.5c-2.41,0-6.19-1.78-11.23-5.31a135.39,135.39,0,0,1-15.94-13.47c-13.2-12.81-24.47-27.53-30.9-40.4-6.07-12.14-9.23-31.59-9.39-57.82-.12-19.47,1.55-35.61,1.56-35.77a1.32,1.32,0,0,1,1-1.14L835.28,241a1.3,1.3,0,0,1,.62,0l64.59,15.56a1.32,1.32,0,0,1,1,1.14c0,.16,1.68,16.3,1.56,35.77-.16,26.23-3.32,45.68-9.39,57.82-6.44,12.87-17.7,27.59-30.9,40.4a135.39,135.39,0,0,1-15.94,13.47C841.78,408.72,838,410.5,835.59,410.5ZM772.2,258.92c-.34,3.67-1.56,17.9-1.46,34.59.16,25.45,3.32,45,9.12,56.65,6.31,12.61,17.38,27.07,30.38,39.68,12.22,11.85,22,18.05,25.35,18.05s13.13-6.2,25.35-18.05c13-12.61,24.07-27.07,30.38-39.68,5.8-11.61,9-31.2,9.12-56.65.1-16.69-1.12-30.92-1.46-34.59l-63.39-15.27Z"/><path class="cls-27" d="M852.73,349.65h-22.4A3.37,3.37,0,0,1,827,345.7l4.5-25.91a20.62,20.62,0,1,1,20,0l4.5,25.91a3.37,3.37,0,0,1-3.32,3.95Zm-18.39-6.74h14.39l-4.26-24.49a3.37,3.37,0,0,1,2.1-3.72,13.89,13.89,0,1,0-10.07,0,3.37,3.37,0,0,1,2.09,3.72Z"/><path class="cls-28" d="M846.79,345.13h-22.4a3.37,3.37,0,0,1-3.32-3.94l4.5-25.91a20.61,20.61,0,1,1,20,0l4.5,25.91a3.37,3.37,0,0,1-3.32,3.94Zm-18.4-6.74h14.4l-4.26-24.49a3.35,3.35,0,0,1,2.09-3.71,13.88,13.88,0,1,0-10.07,0,3.36,3.36,0,0,1,2.1,3.71Z"/><path class="cls-17" d="M760.92,257.19c-1.09,0-3-.69-4-.69s-1.77-.17-1.6,1,1.5.86,2,1.47.51.93.22,1.11-1.64.78-1.25,2,.56,1.3.53,1.67-1.35,1.62-.87,2.74.74,1.35.5,1.82-1.16,1.49-.71,2.36.61,1.57.29,1.86a2.72,2.72,0,0,0-.48,2.6c.43,1.14,4.18,3.83,4.18,3.83l.06-2.57s3.13.49,3.77.22,1.14-.37,1.24-.9a5.2,5.2,0,0,0,.11-.95s1.78.1,2.09-.69.16-2-.1-2.12-1.17-.35-1.17-.61,1.1-.22,1.45-.48a1.94,1.94,0,0,0,.88-1.62c-.08-.77-1.3-1.56-1.68-1.78s-.57-.85-.42-.93a2.49,2.49,0,0,0,.48-2.06c-.29-.79-5.12-3.53-5.33-3.66a1.29,1.29,0,0,1-.3-.24Z"/><path class="cls-17" d="M910.26,257.19c1.09,0,3-.69,4-.69s1.77-.17,1.6,1-1.5.86-2,1.47-.51.93-.22,1.11,1.64.78,1.25,2-.56,1.3-.54,1.67,1.36,1.62.88,2.74-.74,1.35-.5,1.82,1.16,1.49.71,2.36-.61,1.57-.29,1.86a2.72,2.72,0,0,1,.48,2.6c-.43,1.14-4.18,3.83-4.18,3.83l-.06-2.57s-3.13.49-3.77.22-1.14-.37-1.24-.9a5.2,5.2,0,0,1-.11-.95s-1.78.1-2.09-.69-.16-2,.1-2.12,1.17-.35,1.17-.61-1.1-.22-1.45-.48a2,2,0,0,1-.89-1.62c.08-.77,1.31-1.56,1.69-1.78s.57-.85.42-.93a2.49,2.49,0,0,1-.48-2.06c.29-.79,5.12-3.53,5.33-3.66a1.29,1.29,0,0,0,.3-.24Z"/><path class="cls-29" d="M794.58,512.51c-.57,1.42-2.81,1.59-3.33,4.75-.35,2.15-.84,6.82-3.38,9.67s-4.91,4.17-5.07,8a6.51,6.51,0,0,0,6.24,6.81c3.53.26,9.5,0,12.2-2.43s2.69-4.6,3.53-5.76,4.65-3.85,5.08-5.12.58-10.7.29-12-3.31-4.41-4.7-5-3.3-2.25-5.43-2.25S795.12,511.17,794.58,512.51Z"/><path class="cls-2" d="M699.18,341.59H589.56a3.8,3.8,0,0,1-3.81-3.81h0a3.8,3.8,0,0,1,3.81-3.8H699.18a3.8,3.8,0,0,1,3.81,3.8h0A3.8,3.8,0,0,1,699.18,341.59Z"/><path class="cls-2" d="M701.09,366.85H587.65a1.9,1.9,0,0,1-1.9-1.9h0a1.9,1.9,0,0,1,1.9-1.9H701.09A1.9,1.9,0,0,1,703,365h0A1.9,1.9,0,0,1,701.09,366.85Z"/><path class="cls-2" d="M693.05,380.68H595.69a1.9,1.9,0,0,1-1.9-1.9h0a1.91,1.91,0,0,1,1.9-1.91h97.36a1.91,1.91,0,0,1,1.9,1.91h0A1.9,1.9,0,0,1,693.05,380.68Z"/><path class="cls-30" d="M538.42,299.89,495.26,414.77,450.32,299.89m0,0v76.82l44.94,38.06,43.16-38.06V299.89m-88.1,76.82h88.1"/></g></svg>