<svg xmlns="http://www.w3.org/2000/svg" xmlns:xlink="http://www.w3.org/1999/xlink" viewBox="0 0 500 500"><defs><style>.cls-1{fill:none;}.cls-2{isolation:isolate;}.cls-3{clip-path:url(#clip-path);}.cls-4{fill:#00d0ca;}.cls-5{fill:#f8b39d;}.cls-6{fill:#facfc1;}.cls-7{fill:#e9dcd8;}.cls-17,.cls-18,.cls-20,.cls-7,.cls-9{mix-blend-mode:multiply;}.cls-8{fill:#f8b8a3;}.cls-9{fill:#e3e9ec;}.cls-10,.cls-16{fill:#efefef;}.cls-11{fill:#2a2a2a;}.cls-12{font-size:14.04px;fill:#fff;font-family:VarelaRound;}.cls-13{letter-spacing:0em;}.cls-14{fill:#e55058;}.cls-15{fill:#aebfc7;}.cls-16{opacity:0.2;}.cls-17{fill:#e5e5e5;}.cls-18{fill:#e3d3ce;}.cls-19{fill:#fbd4c8;}.cls-20{fill:#f4eeeb;}.cls-21{fill:#dfdfdf;}.cls-22{fill:#f2f2f2;}.cls-23{fill:#6c5af2;}</style><clipPath id="clip-path"><circle class="cls-1" cx="251.21" cy="251.21" r="248.79"/></clipPath></defs><g class="cls-2"><g id="DESIGNED_BY_FREEPIK" data-name="DESIGNED BY FREEPIK"><g class="cls-3"><rect class="cls-4" width="500" height="500"/><path class="cls-5" d="M180.14,285.08s-11.13,21.24-9.89,26.21,10.35,7.73,19.05,4.16,16-14.47,20.08-19.9,5.93-22.18,1.18-27.08S184.26,278.25,180.14,285.08Z"/><path class="cls-6" d="M171,306.18c2.93-.6,4.91-3.53,6.07-6.49a16.66,16.66,0,0,0,1-9.67l-.27-.21A121.41,121.41,0,0,0,171,306.18Z"/><path class="cls-7" d="M206.7,289.39c.15-2.62.38-12.45-.21-15-.19-.87-2,3.69-3.18,3.37-2.53,9-2.56,19.4-8.81,26.77-3.81,4.5-8.49,8-14.62,7.6a30,30,0,0,1-9.67-2.58,4.84,4.84,0,0,0,0,1.77c1.24,5,10.35,7.73,19.05,4.16,7.09-2.92,13.28-10.69,17.51-16.41C206.8,295.77,206.53,292.47,206.7,289.39Z"/><path class="cls-5" d="M194,234.91s-34.58,40.66-33.42,46.25,7.72,12.14,21.13,8.76S209,275.41,213.9,271.36s15.54-30.25,6.64-36.41S198.45,230.78,194,234.91Z"/><path class="cls-7" d="M208.6,251.8c.5-1.83,3-6.56.43-7.76-1.8-.84-3.18.31-4.21,1.06a32.59,32.59,0,0,0-5.66,15.25,69.22,69.22,0,0,0,0,7.89c0,2.66-1.76,4.67-3.51,6.68-5.77,6.61-16.2,11.86-25.55,10.59a12.64,12.64,0,0,1-6.71-2.62,14,14,0,0,1-2.75-2.68,2.29,2.29,0,0,0-.06,1c1.16,5.59,7.72,12.14,21.13,8.76,8.88-2.25,17.93-7.87,24.48-12.6a30.67,30.67,0,0,0,1.35-12.83A36.29,36.29,0,0,1,208.6,251.8Z"/><path class="cls-8" d="M335.83,284.29A219.23,219.23,0,0,0,309.25,245c-15-17.62-57.25-50.25-73-47.91s-49,28-57.75,35.75-9.75,12.86-4,15.89,13,7.72,26.25,4S222,243.39,222,243.39s17.5-4.44,16.75,7.71,0,65.44,6,73.61S254,335.23,257,335.46s43.5-31.31,49.25-34.11S335.83,284.29,335.83,284.29Z"/><path class="cls-6" d="M195,226.33a8.06,8.06,0,0,0,.79-7.05c-7.66,5.59-14.1,10.79-17.29,13.59a38.61,38.61,0,0,0-5.05,5.23C181.11,241.33,190.49,233.07,195,226.33Z"/><path class="cls-6" d="M180,262.79c1.31-2.46,0-5.31-2.4-7.77-6.3,8-12.66,16.56-15.49,21.79C171.16,278.38,176.39,268.69,180,262.79Z"/><path class="cls-9" d="M175.33,235.92H300.48c-18.74-17.8-50.93-40.77-64.23-38.8-15.75,2.34-49,28-57.75,35.75C177.29,233.94,176.25,235,175.33,235.92Z"/><rect class="cls-10" x="116.85" y="81.67" width="240.88" height="151.25" rx="16.97"/><path class="cls-11" d="M357.73,114.33V98.64a17,17,0,0,0-17-17H133.83a17,17,0,0,0-17,17v15.69Z"/><text class="cls-12" transform="translate(272.52 104.48)">ID <tspan class="cls-13" x="15.68" y="0">C</tspan><tspan x="23.88" y="0">ARD</tspan></text><rect class="cls-14" x="218" y="133.33" width="122.33" height="13.33"/><rect class="cls-11" x="233.7" y="196.35" width="1.48" height="15.65"/><rect class="cls-11" x="240.64" y="196.35" width="0.76" height="15.65"/><rect class="cls-11" x="278.86" y="196.35" width="1.57" height="15.65"/><rect class="cls-11" x="288.84" y="196.35" width="1.57" height="15.65"/><rect class="cls-11" x="243.1" y="196.35" width="0.57" height="15.65"/><rect class="cls-11" x="276.42" y="196.35" width="0.57" height="15.65"/><rect class="cls-11" x="291.76" y="196.35" width="0.57" height="15.65"/><rect class="cls-11" x="320.37" y="196.35" width="0.57" height="15.65"/><rect class="cls-11" x="305.66" y="196.35" width="0.57" height="15.65"/><rect class="cls-11" x="311.31" y="196.35" width="0.68" height="15.65"/><rect class="cls-11" x="258.41" y="196.35" width="0.57" height="15.65"/><rect class="cls-11" x="273.9" y="196.35" width="0.82" height="15.65"/><rect class="cls-11" x="237.28" y="196.35" width="2.5" height="15.65"/><rect class="cls-11" x="266.08" y="196.35" width="2.5" height="15.65"/><rect class="cls-11" x="270" y="196.35" width="2.9" height="15.65"/><rect class="cls-11" x="301.39" y="196.35" width="3.24" height="15.65"/><rect class="cls-11" x="313.53" y="196.35" width="4.86" height="15.65"/><rect class="cls-11" x="306.79" y="196.35" width="2.36" height="15.65"/><rect class="cls-11" x="281.94" y="196.35" width="4.52" height="15.65"/><rect class="cls-11" x="250.23" y="196.35" width="5.46" height="15.65"/><rect class="cls-11" x="245.44" y="196.35" width="1.72" height="15.65"/><rect class="cls-11" x="260.82" y="196.35" width="1.72" height="15.65"/><rect class="cls-11" x="294.24" y="196.35" width="1.72" height="15.65"/><rect class="cls-11" x="322.91" y="196.35" width="1.72" height="15.65"/><rect class="cls-11" x="297.07" y="196.35" width="1.72" height="15.65"/><rect class="cls-15" x="229" y="158.34" width="80.5" height="7.16"/><rect class="cls-15" x="229" y="173.34" width="80.5" height="7.16"/><path class="cls-16" d="M120.85,219.44V102.14a16,16,0,0,1,16-16H343.76a15.91,15.91,0,0,1,10.49,4,16,16,0,0,0-13.49-7.45H133.83a16,16,0,0,0-16,16v117.3a15.9,15.9,0,0,0,5.49,12A15.81,15.81,0,0,1,120.85,219.44Z"/><path class="cls-17" d="M349.82,84.31a16.89,16.89,0,0,1,3.91,10.83v117.3a17,17,0,0,1-17,17H129.83a16.93,16.93,0,0,1-9.07-2.64,17,17,0,0,0,13.07,6.14H340.76a17,17,0,0,0,17-17V98.64A16.93,16.93,0,0,0,349.82,84.31Z"/><path class="cls-18" d="M281,289.89s-3.56,1-9.5-4c-5.67-4.75.25-14,.25-14s-2.42.08-7-3.74c-4.82-4-4.25-11-4.25-11a8.14,8.14,0,0,1-4.17-3c-1.66-2.18-1.75-5.07-1.5-9.51s1.42-18-6.83-29.46c-4.77-6.62-13.35-11.65-22-8.86-10.86,3.5-16.93,14.29-20.85,23.8a62.89,62.89,0,0,0-3,8.41,29.47,29.47,0,0,1-2,6.35c-3.42,6.63-12.91,4.52-18.92,2.91-2.86-.76-5.78-1.68-8-3.53a14.17,14.17,0,0,1-2-2.14c-.83,2.81.31,5,3.32,6.57,5.75,3,13,7.72,26.25,4a85.91,85.91,0,0,0,11.48-4.13,11.71,11.71,0,0,0,.62-1.17c1.7-3.68,2.14-7.83,2.71-11.77a53.73,53.73,0,0,1,5-15.81,14,14,0,0,1,10-7.82,7.15,7.15,0,0,1,1.11-.1c2.94,12.9,9.29,40.83,9.29,41.73,0,1.17,1,29.21,4.5,49.78s12,23.84,10.83,21.65-.5-8,3.5-17.13S281,289.89,281,289.89Z"/><path class="cls-8" d="M256.33,325.1s-9.66-17.13-9-33.65,7.34-48,2-67.3-22-20.88-32-10.91-12.66,34.9-12.66,55.47c0,0,1.33,33-9.34,52.66s-20.42,52.7-5.66,94.1c15.33,43,14.33,47,15.66,57.64s.34,15.89.34,15.89l96-.31s-9.34-40.82-6.34-55.78,24-63.56,31-78.52,19.34-55.46,8-73.22-61.66,25.55-67.66,32.72A137.9,137.9,0,0,1,256.33,325.1Z"/><path class="cls-19" d="M214.5,239.88a28.36,28.36,0,0,0,14.5,4.91c10.5.24,15.83-5.37,15.83-5.37s3.67-28.75-14.08-28.75S214.5,239.88,214.5,239.88Z"/><path class="cls-20" d="M326.33,354.39c7-14.95,19.34-55.46,8-73.22a8.47,8.47,0,0,0-.65-.89A224.25,224.25,0,0,0,309.25,245c-.5-.59-1-1.2-1.59-1.81.53.88,1.07,1.76,1.6,2.65,6.29,10.49,16.61,26,17.74,37.95,1.15,12.11-1.45,18.76-6.5,30.38-5.75,13.24-13.44,26.3-21,38.85-12.13,20.2-27.74,38.42-38,59.49-12,24.67-9.6,50-8.45,76.31l48.58-.16s-9.34-40.82-6.34-55.78S319.33,369.35,326.33,354.39Z"/><rect class="cls-21" x="187.25" y="450.5" width="125.5" height="25.5"/><rect class="cls-22" x="187.25" y="450.5" width="63.75" height="25.5"/><rect class="cls-23" x="168" y="465.5" width="164" height="34.5"/><rect class="cls-23" x="168" y="465.5" width="82.32" height="34.5"/></g><path id="qrcode" class="cls-11" d="M152.08,138.55h-20v20h20Zm5-5h0V163.5H127.13V133.56Zm-20,10h10v10h-10Zm64.88-5H182v20h20Zm5-5h0V163.5H177V133.56Zm-20,10h10v10H187Zm-34.94,44.92h-20v20h20Zm5-5h0v29.94H127.13V183.47Zm-20,10h10v10h-10Zm25-59.89h5v5h-5Zm5,5h5v5h-5Zm-5,5h5v5h-5Zm5,5h5v5h-5Zm-5,5h5v5h-5Zm5,5h5v5h-5Zm-5,5h5v5h-5Zm0,10h5v5h-5Zm5,5h5v5h-5Zm-5,5h5v5h-5Zm5,5h5v5h-5Zm-5,5h5v5h-5Zm5,5h5v5h-5Zm-5,5h5v5h-5Zm5,5h5v5h-5ZM202,173.49h5v5h-5Zm-69.87,0h5v5h-5Zm5-5h5v5h-5Zm-10,0h5v5h-5Zm20,0h5v5h-5Zm5,5h5v5h-5Zm5-5h5v5h-5Zm15,5h5v5h-5Zm5-5h5v5h-5Zm5,5h5v5h-5Zm5-5h5v5h-5Zm5,5h5v5h-5Zm5-5h5v5h-5Zm5,15h5v5h-5Zm-29.95,0h5v5h-5Zm5-5h5v5h-5Zm5,5h5v5h-5Zm10,0h5v5h-5Zm5-5h5v5h-5Zm5,15h5v5h-5Zm-29.94,0h5v5h-5Zm5-5h5v5h-5Zm10,0h5v5h-5Zm5,5h5v5h-5Zm5-5h5v5h-5Zm5,15h5v5h-5Zm-25-5h5v5h-5Zm5,5h5v5h-5Zm5-5h5v5h-5Zm5,5h5v5h-5Zm-15,5h5v5h-5Zm10,0h5v5h-5Zm10,0h5v5h-5Z"/></g></g></svg>