<svg xmlns="http://www.w3.org/2000/svg" viewBox="0 0 1100 800"><defs><style>.cls-1{fill:#f7f7f7;}.cls-2{fill:#b5d6ca;}.cls-22,.cls-3{fill:#fff;}.cls-4{fill:#145566;}.cls-5{fill:#eacfc1;}.cls-6{fill:#3b455a;}.cls-7{fill:#675aeb;}.cls-8{fill:#272525;opacity:0.1;}.cls-9{fill:#5bbcb9;}.cls-10{fill:#cc937a;}.cls-11{fill:#adaef8;}.cls-12{fill:#babcbe;}.cls-13{fill:#393939;}.cls-14{fill:#bcbec0;}.cls-15{fill:#75cdc7;}.cls-16{fill:#eaa434;}.cls-17{fill:#ebb044;}.cls-18,.cls-23{fill:#2a2a2a;}.cls-19{fill:#c8d6a1;}.cls-20{fill:#eee;}.cls-21{fill:#edeeee;}.cls-22{stroke:#fff;stroke-width:2px;}.cls-22,.cls-23{stroke-miterlimit:10;}.cls-23{stroke:#2a2a2a;}</style></defs><g id="object"><path class="cls-1" d="M510.05,628.41c-27.51.07-55,.71-82.47,3.63-10.35,1.1-20.48,3.52-30.86,4.5-20.72,2-41.07,5.59-61.87,7.27-16.75,1.35-33.57,2.15-50.27,3.87a185.09,185.09,0,0,1-48.52-1.42c-11.5-2-23.06-3.08-34.37-6.24-12.65-3.53-26.39-6.06-39.57-6-18.8.13-37.1.14-55.09,6.39-6.31,2.19-14,5.79-18.83,10.39-11,10.53-12.47,36.8-1.51,47.72,18.46,18.37,57.86,25.58,83.73,25.92,28.35.38,55.9-1.64,84.29-2.82,26.38-1.1,52.7-2.67,79.13-2.61,54,.11,108,0,161.84-3.45,50.62-3.24,101.36-2.13,152.09-2.13,52,0,103.7.39,155.34,7,22.5,2.88,45.43,3.89,68,5.91,20.25,1.8,39.71,0,59.89-1.71a148.13,148.13,0,0,0,49.16-12.6c12.18-5.57,33.9-22.87,37.63-36.16,10.48-37.27-147.6-36.37-171.87-36.29-27.15.09-54.52,1-81.64,0-11.42-.42-22.66-2.55-33.8-4.89S708.26,633,697,632c-46.92-4.09-93.94-3.49-141-3.49C540.69,628.49,525.37,628.36,510.05,628.41Z"/><rect class="cls-2" x="542.04" y="102.23" width="249.74" height="123.26" transform="translate(-19.84 163.68) rotate(-13.79)"/><ellipse class="cls-3" cx="666.85" cy="164.24" rx="36.84" ry="55.4" transform="translate(-19.93 163.68) rotate(-13.79)"/><path class="cls-4" d="M769.53,80.25,538,136.88l-.84.21L563.63,248,795.9,191ZM579.4,240.16c-10.93-1.6-13.16-10.68-13.16-10.68L552,174.07c-4.34-21.34,5.07-33.7,11.83-39.57l77.63-19a40.3,40.3,0,0,0-10.34,16.28c-4.35,12.06-4.76,26.75-1.18,41.37s10.76,27.45,20.2,36.12a45.15,45.15,0,0,0,9.86,7l-19.56,4.8,1,3.9Zm104-29.66-9.57,2.35c-16.05.2-32.63-16.94-38.54-41-6.51-26.55,2.38-51.64,19.82-55.92s36.93,13.84,43.45,40.39C704.5,180.38,697.74,203.25,683.43,210.5Zm33.88-8.32-20,4.91a45,45,0,0,0,5.51-10.74c4.35-12.06,4.77-26.76,1.18-41.38s-10.76-27.44-20.2-36.12a40.15,40.15,0,0,0-16.66-9.62l77.72-19c8.75,2.31,22.07,9.15,27.89,29.36l13,55.72s2.33,9.53-7.39,16l-60.1,14.75Z"/><rect class="cls-4" x="570.86" y="177.25" width="47.14" height="7.3" transform="translate(-25.94 146.04) rotate(-13.71)"/><rect class="cls-4" x="717.28" y="141.53" width="47.14" height="7.3" transform="translate(-13.3 179.72) rotate(-13.71)"/><polygon class="cls-5" points="508.5 352.73 491.88 346.56 487.69 328.97 497.31 326.75 505.15 337.38 511.56 337.76 517.62 347.46 508.5 352.73"/><polygon class="cls-6" points="617.39 317 559.63 359.15 509.26 337.38 501.87 350.97 540.02 376.95 561.4 384.95 617.39 357.99 617.39 317"/><polygon class="cls-5" points="695.29 229.62 696.53 211.94 682.24 200.87 676.24 208.71 682.7 220.24 680.39 226.24 686.73 235.76 695.29 229.62"/><polygon class="cls-7" points="581.99 430.39 580.84 530.41 591.5 659.17 605.99 659.17 623.33 540.38 643.17 421.38 581.99 430.39"/><polygon class="cls-7" points="605.91 665.28 590.23 673.12 582.4 665.28 590.23 657.45 605.91 657.45 605.91 665.28"/><polygon class="cls-7" points="681.36 430.39 681.65 488.25 671.87 659.17 657.38 659.17 633.13 545.75 620.19 421.38 681.36 430.39"/><polygon class="cls-7" points="657.46 665.28 673.13 673.12 680.97 665.28 673.13 657.45 657.46 657.45 657.46 665.28"/><path class="cls-6" d="M696.43,465.23c.32,9.18.12,21.46-3.75,21.92a3.79,3.79,0,0,1-2.06-.54c-6.72-3.27-11.51-7.89-18.14-11-6.94-3.31-14.84-5-22.55-6.23a235.14,235.14,0,0,0-34.78-3c-9.95-.08-20.3,4.46-29.7,6.95-3.63,1-6.57,3.6-9.58,5.67-4.44,3.06-6.39,4.27-5.79-2,1-10.19,2-20.38,3.27-30.54,2.51-20.27,5.91-40.5,11.67-60.12,2.2-7.5,4.74-14.89,7.28-22.28l9.27-27c3.84-11.19,10.32-19.07,21.67-23,9.81-3.38,22-4.3,31.53.43,10.6,5.26,15.65,23.18,20.8,32.76,4.51,8.39,10.21,31.29,11.9,40.33,2,10.89,3.91,21.73,5.39,32.54A335,335,0,0,1,696,455.86C696,457.18,696.29,460.85,696.43,465.23Z"/><path class="cls-3" d="M644.05,316l-19.59.19s-21,73.44-21.79,86.1c-.76,12.43-6.07,62.82-6.07,62.82s21.69.51,46.69,3.55c24.43,5.23,26.48,2.14,26.48,2.14s-13.18-53-13.62-68.17c-.45-15.57-2.44-67-2.44-67Z"/><path class="cls-5" d="M632.17,316.41a2.36,2.36,0,0,0,.8.46,4.39,4.39,0,0,0,1.91.05l7.77-.92c-.86-7.93,3.78-9.73,8.3-14.83s3.17-12.15,2.92-18.48a13.54,13.54,0,0,0-.91-5.18c-1.31-2.8-4.35-4.35-7.31-5.27-7.55-2.35-16.18-1.77-22.82,2.51a12.11,12.11,0,0,0-4.38,4.44c-1.48,2.88-1.1,6.33-.69,9.55a32.19,32.19,0,0,0,4.89,14c2.61,3.88,7.57,5.74,8.14,10.4A5.25,5.25,0,0,0,632.17,316.41Z"/><path class="cls-6" d="M618,283c.44,2,1.37,4,.88,6-3.16-1.07-5.23-4.31-6.35-7.6a11.59,11.59,0,0,1-.75-4.65,5.51,5.51,0,0,1,2.06-4.06c1.74-1.25,4.86-.76,5.36,1.5S617.32,280,618,283Z"/><path class="cls-6" d="M601.17,265.48a7.08,7.08,0,0,1,3.12-6c1.84-1.24,4-2.27,5.08-4.25.86-1.53,1-3.43,1.85-5,1.56-2.78,4.94-3.6,7.88-4.55,7.35-2.36,11.31-5.09,19.1-2.06,5.54,2.15,12.7,2.43,17.84,5.57a18,18,0,0,1,5.47,5.76c5.19,8.12,6.44,19.53,3.06,28a34.56,34.56,0,0,1-2.75,5.31c-2.06,3.34-4.26,7.44-7.9,9.08-.23-1.58-1.4-2.44-1.77-4A12.23,12.23,0,0,1,652,290c.22-4.45,1.58-11.49-2.86-13.7-5.62-2.79-16.17-.28-21.59,2.09-4.79,2.09-12.88,4.81-18,2.57C604.86,278.87,601,270.58,601.17,265.48Z"/><polygon class="cls-6" points="650.33 313.43 700.05 298.78 681.65 236.62 696.81 225.74 733.42 297.7 723.3 322.62 675.79 347.14 650.33 313.43"/><circle class="cls-4" cx="467.64" cy="325.91" r="57.86" transform="translate(-57.29 103.76) rotate(-11.94)"/><path class="cls-8" d="M487.1,265.91a63.08,63.08,0,1,0,40.54,79.45A63.09,63.09,0,0,0,487.1,265.91ZM451.46,375.83a52.48,52.48,0,1,1,66.1-33.73A52.49,52.49,0,0,1,451.46,375.83Z"/><path class="cls-9" d="M489.09,259.76a69.54,69.54,0,1,0,44.7,87.6A69.54,69.54,0,0,0,489.09,259.76ZM449.8,381a57.86,57.86,0,1,1,72.88-37.19A57.87,57.87,0,0,1,449.8,381Z"/><path class="cls-3" d="M444.3,336.6c-.51-.69-.31-1.71-.18-2.65a3.68,3.68,0,0,1,4.65-3.17c3.49.7,6.08,4.39,8.65,6.85a20.09,20.09,0,0,0,7.7,4.53,12.68,12.68,0,0,0,8.57.21,8,8,0,0,0,5-5.24q1.29-3.9-.52-6.33t-7.54-4.33l-2.52-.83q-9.33-3.09-12.95-8.62T454,304.08q2.4-7.26,8.52-9.69t14.76.44a24.65,24.65,0,0,1,6.8,3.56c4.54,3.32,11.59,10.21,8.14,14.67-3.94,5.09-10.06-6.19-12.75-8.57a17.19,17.19,0,0,0-6.06-3.32,10.78,10.78,0,0,0-7.7,0,7.76,7.76,0,0,0-4.55,4.92,5.46,5.46,0,0,0,1.07,5.84q2.2,2.38,11.07,5.56,9.43,3.42,12.6,8.59t.6,12.92q-2.44,7.41-8.78,10.26t-14.57.12a35.44,35.44,0,0,1-5.63-2.5C453.77,344.84,447.88,341.36,444.3,336.6Z"/><path class="cls-3" d="M457,361.81l-.07,0c-1.89-.62-2.84-2.91-2.12-5.11L477.25,289a3.93,3.93,0,0,1,4.75-2.83l.07,0a3.94,3.94,0,0,1,2.12,5.11L461.77,359A3.94,3.94,0,0,1,457,361.81Z"/><circle class="cls-4" cx="949.44" cy="190.03" r="57.86" transform="translate(143.71 727.01) rotate(-45)"/><path class="cls-8" d="M968.89,130a63.07,63.07,0,1,0,40.55,79.46A63.08,63.08,0,0,0,968.89,130ZM933.25,240a52.48,52.48,0,1,1,66.11-33.73A52.47,52.47,0,0,1,933.25,240Z"/><path class="cls-9" d="M970.89,123.88a69.54,69.54,0,1,0,44.7,87.6A69.54,69.54,0,0,0,970.89,123.88Zm-39.3,121.19a57.86,57.86,0,1,1,72.89-37.19A57.86,57.86,0,0,1,931.59,245.07Z"/><path class="cls-3" d="M926.1,200.72c-.52-.69-.32-1.71-.18-2.65a3.68,3.68,0,0,1,4.64-3.17c3.49.71,6.09,4.39,8.66,6.85a20,20,0,0,0,7.69,4.53,12.68,12.68,0,0,0,8.57.21,8,8,0,0,0,5-5.24q1.29-3.9-.52-6.33t-7.54-4.32l-2.52-.84q-9.35-3.09-12.95-8.61t-1.15-13q2.4-7.26,8.51-9.68t14.77.43a24.79,24.79,0,0,1,6.8,3.56c4.54,3.33,11.59,10.22,8.14,14.68-3.94,5.08-10.07-6.2-12.75-8.58a17.15,17.15,0,0,0-6.07-3.32,10.75,10.75,0,0,0-7.69,0A7.71,7.71,0,0,0,943,170.2a5.48,5.48,0,0,0,1.06,5.85q2.22,2.37,11.07,5.55,9.43,3.43,12.61,8.59t.6,12.92q-2.46,7.41-8.78,10.26t-14.58.12a34.48,34.48,0,0,1-5.62-2.5C935.57,209,929.68,205.48,926.1,200.72Z"/><path class="cls-3" d="M938.82,225.93l-.07,0a3.93,3.93,0,0,1-2.12-5.11L959,153.07a3.94,3.94,0,0,1,4.75-2.83l.07,0a3.93,3.93,0,0,1,2.12,5.11l-22.41,67.72A3.93,3.93,0,0,1,938.82,225.93Z"/><polygon class="cls-10" points="986.77 257.04 988.91 238.85 969.15 230.41 965.47 238.81 974.78 252.49 977.03 260.81 986.77 257.04"/><polygon class="cls-11" points="895.1 343.49 871.17 380.21 855.6 409.96 861.3 421.49 882.02 415.7 895.1 343.49"/><polygon class="cls-12" points="923.77 473.19 923.77 491.79 898.97 572.37 905.17 656.06 889.67 659.16 864.88 556.88 865.83 526.78 877.27 465.41 923.77 473.19"/><polygon class="cls-13" points="891.71 657.57 879.88 670.09 883.29 676.44 907.71 664.72 903.21 655.45 891.71 657.57"/><polygon class="cls-13" points="929.22 663.29 914.64 672.46 916.36 679.46 942.93 674.21 940.89 664.11 929.22 663.29"/><path class="cls-7" d="M895,343.39l36.89-14.63s13.11,32.56,28,84.73S953,532.05,953,532.05,868.49,512,851.62,508.65l21.16-95.35Z"/><polygon class="cls-14" points="904.1 495.21 929.01 665.68 940.34 665.68 947.49 572.7 962.99 479.71 904.1 495.21"/><path class="cls-10" d="M893.8,292.22c10,.74,19.44-7.51,29.32-5.47,6.43,1.34,11.5,7,13.47,13.46a16.19,16.19,0,0,1,.34,9.24,15.43,15.43,0,0,1-2.91,5.22,21.91,21.91,0,0,1-6,5.11,39.87,39.87,0,0,0,4.3,5.71l-13.9,5.32c-1-2.66-2-5.33-3.07-8a20.13,20.13,0,0,1-4.14-.63,24,24,0,0,1-16.88-17.83A46.52,46.52,0,0,1,893.8,292.22Z"/><polygon class="cls-6" points="896.34 295.25 927.39 291.56 933.42 315.28 942.19 308.32 937.67 269.5 893.84 268.56 874.86 279.69 875.67 290.85 892.64 302.27 896.34 295.25"/><path class="cls-7" d="M973.85,405.69C959,353.52,946,320.91,946,320.91L909,335.59l-.06.19c.82,2.13,1.67,4.25,2.41,6.41a148.76,148.76,0,0,1,6.41,26.23c2.33,15.67,2.57,31.79,2.07,47.6A309.71,309.71,0,0,1,915,461.29a306.14,306.14,0,0,1-16.57,57.64c34.31,7,74.69,15.21,74.69,15.21S988.76,457.85,973.85,405.69Z"/><polygon class="cls-11" points="940.78 325.35 973.3 309.77 973.27 257.3 987.35 253.54 1003.13 315.21 997.74 324.32 951.59 360.1 940.78 325.35"/><polygon class="cls-11" points="875.14 391.28 878.82 347.69 860.97 347.69 847.31 407.56 856.76 425.94 871.97 418.51 875.14 391.28"/><polygon class="cls-10" points="863.07 347.69 863.07 332.99 874.09 328.78 884.07 336.66 884.07 343.49 876.72 347.69 863.07 347.69"/><polygon class="cls-5" points="258.31 269.59 260.43 251.8 274.34 243.77 278.36 253.35 271.71 264.25 271.71 273.18 258.31 269.59"/><path class="cls-6" d="M364.91,666.2l-12.45-11.5c-3.61-1.83-7.43-3.1-10.53-3.07a6,6,0,0,0-5.24,2.46,6,6,0,0,0-.56,5.55,7.72,7.72,0,0,0,1.08,1.75h0c.37.47.78.91,1.18,1.34.26.28.54.57.85.88,2.57,2.79,6.89,7.34,8.6,8.37,2.51,1.51,8,5.53,14.58,1a.27.27,0,0,0-.08-.07A6.3,6.3,0,0,0,364.91,666.2Z"/><path class="cls-5" d="M355.14,566.06l-1,14.43-4.93,70.25,4.93,8.17s1,6.53-6.53,6c-2.25-.15-10.19-10.25-10.19-10.25l1.15-4.63L333,597.32,333,582l-2.68-17Z"/><path class="cls-6" d="M276.22,648.36c-2.32-.73-4.48-.62-6.21.75a6.52,6.52,0,0,0-2.44,5.51,11.83,11.83,0,0,0,1.28,3.94c3,6.51,11.44,21.24,21.11,18.54,4.07-1.13,5.61-5.28,4.78-9C293.5,662.63,284,650.8,276.22,648.36Z"/><path class="cls-5" d="M325,557.63l-1.68,20.78-40.79,73.43s5.86,10.25,2.14,11.14S270,660.76,270,649.2c4.29-14,21.14-61.57,21.14-61.57l7.9-12.27-.12-23.07Z"/><path class="cls-15" d="M278.9,488.08c-.32-6.12,1.64-22.1,3.65-27.83,7.34-20.88,8.75-31.17,8.75-48.17s-7.54-70.88-7.54-70.88l25.38-14.47,32.22-.37,16.88,7.32s4.25,66.23,5.3,88.08c.74,15.59,1.83,29.1,3.25,47.16,0,0,4,41.21-2.17,85.39,0,0-1.38,14.67-2,16-.08.43-.13.67-.13.67H292.41V545.76q-3.48-12.12-6.65-24.33C283.07,511.08,279.5,499.45,278.9,488.08Z"/><path class="cls-7" d="M293.67,330.23l-11.92,9s9.07,62.06,9.55,72.89-13.47,54.11-13.47,54.11l57.81,7.54s8.5-46.22,10.95-69.18-32.53-78.93-32.53-78.93Z"/><path class="cls-7" d="M351.63,329.14l11.79,5.6s-1.65,69,1.37,86.51c1.84,10.68,9,45.27,9,45.27l-18.67,6.39s-11.49-43.27-13.77-66.23.2-80.06.2-80.06Z"/><path class="cls-6" d="M349.34,303.86c1.53,5.93-2,11.79-5.06,16.79-1.26,2-3.21,4.88-1.59,7.21,1.82,2.61,6.33,2.09,8.31.14a12.2,12.2,0,0,0,2.69-5.07c2.68-8.16,6.42-19.6,5.69-28.18-.59-6.88-9-19.1-17.72-14.73a9,9,0,0,0-3.46,3.75,7.32,7.32,0,0,0-1.12,2.79c-.41,4,3.44,5,6,7.15A20.18,20.18,0,0,1,349.34,303.86Z"/><path class="cls-5" d="M334.83,325.16c5.81-.74,10.66-4.8,13.26-9.68s3.21-10.51,3.11-16c-.34-18.25-24.53-19.26-33.93-6.15C309.07,304.77,318,327.3,334.83,325.16Z"/><path class="cls-6" d="M318.32,302c-.2,2.21-1.33,4.55-1.64,6.82-.57,4.18.37,9.6-1.16,13.42A25.72,25.72,0,0,1,303,316c-3.21-3-2.64-7.39-3.35-11.77-.67-4-1.51-8.12-1.28-12.22,1.27-22.43,23.66-34.7,43.38-24.58,7.46,3.83,10.73,13.56,5.24,19.95-5.91,6.88-17.9,3.9-25,9A12,12,0,0,0,318.32,302Z"/><path class="cls-5" d="M335.32,323.27c-.3,1.36-.59,2.72-.89,4.08-.13.62-.08,2.4-.62,2.83a1.46,1.46,0,0,1-1.06.15c-1.05-.13-10.43-1.33-10.33-1.93a32.24,32.24,0,0,1,1.08-4.69c.4-1.24.56-3.56,1.3-4.5a16.9,16.9,0,0,0,5.12,2.3c1.81.51,3.64,1,5.47,1.45C335.36,323.06,335.34,323.17,335.32,323.27Z"/><polygon class="cls-7" points="311.49 327.65 265.43 331 275.75 263.84 258.93 263.93 234.26 334.34 242.83 356.52 296.52 361.48 311.49 327.65"/><path class="cls-16" d="M407.48,672.66H387.32a7.91,7.91,0,0,1-7.91-7.9L362.09,606a7.91,7.91,0,0,1,7.91-7.9l44.14,13.31a7.91,7.91,0,0,1,7.91,7.9l-6.66,45.42A7.91,7.91,0,0,1,407.48,672.66Z"/><path class="cls-16" d="M546.57,672.66h20.16a7.91,7.91,0,0,0,7.91-7.9L592,606a7.91,7.91,0,0,0-7.91-7.9l-44.14,13.31a7.91,7.91,0,0,0-7.92,7.9l6.67,45.42A7.91,7.91,0,0,0,546.57,672.66Z"/><path class="cls-17" d="M487.51,418.93v21H468v-21C386.7,423.13,344.52,480,344.52,545.1c0,67.62,59.66,122.44,133.26,122.44S611,612.72,611,545.1C611,480,568.93,423.13,487.51,418.93Z"/><path class="cls-17" d="M364.09,406.1a1.35,1.35,0,0,0-1.26.62c-.27.42-26.46,42.93,5.8,86.38a1.33,1.33,0,0,0,1.07.54,1.35,1.35,0,0,0,.67-.18L431,458.29a1.34,1.34,0,0,0,.55-1.7C431.37,456.14,410.43,410.8,364.09,406.1Z"/><path class="cls-17" d="M586.56,406.72a1.36,1.36,0,0,0-1.26-.62c-46.35,4.7-67.29,50-67.49,50.49a1.33,1.33,0,0,0,.54,1.7L579,493.46a1.35,1.35,0,0,0,.67.18,1.33,1.33,0,0,0,1.07-.54C613,449.65,586.83,407.14,586.56,406.72Z"/><ellipse class="cls-6" cx="444.31" cy="502.47" rx="8.71" ry="8.69"/><ellipse class="cls-6" cx="511.25" cy="502.47" rx="8.71" ry="8.69"/><ellipse class="cls-16" cx="477.78" cy="561.99" rx="52.23" ry="39"/><path class="cls-16" d="M376.81,625h0c24.44,26,60.6,42.53,101,42.53C551.37,667.54,611,612.72,611,545.1A139.72,139.72,0,0,0,605,503.8C558,702.6,376.81,625,376.81,625Z"/><ellipse class="cls-3" cx="457.8" cy="559.9" rx="4.76" ry="8.01"/><ellipse class="cls-3" cx="497.75" cy="559.9" rx="4.76" ry="8.01"/><polygon class="cls-7" points="358.41 332.02 370.21 337.62 387.76 394.35 426.11 421.38 417.12 431.09 372.26 410.98 361.29 386.99 358.41 332.02"/><polygon class="cls-7" points="425 420.36 432.82 423.31 425.93 434.42 415.79 434.63 411.22 427.31 425 420.36"/><polygon class="cls-4" points="172.69 672.42 172.03 679.33 158.05 685.31 152.06 677.95 159.38 671.51 173.35 665.52 172.69 672.42"/><polygon class="cls-11" points="184.36 532.53 173.6 670.25 160.13 672.08 148.99 554.7 139.78 517.46 184.36 532.53"/><polygon class="cls-11" points="216.56 496.39 224.63 660.04 212.35 662.35 186.76 538.52 172.68 502.67 216.56 496.39"/><polygon class="cls-4" points="213.44 667.76 228.03 672.23 233.36 664.01 225.41 658.3 212.13 660.8 213.44 667.76"/><path class="cls-6" d="M199.19,319.65c-9.94-8.23-33.92-3.5-46.53-3.5,1.21,0-12,70.42-12.38,76.56-1.52,22.39-8.45,45-18,65.54-4,8.64-8.85,17-11.72,26.08-4.75,15.07-4.74,32.83-3.4,48.44,13.54,3.72,26.22,10.69,40.15,12.49,11.45,1.49,23-.62,34.52-1.64,13.61-1.2,27.31-.88,40.93-1.93s27.39-3.55,39.44-10a198.26,198.26,0,0,1-13-32.66c-3.43-11.13-7.84-23.5-9.09-35.1-1.13-10.49-1.32-21.16-2.84-31.79-1.78-12.37-3.91-24.69-6.87-36.84A277.09,277.09,0,0,0,217,354.63c-4.18-10.05-9.16-26.51-17-34.24C199.75,320.13,199.48,319.89,199.19,319.65Z"/><path class="cls-10" d="M125,469.11c-.51,3.55,2.33,12.63,5.66,14.61,7.68,4.56,4.9-6.9,4.83-11.08a22.42,22.42,0,0,0,4.37,1c1.36.11-2.69-12.14-4-13.29-3.23-2.73-5.53-1.33-9.47-.91C126,462.66,125.49,465.88,125,469.11Z"/><polygon class="cls-6" points="136.82 339.81 96.57 410.09 125.19 471.48 134.9 458.65 124.68 403.7 157.12 370.27 152.66 316.15 136.82 339.81"/><path class="cls-10" d="M240.14,455.82c.51,3.55-2.33,12.63-5.66,14.61-7.69,4.56-4.9-6.9-4.83-11.08a22.59,22.59,0,0,1-4.37,1c-1.37.11,2.68-12.15,4-13.29,3.24-2.73,5.54-1.33,9.47-.91C239.16,449.37,239.67,452.59,240.14,455.82Z"/><polygon class="cls-6" points="216.55 332.02 247.93 376.56 239.97 458.19 230.26 445.36 225 384.95 208.04 356.98 193.32 316.15 216.55 332.02"/><path class="cls-18" d="M178.06,281.58c6.3,1.15,14.07,6.53,15.59,13.18.73,3.2-.31,6.15.61,9.54,1.78,6.7-6.32,16.57,1.7,21.23,4.13,2.39,9.28,1.62,14,.77a3.63,3.63,0,0,0,1.62-.58,2.47,2.47,0,0,0,.58-2.63,10,10,0,0,0-1.41-2.47c-5.51-8.29-4.18-20.18-6.32-29.62s-7.2-18.81-16.54-22.68a21.48,21.48,0,0,0-9.2,13.35Z"/><path class="cls-10" d="M186,322.15c6.06-2.59,10.08-8.76,11.4-15.22s.27-13.18-1.51-19.53c-5.94-21.12-32.45-15.07-38.63,3C151.85,306.13,168.34,329.69,186,322.15Z"/><path class="cls-18" d="M155.11,333.77c3-1.85,5.89-3.78,7.62-7.24,2.78-5.58,1.61-14.26,1.94-20.32.35-6.38.93-13.34,5.31-18,2.86-3,6.38-3.88,10.35-4.28,2.72-.28,2.91.74,5.09-.92,1.67-1.27,2.89-4.74,3.13-6.73.41-3.36-1.22-6.73-3.62-9.11a15.9,15.9,0,0,0-12.9-5c-17.78,1.12-30.21,12.78-33.73,30.55-1.69,8.54.88,17.67-1,25.91-1.16,5.08-4.05,8.65-4.89,14-2.17,14-8.23,32.11-6.45,46.21a2,2,0,0,0,.6,1.41c.86.64,2-.32,2.61-1.19l11-15.21a26.57,26.57,0,0,0,3.72-6.33c2.08-5.75.15-12.79,3.73-17.75C149.55,337.13,152.35,335.49,155.11,333.77Z"/><circle class="cls-4" cx="295.88" cy="196.12" r="56.52" transform="translate(-35.72 69.43) rotate(-12.63)"/><path class="cls-8" d="M290.12,134.78a61.61,61.61,0,1,0,67.1,55.58A61.61,61.61,0,0,0,290.12,134.78Zm10.55,112.38a51.26,51.26,0,1,1,46.25-55.83A51.26,51.26,0,0,1,300.67,247.16Z"/><path class="cls-9" d="M289.53,128.49a67.93,67.93,0,1,0,74,61.28A67.92,67.92,0,0,0,289.53,128.49ZM301.16,252.4a56.52,56.52,0,1,1,51-61.56A56.52,56.52,0,0,1,301.16,252.4Z"/><path class="cls-3" d="M279.08,214.74c-.74-.42-.95-1.41-1.19-2.31a3.59,3.59,0,0,1,2.94-4.64c3.4-.72,7.15,1.59,10.41,2.8a19.56,19.56,0,0,0,8.66,1.08,12.42,12.42,0,0,0,7.77-3.12,7.81,7.81,0,0,0,2.44-6.63c-.23-2.67-1.21-4.49-2.92-5.48s-4.52-1.3-8.43-1l-2.58.23q-9.58.84-14.95-2.72t-6.05-11.17q-.65-7.44,3.9-12t13.41-5.32a24.31,24.31,0,0,1,7.48.56c5.36,1.23,14.35,4.68,13,10-1.56,6.08-11.42-1.67-14.75-2.76a16.43,16.43,0,0,0-6.72-.63,10.47,10.47,0,0,0-6.91,3,7.56,7.56,0,0,0-2.18,6.18,5.37,5.37,0,0,0,3.22,4.83q2.89,1.27,12.08.7,9.78-.58,14.63,2.83t5.53,11.35q.68,7.6-3.9,12.61t-13,5.74a33.9,33.9,0,0,1-6-.07C290.76,218.46,284.12,217.62,279.08,214.74Z"/><path class="cls-3" d="M300.24,232.43h-.07a3.84,3.84,0,0,1-3.88-3.77l-6.1-69.41a3.86,3.86,0,0,1,3.17-4.39h.07a3.84,3.84,0,0,1,3.88,3.76l6.09,69.42A3.84,3.84,0,0,1,300.24,232.43Z"/><path class="cls-19" d="M228.65,498l-87.71-17.77a5.12,5.12,0,0,1-3.78-6.17L162.24,350.2a5.12,5.12,0,0,1,5.88-4.21l87.72,17.77a5.12,5.12,0,0,1,3.78,6.17L234.54,493.75A5.13,5.13,0,0,1,228.65,498Z"/><path class="cls-9" d="M187.63,429.55l-23-4.65a2.74,2.74,0,0,1-2-3.31l4.86-24a2.74,2.74,0,0,1,3.15-2.26l23,4.66a2.73,2.73,0,0,1,2,3.3l-4.86,24A2.74,2.74,0,0,1,187.63,429.55Z"/><path class="cls-9" d="M230,438.13l-23-4.65a2.74,2.74,0,0,1-2-3.31l4.86-24a2.74,2.74,0,0,1,3.15-2.26l23,4.65a2.75,2.75,0,0,1,2,3.31l-4.86,24A2.74,2.74,0,0,1,230,438.13Z"/><path class="cls-9" d="M179.68,468.78l-23-4.65a2.75,2.75,0,0,1-2-3.31l4.86-24a2.74,2.74,0,0,1,3.15-2.26l23,4.65a2.75,2.75,0,0,1,2,3.31l-4.86,24A2.76,2.76,0,0,1,179.68,468.78Z"/><path class="cls-6" d="M222,477.36l-23-4.65a2.75,2.75,0,0,1-2-3.31l4.86-24a2.74,2.74,0,0,1,3.15-2.26l23,4.65a2.75,2.75,0,0,1,2,3.31l-4.87,24A2.74,2.74,0,0,1,222,477.36Z"/><path class="cls-20" d="M180.72,411.61l6.53,1.32a1.39,1.39,0,0,1,.93.63,1.5,1.5,0,0,1,.19,1.12,1.33,1.33,0,0,1-.6.92,1.38,1.38,0,0,1-1.1.18l-6.52-1.32-1.47,7.24a1.71,1.71,0,0,1-.59,1.05A1.2,1.2,0,0,1,177,423a1.23,1.23,0,0,1-.85-.65,1.62,1.62,0,0,1-.19-1.16l1.47-7.24L171,412.61a1.47,1.47,0,0,1-.95-.6,1.36,1.36,0,0,1-.21-1.09,1.5,1.5,0,0,1,.64-.93,1.38,1.38,0,0,1,1.1-.24l6.49,1.31,1.46-7.21a1.62,1.62,0,0,1,.6-1.05,1.28,1.28,0,0,1,1.06-.23,1.22,1.22,0,0,1,.88.63,1.67,1.67,0,0,1,.14,1.19Z"/><path class="cls-20" d="M213.72,421.74a.7.7,0,0,1-.51-.36,1,1,0,0,1-.08-.71l.42-2a.82.82,0,0,1,.32-.54.78.78,0,0,1,.61-.1l14.9,3a1,1,0,0,1,.6.34.76.76,0,0,1,.12.63l-.41,2a.91.91,0,0,1-.4.57.83.83,0,0,1-.67.15Z"/><path class="cls-20" d="M206.66,455.42a.76.76,0,0,1-.52-.35,1,1,0,0,1-.07-.71l.41-2.05a.84.84,0,0,1,.33-.54.77.77,0,0,1,.61-.09l14.89,3a1,1,0,0,1,.61.35.77.77,0,0,1,.11.62l-.41,2a.91.91,0,0,1-.4.57.86.86,0,0,1-.66.16Z"/><path class="cls-20" d="M205.14,462.92a.74.74,0,0,1-.52-.36,1,1,0,0,1-.07-.71l.41-2a.79.79,0,0,1,.33-.54.77.77,0,0,1,.61-.1l14.9,3a1,1,0,0,1,.6.34.8.8,0,0,1,.12.63l-.42,2a.91.91,0,0,1-.4.57.81.81,0,0,1-.66.15Z"/><path class="cls-20" d="M163.48,451.32A.72.72,0,0,1,163,451a1,1,0,0,1-.07-.71l.41-2a.82.82,0,0,1,.32-.54.78.78,0,0,1,.61-.1l14.9,3a.89.89,0,0,1,.6.34.76.76,0,0,1,.12.63l-.41,2a.9.9,0,0,1-.4.58.83.83,0,0,1-.67.15Z"/><path class="cls-20" d="M174.28,446.54a2,2,0,1,1-3.87-.78,2,2,0,1,1,3.87.78Z"/><path class="cls-20" d="M172.33,456.16a2,2,0,1,1-3.87-.78,2,2,0,1,1,3.87.78Z"/><rect class="cls-3" x="198.48" y="338.51" width="18.93" height="80.65" transform="translate(-204.63 507.42) rotate(-78.55)"/><path class="cls-4" d="M790.24,653.73a5.26,5.26,0,0,1,4.75-2,5.41,5.41,0,0,1,4,3,10.46,10.46,0,0,1,.68,3.42c.5,6,.45,20.32-7.57,22.38-3.37.86-6.16-1.53-7.06-4.56C783.68,671.38,785.68,658.75,790.24,653.73Z"/><path class="cls-5" d="M787.39,562.88l.42,36.73c-.49,16.32,2.05,32.73,1.57,49-.12,3.75-1.09,7.71-.15,11.43s3.88,4.28,6.92,2.44c4.06-2.47,3.41-8.23,4.08-12.44,1.86-11.55,4-23.05,6-34.59.95-5.66-1-13.59-.59-19.31l5.94-30.79Z"/><polygon class="cls-6" points="829.36 503.53 813.37 574.54 809.97 641.61 784.62 641.04 777.73 453.45 826.87 454.34 829.36 503.53"/><path class="cls-4" d="M754,652.4a5.12,5.12,0,0,1,4.82-1.76,5.46,5.46,0,0,1,3.85,3.24,10.14,10.14,0,0,1,.53,3.46c.24,6.06-.41,20.37-8.5,21.95-3.39.67-6.07-1.89-6.84-5C746.68,669.67,749.23,657.15,754,652.4Z"/><path class="cls-5" d="M767.34,568l-2.15,36.67c-.18,10.19-1.53,20.3-2.59,30.43-1,9.4.55,19.19-4.37,27.75-1.54,2.68-4.65,4.46-6.83,1.2-1.68-2.51-.68-6.7-1-9.54-1.32-11.63-2.95-23.22-4.35-34.84-.68-5.69,1.65-13.52,1.49-19.26l-4.47-31Z"/><polygon class="cls-6" points="735.26 499.19 733.2 568.12 744.02 637.83 769.8 638.61 768.66 563.16 782.31 500.59 786.89 459.64 745.98 454.81 735.26 499.19"/><polygon class="cls-17" points="767.63 313.73 811.71 312.68 837.27 360.21 828.18 404.73 826.57 458.01 763.69 458.87 743 455.51 748.49 398.58 745.34 322.54 767.63 313.73"/><polygon class="cls-5" points="815.96 427 816.2 434.43 803.08 439.21 795.51 433.48 795.51 424.82 802.81 424.42 803.04 422.51 805.43 420.98 815.96 427"/><polygon class="cls-5" points="682.18 381.25 678.9 387.92 665.07 385.97 661.09 377.35 665.15 369.71 671.79 372.79 672.89 371.21 675.72 370.98 682.18 381.25"/><polygon class="cls-17" points="813.17 315.96 861.99 372.12 864.38 396.72 816.22 434.73 807.58 422.23 838.73 388.98 808.56 359.44 813.17 315.96"/><polygon class="cls-17" points="766.04 342.53 743.08 388.43 718.84 395.72 671.64 389.24 677.72 373.74 720.29 370.27 745.34 322.54 766.04 342.53"/><path class="cls-5" d="M770.39,276.8c6.64-19.32,32.15-12.08,37.41,5.12,3.43,11.22-5.24,25.79-16.87,29,0,.44-.08.85-.09,1.2a37.62,37.62,0,0,1-.49,5.38c-.1.67-10.28-1.29-11.41-1.51a1.54,1.54,0,0,1-1.06-.52c-.41-.64.26-2.52.33-3.23l.27-2.51c-5.74-2.8-9.36-8.76-10.37-14.83S768.39,282.6,770.39,276.8Z"/><path class="cls-6" d="M787,259.34a10.17,10.17,0,0,1,2.3,5.19,8.1,8.1,0,0,1,.2,3.35c-.95,4.39-5.3,4.16-8.66,5.57a22.5,22.5,0,0,0-10,8.65c-3.64,5.79-2,13.24-.53,19.62.52,2.25,1.57,5.6-.18,7.61s-5.87,1.72-8,.67c-1.94-1-3.53-2.73-5.67-3.09s-5.3.62-6.35-1.45a13.53,13.53,0,0,0-.69-1.81c-1.24-1.78-4.34.31-6.1-.95-1.08-.77-1.07-2.42-.7-3.72s1-2.62.72-4a13.09,13.09,0,0,0-1.55-3.08,6.07,6.07,0,0,1,.84-6.44c2.78-3.21,8.15-2.6,11.13-5.62,1.55-1.58,2.15-3.85,2.73-6s1.27-4.41,2.92-5.87c2.05-1.8,5-1.49,7-3.63,1.18-1.25,2-2.89,3.31-4,1.75-1.43,5.18-2.54,7.37-3.27A9.56,9.56,0,0,1,787,259.34Z"/><path class="cls-6" d="M803.16,290.17c.12,6.36-3,13.23-.11,18.83s10.33,6.67,16.61,7c1,.05,14.29,1.2,14.34,1,1-4.43,2-9,4.34-12.84s6.18-7.11,10.61-7.39c-1.27-.22-1.92-1.79-1.77-3.11a20.5,20.5,0,0,1,1.23-3.77,8.92,8.92,0,0,0-2.33-8.95c-4.69-4.37-13.19-2.55-17.21-7.57-2.49-3.11-2.19-7.63-3.5-11.43-2.53-7.35-10.57-8.88-16.58-12.2-6.35-3.5-12.33-5.42-19.65-4.2-9.08,1.51-15.83,10.75-12.33,19.46,4.49,11.15,22.45,10.19,25.81,21.52A13.91,13.91,0,0,1,803.16,290.17Z"/><polygon class="cls-21" points="798.67 313.48 785 332.81 778.57 332.28 767.85 312.68 798.67 313.48"/><circle class="cls-4" cx="730.53" cy="408.17" r="57.77" transform="translate(-74.66 636.11) rotate(-45)"/><path class="cls-8" d="M724.64,345.48a63,63,0,1,0,68.59,56.81A63,63,0,0,0,724.64,345.48Zm10.79,114.86a52.39,52.39,0,1,1,47.26-57.06A52.4,52.4,0,0,1,735.43,460.34Z"/><path class="cls-9" d="M724,339a69.43,69.43,0,1,0,75.62,62.64A69.44,69.44,0,0,0,724,339Zm11.89,126.65a57.77,57.77,0,1,1,52.12-62.92A57.77,57.77,0,0,1,735.93,465.69Z"/><path class="cls-3" d="M713.36,427.2c-.75-.43-1-1.44-1.22-2.36a3.68,3.68,0,0,1,3-4.74c3.48-.73,7.31,1.62,10.64,2.86a20,20,0,0,0,8.85,1.11,12.69,12.69,0,0,0,7.94-3.19,8,8,0,0,0,2.5-6.78c-.24-2.73-1.24-4.59-3-5.6s-4.62-1.34-8.62-1l-2.63.23q-9.8.86-15.29-2.78t-6.17-11.41q-.68-7.6,4-12.25t13.71-5.44a24.45,24.45,0,0,1,7.64.58c5.48,1.25,14.66,4.78,13.26,10.23-1.6,6.22-11.67-1.7-15.07-2.82a17,17,0,0,0-6.88-.64,10.77,10.77,0,0,0-7.06,3,7.71,7.71,0,0,0-2.22,6.32A5.47,5.47,0,0,0,720,397.5q3,1.31,12.35.71,10-.58,15,2.9t5.66,11.6q.69,7.77-4,12.88t-13.32,5.87a34.41,34.41,0,0,1-6.14-.07C725.3,431,718.52,430.15,713.36,427.2Z"/><path class="cls-3" d="M735,445.28h-.07a3.93,3.93,0,0,1-4-3.85l-6.23-70.95A3.94,3.94,0,0,1,728,366H728a3.92,3.92,0,0,1,4,3.84l6.23,71A3.92,3.92,0,0,1,735,445.28Z"/><circle class="cls-4" cx="728.53" cy="408.17" r="57.77" transform="translate(-75.24 634.7) rotate(-45)"/><path class="cls-8" d="M722.64,345.48a63,63,0,1,0,68.59,56.81A63,63,0,0,0,722.64,345.48Zm10.79,114.86a52.39,52.39,0,1,1,47.26-57.06A52.4,52.4,0,0,1,733.43,460.34Z"/><path class="cls-9" d="M722,339a69.43,69.43,0,1,0,75.62,62.64A69.44,69.44,0,0,0,722,339Zm11.89,126.65a57.77,57.77,0,1,1,52.12-62.92A57.77,57.77,0,0,1,733.93,465.69Z"/><path class="cls-22" d="M725.37,447.24l-27.12-23a1.05,1.05,0,0,1-.38-.82V377.09a.66.66,0,0,1,0-.2,1.08,1.08,0,0,1,.17-.43,1.22,1.22,0,0,1,.33-.31,1.14,1.14,0,0,1,.35-.13,1.54,1.54,0,0,1,.37,0,1.2,1.2,0,0,1,.42.17,1,1,0,0,1,.32.34,1.42,1.42,0,0,1,.08.18l17.88,45.69H734l17.16-45.68a.82.82,0,0,1,.09-.19,1.18,1.18,0,0,1,.3-.33A1,1,0,0,1,752,376a.73.73,0,0,1,.36,0,.82.82,0,0,1,.35.13,1,1,0,0,1,.34.31,1.2,1.2,0,0,1,.17.42.74.74,0,0,1,0,.21v46.36a1.06,1.06,0,0,1-.36.8l-26.06,23Zm-6.74-22.73,7.41,19,7.12-19Zm-16.81,0,21.72,18.4-7.19-18.4Zm33.61,0-6.88,18.31,20.76-18.31Zm.8-2.12h14.83V382.9Zm-36.24,0h15.53L700,382.69Z"/><circle class="cls-4" cx="467.53" cy="329.17" r="57.77" transform="translate(-95.83 427) rotate(-45)"/><path class="cls-8" d="M461.64,266.48a63,63,0,1,0,68.59,56.81A63,63,0,0,0,461.64,266.48Zm10.79,114.86a52.39,52.39,0,1,1,47.26-57.06A52.4,52.4,0,0,1,472.43,381.34Z"/><path class="cls-9" d="M461,260a69.43,69.43,0,1,0,75.62,62.64A69.44,69.44,0,0,0,461,260Zm11.89,126.65a57.77,57.77,0,1,1,52.12-62.92A57.77,57.77,0,0,1,472.93,386.69Z"/><path class="cls-22" d="M464.37,368.24l-27.12-23a1.05,1.05,0,0,1-.38-.82V298.09a.66.66,0,0,1,0-.2,1.08,1.08,0,0,1,.17-.43,1.22,1.22,0,0,1,.33-.31,1.14,1.14,0,0,1,.35-.13,1.54,1.54,0,0,1,.37,0,1.2,1.2,0,0,1,.42.17,1,1,0,0,1,.32.34,1.42,1.42,0,0,1,.08.18l17.88,45.69H473l17.16-45.68a.82.82,0,0,1,.09-.19,1.18,1.18,0,0,1,.3-.33A1,1,0,0,1,491,297a.73.73,0,0,1,.36,0,.82.82,0,0,1,.35.13,1,1,0,0,1,.34.31,1.2,1.2,0,0,1,.17.42.74.74,0,0,1,0,.21v46.36a1.06,1.06,0,0,1-.36.8l-26.06,23Zm-6.74-22.73,7.41,19,7.12-19Zm-16.81,0,21.72,18.4-7.19-18.4Zm33.61,0-6.88,18.31,20.76-18.31Zm.8-2.12h14.83V303.9Zm-36.24,0h15.53L439,303.69Z"/><circle class="cls-4" cx="298.53" cy="196.17" r="57.77" transform="translate(-51.28 268.55) rotate(-45)"/><path class="cls-8" d="M292.64,133.48a63,63,0,1,0,68.59,56.81A63,63,0,0,0,292.64,133.48Zm10.79,114.86a52.39,52.39,0,1,1,47.26-57.06A52.4,52.4,0,0,1,303.43,248.34Z"/><path class="cls-9" d="M292,127a69.43,69.43,0,1,0,75.62,62.64A69.44,69.44,0,0,0,292,127Zm11.89,126.65a57.77,57.77,0,1,1,52.12-62.92A57.77,57.77,0,0,1,303.93,253.69Z"/><path class="cls-22" d="M295.37,235.24l-27.12-23a1.05,1.05,0,0,1-.38-.82V165.09a.66.66,0,0,1,0-.2,1.08,1.08,0,0,1,.17-.43,1.22,1.22,0,0,1,.33-.31,1.14,1.14,0,0,1,.35-.13,1.54,1.54,0,0,1,.37,0,1.2,1.2,0,0,1,.42.17,1,1,0,0,1,.32.34,1.42,1.42,0,0,1,.08.18l17.88,45.69H304l17.16-45.68a.82.82,0,0,1,.09-.19,1.18,1.18,0,0,1,.3-.33A1,1,0,0,1,322,164a.73.73,0,0,1,.36,0,.82.82,0,0,1,.35.13,1,1,0,0,1,.34.31,1.2,1.2,0,0,1,.17.42.74.74,0,0,1,0,.21v46.36a1.06,1.06,0,0,1-.36.8l-26.06,23Zm-6.74-22.73,7.41,19,7.12-19Zm-16.81,0,21.72,18.4-7.19-18.4Zm33.61,0-6.88,18.31,20.76-18.31Zm.8-2.12h14.83V170.9Zm-36.24,0h15.53L270,170.69Z"/><path class="cls-23" d="M673.28,192.35l-24.9-11.83a.85.85,0,0,1-.45-.54l-9.21-34.75a.8.8,0,0,1,0-.15.82.82,0,0,1,0-.35,1,1,0,0,1,.19-.3.81.81,0,0,1,.24-.17.92.92,0,0,1,.27-.08.83.83,0,0,1,.35,0,.84.84,0,0,1,.31.19l.1.11,22.47,30.7L674.77,172l3.79-37.65a.9.9,0,0,1,0-.16.92.92,0,0,1,.16-.31,1.06,1.06,0,0,1,.29-.22.89.89,0,0,1,.28-.07.67.67,0,0,1,.28,0,.76.76,0,0,1,.32.17.74.74,0,0,1,.21.28.88.88,0,0,1,0,.15L689.4,169a.83.83,0,0,1-.12.67l-15,22.4Zm-9.58-15.7L673,189.39l1.57-15.62ZM651.11,180,671,189.47l-9-12.36Zm25.19-6.67-1.52,15.09,11.93-17.85Zm.17-1.75,11.12-2.95L679.75,139Zm-27.16,7.2L661,175.68,641.42,149Z"/><circle class="cls-4" cx="951.53" cy="190.17" r="57.77" transform="translate(144.22 728.53) rotate(-45)"/><path class="cls-8" d="M945.64,127.48a63,63,0,1,0,68.59,56.81A63,63,0,0,0,945.64,127.48Zm10.79,114.86a52.39,52.39,0,1,1,47.26-57.06A52.4,52.4,0,0,1,956.43,242.34Z"/><path class="cls-9" d="M945,121a69.43,69.43,0,1,0,75.62,62.64A69.44,69.44,0,0,0,945,121Zm11.89,126.65a57.77,57.77,0,1,1,52.12-62.92A57.77,57.77,0,0,1,956.93,247.69Z"/><path class="cls-22" d="M948.37,229.24l-27.12-23a1.05,1.05,0,0,1-.38-.82V159.09a.66.66,0,0,1,0-.2,1.08,1.08,0,0,1,.17-.43,1.22,1.22,0,0,1,.33-.31,1.14,1.14,0,0,1,.35-.13,1.54,1.54,0,0,1,.37,0,1.2,1.2,0,0,1,.42.17,1,1,0,0,1,.32.34,1.42,1.42,0,0,1,.08.18l17.88,45.69H957l17.16-45.68a.82.82,0,0,1,.09-.19,1.18,1.18,0,0,1,.3-.33A1,1,0,0,1,975,158a.73.73,0,0,1,.36,0,.82.82,0,0,1,.35.13,1,1,0,0,1,.34.31,1.2,1.2,0,0,1,.17.42.74.74,0,0,1,0,.21v46.36a1.06,1.06,0,0,1-.36.8l-26.06,23Zm-6.74-22.73,7.41,19,7.12-19Zm-16.81,0,21.72,18.4-7.19-18.4Zm33.61,0-6.88,18.31,20.76-18.31Zm.8-2.12h14.83V164.9Zm-36.24,0h15.53L923,164.69Z"/><path class="cls-12" d="M1027,489.5h-.62a2.5,2.5,0,0,0,0,5h.62a2.5,2.5,0,0,0,0-5h-.62a2.5,2.5,0,0,0,0,5h.62a2.5,2.5,0,0,0,0-5Z"/></g></svg>