<svg id="Layer_1" data-name="Layer 1" xmlns="http://www.w3.org/2000/svg" viewBox="0 0 538 486"><defs><style>.cls-1,.cls-2{fill:#fff;}.cls-2{fill-rule:evenodd;}.cls-3,.cls-4{fill:none;stroke:#fff;stroke-miterlimit:10;}.cls-3{stroke-width:14px;}.cls-4{stroke-width:10px;}</style></defs><path class="cls-1" d="M387.14,38v83.93a7.41,7.41,0,0,1-7.35,7.42H119.19a7.37,7.37,0,0,1-7.33-7.42,7.47,7.47,0,0,1,5.78-7.26L377.56,31a7.27,7.27,0,0,1,9.18,4.81A7.61,7.61,0,0,1,387.1,38Zm-14.69,76.51V48.15L166.26,114.52Z"/><path class="cls-1" d="M119.19,114.52H469.34a7.38,7.38,0,0,1,7.34,7.42V396.66a7.35,7.35,0,0,1-7.34,7.37H119.19a7.35,7.35,0,0,1-7.33-7.37V121.94a7.37,7.37,0,0,1,7.33-7.42ZM462,129.36H126.54V389.24H462Z"/><path class="cls-1" d="M395.53,210.29h73.81a7.38,7.38,0,0,1,7.34,7.42v83.18a7.37,7.37,0,0,1-7.34,7.41H395.53a27.13,27.13,0,0,1-19.34-8.12,27.8,27.8,0,0,1-8-19.56V237.94a27.72,27.72,0,0,1,8-19.52,27.18,27.18,0,0,1,19.34-8.13ZM462,225.07H395.53a12.62,12.62,0,0,0-9,3.81,12.87,12.87,0,0,0-3.76,9.06v42.68a12.82,12.82,0,0,0,3.76,9.07,12.63,12.63,0,0,0,9,3.78H462Z"/><path class="cls-2" d="M422.4,271.91a12.61,12.61,0,1,0-12.46-12.63,12.54,12.54,0,0,0,12.46,12.63Z"/><path class="cls-2" d="M217.39,274.15c-.13-.35-.25-.58-.38-1L186.29,231a2,2,0,0,0-.48-.48l-.72-.36a1.46,1.46,0,0,0-.72-.13,1.47,1.47,0,0,0-.73.13l-.73.36c-.11.13-.35.24-.47.48l-30.6,42.22c-.13.13-.13.24-.24.24v.15c-.12.23-.12.35-.25.58l-14.83,68.41v1.09a.6.6,0,0,0,.27.49,2.88,2.88,0,0,0,.83,1L183,374c.14.11.38.11.48.24a2.24,2.24,0,0,0,.86.1,2.75,2.75,0,0,0,.83-.1.91.91,0,0,0,.48-.24l45.07-28.6a3.79,3.79,0,0,0,1.31-1.09,2.46,2.46,0,0,0-.1-2.46ZM224,327.57l-14.81-26.28,5.42-17.15Zm-37.22-87.72,25.54,35.27-6.4,20.34-19.14-33.95Zm-2.41,27.26,19.51,34.79-12.17,38.71H177l-12.18-38.82ZM182,239.85v21.66L162.8,295.57l-6.38-20.45ZM154.24,284l5.42,17.27-14.93,26.54Zm7.34,23.59,10.38,33H143Zm-14.32,37.87h26.26l6.5,20.79Zm37.11,18.37-5.8-18.37h11.58Zm4.34,2.42,6.5-20.79h26.25Zm8.07-25.66,10.35-33.1,18.55,33.1Z"/><path class="cls-2" d="M184.34,176c-68.42,0-123.88,56-123.88,125.11s55.46,125.1,123.88,125.1,123.87-56,123.87-125.1S252.75,176,184.34,176Zm53.29,169.07a9,9,0,0,1-.61,1.71,8.78,8.78,0,0,1-1.81,2.31l-2.41,1.7-44.21,28a8.6,8.6,0,0,1-4.22,1.24h-.12a7.81,7.81,0,0,1-4.23-1.24L134.49,350a9.32,9.32,0,0,1-2.89-3.27,9.21,9.21,0,0,1-.62-1.58,8.76,8.76,0,0,1-.12-3.42.42.42,0,0,0,.12-.35L145.82,273a8.46,8.46,0,0,1,1.44-3.17l30.61-42.21a7.74,7.74,0,0,1,6.38-3.3h.23a7.73,7.73,0,0,1,6.39,3.3l30.59,42.21a8.08,8.08,0,0,1,1.46,3.29l14.82,68.27a4.46,4.46,0,0,1,.13.6A7.42,7.42,0,0,1,237.63,345.11Z"/><rect class="cls-3" x="118.72" y="126.54" width="349.19" height="270.92" rx="26.71"/><path class="cls-4" d="M124.74,126.54,356.91,48.27c14.76,0,20.7,6,20.7,26.72"/></svg>