<?xml version="1.0" encoding="utf-8"?>
<!-- Generator: Adobe Illustrator 21.0.0, SVG Export Plug-In . SVG Version: 6.00 Build 0)  -->
<svg version="1.1" id="Layer_1" xmlns="http://www.w3.org/2000/svg" xmlns:xlink="http://www.w3.org/1999/xlink" x="0px" y="0px"
	 viewBox="0 0 96 92" style="enable-background:new 0 0 96 92;" xml:space="preserve">
<style type="text/css">
	.st0{fill:#7272FA;}
</style>
<g>
	<path class="st0" d="M51.9,44.7c-1.1-0.6-2.3-1.1-3.5-1.6c-0.7-0.3-1.3-0.6-1.9-1.1c-1.1-0.9-0.9-2.4,0.4-2.9
		c0.4-0.2,0.8-0.2,1.2-0.2c1.5-0.1,3,0.2,4.4,0.9c0.7,0.3,0.9,0.2,1.2-0.5c0.2-0.8,0.5-1.5,0.7-2.3c0.2-0.5,0-0.9-0.5-1.1
		c-0.9-0.4-1.8-0.7-2.8-0.8c-1.3-0.2-1.3-0.2-1.3-1.5c0-1.8,0-1.8-1.8-1.8c-0.3,0-0.5,0-0.8,0c-0.8,0-1,0.2-1,1c0,0.4,0,0.7,0,1.1
		c0,1.1,0,1.1-1.1,1.5c-2.6,0.9-4.2,2.7-4.3,5.5c-0.2,2.5,1.1,4.2,3.2,5.4c1.3,0.8,2.7,1.2,4,1.8c0.5,0.2,1,0.5,1.5,0.9
		c1.3,1.1,1,2.8-0.5,3.5c-0.8,0.4-1.7,0.4-2.6,0.3c-1.4-0.2-2.7-0.5-3.9-1.2c-0.7-0.4-0.9-0.3-1.2,0.5c-0.2,0.7-0.4,1.4-0.6,2
		c-0.3,0.9-0.2,1.1,0.7,1.6c1.1,0.5,2.3,0.8,3.5,1c0.9,0.2,1,0.2,1,1.2c0,0.4,0,0.9,0,1.3c0,0.6,0.3,0.9,0.9,0.9c0.7,0,1.3,0,2,0
		c0.5,0,0.8-0.3,0.8-0.8c0-0.6,0-1.2,0-1.8c0-0.6,0.2-0.9,0.8-1.1c1.4-0.4,2.5-1.1,3.4-2.2C56.4,51.1,55.5,46.7,51.9,44.7z"/>
</g>
</svg>
