<svg xmlns="http://www.w3.org/2000/svg" xmlns:xlink="http://www.w3.org/1999/xlink" viewBox="0 0 131.21 127.15"><defs><style>.cls-1{isolation:isolate;}.cls-2,.cls-3{opacity:0.2;mix-blend-mode:multiply;}.cls-2{fill:url(#radial-gradient);}.cls-4{fill:#c1cdd9;opacity:0;}.cls-5{fill:#c0cbd7;opacity:0.03;}.cls-6{fill:#becad6;opacity:0.06;}.cls-7{fill:#bdc8d4;opacity:0.09;}.cls-8{fill:#bbc7d3;opacity:0.12;}.cls-9{fill:#bac5d1;opacity:0.15;}.cls-10{fill:#b9c4cf;opacity:0.18;}.cls-11{fill:#b7c2ce;opacity:0.21;}.cls-12{fill:#b6c1cc;opacity:0.24;}.cls-13{fill:#b4bfcb;opacity:0.26;}.cls-14{fill:#b3bec9;opacity:0.29;}.cls-15{fill:#b1bcc8;opacity:0.32;}.cls-16{fill:#b0bbc6;opacity:0.35;}.cls-17{fill:#afb9c4;opacity:0.38;}.cls-18{fill:#adb8c3;opacity:0.41;}.cls-19{fill:#acb6c1;opacity:0.44;}.cls-20{fill:#aab5c0;opacity:0.47;}.cls-21{fill:#a9b3be;opacity:0.5;}.cls-22{fill:#a8b2bc;opacity:0.53;}.cls-23{fill:#a6b1bb;opacity:0.56;}.cls-24{fill:#a5afb9;opacity:0.59;}.cls-25{fill:#a3aeb8;opacity:0.62;}.cls-26{fill:#a2acb6;opacity:0.65;}.cls-27{fill:#a1abb4;opacity:0.68;}.cls-28{fill:#9fa9b3;opacity:0.71;}.cls-29{fill:#9ea8b1;opacity:0.74;}.cls-30{fill:#9ca6b0;opacity:0.76;}.cls-31{fill:#9ba5ae;opacity:0.79;}.cls-32{fill:#99a3ad;opacity:0.82;}.cls-33{fill:#98a2ab;opacity:0.85;}.cls-34{fill:#97a0a9;opacity:0.88;}.cls-35{fill:#959fa8;opacity:0.91;}.cls-36{fill:#949da6;opacity:0.94;}.cls-37{fill:#929ca5;opacity:0.97;}.cls-38{fill:#919aa3;}.cls-39{fill:#5f5f5f;}</style><radialGradient id="radial-gradient" cx="59.11" cy="648.09" r="53.88" gradientTransform="translate(0 -159.79) scale(1 0.38)" gradientUnits="userSpaceOnUse"><stop offset="0" stop-color="#6e757d"/><stop offset="0.2" stop-color="#969ba1"/><stop offset="0.45" stop-color="#c3c6c9"/><stop offset="0.68" stop-color="#e4e5e7"/><stop offset="0.87" stop-color="#f8f8f9"/><stop offset="1" stop-color="#fff"/></radialGradient></defs><title>Artboard 6 copystex7</title><g class="cls-1"><g id="Ñëîé_1" data-name="Ñëîé 1"><g id="_5" data-name="5"><ellipse class="cls-2" cx="59.11" cy="88.89" rx="53.88" ry="20.67"/><g class="cls-3"><path class="cls-4" d="M78.77,95.88,38,105.37a1.59,1.59,0,0,1-1.13-.15L10.19,91a1.63,1.63,0,0,1,.41-3L50,79.3a1.59,1.59,0,0,1,1,.12l28,13.42A1.62,1.62,0,0,1,78.77,95.88Z"/><path class="cls-5" d="M50.93,79.38a1.66,1.66,0,0,1,1,.14L80.11,93a1.6,1.6,0,0,1-.44,3L38.9,105.46a1.64,1.64,0,0,1-1.13-.13L11,91a1.6,1.6,0,0,1,.51-2.94Z"/><path class="cls-6" d="M51.83,79.47a1.66,1.66,0,0,1,1.05.14L81.11,93.14c1.3.62.87,2.59-.54,2.91l-40.78,9.51a1.67,1.67,0,0,1-1.12-.13L11.72,91.05c-1.25-.67-.76-2.58.62-2.88Z"/><path class="cls-7" d="M52.73,79.55a1.75,1.75,0,0,1,1.05.16L82.12,93.29c1.26.6.71,2.53-.65,2.85l-40.78,9.51a1.75,1.75,0,0,1-1.13-.11L12.49,91.08c-1.21-.65-.61-2.53.73-2.82Z"/><path class="cls-8" d="M53.62,79.64a1.88,1.88,0,0,1,1.05.16L83.12,93.43c1.22.59.57,2.49-.75,2.79l-40.79,9.53a1.82,1.82,0,0,1-1.13-.1L13.26,91.11c-1.17-.63-.47-2.48.83-2.76Z"/><path class="cls-9" d="M54.52,79.72a1.91,1.91,0,0,1,1,.18L84.13,93.58c1.18.56.41,2.43-.86,2.73l-40.8,9.53a1.79,1.79,0,0,1-1.12-.09L14,91.13c-1.13-.6-.32-2.42.93-2.69Z"/><path class="cls-10" d="M55.42,79.81a1.93,1.93,0,0,1,1,.19L85.13,93.73c1.14.54.27,2.38-1,2.66l-40.81,9.55a1.94,1.94,0,0,1-1.12-.08L14.8,91.16c-1.1-.58-.18-2.37,1-2.63Z"/><path class="cls-11" d="M56.32,79.89a2.14,2.14,0,0,1,1,.2L86.14,93.87c1.09.53.11,2.33-1.07,2.61L44.26,106a2.06,2.06,0,0,1-1.13-.06L15.57,91.19c-1.06-.56,0-2.31,1.13-2.57Z"/><path class="cls-12" d="M57.22,80a2.15,2.15,0,0,1,1.05.21L87.14,94c1.06.51,0,2.28-1.17,2.54l-40.82,9.56a2.06,2.06,0,0,1-1.13-.05L16.33,91.22c-1-.55.12-2.26,1.25-2.51Z"/><path class="cls-13" d="M58.12,80.06a2.28,2.28,0,0,1,1.05.22l29,13.89c1,.48-.18,2.22-1.28,2.48L46,106.22a2.23,2.23,0,0,1-1.12,0L17.1,91.24c-1-.52.27-2.2,1.35-2.44Z"/><path class="cls-14" d="M59,80.14a2.48,2.48,0,0,1,1.06.24L89.15,94.31c1,.47-.33,2.18-1.38,2.42l-40.84,9.58a2.23,2.23,0,0,1-1.12,0l-27.94-15c-.94-.5.41-2.15,1.45-2.38Z"/><path class="cls-15" d="M59.91,80.23a2.5,2.5,0,0,1,1.06.25l29.19,14c.93.45-.48,2.12-1.49,2.36l-40.84,9.59a2.27,2.27,0,0,1-1.13,0L18.64,91.3c-.9-.48.56-2.1,1.55-2.32Z"/><path class="cls-16" d="M60.81,80.31a2.71,2.71,0,0,1,1.06.26l29.29,14c.9.42-.63,2.07-1.59,2.29l-40.85,9.6a2.36,2.36,0,0,1-1.12,0L19.41,91.33c-.86-.46.7-2,1.65-2.26Z"/><path class="cls-17" d="M61.71,80.4a2.64,2.64,0,0,1,1,.27L92.17,94.75c.85.41-.78,2-1.7,2.24l-40.86,9.6a2.36,2.36,0,0,1-1.12,0L20.18,91.35c-.83-.43.85-2,1.76-2.19Z"/><path class="cls-18" d="M62.61,80.48a2.85,2.85,0,0,1,1,.29L93.17,94.9c.81.39-.92,2-1.8,2.17l-40.86,9.62a2.7,2.7,0,0,1-1.13,0L20.94,91.38c-.78-.42,1-1.94,1.87-2.13Z"/><path class="cls-19" d="M63.51,80.57a2.9,2.9,0,0,1,1.05.29L94.18,95.05c.77.37-1.08,1.91-1.91,2.11L51.4,106.78a2.84,2.84,0,0,1-1.12,0L21.71,91.41c-.74-.4,1.15-1.89,2-2.07Z"/><path class="cls-20" d="M64.4,80.65a3.14,3.14,0,0,1,1.06.31L95.18,95.19c.73.35-1.22,1.87-2,2l-40.88,9.64a3,3,0,0,1-1.12,0L22.48,91.44c-.7-.38,1.29-1.83,2.07-2Z"/><path class="cls-21" d="M65.3,80.74a3.68,3.68,0,0,1,1.06.31L96.19,95.34c.69.33-1.38,1.81-2.12,2L53.18,107a3,3,0,0,1-1.12.06L23.25,91.46c-.67-.35,1.44-1.77,2.17-1.94Z"/><path class="cls-22" d="M66.2,80.82a4.07,4.07,0,0,1,1.06.33L97.19,95.49c.65.31-1.52,1.76-2.22,1.92l-40.89,9.65a3.34,3.34,0,0,1-1.13.08L24,91.49c-.63-.33,1.58-1.72,2.27-1.88Z"/><path class="cls-23" d="M67.1,80.91a3.85,3.85,0,0,1,1.06.34l30,14.38c.61.3-1.66,1.71-2.32,1.87L55,107.16a3.57,3.57,0,0,1-1.12.08L24.79,91.52c-.59-.31,1.73-1.67,2.38-1.81Z"/><path class="cls-24" d="M68,81a4.87,4.87,0,0,1,1.06.35L99.2,95.78c.57.27-1.82,1.66-2.43,1.8l-40.91,9.67a3.93,3.93,0,0,1-1.12.1L25.55,91.55c-.54-.3,1.88-1.62,2.49-1.75Z"/><path class="cls-25" d="M68.9,81.08a4.92,4.92,0,0,1,1.06.36L100.2,95.93c.53.25-2,1.6-2.53,1.74l-40.92,9.68a4.26,4.26,0,0,1-1.12.11L26.32,91.57c-.51-.27,2-1.56,2.59-1.68Z"/><path class="cls-26" d="M69.8,81.16a5.26,5.26,0,0,1,1,.37l30.36,14.55c.49.23-2.12,1.55-2.64,1.67l-40.92,9.69a4.36,4.36,0,0,1-1.12.12l-29.44-16c-.47-.25,2.17-1.51,2.69-1.62Z"/><path class="cls-27" d="M70.69,81.25a5.17,5.17,0,0,1,1.06.38l30.46,14.59c.45.22-2.26,1.5-2.74,1.62l-40.93,9.7a5.5,5.5,0,0,1-1.12.13l-29.56-16c-.43-.23,2.32-1.46,2.79-1.56Z"/><path class="cls-28" d="M71.59,81.33a5.91,5.91,0,0,1,1.06.4l30.57,14.64c.4.19-2.42,1.45-2.85,1.55l-40.94,9.71a4.84,4.84,0,0,1-1.12.14L28.63,91.66c-.39-.21,2.46-1.41,2.9-1.5Z"/><path class="cls-29" d="M72.49,81.42a6.21,6.21,0,0,1,1.06.4l30.67,14.7c.37.17-2.56,1.39-3,1.49l-40.95,9.71a5.41,5.41,0,0,1-1.11.16L29.4,91.68c-.36-.18,2.61-1.35,3-1.43Z"/><path class="cls-30" d="M73.39,81.5a7.78,7.78,0,0,1,1.06.42l30.78,14.74c.32.16-2.71,1.35-3.06,1.43l-40.95,9.73a7.41,7.41,0,0,1-1.12.17L30.16,91.71c-.31-.17,2.76-1.29,3.11-1.37Z"/><path class="cls-31" d="M74.29,81.58a9.51,9.51,0,0,1,1.06.44l30.88,14.79c.29.14-2.86,1.29-3.16,1.37l-41,9.73a7.45,7.45,0,0,1-1.12.18L30.93,91.74c-.27-.15,2.91-1.24,3.21-1.31Z"/><path class="cls-32" d="M75.19,81.67c.06,0,1,.41,1.06.44l31,14.85c.24.11-3,1.24-3.27,1.3L63,108a11.21,11.21,0,0,1-1.11.19L31.7,91.77c-.23-.13,3.05-1.19,3.31-1.25Z"/><path class="cls-33" d="M76.08,81.75a11.12,11.12,0,0,1,1.07.46L108.24,97.1a23.07,23.07,0,0,1-3.38,1.25l-41,9.75s-1.06.23-1.11.21L32.47,91.79a23.57,23.57,0,0,1,3.42-1.18Z"/><path class="cls-34" d="M77,81.84s1,.45,1.07.46l31.2,15a30.73,30.73,0,0,1-3.49,1.18l-41,9.76c-.05,0-1.08.24-1.12.22L33.24,91.82a32.11,32.11,0,0,1,3.52-1.12Z"/><path class="cls-35" d="M77.88,81.92s1,.47,1.06.48l31.31,15c.12.06-3.45,1.08-3.59,1.12l-41,9.77s-1.09.24-1.12.23L34,91.85c-.12-.06,3.49-1,3.62-1.06Z"/><path class="cls-36" d="M78.78,82s1,.48,1.06.49l31.42,15c.08,0-3.61,1-3.7,1.06l-41,9.78s-1.09.26-1.11.24L34.77,91.88c-.07,0,3.64-1,3.73-1Z"/><path class="cls-37" d="M79.68,82.09l1.06.5,31.52,15.1s-3.75,1-3.8,1l-41,9.79s-1.1.26-1.11.25L35.54,91.9S39.33,91,39.37,91Z"/><polygon class="cls-38" points="113.27 97.84 67.24 108.84 36.31 91.93 80.58 82.18 113.27 97.84"/></g><path class="cls-39" d="M80.4,82.59a.25.25,0,0,1-.25-.25l0-3a.25.25,0,0,1,.25-.25h0a.25.25,0,0,1,.25.25l0,3a.25.25,0,0,1-.25.25Zm0-6a.25.25,0,0,1-.25-.25l0-3a.25.25,0,0,1,.24-.25h0a.26.26,0,0,1,.26.25l0,3a.25.25,0,0,1-.25.25Zm0-6a.25.25,0,0,1-.25-.25l0-3a.25.25,0,0,1,.25-.25h0a.25.25,0,0,1,.25.25l0,3a.25.25,0,0,1-.24.25Zm0-6a.25.25,0,0,1-.25-.24l0-3a.25.25,0,0,1,.24-.26h0a.25.25,0,0,1,.25.25l0,3a.25.25,0,0,1-.25.25Zm0-6a.26.26,0,0,1-.25-.24l0-3a.26.26,0,0,1,.25-.26h0a.25.25,0,0,1,.25.25l0,3a.24.24,0,0,1-.24.25Zm0-6a.25.25,0,0,1-.25-.24l0-3a.26.26,0,0,1,.25-.26h0a.25.25,0,0,1,.25.25l0,3a.25.25,0,0,1-.25.25Zm0-6a.25.25,0,0,1-.25-.24l0-3a.26.26,0,0,1,.25-.26h0a.25.25,0,0,1,.25.25l0,3a.25.25,0,0,1-.25.25Zm0-6a.25.25,0,0,1-.25-.24l0-3a.26.26,0,0,1,.25-.26h0a.25.25,0,0,1,.25.25l0,3a.25.25,0,0,1-.25.25Zm0-6a.25.25,0,0,1-.25-.24l0-3a.24.24,0,0,1,.24-.25h0a.26.26,0,0,1,.25.25l0,3a.25.25,0,0,1-.25.25Z"/><path class="cls-39" d="M66.43,108.49a.27.27,0,0,1-.12,0l-2.65-1.41a.25.25,0,0,1-.1-.34.24.24,0,0,1,.34-.1L66.54,108a.25.25,0,0,1-.11.47Zm2.83,0a.26.26,0,0,1-.24-.19.25.25,0,0,1,.19-.3l2.92-.68a.24.24,0,0,1,.3.19.25.25,0,0,1-.19.3l-2.92.68Zm5.85-1.36a.26.26,0,0,1-.25-.19.25.25,0,0,1,.19-.3l2.92-.68a.25.25,0,0,1,.3.19.26.26,0,0,1-.18.3l-2.93.68ZM81,105.73a.25.25,0,0,1-.06-.49l2.93-.68a.25.25,0,0,1,.3.19.26.26,0,0,1-.19.3l-2.92.68Zm-19.82-.07-.12,0-2.64-1.41a.25.25,0,0,1,.23-.45l2.65,1.41a.25.25,0,0,1,.1.34A.23.23,0,0,1,61.13,105.66Zm25.66-1.29a.26.26,0,0,1-.24-.19.25.25,0,0,1,.19-.3l2.92-.68a.24.24,0,0,1,.3.19.25.25,0,0,1-.19.3l-2.92.68ZM92.64,103a.26.26,0,0,1-.25-.19.25.25,0,0,1,.19-.3l2.92-.68a.25.25,0,0,1,.3.19.26.26,0,0,1-.18.3l-2.93.68Zm-36.8-.17a.27.27,0,0,1-.12,0l-2.65-1.41a.24.24,0,0,1-.1-.34.25.25,0,0,1,.34-.1L56,102.37a.25.25,0,0,1,.11.34A.24.24,0,0,1,55.84,102.84Zm42.64-1.19a.26.26,0,0,1-.24-.19.25.25,0,0,1,.19-.3l2.92-.68a.24.24,0,0,1,.3.19.25.25,0,0,1-.19.3l-2.92.68Zm5.85-1.36a.26.26,0,0,1-.25-.19.25.25,0,0,1,.19-.3l2.92-.68a.25.25,0,0,1,.3.19.25.25,0,0,1-.19.3l-2.92.68ZM50.54,100a.27.27,0,0,1-.12,0l-2.64-1.41a.25.25,0,0,1-.11-.34.26.26,0,0,1,.34-.1l2.65,1.41a.25.25,0,0,1-.12.47Zm59.63-1.09a.25.25,0,0,1-.24-.19.24.24,0,0,1,.18-.3l2.23-.52-1.07-.51a.26.26,0,0,1-.11-.34.25.25,0,0,1,.33-.11l1.71.82a.23.23,0,0,1,.14.25.26.26,0,0,1-.19.22l-2.92.68ZM45.25,97.2a.27.27,0,0,1-.12,0l-2.65-1.41a.25.25,0,0,1-.1-.34.26.26,0,0,1,.34-.1l2.64,1.41a.26.26,0,0,1,.11.34A.27.27,0,0,1,45.25,97.2Zm63.43-1.06a.2.2,0,0,1-.11,0l-2.71-1.29a.27.27,0,0,1-.12-.34.26.26,0,0,1,.34-.11l2.7,1.29a.25.25,0,0,1,.12.34A.26.26,0,0,1,108.68,96.14ZM40,94.38a.27.27,0,0,1-.12,0l-2.64-1.41a.25.25,0,0,1-.11-.34.25.25,0,0,1,.34-.1l2.65,1.41a.24.24,0,0,1,.1.33A.24.24,0,0,1,40,94.38Zm63.32-.83a.2.2,0,0,1-.11,0l-2.71-1.3a.25.25,0,0,1-.12-.33.26.26,0,0,1,.34-.12l2.7,1.3a.24.24,0,0,1,.12.33A.25.25,0,0,1,103.27,93.55ZM37.78,92a.26.26,0,0,1-.25-.19.25.25,0,0,1,.19-.3l2.93-.65A.26.26,0,0,1,41,91a.25.25,0,0,1-.19.3L37.83,92Zm60.07-1-.1,0L95,89.63a.25.25,0,1,1,.22-.45l2.7,1.3a.25.25,0,0,1-.11.47Zm-54.21-.26a.26.26,0,0,1-.25-.19.25.25,0,0,1,.19-.3l2.93-.65a.25.25,0,0,1,.11.49l-2.93.65Zm5.85-1.29a.25.25,0,0,1-.05-.49l2.93-.65a.25.25,0,0,1,.11.49l-2.93.65Zm42.95-1-.11,0L89.63,87a.24.24,0,0,1-.12-.33.25.25,0,0,1,.34-.12l2.7,1.3a.24.24,0,0,1,.12.33A.24.24,0,0,1,92.44,88.36Zm-37.09-.25a.25.25,0,0,1-.24-.2.25.25,0,0,1,.19-.29L58.23,87a.25.25,0,0,1,.11.49l-2.93.65Zm5.86-1.29a.25.25,0,0,1-.24-.2.24.24,0,0,1,.19-.29l2.93-.65a.25.25,0,0,1,.11.49l-2.93.64Zm25.82-1a.23.23,0,0,1-.11,0l-2.7-1.29a.25.25,0,0,1-.12-.34.25.25,0,0,1,.33-.11l2.71,1.29a.26.26,0,0,1,.12.34A.27.27,0,0,1,87,85.77Zm-20-.24a.25.25,0,0,1-.24-.2A.25.25,0,0,1,67,85L70,84.39a.25.25,0,0,1,.3.19.26.26,0,0,1-.19.3l-2.93.64Zm5.86-1.29a.25.25,0,0,1-.24-.2.25.25,0,0,1,.19-.3l2.93-.64a.25.25,0,0,1,.3.19.26.26,0,0,1-.19.3L73,84.23Zm8.69-1.06a.23.23,0,0,1-.11,0l-1.14-.54-1.52.33a.25.25,0,0,1-.3-.19.25.25,0,0,1,.19-.3l1.61-.35a.23.23,0,0,1,.16,0l1.22.58a.25.25,0,0,1,.12.33A.28.28,0,0,1,81.62,83.18Z"/><path class="cls-39" d="M67.24,58.13a.46.46,0,0,1-.23-.06L35.9,41.49a.51.51,0,0,1-.26-.51.49.49,0,0,1,.39-.42l44.26-9.75a.53.53,0,0,1,.33,0L113.31,46.5a.52.52,0,0,1,.28.51.5.5,0,0,1-.39.43L67.36,58.11ZM37.57,41.24,67.31,57.1l44.28-10.31-31.25-15Z"/><path class="cls-39" d="M67.24,109.07A.53.53,0,0,1,67,109L35.9,91.88a.48.48,0,0,1-.26-.43V41.05a.5.5,0,0,1,.24-.43.48.48,0,0,1,.49,0L67.48,57.18a.51.51,0,0,1,.26.45v50.94a.5.5,0,0,1-.24.43A.48.48,0,0,1,67.24,109.07ZM36.64,91.15l30.1,16.57V57.93l-30.1-16Z"/><path class="cls-39" d="M67.24,109.07a.51.51,0,0,1-.31-.11.49.49,0,0,1-.19-.39V57.63a.49.49,0,0,1,.39-.49L113,46.47a.49.49,0,0,1,.42.09.51.51,0,0,1,.19.39V97.47a.51.51,0,0,1-.38.49l-45.85,11.1Zm.5-51v49.91l44.85-10.85V47.58Z"/></g></g></g></svg>