<svg xmlns="http://www.w3.org/2000/svg" xmlns:xlink="http://www.w3.org/1999/xlink" viewBox="0 0 132 127.91"><defs><style>.cls-1{isolation:isolate;}.cls-2,.cls-3{opacity:0.2;mix-blend-mode:multiply;}.cls-2{fill:url(#radial-gradient);}.cls-4{fill:#c1cdd9;opacity:0;}.cls-5{fill:#c0cbd7;opacity:0.03;}.cls-6{fill:#becad6;opacity:0.06;}.cls-7{fill:#bdc8d4;opacity:0.09;}.cls-8{fill:#bbc7d3;opacity:0.12;}.cls-9{fill:#bac5d1;opacity:0.15;}.cls-10{fill:#b9c4cf;opacity:0.18;}.cls-11{fill:#b7c2ce;opacity:0.21;}.cls-12{fill:#b6c1cc;opacity:0.24;}.cls-13{fill:#b4bfcb;opacity:0.26;}.cls-14{fill:#b3bec9;opacity:0.29;}.cls-15{fill:#b1bcc8;opacity:0.32;}.cls-16{fill:#b0bbc6;opacity:0.35;}.cls-17{fill:#afb9c4;opacity:0.38;}.cls-18{fill:#adb8c3;opacity:0.41;}.cls-19{fill:#acb6c1;opacity:0.44;}.cls-20{fill:#aab5c0;opacity:0.47;}.cls-21{fill:#a9b3be;opacity:0.5;}.cls-22{fill:#a8b2bc;opacity:0.53;}.cls-23{fill:#a6b1bb;opacity:0.56;}.cls-24{fill:#a5afb9;opacity:0.59;}.cls-25{fill:#a3aeb8;opacity:0.62;}.cls-26{fill:#a2acb6;opacity:0.65;}.cls-27{fill:#a1abb4;opacity:0.68;}.cls-28{fill:#9fa9b3;opacity:0.71;}.cls-29{fill:#9ea8b1;opacity:0.74;}.cls-30{fill:#9ca6b0;opacity:0.76;}.cls-31{fill:#9ba5ae;opacity:0.79;}.cls-32{fill:#99a3ad;opacity:0.82;}.cls-33{fill:#98a2ab;opacity:0.85;}.cls-34{fill:#97a0a9;opacity:0.88;}.cls-35{fill:#959fa8;opacity:0.91;}.cls-36{fill:#949da6;opacity:0.94;}.cls-37{fill:#929ca5;opacity:0.97;}.cls-38{fill:#919aa3;}.cls-39{fill:#5f5f5f;}</style><radialGradient id="radial-gradient" cx="66.74" cy="650.53" r="53.88" gradientTransform="translate(0 -159.79) scale(1 0.38)" gradientUnits="userSpaceOnUse"><stop offset="0" stop-color="#6e757d"/><stop offset="0.2" stop-color="#969ba1"/><stop offset="0.45" stop-color="#c3c6c9"/><stop offset="0.68" stop-color="#e4e5e7"/><stop offset="0.87" stop-color="#f8f8f9"/><stop offset="1" stop-color="#fff"/></radialGradient></defs><title>Artboard 6stex7</title><g class="cls-1"><g id="Ñëîé_1" data-name="Ñëîé 1"><g id="_4" data-name="4"><g id="_7" data-name="7"><ellipse class="cls-2" cx="66.74" cy="89.82" rx="53.88" ry="20.67"/><g class="cls-3"><path class="cls-4" d="M27.58,102.81,67.94,97a4.19,4.19,0,0,0,1-8L43,78.52a4.08,4.08,0,0,0-2-.28L14.73,81A4.19,4.19,0,0,0,12,87.92l11.81,13.5A4.2,4.2,0,0,0,27.58,102.81Z"/><path class="cls-5" d="M15.65,81.36a4.15,4.15,0,0,0-2.5,6.87l11.73,13.4A4.27,4.27,0,0,0,28.63,103l40.28-5.79c4.11-.59,4.56-6.33.71-7.88L43.9,78.89a4.24,4.24,0,0,0-2-.29Z"/><path class="cls-6" d="M16.58,81.72c-3.18.34-4.4,4.42-2.29,6.82l11.64,13.3a4.36,4.36,0,0,0,3.75,1.27l40.2-5.77c4-.57,4.19-6.24.46-7.75L44.78,79.26a4.47,4.47,0,0,0-2-.3Z"/><path class="cls-7" d="M17.5,82.08c-3.08.33-4.12,4.44-2.08,6.77L27,102.05a4.46,4.46,0,0,0,3.75,1.22L70.86,97.5c3.86-.55,3.81-6.14.19-7.6L45.66,79.64a4.26,4.26,0,0,0-2-.31Z"/><path class="cls-8" d="M18.42,82.45c-3,.31-3.84,4.46-1.86,6.71L28,102.26a4.56,4.56,0,0,0,3.76,1.16l40.05-5.75c3.74-.54,3.43-6-.07-7.47L46.54,80a4.68,4.68,0,0,0-1.95-.32Z"/><path class="cls-9" d="M19.34,82.81c-2.88.3-3.56,4.48-1.65,6.66l11.38,13a4.64,4.64,0,0,0,3.76,1.1l40-5.74c3.61-.52,3-6-.34-7.32L47.41,80.39a4.53,4.53,0,0,0-1.92-.33Z"/><path class="cls-10" d="M20.26,83.17c-2.78.29-3.28,4.51-1.44,6.61l11.3,12.9a4.81,4.81,0,0,0,3.76,1L73.78,98c3.49-.51,2.67-5.86-.59-7.18L48.29,80.76a4.65,4.65,0,0,0-1.91-.34Z"/><path class="cls-11" d="M21.18,83.53c-2.68.28-3,4.53-1.22,6.56l11.2,12.8c.75.85,2.66,1.15,3.77,1l39.83-5.72c3.36-.48,2.29-5.76-.86-7l-24.73-10a4.72,4.72,0,0,0-1.89-.34Z"/><path class="cls-12" d="M22.11,83.89c-2.59.27-2.73,4.56-1,6.51l11.12,12.7c.72.82,2.7,1.09,3.77.93l39.75-5.71c3.24-.46,1.91-5.66-1.12-6.89L50.05,81.51a4.87,4.87,0,0,0-1.88-.36Z"/><path class="cls-13" d="M23,84.25c-2.49.27-2.45,4.58-.8,6.46l11,12.6c.69.79,2.74,1,3.77.88l39.67-5.7c3.12-.45,1.54-5.57-1.38-6.75L50.93,81.88a4.81,4.81,0,0,0-1.86-.36Z"/><path class="cls-14" d="M24,84.62c-2.39.25-2.17,4.6-.59,6.4l11,12.5c.66.76,2.78,1,3.77.82l39.6-5.69c3-.43,1.16-5.48-1.64-6.61L51.81,82.25A5.17,5.17,0,0,0,50,81.88Z"/><path class="cls-15" d="M24.87,85c-2.28.24-1.89,4.62-.37,6.35l10.85,12.4c.64.73,2.83.9,3.78.76l39.52-5.67c2.87-.41.78-5.39-1.9-6.47L52.69,82.63a5.31,5.31,0,0,0-1.83-.39Z"/><path class="cls-16" d="M25.79,85.34c-2.18.23-1.61,4.65-.16,6.3l10.77,12.3c.61.69,2.88.84,3.78.71L79.63,99c2.74-.39.4-5.29-2.17-6.32L53.57,83a5.26,5.26,0,0,0-1.82-.39Z"/><path class="cls-17" d="M26.71,85.7c-2.08.22-1.33,4.67.05,6.25l10.69,12.21c.58.65,2.92.76,3.78.64L80.6,99.15c2.62-.38,0-5.2-2.43-6.19L54.45,83.37a6,6,0,0,0-1.8-.4Z"/><path class="cls-18" d="M27.63,86.06c-2,.21-1.05,4.7.27,6.2l10.6,12.11c.55.62,3,.7,3.78.58l39.3-5.64c2.49-.36-.36-5.1-2.69-6L55.33,83.75a6,6,0,0,0-1.79-.41Z"/><path class="cls-19" d="M28.56,86.42c-1.89.2-.78,4.72.47,6.15l10.51,12c.52.59,3,.64,3.8.53l39.21-5.64c2.37-.34-.73-5-3-5.9L56.2,84.12a6,6,0,0,0-1.76-.42Z"/><path class="cls-20" d="M29.48,86.79c-1.79.18-.5,4.74.69,6.09l10.42,11.91c.49.56,3,.58,3.8.47l39.14-5.62c2.24-.32-1.12-4.91-3.22-5.76L57.08,84.49a6.3,6.3,0,0,0-1.75-.42Z"/><path class="cls-21" d="M30.4,87.15c-1.69.17-.22,4.76.9,6L41.64,105c.46.53,3.09.51,3.8.41L84.5,99.8C86.62,99.5,83,95,81,94.19L58,84.87a6.67,6.67,0,0,0-1.73-.44Z"/><path class="cls-22" d="M31.32,87.51c-1.59.17.06,4.79,1.11,6l10.25,11.71c.44.5,3.15.45,3.81.36l39-5.6c2-.29-1.87-4.72-3.73-5.48l-22.9-9.25a6.6,6.6,0,0,0-1.72-.44Z"/><path class="cls-23" d="M32.24,87.87c-1.49.16.34,4.81,1.33,5.94l10.16,11.61c.41.47,3.19.39,3.81.3l38.91-5.59c1.87-.27-2.25-4.62-4-5.33L59.72,85.62a6.92,6.92,0,0,0-1.7-.46Z"/><path class="cls-24" d="M33.16,88.23c-1.39.15.62,4.84,1.54,5.89l10.08,11.51c.38.44,3.23.33,3.81.24l38.83-5.57c1.75-.25-2.62-4.53-4.26-5.19L60.6,86a7.31,7.31,0,0,0-1.69-.46Z"/><path class="cls-25" d="M34.09,88.59c-1.3.14.89,4.86,1.75,5.84l10,11.41c.35.41,3.27.26,3.81.19l38.76-5.57c1.62-.23-3-4.43-4.53-5l-22.39-9a7.71,7.71,0,0,0-1.67-.47Z"/><path class="cls-26" d="M35,89c-1.2.12,1.17,4.88,2,5.78l9.9,11.31c.33.38,3.32.2,3.82.13l38.68-5.56c1.5-.21-3.38-4.34-4.78-4.9l-22.23-9a9.24,9.24,0,0,0-1.66-.49Z"/><path class="cls-27" d="M35.93,89.32c-1.09.11,1.45,4.9,2.18,5.73l9.81,11.21c.3.34,3.36.14,3.82.07l38.61-5.54c1.37-.2-3.77-4.25-5-4.77L63.24,87.11a9.91,9.91,0,0,0-1.64-.49Z"/><path class="cls-28" d="M36.85,89.68c-1,.1,1.73,4.93,2.39,5.68L49,106.47c.27.31,3.4.08,3.82,0L91.32,101c1.25-.18-4.14-4.15-5.31-4.62L64.12,87.48a10.91,10.91,0,0,0-1.63-.5Z"/><path class="cls-29" d="M37.77,90c-.89.09,2,4.95,2.6,5.63l9.65,11c.24.28,3.45,0,3.82,0l38.45-5.52c1.13-.16-4.51-4.06-5.56-4.48L65,87.86a10.25,10.25,0,0,0-1.6-.51Z"/><path class="cls-30" d="M38.69,90.4c-.79.09,2.29,5,2.82,5.58l9.55,10.91c.22.25,3.5,0,3.83-.1l38.38-5.51c1-.14-4.9-4-5.83-4.34L65.87,88.23a13.41,13.41,0,0,0-1.59-.52Z"/><path class="cls-31" d="M39.61,90.76c-.69.08,2.57,5,3,5.53l9.47,10.81c.19.22,3.54-.11,3.83-.15l38.3-5.5c.87-.13-5.27-3.87-6.09-4.2L66.75,88.6a13.11,13.11,0,0,0-1.57-.52Z"/><path class="cls-32" d="M40.54,91.13c-.6.06,2.84,5,3.24,5.47l9.38,10.71A21.86,21.86,0,0,0,57,107.1l38.23-5.49c.74-.11-5.66-3.77-6.36-4L67.63,89a15.16,15.16,0,0,0-1.56-.54Z"/><path class="cls-33" d="M41.46,91.49c-.5.05,3.12,5,3.45,5.42l9.29,10.61a28.26,28.26,0,0,0,3.84-.26l38.15-5.49c.62-.08-6-3.67-6.61-3.91L68.51,89.35A14.82,14.82,0,0,0,67,88.81Z"/><path class="cls-34" d="M42.38,91.85c-.4,0,3.4,5.07,3.66,5.37l9.21,10.51a34.27,34.27,0,0,0,3.84-.32l38.08-5.47c.49-.07-6.41-3.58-6.88-3.77l-20.9-8.45c-.08,0-1.45-.56-1.53-.55Z"/><path class="cls-35" d="M43.3,92.21c-.3,0,3.68,5.09,3.88,5.32l9.12,10.41c.08.1,3.72-.36,3.84-.38l38-5.46c.37,0-6.79-3.48-7.14-3.62L70.27,90.1c-.06,0-1.45-.57-1.51-.57Z"/><path class="cls-36" d="M44.22,92.57c-.2,0,4,5.11,4.09,5.27l9,10.31c0,.07,3.76-.42,3.84-.43l37.92-5.45c.25,0-7.16-3.39-7.4-3.49L71.15,90.47s-1.46-.58-1.5-.57Z"/><path class="cls-37" d="M45.14,92.93c-.1,0,4.24,5.14,4.31,5.21l8.94,10.22s3.81-.49,3.85-.49l37.85-5.44c.12,0-7.55-3.29-7.66-3.34L72,90.85l-1.48-.59Z"/><polygon class="cls-38" points="59.44 108.58 101.06 102.6 71.44 90.63 46.06 93.3 59.44 108.58"/></g><path class="cls-39" d="M58.87,108.63h0a.25.25,0,0,1-.23-.27l.22-3a.24.24,0,0,1,.27-.23.25.25,0,0,1,.23.27l-.22,3A.25.25,0,0,1,58.87,108.63Zm2.83-.41a.24.24,0,0,1-.24-.21.25.25,0,0,1,.21-.29l3-.42a.25.25,0,0,1,.28.21.24.24,0,0,1-.21.28l-3,.43Zm5.94-.85a.24.24,0,0,1-.24-.22.25.25,0,0,1,.21-.28l3-.43a.26.26,0,0,1,.28.22.25.25,0,0,1-.21.28l-3,.43Zm5.94-.85a.26.26,0,0,1-.25-.22.25.25,0,0,1,.22-.28l3-.43a.25.25,0,0,1,.28.21.26.26,0,0,1-.21.29l-3,.42Zm5.94-.86a.25.25,0,0,1,0-.5l3-.42a.25.25,0,0,1,.29.21.25.25,0,0,1-.21.28l-3,.43Zm5.94-.85a.25.25,0,0,1,0-.5l3-.42a.25.25,0,0,1,.29.21.25.25,0,0,1-.21.28l-3,.43ZM91.4,104a.26.26,0,0,1-.25-.22.25.25,0,0,1,.21-.28l3-.43a.26.26,0,0,1,.29.21.26.26,0,0,1-.22.29l-3,.42Zm5.94-.86a.26.26,0,0,1-.25-.21.24.24,0,0,1,.21-.28l3-.43a.25.25,0,1,1,.07.49l-3,.43Zm-38-.45h0a.25.25,0,0,1-.23-.27l.22-3a.24.24,0,0,1,.27-.23.25.25,0,0,1,.23.26l-.23,3A.24.24,0,0,1,59.32,102.65Zm40-1.5a.27.27,0,0,1-.16-.06l-2.32-1.9a.25.25,0,0,1,0-.35.24.24,0,0,1,.35,0l2.32,1.9a.25.25,0,0,1,0,.35A.27.27,0,0,1,99.33,101.15Zm-4.64-3.8a.27.27,0,0,1-.16-.06l-2.32-1.9a.25.25,0,0,1,0-.35.24.24,0,0,1,.35,0l2.32,1.9a.25.25,0,0,1-.16.45Zm-34.93-.69h0a.26.26,0,0,1-.24-.27l.23-3a.25.25,0,0,1,.5,0l-.23,3A.25.25,0,0,1,59.76,96.66Zm30.29-3.12a.24.24,0,0,1-.16-.05l-2.32-1.9a.26.26,0,0,1,0-.36.25.25,0,0,1,.35,0l2.32,1.9a.24.24,0,0,1,0,.35A.25.25,0,0,1,90.05,93.54ZM60.21,90.68h0a.26.26,0,0,1-.23-.27l.23-3a.24.24,0,0,1,.26-.23.26.26,0,0,1,.24.27l-.23,3A.25.25,0,0,1,60.21,90.68Zm25.2-.94a.25.25,0,0,1-.16-.06l-2.32-1.9a.24.24,0,0,1,0-.35.25.25,0,0,1,.35,0l2.32,1.9a.25.25,0,0,1,0,.35A.25.25,0,0,1,85.41,89.74Zm-4.64-3.8a.25.25,0,0,1-.16-.06L78.29,84a.25.25,0,0,1,0-.35.26.26,0,0,1,.36,0l2.32,1.91a.25.25,0,0,1,0,.35A.25.25,0,0,1,80.77,85.94ZM60.66,84.7h0a.25.25,0,0,1-.23-.27l.23-3a.24.24,0,0,1,.26-.23.25.25,0,0,1,.23.26l-.22,3A.25.25,0,0,1,60.66,84.7Zm15.47-2.56a.25.25,0,0,1-.16-.06l-2.32-1.9a.25.25,0,1,1,.32-.39l2.32,1.9a.25.25,0,0,1,0,.35A.26.26,0,0,1,76.13,82.14Zm-15-3.43h0a.25.25,0,0,1-.23-.26l.22-3a.26.26,0,0,1,.27-.23.25.25,0,0,1,.23.27l-.22,3A.25.25,0,0,1,61.11,78.71Zm10.38-.38a.28.28,0,0,1-.16,0L69,76.37A.25.25,0,0,1,69,76a.26.26,0,0,1,.36,0l2.32,1.9a.25.25,0,0,1,0,.35A.25.25,0,0,1,71.49,78.33Zm-4.64-3.8a.23.23,0,0,1-.16-.06l-2.32-1.9a.25.25,0,1,1,.31-.38L67,74.09a.24.24,0,0,1,0,.35A.25.25,0,0,1,66.85,74.53Zm-5.29-1.8h0a.25.25,0,0,1-.23-.27l.18-2.39a.24.24,0,0,1,.15-.21.25.25,0,0,1,.25,0l.47.38a.26.26,0,0,1,0,.36.25.25,0,0,1-.35,0l-.1-.08-.14,1.91A.25.25,0,0,1,61.56,72.73Z"/><path class="cls-39" d="M29.63,73.55a.27.27,0,0,1-.25-.23.25.25,0,0,1,.23-.27l3-.3a.26.26,0,0,1,.28.23.25.25,0,0,1-.23.27l-3,.3Zm6-.6a.26.26,0,0,1-.25-.22.26.26,0,0,1,.23-.28l3-.29a.25.25,0,1,1,0,.49l-3,.3Zm6-.59a.25.25,0,0,1-.24-.23.23.23,0,0,1,.22-.27l3-.3a.26.26,0,0,1,.28.22.26.26,0,0,1-.23.28l-3,.29Zm6-.6a.25.25,0,0,1,0-.5l3-.3a.27.27,0,0,1,.28.23.25.25,0,0,1-.23.27l-3,.3Zm6-.6a.24.24,0,0,1-.24-.22.23.23,0,0,1,.22-.27l3-.3a.25.25,0,1,1,.05.49l-3,.3Zm6-.59a.25.25,0,0,1-.24-.23.24.24,0,0,1,.22-.27l2.25-.23.72-.11a.26.26,0,0,1,.28.21.25.25,0,0,1-.21.29l-.73.11-2.26.23Zm6-.79a.25.25,0,0,1,0-.5l3-.45a.25.25,0,0,1,.07.49l-3,.45Zm5.93-.91a.25.25,0,0,1,0-.5l3-.45a.25.25,0,0,1,.07.49l-3,.46ZM77.29,68a.24.24,0,0,1-.24-.21.25.25,0,0,1,.2-.29l3-.45a.24.24,0,0,1,.28.21.25.25,0,0,1-.2.29l-3,.45Zm5.93-.91a.23.23,0,0,1-.24-.21.24.24,0,0,1,.21-.28l3-.46a.27.27,0,0,1,.29.21.26.26,0,0,1-.21.29l-3,.45Zm5.93-.9a.25.25,0,0,1,0-.5l3-.45a.24.24,0,0,1,.29.2.26.26,0,0,1-.21.29l-3,.45Zm5.93-.91a.25.25,0,0,1-.24-.21.25.25,0,0,1,.21-.29l3-.45a.25.25,0,0,1,.29.21.25.25,0,0,1-.21.28l-3,.46Zm5.94-.91a.25.25,0,0,1,0-.5l3-.45a.25.25,0,0,1,.29.21.24.24,0,0,1-.21.28l-3,.46Zm5.93-.91a.26.26,0,0,1-.25-.21.24.24,0,0,1,.21-.28l3-.46a.25.25,0,0,1,.29.21A.26.26,0,0,1,110,63l-3,.45Zm5.93-.91a.25.25,0,0,1,0-.49l3-.46a.26.26,0,0,1,.28.21.25.25,0,0,1-.21.29l-3,.45Zm5.93-.9a.26.26,0,0,1-.25-.22.25.25,0,0,1,.21-.28l.52-.08-.72-.33a.25.25,0,0,1-.13-.33.26.26,0,0,1,.33-.13l1.49.68a.27.27,0,0,1,.15.26.28.28,0,0,1-.21.22l-1.35.2Zm-2.87-2.13-.1,0-2.73-1.25a.25.25,0,0,1-.13-.33.25.25,0,0,1,.33-.12L116,59a.26.26,0,0,1,.13.33A.28.28,0,0,1,115.94,59.48ZM110.48,57l-.1,0-2.73-1.25a.24.24,0,0,1-.13-.33.25.25,0,0,1,.33-.12l2.73,1.24a.25.25,0,0,1-.1.48ZM105,54.5a.16.16,0,0,1-.1,0l-2.73-1.24a.25.25,0,0,1-.13-.33.26.26,0,0,1,.33-.13L105.12,54a.25.25,0,0,1,.13.33A.27.27,0,0,1,105,54.5ZM99.56,52a.17.17,0,0,1-.1,0l-2.73-1.24a.25.25,0,0,1-.13-.33.26.26,0,0,1,.33-.13l2.73,1.25a.25.25,0,0,1,.13.33A.28.28,0,0,1,99.56,52ZM94.1,49.53a.17.17,0,0,1-.1,0l-2.73-1.24a.25.25,0,1,1,.2-.45l2.73,1.24a.26.26,0,0,1,.13.33A.26.26,0,0,1,94.1,49.53ZM88.64,47l-.1,0-2.73-1.25a.24.24,0,0,1-.13-.33.25.25,0,0,1,.33-.12l2.73,1.24a.26.26,0,0,1,.13.33A.25.25,0,0,1,88.64,47Zm-5.46-2.49-.1,0-1.73-.79a.25.25,0,0,1-.12-.33.25.25,0,0,1,.33-.12l1.72.78a.26.26,0,0,1,.13.34A.25.25,0,0,1,83.18,44.55Z"/><path class="cls-39" d="M61.74,70.34a.26.26,0,0,1-.24-.16l-1.06-2.8a.26.26,0,0,1,.15-.33.25.25,0,0,1,.32.15L62,70a.26.26,0,0,1-.15.33Zm1-1.3a.27.27,0,0,1-.15-.05.25.25,0,0,1-.05-.35l1.78-2.41a.25.25,0,0,1,.35,0,.24.24,0,0,1,.06.34l-1.79,2.41A.26.26,0,0,1,62.71,69Zm-3.1-4.31a.25.25,0,0,1-.23-.16l-1.06-2.81a.25.25,0,0,1,.47-.17l1.06,2.8a.24.24,0,0,1-.15.32A.15.15,0,0,1,59.61,64.73Zm6.67-.51a.3.3,0,0,1-.15,0,.25.25,0,0,1,0-.35l1.79-2.41a.25.25,0,1,1,.4.3l-1.79,2.41A.26.26,0,0,1,66.28,64.22Zm3.58-4.82a.27.27,0,0,1-.15,0,.24.24,0,0,1,0-.35l1.78-2.41a.25.25,0,0,1,.35-.05.25.25,0,0,1,.06.35L70.06,59.3A.28.28,0,0,1,69.86,59.4Zm-12.37-.28a.25.25,0,0,1-.23-.16L56.2,56.15a.24.24,0,0,1,.14-.32.26.26,0,0,1,.33.14l1.06,2.81a.25.25,0,0,1-.15.32Zm15.94-4.54a.3.3,0,0,1-.15,0,.25.25,0,0,1,0-.35L75,51.77a.25.25,0,1,1,.4.3l-1.79,2.41A.26.26,0,0,1,73.43,54.58ZM55.37,53.51a.25.25,0,0,1-.23-.17l-1.06-2.8a.25.25,0,1,1,.46-.18l1.06,2.81a.24.24,0,0,1-.14.32ZM77,49.76a.21.21,0,0,1-.15,0,.24.24,0,0,1,0-.35L78.6,47a.25.25,0,0,1,.4.3l-1.79,2.41A.25.25,0,0,1,77,49.76ZM53.25,47.89a.26.26,0,0,1-.24-.16L52,44.93a.27.27,0,0,1,.15-.33.26.26,0,0,1,.32.15l1.06,2.81a.25.25,0,0,1-.14.32Zm27.33-3a.23.23,0,0,1-.15,0,.25.25,0,0,1-.05-.35l.66-.88-1.13-.33a.25.25,0,0,1,.14-.48l1.48.43a.23.23,0,0,1,.16.16.24.24,0,0,1,0,.23l-.88,1.17A.22.22,0,0,1,80.58,44.94ZM77.1,42.51H77l-2.88-.84a.24.24,0,0,1-.17-.31.25.25,0,0,1,.31-.17l2.88.84a.25.25,0,0,1-.07.49Zm-26-.23a.26.26,0,0,1-.24-.16l-1.06-2.81a.25.25,0,0,1,.47-.17l1.06,2.8a.26.26,0,0,1-.14.33Zm20.21-1.44h-.07L68.39,40a.26.26,0,0,1-.18-.31.25.25,0,0,1,.31-.17l2.89.83a.25.25,0,0,1,.17.31A.25.25,0,0,1,71.34,40.84Zm-5.77-1.67H65.5l-2.88-.83a.25.25,0,0,1,.14-.48l2.88.83a.25.25,0,0,1,.17.31A.25.25,0,0,1,65.57,39.17Zm-5.76-1.66h-.07l-2.88-.84a.24.24,0,0,1-.17-.31.24.24,0,0,1,.31-.17l2.88.84a.25.25,0,0,1-.07.49ZM49,36.67a.25.25,0,0,1-.23-.16l-1-2.57a.27.27,0,0,1,.05-.26.25.25,0,0,1,.25-.07l.25.07a.25.25,0,0,1,.17.31.25.25,0,0,1-.11.15l.83,2.19a.25.25,0,0,1-.15.32Zm5-.83H54L51.09,35a.25.25,0,0,1,.14-.48l2.88.83a.26.26,0,0,1,.18.31A.27.27,0,0,1,54,35.84Z"/><path class="cls-39" d="M81.46,43.77a.2.2,0,0,1-.11,0,.25.25,0,0,1-.12-.34l1.06-2.1a.25.25,0,1,1,.44.22l-1,2.11A.24.24,0,0,1,81.46,43.77ZM83.85,39a.23.23,0,0,1-.11,0,.25.25,0,0,1-.11-.33L85,35.94a.25.25,0,0,1,.34-.12.26.26,0,0,1,.11.34l-1.34,2.68A.27.27,0,0,1,83.85,39Zm2.69-5.37a.2.2,0,0,1-.11,0,.25.25,0,0,1-.12-.34l1.35-2.68a.25.25,0,0,1,.33-.11.24.24,0,0,1,.11.33l-1.34,2.69A.25.25,0,0,1,86.54,33.61Zm2.68-5.36a.23.23,0,0,1-.11,0,.25.25,0,0,1-.11-.33l1.34-2.69a.26.26,0,0,1,.34-.11.26.26,0,0,1,.11.34l-1.34,2.68A.27.27,0,0,1,89.22,28.25Z"/><path class="cls-39" d="M101.06,102.82h0a.51.51,0,0,1-.45-.34L96.34,90a.5.5,0,0,1,.09-.47l23.34-28.68a.51.51,0,0,1,.68-.09.5.5,0,0,1,.13.67c-1.46,2.36-18.89,40.73-19.06,41.11A.51.51,0,0,1,101.06,102.82Zm-3.68-12.9,3.75,11c2.42-5.31,12.22-26.84,16.59-36Z"/><path class="cls-39" d="M59.44,108.8a.5.5,0,0,1-.22-1L96.6,89.37a.53.53,0,0,1,.41,0,.52.52,0,0,1,.28.3l4.25,12.5a.52.52,0,0,1-.05.42.49.49,0,0,1-.36.23l-41.62,6ZM96.53,90.52,62.47,107.36l37.93-5.45Z"/><path class="cls-39" d="M29.63,73.8a.49.49,0,0,1-.41-.22.51.51,0,0,1,0-.49l18.4-39.44a.51.51,0,0,1,.53-.28.5.5,0,0,1,.42.44L53,72.26a.51.51,0,0,1-.12.38.5.5,0,0,1-.36.18l-22.9,1ZM47.74,35.67,30.43,72.76,52,71.84Z"/><path class="cls-39" d="M58.87,108.88a.53.53,0,0,1-.39-.18L29.25,73.62a.49.49,0,0,1-.07-.52.48.48,0,0,1,.43-.3l22.9-1a.49.49,0,0,1,.52.44l.08.77,6.82,35.17a.49.49,0,0,1-.42.59l-.57.08ZM30.66,73.76l28.12,33.73-6.7-34.65Z"/><path class="cls-39" d="M89.9,43.23l-.11,0L47.93,34.34a.48.48,0,0,1-.34-.26.52.52,0,0,1,0-.44l.35-.73a.49.49,0,0,1,.36-.28l42.18-7.81a.53.53,0,0,1,.42.12.46.46,0,0,1,.17.39l-.67,17.41a.47.47,0,0,1-.19.38A.48.48,0,0,1,89.9,43.23Zm-41-9.7,40.49,8.58L90,25.92Z"/><path class="cls-39" d="M120.23,61.51a.59.59,0,0,1-.26-.07L89.64,43.15a.47.47,0,0,1-.24-.44l.67-17.41a.5.5,0,0,1,.33-.46A.52.52,0,0,1,91,25c.28.34,27.77,33.55,29.58,35.59a.51.51,0,0,1,.22.42.52.52,0,0,1-.51.5ZM90.41,42.45,117.88,59C112,52,95.06,31.53,91,26.64Z"/><path class="cls-39" d="M96.82,90.32a.27.27,0,0,1-.13,0,.49.49,0,0,1-.37-.4L89.4,42.8a.51.51,0,0,1,.22-.49.49.49,0,0,1,.53,0l30.34,18.28.09.07a.53.53,0,0,1,.06.69l-.09.12L97.21,90.14A.5.5,0,0,1,96.82,90.32ZM90.54,43.7l6.61,44.93,22.36-27.48Z"/><path class="cls-39" d="M59.44,108.8a.46.46,0,0,1-.22-.06.5.5,0,0,1-.27-.35L52.12,73.18,52,72.37a.51.51,0,0,1,.2-.45.52.52,0,0,1,.48-.07L97,89.36a.49.49,0,0,1,.32.44.5.5,0,0,1-.28.47L59.66,108.74A.43.43,0,0,1,59.44,108.8ZM53.12,73.09l6.69,34.47L95.59,89.87Z"/><path class="cls-39" d="M52.53,72.82a.43.43,0,0,1-.19,0,.49.49,0,0,1-.31-.4L47.54,33.92a.54.54,0,0,1,.18-.42.52.52,0,0,1,.42-.14L90,42.24a.48.48,0,0,1,.38.37.49.49,0,0,1-.17.51L52.84,72.71A.51.51,0,0,1,52.53,72.82ZM48.61,34.49l4.31,36.88L88.75,43Z"/><path class="cls-39" d="M96.82,90.32a.63.63,0,0,1-.19,0L52.35,72.78a.47.47,0,0,1-.31-.39.48.48,0,0,1,.18-.46l37.36-29.6a.53.53,0,0,1,.5-.07.51.51,0,0,1,.31.39l6.9,47a.54.54,0,0,1,0,.21.52.52,0,0,1-.51.5ZM53.52,72.17,96.2,89,89.53,43.65Z"/></g></g></g></g></svg>