<svg xmlns="http://www.w3.org/2000/svg" xmlns:xlink="http://www.w3.org/1999/xlink" viewBox="0 0 126.47 122.55"><defs><style>.cls-1{isolation:isolate;}.cls-2{fill:#5f5f5f;}.cls-3{opacity:0.2;fill:url(#radial-gradient);}.cls-3,.cls-4{mix-blend-mode:multiply;}.cls-4{opacity:0.3;fill:url(#radial-gradient-2);}</style><radialGradient id="radial-gradient" cx="-104.83" cy="580.66" r="43.56" gradientTransform="matrix(0.1, 1, -0.41, 0.24, 304.55, 63.74)" gradientUnits="userSpaceOnUse"><stop offset="0" stop-color="#6e757d"/><stop offset="0.2" stop-color="#969ba1"/><stop offset="0.45" stop-color="#c3c6c9"/><stop offset="0.68" stop-color="#e4e5e7"/><stop offset="0.87" stop-color="#f8f8f9"/><stop offset="1" stop-color="#fff"/></radialGradient><radialGradient id="radial-gradient-2" cx="148.78" cy="1028.62" r="29.86" gradientTransform="translate(-63.06 -186.46) scale(0.92 0.29)" xlink:href="#radial-gradient"/></defs><title>Artboard 6 copy 4stex7</title><g class="cls-1"><g id="Ñëîé_1" data-name="Ñëîé 1"><g id="_3" data-name="3"><path class="cls-2" d="M66,80.38a.25.25,0,0,1-.24-.18.25.25,0,0,1,.17-.31l2.89-.81a.25.25,0,1,1,.14.48l-2.89.81ZM63.34,79a.27.27,0,0,1-.12,0l-2.66-1.38a.25.25,0,0,1,.23-.45l2.66,1.39a.25.25,0,0,1-.11.47Zm8.44-.28a.25.25,0,0,1-.07-.49l2.89-.81a.25.25,0,0,1,.31.17.26.26,0,0,1-.18.31l-2.89.81Zm5.77-1.63a.25.25,0,0,1-.24-.18.26.26,0,0,1,.18-.31l2.88-.81a.25.25,0,0,1,.31.18.24.24,0,0,1-.17.3l-2.89.82ZM58,76.26a.25.25,0,0,1-.12,0l-2.66-1.39a.25.25,0,0,1-.1-.34.26.26,0,0,1,.34-.11l2.66,1.39a.26.26,0,0,1,.1.34A.23.23,0,0,1,58,76.26Zm25.31-.75a.25.25,0,0,1-.24-.18.25.25,0,0,1,.17-.31l2.89-.81a.25.25,0,1,1,.13.48l-2.88.81Zm5.78-1.62A.25.25,0,0,1,89,73.4l2.89-.82a.25.25,0,0,1,.13.49l-2.89.81Zm-36.41-.4a.27.27,0,0,1-.12,0l-2.65-1.39a.25.25,0,0,1-.11-.34.25.25,0,0,1,.34-.1L52.82,73a.25.25,0,0,1,.1.34A.24.24,0,0,1,52.7,73.49Zm42.18-1.23a.25.25,0,0,1-.24-.18.25.25,0,0,1,.17-.31L97.7,71a.25.25,0,0,1,.31.17.25.25,0,0,1-.17.31L95,72.25Zm-47.5-1.55a.2.2,0,0,1-.11,0l-2.66-1.39A.26.26,0,0,1,44.5,69a.25.25,0,0,1,.34-.1l2.66,1.39a.25.25,0,0,1,.11.33A.27.27,0,0,1,47.38,70.71Zm53.28-.07a.25.25,0,0,1-.07-.49l2.89-.81a.25.25,0,0,1,.31.17.26.26,0,0,1-.18.31l-2.88.81ZM106.43,69a.26.26,0,0,1-.24-.19.26.26,0,0,1,.18-.31l2.88-.81a.25.25,0,0,1,.31.18.24.24,0,0,1-.17.3L106.5,69ZM42.07,67.93a.27.27,0,0,1-.12,0l-2.66-1.39a.25.25,0,1,1,.23-.44l2.66,1.39a.26.26,0,0,1,.11.34A.26.26,0,0,1,42.07,67.93Zm70.14-.54a.25.25,0,0,1-.24-.18.25.25,0,0,1,.17-.31l2.89-.81a.25.25,0,1,1,.13.48l-2.88.81ZM118,65.77a.26.26,0,0,1-.24-.18.25.25,0,0,1,.16-.31l-1.41-.55a.26.26,0,0,1-.15-.33.26.26,0,0,1,.33-.14l2.11.83a.24.24,0,0,1,.16.24.26.26,0,0,1-.19.23l-.71.2Zm-81.24-.62a.27.27,0,0,1-.12,0L34,63.73a.24.24,0,0,1-.1-.33.24.24,0,0,1,.33-.11l2.66,1.39A.25.25,0,0,1,37,65,.26.26,0,0,1,36.75,65.15Zm77-1.5h-.09l-2.79-1.09a.26.26,0,0,1-.15-.33.26.26,0,0,1,.33-.14l2.79,1.09a.25.25,0,0,1,.14.33A.24.24,0,0,1,113.79,63.65ZM31.43,62.37l-.12,0L28.65,61a.26.26,0,0,1,.24-.45l2.66,1.39a.26.26,0,0,1,.1.34A.25.25,0,0,1,31.43,62.37Zm76.77-.9h-.09l-2.79-1.09a.26.26,0,0,1-.15-.33.25.25,0,0,1,.33-.14L108.29,61a.25.25,0,0,1,.14.33A.24.24,0,0,1,108.2,61.47Zm-77.77-.84a.25.25,0,0,1-.24-.2.26.26,0,0,1,.19-.3l2.93-.62a.25.25,0,1,1,.11.48l-2.93.63Zm5.87-1.26a.25.25,0,0,1-.24-.2.24.24,0,0,1,.19-.29l2.93-.63a.25.25,0,0,1,.11.49l-2.94.63Zm66.31-.08h-.09l-2.79-1.09a.25.25,0,0,1-.14-.33.24.24,0,0,1,.32-.14l2.79,1.09a.25.25,0,0,1-.09.48ZM42.17,58.12a.26.26,0,0,1-.25-.2.25.25,0,0,1,.2-.3L45.05,57a.25.25,0,0,1,.3.2.25.25,0,0,1-.2.29l-2.93.63Zm54.85-1h-.09L94.14,56a.25.25,0,0,1-.14-.33.24.24,0,0,1,.32-.14l2.79,1.09a.25.25,0,0,1,.15.32A.26.26,0,0,1,97,57.11Zm-49-.25a.25.25,0,0,1-.24-.2.24.24,0,0,1,.19-.29l2.94-.63a.25.25,0,0,1,.1.49l-2.93.62ZM53.9,55.6a.25.25,0,0,1,0-.49l2.93-.63a.25.25,0,1,1,.11.49L54,55.6Zm37.53-.67h-.09l-2.79-1.1a.25.25,0,1,1,.18-.46l2.79,1.09a.25.25,0,0,1,.15.32A.26.26,0,0,1,91.43,54.93Zm-31.66-.58a.24.24,0,0,1-.24-.2.25.25,0,0,1,.19-.3l2.93-.62a.25.25,0,0,1,.3.19.24.24,0,0,1-.19.29l-2.94.63Zm5.87-1.26a.26.26,0,0,1-.25-.2.25.25,0,0,1,.19-.29L68.52,52a.25.25,0,0,1,.1.49l-2.93.63Zm20.2-.34a.15.15,0,0,1-.09,0L83,51.64a.25.25,0,1,1,.18-.46l2.79,1.09a.25.25,0,0,1,.15.32A.26.26,0,0,1,85.84,52.75ZM71.5,51.84a.25.25,0,0,1-.24-.2.25.25,0,0,1,.19-.3l2.93-.63a.25.25,0,0,1,.3.2.25.25,0,0,1-.19.29l-2.93.63Zm5.87-1.26a.25.25,0,0,1-.05-.49l1.88-.41a.24.24,0,0,1,.14,0l1,.39a.25.25,0,0,1,.15.32.25.25,0,0,1-.33.14l-.93-.36-1.81.38Z"/><path class="cls-2" d="M73.9,107h0a.25.25,0,0,1-.23-.27l.28-3a.26.26,0,0,1,.27-.22.25.25,0,0,1,.23.27l-.28,3A.24.24,0,0,1,73.9,107Zm.56-6h0a.25.25,0,0,1-.23-.27l.28-3a.26.26,0,0,1,.28-.22.25.25,0,0,1,.22.27l-.28,3A.25.25,0,0,1,74.46,101.05Zm.56-6h0a.25.25,0,0,1-.22-.28l.28-3a.25.25,0,0,1,.27-.23.24.24,0,0,1,.22.27l-.28,3A.25.25,0,0,1,75,95.08Zm.57-6h0a.23.23,0,0,1-.22-.27l.28-3a.24.24,0,0,1,.27-.22.25.25,0,0,1,.23.27l-.29,3A.24.24,0,0,1,75.59,89.1Zm.56-6h0a.25.25,0,0,1-.22-.27l.28-3a.25.25,0,0,1,.27-.23.26.26,0,0,1,.23.28l-.28,3A.26.26,0,0,1,76.15,83.13Zm.56-6h0a.26.26,0,0,1-.23-.28l.28-3a.25.25,0,0,1,.5,0l-.28,3A.25.25,0,0,1,76.71,77.16Zm.56-6h0a.25.25,0,0,1-.23-.27l.28-3a.24.24,0,0,1,.28-.22.25.25,0,0,1,.22.27l-.28,3A.24.24,0,0,1,77.27,71.18Zm.56-6h0a.26.26,0,0,1-.23-.27l.29-3a.25.25,0,1,1,.49,0l-.28,3A.25.25,0,0,1,77.83,65.21Zm.57-6h0a.23.23,0,0,1-.22-.27l.28-3a.25.25,0,1,1,.5,0l-.29,3A.25.25,0,0,1,78.4,59.24Zm.56-6h0a.25.25,0,0,1-.22-.27L79,50a.24.24,0,0,1,.27-.22.25.25,0,0,1,.23.27l-.28,3A.26.26,0,0,1,79,53.26Zm-.23-5.94a.25.25,0,0,1-.25-.2l-.54-2.95a.25.25,0,0,1,.2-.29.25.25,0,0,1,.3.2L79,47a.25.25,0,0,1-.2.29Zm-1.08-5.9a.24.24,0,0,1-.24-.21l-.54-3a.25.25,0,0,1,.2-.29.26.26,0,0,1,.29.2l.54,2.95a.27.27,0,0,1-.2.3Zm-1.07-5.9a.26.26,0,0,1-.25-.21l-.54-3a.25.25,0,0,1,.2-.29.24.24,0,0,1,.29.2l.54,2.95a.24.24,0,0,1-.2.29ZM75.5,29.61a.26.26,0,0,1-.25-.2l-.53-2.95a.24.24,0,0,1,.2-.29.24.24,0,0,1,.29.2l.54,2.95a.25.25,0,0,1-.21.29Zm-1.08-5.9a.25.25,0,0,1-.24-.2l-.54-3a.26.26,0,0,1,.2-.29.25.25,0,0,1,.29.2l.54,3a.25.25,0,0,1-.2.29Z"/><path class="cls-2" d="M65.94,80.65a.46.46,0,0,1-.23-.06L28.54,61.18a.5.5,0,0,1-.27-.38.52.52,0,0,1,.17-.44L73.55,20.14a.5.5,0,0,1,.57-.07.49.49,0,0,1,.26.51L66.43,80.22a.48.48,0,0,1-.26.37A.46.46,0,0,1,65.94,80.65Zm-36.3-20,35.9,18.75,7.67-57.6Z"/><path class="cls-2" d="M65.94,80.65a.5.5,0,0,1-.5-.56l8-59.65a.51.51,0,0,1,.34-.4.48.48,0,0,1,.51.12L119.05,65a.53.53,0,0,1,.13.48.51.51,0,0,1-.35.36L66.07,80.63Zm8.31-59.07L66.53,79.46l51.21-14.39Z"/><path class="cls-2" d="M73.89,107.42l-.14,0a.52.52,0,0,1-.34-.34l-8-26.77a.47.47,0,0,1,0-.38.48.48,0,0,1,.3-.24l52.76-14.83a.52.52,0,0,1,.49.12l.62.62a.5.5,0,0,1,.14.37.52.52,0,0,1-.16.36l-45.43,41A.51.51,0,0,1,73.89,107.42ZM66.56,80.5,74.14,106l44.45-40.09,0,0Z"/><path class="cls-2" d="M73.89,107.42a.55.55,0,0,1-.36-.15L28.41,61.08a.49.49,0,0,1,0-.64.5.5,0,0,1,.63-.15L66.17,79.71a.5.5,0,0,1,.25.3l7.91,26.64a.48.48,0,0,1,.08.27.55.55,0,0,1-.51.5ZM31.32,62.63l41.51,42.49L65.52,80.5Z"/></g><ellipse class="cls-3" cx="58.51" cy="98.85" rx="18.19" ry="44.6" transform="translate(-45.6 147.4) rotate(-84.38)"/><ellipse class="cls-4" cx="74.15" cy="106.8" rx="27.54" ry="8.51"/></g></g></svg>