<svg xmlns="http://www.w3.org/2000/svg" xmlns:xlink="http://www.w3.org/1999/xlink" viewBox="0 0 128.05 124.09"><defs><style>.cls-1{isolation:isolate;}.cls-2,.cls-3{opacity:0.2;mix-blend-mode:multiply;}.cls-2{fill:url(#radial-gradient);}.cls-4{fill:#c1cdd9;opacity:0;}.cls-5{fill:#c0cbd7;opacity:0.03;}.cls-6{fill:#becad6;opacity:0.06;}.cls-7{fill:#bdc8d4;opacity:0.09;}.cls-8{fill:#bbc7d3;opacity:0.12;}.cls-9{fill:#bac5d1;opacity:0.15;}.cls-10{fill:#b9c4cf;opacity:0.18;}.cls-11{fill:#b7c2ce;opacity:0.21;}.cls-12{fill:#b6c1cc;opacity:0.24;}.cls-13{fill:#b4bfcb;opacity:0.26;}.cls-14{fill:#b3bec9;opacity:0.29;}.cls-15{fill:#b1bcc8;opacity:0.32;}.cls-16{fill:#b0bbc6;opacity:0.35;}.cls-17{fill:#afb9c4;opacity:0.38;}.cls-18{fill:#adb8c3;opacity:0.41;}.cls-19{fill:#acb6c1;opacity:0.44;}.cls-20{fill:#aab5c0;opacity:0.47;}.cls-21{fill:#a9b3be;opacity:0.5;}.cls-22{fill:#a8b2bc;opacity:0.53;}.cls-23{fill:#a6b1bb;opacity:0.56;}.cls-24{fill:#a5afb9;opacity:0.59;}.cls-25{fill:#a3aeb8;opacity:0.62;}.cls-26{fill:#a2acb6;opacity:0.65;}.cls-27{fill:#a1abb4;opacity:0.68;}.cls-28{fill:#9fa9b3;opacity:0.71;}.cls-29{fill:#9ea8b1;opacity:0.74;}.cls-30{fill:#9ca6b0;opacity:0.76;}.cls-31{fill:#9ba5ae;opacity:0.79;}.cls-32{fill:#99a3ad;opacity:0.82;}.cls-33{fill:#98a2ab;opacity:0.85;}.cls-34{fill:#97a0a9;opacity:0.88;}.cls-35{fill:#959fa8;opacity:0.91;}.cls-36{fill:#949da6;opacity:0.94;}.cls-37{fill:#929ca5;opacity:0.97;}.cls-38{fill:#919aa3;}.cls-39{fill:#5f5f5f;}</style><radialGradient id="radial-gradient" cx="61.82" cy="650.67" r="53.88" gradientTransform="translate(0 -159.79) scale(1 0.38)" gradientUnits="userSpaceOnUse"><stop offset="0" stop-color="#6e757d"/><stop offset="0.2" stop-color="#969ba1"/><stop offset="0.45" stop-color="#c3c6c9"/><stop offset="0.68" stop-color="#e4e5e7"/><stop offset="0.87" stop-color="#f8f8f9"/><stop offset="1" stop-color="#fff"/></radialGradient></defs><title>Artboard 6 copy 3stex7</title><g class="cls-1"><g id="Ñëîé_1" data-name="Ñëîé 1"><g id="_11" data-name="11"><ellipse class="cls-2" cx="61.82" cy="89.88" rx="53.88" ry="20.67"/><g class="cls-3"><path class="cls-4" d="M23.75,86.48,44.69,83.9c.61-.08,1.22.37,1.64,1.22L52,96.43c1.08,2.16.45,5.63-1.11,6.14l-5.48,1.82a1.17,1.17,0,0,1-.45.06L18,102.19c-1.89-.16-2.66-4.54-1.18-6.65l5.81-8.3A1.65,1.65,0,0,1,23.75,86.48Z"/><path class="cls-5" d="M23.85,87.47a1.64,1.64,0,0,1,1.1-.75l20.88-2.54a1.76,1.76,0,0,1,1.66,1.17l5.62,11.17c1,2.1.53,5.56-1,6.06l-5.52,1.8a1.22,1.22,0,0,1-.46.06l-1.21-.09L19,102.22c-1.83-.16-2.44-4.51-1-6.56Z"/><path class="cls-6" d="M25,87.69a1.69,1.69,0,0,1,1.1-.73L47,84.46a1.76,1.76,0,0,1,1.66,1.13l5.63,11c1,2,.6,5.49-.86,6l-5.58,1.79a1.21,1.21,0,0,1-.46.05l-1.22-.07-26.1-2.12c-1.78-.15-2.23-4.48-.84-6.47Z"/><path class="cls-7" d="M26.23,87.91a1.75,1.75,0,0,1,1.11-.71l20.79-2.47a1.79,1.79,0,0,1,1.67,1.1l5.63,10.86c1,2,.68,5.43-.74,5.9l-5.63,1.78a1.49,1.49,0,0,1-.46.06l-1.23-.07-26.31-2.09c-1.72-.15-2-4.45-.67-6.38Z"/><path class="cls-8" d="M27.42,88.13a1.7,1.7,0,0,1,1.12-.68L49.28,85A1.8,1.8,0,0,1,51,86.07l5.63,10.71c.95,1.91.75,5.36-.62,5.82l-5.68,1.76a1.48,1.48,0,0,1-.47.06l-1.24-.06-26.51-2.07c-1.66-.14-1.8-4.42-.49-6.28Z"/><path class="cls-9" d="M28.62,88.35a1.75,1.75,0,0,1,1.11-.66l20.7-2.4a1.82,1.82,0,0,1,1.69,1l5.63,10.57c.92,1.84.83,5.29-.5,5.73l-5.72,1.75a1.58,1.58,0,0,1-.48.06l-1.25,0-26.71-2.05c-1.61-.14-1.59-4.4-.33-6.2Z"/><path class="cls-10" d="M29.81,88.57a1.78,1.78,0,0,1,1.12-.64l20.65-2.37a1.87,1.87,0,0,1,1.7,1L58.91,97c.89,1.78.91,5.22-.38,5.65l-5.77,1.73a1.54,1.54,0,0,1-.48.06l-1.26,0-26.92-2c-1.55-.13-1.37-4.37-.15-6.11Z"/><path class="cls-11" d="M31,88.79a1.87,1.87,0,0,1,1.12-.62l20.61-2.33a1.9,1.9,0,0,1,1.71.94L60.07,97c.85,1.72,1,5.16-.25,5.57L54,104.33a1.58,1.58,0,0,1-.48.06l-1.27,0-27.12-2c-1.5-.12-1.16-4.34,0-6Z"/><path class="cls-12" d="M32.19,89a1.85,1.85,0,0,1,1.13-.61l20.56-2.29a1.92,1.92,0,0,1,1.72.9l5.63,10.11c.82,1.65,1.06,5.09-.13,5.49l-5.88,1.7a1.59,1.59,0,0,1-.48.07H53.46l-27.33-2c-1.44-.12-.95-4.31.19-5.93Z"/><path class="cls-13" d="M33.39,89.24a1.92,1.92,0,0,1,1.13-.59L55,86.4a2,2,0,0,1,1.73.85l5.63,10c.79,1.59,1.14,5,0,5.4l-5.92,1.69a2.07,2.07,0,0,1-.49.07H54.68l-27.53-2c-1.39-.11-.74-4.28.35-5.83Z"/><path class="cls-14" d="M34.58,89.46a2,2,0,0,1,1.13-.57l20.47-2.22a2.06,2.06,0,0,1,1.74.82l5.63,9.82c.76,1.52,1.21,5,.11,5.32l-6,1.67a2.15,2.15,0,0,1-.5.07H55.9l-27.74-1.93c-1.33-.11-.52-4.25.53-5.74Z"/><path class="cls-15" d="M35.77,89.68a2.1,2.1,0,0,1,1.14-.55L57.33,87a2.07,2.07,0,0,1,1.74.78l5.64,9.67c.73,1.46,1.29,4.88.23,5.23l-6,1.66a2.15,2.15,0,0,1-.5.07l-1.31,0-27.93-1.91c-1.28-.11-.31-4.23.69-5.66Z"/><path class="cls-16" d="M37,89.9a2.11,2.11,0,0,1,1.14-.52l20.38-2.15c.4,0,1.48.19,1.75.74l5.64,9.51c.7,1.4,1.36,4.82.35,5.16l-6.07,1.64a2.08,2.08,0,0,1-.5.07l-1.32,0L30.19,102.5c-1.22-.1-.09-4.2.86-5.56Z"/><path class="cls-17" d="M38.16,90.12a2.16,2.16,0,0,1,1.14-.5l20.33-2.11c.38-.05,1.5.17,1.76.69L67,97.57c.66,1.34,1.44,4.75.48,5.07l-6.12,1.63a3.17,3.17,0,0,1-.51.08l-1.33,0-28.34-1.86c-1.17-.1.11-4.17,1-5.48Z"/><path class="cls-18" d="M39.35,90.34a2.24,2.24,0,0,1,1.15-.48l20.27-2.08c.37,0,1.53.16,1.78.66l5.64,9.22c.63,1.27,1.52,4.68.6,5l-6.17,1.61a2.26,2.26,0,0,1-.51.08l-1.34,0-28.55-1.84c-1.11-.09.33-4.14,1.2-5.38Z"/><path class="cls-19" d="M40.54,90.57a2.3,2.3,0,0,1,1.15-.47l20.23-2c.35,0,1.56.15,1.79.62l5.64,9.07c.6,1.2,1.59,4.61.72,4.9l-6.22,1.6a2.26,2.26,0,0,1-.51.08L62,104.4l-28.75-1.82c-1.06-.09.54-4.11,1.37-5.29Z"/><path class="cls-20" d="M41.73,90.79a2.49,2.49,0,0,1,1.16-.45l20.18-2c.33,0,1.58.13,1.8.58l5.64,8.91c.57,1.15,1.67,4.55.84,4.83l-6.27,1.58a2.25,2.25,0,0,1-.52.08l-1.35.08-29-1.8c-1-.08.76-4.08,1.54-5.2Z"/><path class="cls-21" d="M42.93,91c.15-.23,1-.4,1.16-.43l20.13-2c.31,0,1.6.12,1.81.54l5.64,8.77c.54,1.08,1.74,4.49,1,4.74l-6.31,1.57a2.43,2.43,0,0,1-.53.08l-1.37.09-29.16-1.77c-.94-.08,1-4,1.72-5.11Z"/><path class="cls-22" d="M44.12,91.23c.15-.21,1-.38,1.16-.41l20.09-1.93c.29,0,1.62.1,1.82.5L72.83,98c.51,1,1.82,4.42,1.09,4.66l-6.37,1.55a3.26,3.26,0,0,1-.53.09l-1.38.1-29.36-1.75c-.89-.08,1.18-4,1.88-5Z"/><path class="cls-23" d="M45.31,91.45c.14-.2,1-.36,1.17-.38l20-1.9c.27,0,1.64.09,1.83.46L74,98.1c.47,1,1.9,4.35,1.21,4.57l-6.42,1.54a4.51,4.51,0,0,1-.53.09l-1.39.11-29.57-1.73c-.83-.07,1.4-4,2.06-4.93Z"/><path class="cls-24" d="M46.5,91.67a3.12,3.12,0,0,1,1.17-.36l20-1.86c.25,0,1.66.07,1.83.42l5.65,8.31c.44.89,2,4.29,1.33,4.5L70,104.2a3.26,3.26,0,0,1-.53.09l-1.4.12-29.77-1.7c-.78-.07,1.61-4,2.22-4.84Z"/><path class="cls-25" d="M47.69,91.89a3.39,3.39,0,0,1,1.18-.34l19.95-1.83c.24,0,1.68.06,1.84.38l5.65,8.17c.41.83,2,4.22,1.45,4.42l-6.51,1.5a3.58,3.58,0,0,1-.54.09l-1.41.14-30-1.69c-.72-.06,1.83-3.94,2.39-4.74Z"/><path class="cls-26" d="M48.89,92.12a3.46,3.46,0,0,1,1.18-.33L70,90c.22,0,1.7,0,1.85.34l5.65,8c.38.76,2.12,4.15,1.57,4.33l-6.56,1.49a3.32,3.32,0,0,1-.55.09l-1.41.15-30.18-1.66c-.67-.06,2-3.91,2.56-4.66Z"/><path class="cls-27" d="M50.08,92.34A3.75,3.75,0,0,1,51.26,92l19.86-1.75c.2,0,1.73,0,1.86.3l5.65,7.87c.35.7,2.2,4.08,1.7,4.25l-6.62,1.47a5.3,5.3,0,0,1-.55.1l-1.42.15-30.39-1.63c-.61-.05,2.25-3.89,2.73-4.57Z"/><path class="cls-28" d="M51.27,92.56a4.41,4.41,0,0,1,1.19-.29l19.81-1.71c.18,0,1.75,0,1.87.26l5.65,7.71c.31.64,2.28,4,1.82,4.17l-6.67,1.46a5.3,5.3,0,0,1-.55.1l-1.44.17-30.58-1.62c-.56,0,2.46-3.85,2.9-4.48Z"/><path class="cls-29" d="M52.46,92.78a5,5,0,0,1,1.19-.27l19.77-1.68c.16,0,1.77,0,1.88.22L81,98.62c.28.57,2.35,3.95,1.94,4.09l-6.71,1.45-.56.09-1.45.18-30.79-1.59c-.5,0,2.68-3.83,3.07-4.39Z"/><path class="cls-30" d="M53.66,93a5.35,5.35,0,0,1,1.19-.24l19.72-1.65c.14,0,1.79,0,1.89.18l5.65,7.42c.25.51,2.43,3.88,2.06,4l-6.76,1.44a5.43,5.43,0,0,1-.56.09l-1.46.19-31-1.57c-.45,0,2.89-3.8,3.24-4.29Z"/><path class="cls-31" d="M54.85,93.22a5.91,5.91,0,0,1,1.2-.22l19.67-1.61a6,6,0,0,1,1.9.14l5.65,7.27c.22.44,2.5,3.81,2.18,3.92l-6.81,1.42a5.21,5.21,0,0,1-.57.09l-1.46.21-31.2-1.55c-.39,0,3.11-3.77,3.41-4.21Z"/><path class="cls-32" d="M56,93.44a8.12,8.12,0,0,1,1.2-.2l19.62-1.58a7.67,7.67,0,0,1,1.92.11l5.65,7.12c.19.38,2.58,3.74,2.31,3.83l-6.86,1.41-.58.1-1.47.21-31.4-1.52c-.34,0,3.32-3.75,3.58-4.12Z"/><path class="cls-33" d="M57.23,93.67a8.23,8.23,0,0,1,1.21-.19L78,91.94a9.42,9.42,0,0,1,1.92.06l5.66,7c.16.32,2.66,3.68,2.43,3.76l-6.91,1.39-.58.1-1.48.22-31.61-1.5c-.28,0,3.53-3.71,3.75-4Z"/><path class="cls-34" d="M58.43,93.89a9.63,9.63,0,0,1,1.2-.17l19.53-1.5a11.28,11.28,0,0,1,1.93,0l5.66,6.82c.12.25,2.73,3.61,2.55,3.67l-7,1.38-.58.1-1.5.24L48.46,103c-.23,0,3.74-3.69,3.92-3.94Z"/><path class="cls-35" d="M59.62,94.11S60.8,94,60.83,94L80.31,92.5a14,14,0,0,1,1.94,0l5.66,6.67c.09.19,2.81,3.54,2.67,3.59l-7,1.36-.58.1-1.51.25-32-1.46c-.17,0,4-3.65,4.09-3.84Z"/><path class="cls-36" d="M60.81,94.33S62,94.21,62,94.2l19.43-1.43s1.93-.1,2,0l5.66,6.52c.06.12,2.88,3.47,2.79,3.5l-7,1.35-.59.11-1.52.25L50.48,103c-.11,0,4.18-3.63,4.26-3.75Z"/><path class="cls-37" d="M62,94.55l1.22-.1,19.39-1.4s2-.12,2-.1l5.66,6.37c0,.07,3,3.41,2.91,3.43L86,104.08l-.6.11-1.52.27L51.5,103.05c-.06,0,4.39-3.61,4.43-3.67Z"/><polygon class="cls-38" points="63.2 94.77 85.73 93.19 94.43 102.75 85.14 104.46 52.51 103.07 63.2 94.77"/></g><path class="cls-39" d="M99.55,37.34a.24.24,0,0,1-.22-.14L98.72,36l-1.36-.2a.25.25,0,0,1-.21-.28.24.24,0,0,1,.29-.21l1.48.22a.26.26,0,0,1,.19.13L99.77,37a.24.24,0,0,1-.11.33A.2.2,0,0,1,99.55,37.34Z"/><path class="cls-39" d="M105.6,49.59a.24.24,0,0,1-.22-.14l-1.51-3.06a.25.25,0,0,1,.11-.33.23.23,0,0,1,.33.11l1.52,3.06a.25.25,0,0,1-.12.34Zm-3-6.12a.25.25,0,0,1-.23-.14l-1.51-3.07a.25.25,0,0,1,.11-.33.26.26,0,0,1,.34.11l1.51,3.07a.25.25,0,0,1-.11.33Z"/><path class="cls-39" d="M106.39,54.55a.26.26,0,0,1-.24-.16.25.25,0,0,1,.14-.32l1.15-.45-.55-1.1a.25.25,0,0,1,.12-.34.24.24,0,0,1,.33.12l.67,1.34a.28.28,0,0,1,0,.2.23.23,0,0,1-.15.14l-1.39.55A.15.15,0,0,1,106.39,54.55Z"/><path class="cls-39" d="M89.37,61.26a.25.25,0,0,1-.23-.16.24.24,0,0,1,.14-.32l2.83-1.12a.25.25,0,0,1,.33.14.24.24,0,0,1-.14.32l-2.84,1.12ZM95,59a.25.25,0,0,1-.09-.48l2.84-1.12a.25.25,0,0,1,.32.14.25.25,0,0,1-.14.33L95.13,59Zm5.67-2.23a.25.25,0,0,1-.23-.16.24.24,0,0,1,.14-.32l2.84-1.12a.25.25,0,0,1,.18.46l-2.83,1.12Z"/><path class="cls-39" d="M85.14,62.93a.23.23,0,0,1-.16-.06l-1.15-1a.25.25,0,1,1,.32-.38l1,.86,1.26-.49a.25.25,0,0,1,.33.14.26.26,0,0,1-.14.32l-1.4.55Z"/><path class="cls-39" d="M81.85,60.2a.27.27,0,0,1-.16-.06l-2.13-1.78a.25.25,0,0,1,0-.35.24.24,0,0,1,.35,0L82,59.75a.26.26,0,0,1,0,.36A.29.29,0,0,1,81.85,60.2Zm-4.26-3.55a.25.25,0,0,1-.16-.06L75.3,54.82a.25.25,0,0,1,0-.36.25.25,0,0,1,.35,0l2.13,1.78a.24.24,0,0,1,0,.35A.25.25,0,0,1,77.59,56.65ZM73.33,53.1a.23.23,0,0,1-.16-.06L71,51.27a.25.25,0,0,1,.32-.39l2.14,1.78a.25.25,0,0,1,0,.35A.25.25,0,0,1,73.33,53.1Z"/><path class="cls-39" d="M69.06,49.55a.33.33,0,0,1-.16,0l-1.15-1a.27.27,0,0,1-.09-.24l.27-1.48a.24.24,0,0,1,.29-.2.26.26,0,0,1,.2.29l-.24,1.34,1,.86a.24.24,0,0,1,0,.35A.25.25,0,0,1,69.06,49.55Z"/><path class="cls-39" d="M68.67,44.35h0a.25.25,0,0,1-.2-.29l.49-2.77a.25.25,0,0,1,.29-.2.25.25,0,0,1,.21.29l-.5,2.76A.25.25,0,0,1,68.67,44.35Zm1-5.53h0a.25.25,0,0,1-.21-.29l.5-2.76a.25.25,0,0,1,.29-.21.25.25,0,0,1,.2.29l-.49,2.77A.27.27,0,0,1,69.67,38.82Z"/><path class="cls-39" d="M70.67,33.28h0a.25.25,0,0,1-.2-.29l.26-1.48a.24.24,0,0,1,.29-.2l1.48.22a.25.25,0,0,1,.21.29.26.26,0,0,1-.28.21l-1.25-.19-.22,1.24A.25.25,0,0,1,70.67,33.28Z"/><path class="cls-39" d="M94.63,35.36h0l-2.78-.41a.26.26,0,0,1-.21-.29.25.25,0,0,1,.29-.21l2.77.42a.25.25,0,0,1,0,.5Zm-5.56-.84h0l-2.78-.41a.26.26,0,0,1-.21-.29.25.25,0,0,1,.28-.21l2.78.42a.24.24,0,0,1,.21.28A.25.25,0,0,1,89.07,34.52Zm-5.55-.83h0l-2.77-.42a.25.25,0,0,1,.07-.49l2.78.42a.25.25,0,0,1,.21.28A.26.26,0,0,1,83.52,33.69ZM78,32.86h0l-2.78-.42a.25.25,0,0,1-.21-.28.24.24,0,0,1,.29-.21l2.77.41a.25.25,0,0,1,.21.29A.24.24,0,0,1,78,32.86Z"/><path class="cls-39" d="M69.47,32.13a.25.25,0,0,1-.06-.5l1.47-.32a.25.25,0,0,1,.3.19.26.26,0,0,1-.2.3l-1.46.32Z"/><path class="cls-39" d="M39,53.38a.3.3,0,0,1-.16-.05.26.26,0,0,1,0-.36l1.79-2.15a.25.25,0,0,1,.38.32l-1.79,2.15A.25.25,0,0,1,39,53.38Zm3.58-4.3a.25.25,0,0,1-.16-.06.25.25,0,0,1,0-.35l1.79-2.15a.25.25,0,1,1,.38.32L42.77,49A.25.25,0,0,1,42.58,49.08Zm3.58-4.31a.3.3,0,0,1-.16-.05.25.25,0,0,1,0-.36l1.79-2.15a.25.25,0,0,1,.38.32l-1.79,2.15A.25.25,0,0,1,46.16,44.77Zm3.58-4.3a.25.25,0,0,1-.19-.41l1.79-2.15a.25.25,0,1,1,.38.32l-1.79,2.15A.25.25,0,0,1,49.74,40.47Zm3.58-4.31a.24.24,0,0,1-.16,0,.25.25,0,0,1,0-.36l.48-.58a.25.25,0,0,1,.14-.08l2-.44a.25.25,0,0,1,.3.19.25.25,0,0,1-.19.3l-1.91.42-.43.51A.25.25,0,0,1,53.32,36.16Zm5.21-1.62a.25.25,0,0,1-.24-.2.24.24,0,0,1,.19-.29l2.73-.61a.25.25,0,1,1,.11.49l-2.73.6ZM64,33.33a.23.23,0,0,1-.24-.19.25.25,0,0,1,.19-.3l2.73-.6a.25.25,0,0,1,.3.19.26.26,0,0,1-.19.3l-2.74.6Z"/><path class="cls-39" d="M37.52,57.49a.35.35,0,0,1-.14,0l-1.26-.81a.25.25,0,0,1-.11-.17.21.21,0,0,1,.05-.2l1-1.15a.25.25,0,1,1,.38.32l-.77.93,1,.65a.26.26,0,0,1,.08.35A.26.26,0,0,1,37.52,57.49Z"/><path class="cls-39" d="M46.33,63.1a.31.31,0,0,1-.13,0L44,61.66a.24.24,0,0,1-.08-.34.25.25,0,0,1,.34-.08l2.21,1.4a.26.26,0,0,1,.07.35A.24.24,0,0,1,46.33,63.1Zm-4.4-2.8a.23.23,0,0,1-.14,0l-2.2-1.4a.26.26,0,0,1-.08-.35.26.26,0,0,1,.35-.07l2.2,1.4a.25.25,0,0,1-.13.46Z"/><path class="cls-39" d="M49.8,65.31a.22.22,0,0,1-.13,0l-1.27-.8a.26.26,0,0,1-.07-.35.24.24,0,0,1,.34-.07l1.1.7,1-.89a.27.27,0,0,1,.36,0,.25.25,0,0,1,0,.36l-1.1,1A.27.27,0,0,1,49.8,65.31Z"/><path class="cls-39" d="M53.18,62.2a.27.27,0,0,1-.19-.08.25.25,0,0,1,0-.36l2.27-2.09a.24.24,0,0,1,.35,0,.25.25,0,0,1,0,.35l-2.27,2.1A.23.23,0,0,1,53.18,62.2ZM57.72,58a.23.23,0,0,1-.18-.08.24.24,0,0,1,0-.35l2.27-2.1a.25.25,0,1,1,.34.37l-2.27,2.1A.27.27,0,0,1,57.72,58Zm4.54-4.19a.27.27,0,0,1-.18-.08.26.26,0,0,1,0-.36l2.27-2.09a.25.25,0,0,1,.36,0,.24.24,0,0,1,0,.35l-2.27,2.1A.23.23,0,0,1,62.26,53.81Z"/><path class="cls-39" d="M66.81,49.61a.27.27,0,0,1-.19-.08.24.24,0,0,1,0-.35l1.1-1a.25.25,0,0,1,.35,0,.25.25,0,0,1,0,.36l-1.1,1A.27.27,0,0,1,66.81,49.61Z"/><path class="cls-39" d="M50.47,66.66a.24.24,0,0,1-.23-.14l-.66-1.35a.25.25,0,0,1,.11-.33A.26.26,0,0,1,50,65l.66,1.35a.25.25,0,0,1-.11.33Z"/><path class="cls-39" d="M57.28,80.49a.24.24,0,0,1-.22-.14l-1.14-2.3a.25.25,0,0,1,.12-.34.24.24,0,0,1,.33.12l1.14,2.3a.25.25,0,0,1-.12.34ZM55,75.88a.24.24,0,0,1-.22-.14l-1.14-2.3a.25.25,0,0,1,.12-.34.25.25,0,0,1,.33.11l1.14,2.31a.26.26,0,0,1-.12.34Zm-2.27-4.61a.27.27,0,0,1-.23-.14l-1.13-2.31a.25.25,0,0,1,.11-.33.26.26,0,0,1,.34.11L53,70.91a.25.25,0,0,1-.11.33A.23.23,0,0,1,52.74,71.27Z"/><path class="cls-39" d="M59.09,84.14a.24.24,0,0,1-.23-.14l-.66-1.34a.25.25,0,1,1,.45-.22l.59,1.2,1.34,0h0a.25.25,0,0,1,.25.25.24.24,0,0,1-.24.25l-1.5,0Z"/><path class="cls-39" d="M63.4,84.06a.25.25,0,0,1,0-.5l2.82-.06h0a.25.25,0,0,1,0,.5l-2.82.06ZM69,83.94a.25.25,0,0,1-.25-.24.25.25,0,0,1,.24-.26l2.82-.06a.27.27,0,0,1,.25.25.23.23,0,0,1-.24.25L69,83.94Zm5.63-.11a.25.25,0,0,1,0-.5l2.82-.06a.26.26,0,0,1,.25.24.24.24,0,0,1-.24.26l-2.82.06Z"/><path class="cls-39" d="M80.29,83.71a.25.25,0,0,1-.25-.24.25.25,0,0,1,.24-.26l1.29,0,.21-1.28a.25.25,0,0,1,.29-.21.25.25,0,0,1,.2.29L82,83.47a.26.26,0,0,1-.25.21l-1.5,0Z"/><path class="cls-39" d="M82.44,79.66h0a.26.26,0,0,1-.21-.29l.41-2.54a.25.25,0,0,1,.29-.21.26.26,0,0,1,.21.29l-.42,2.54A.25.25,0,0,1,82.44,79.66Zm.82-5.09h0a.25.25,0,0,1-.21-.29l.41-2.54a.25.25,0,0,1,.29-.2.25.25,0,0,1,.21.28l-.41,2.54A.26.26,0,0,1,83.26,74.57Zm.82-5.08h0a.25.25,0,0,1-.21-.29l.41-2.54a.26.26,0,0,1,.29-.21.26.26,0,0,1,.21.29l-.41,2.54A.26.26,0,0,1,84.08,69.49Z"/><path class="cls-39" d="M84.9,64.41h0a.26.26,0,0,1-.21-.29l.22-1.34-1-.87a.25.25,0,1,1,.32-.38l1.15,1a.24.24,0,0,1,.09.23l-.24,1.48A.26.26,0,0,1,84.9,64.41Z"/><path class="cls-39" d="M81.85,60.2a.27.27,0,0,1-.16-.06l-2.13-1.78a.25.25,0,0,1,0-.35.24.24,0,0,1,.35,0L82,59.75a.26.26,0,0,1,0,.36A.29.29,0,0,1,81.85,60.2Zm-4.26-3.55a.25.25,0,0,1-.16-.06L75.3,54.82a.25.25,0,0,1,0-.36.25.25,0,0,1,.35,0l2.13,1.78a.24.24,0,0,1,0,.35A.25.25,0,0,1,77.59,56.65ZM73.33,53.1a.23.23,0,0,1-.16-.06L71,51.27a.25.25,0,0,1,.32-.39l2.14,1.78a.25.25,0,0,1,0,.35A.25.25,0,0,1,73.33,53.1Z"/><path class="cls-39" d="M69.06,49.55a.33.33,0,0,1-.16,0l-1.15-1a.25.25,0,0,1,0-.36.25.25,0,0,1,.35,0l1.15,1a.24.24,0,0,1,0,.35A.25.25,0,0,1,69.06,49.55Z"/><path class="cls-39" d="M49.8,65.31a.22.22,0,0,1-.13,0l-1.27-.8a.26.26,0,0,1-.07-.35.24.24,0,0,1,.34-.07l1.27.8a.26.26,0,0,1,.07.35A.25.25,0,0,1,49.8,65.31Z"/><path class="cls-39" d="M46.33,63.1a.31.31,0,0,1-.13,0L44,61.66a.24.24,0,0,1-.08-.34.25.25,0,0,1,.34-.08l2.21,1.4a.26.26,0,0,1,.07.35A.24.24,0,0,1,46.33,63.1Zm-4.4-2.8a.23.23,0,0,1-.14,0l-2.2-1.4a.26.26,0,0,1-.08-.35.26.26,0,0,1,.35-.07l2.2,1.4a.25.25,0,0,1-.13.46Z"/><path class="cls-39" d="M36.26,58.19a.25.25,0,0,1-.25-.25v-1.5a.25.25,0,0,1,.13-.22.27.27,0,0,1,.26,0l1.26.8a.25.25,0,0,1-.27.43l-.87-.56v1a.25.25,0,0,1-.24.25Z"/><path class="cls-39" d="M50,99.39a.24.24,0,0,1-.2-.11L48.13,97a.23.23,0,0,1,.06-.34.25.25,0,0,1,.35.06L50.17,99a.25.25,0,0,1-.06.35A.3.3,0,0,1,50,99.39ZM46.7,94.73a.22.22,0,0,1-.2-.1L44.86,92.3a.26.26,0,0,1,.07-.35.24.24,0,0,1,.34.06l1.64,2.33a.26.26,0,0,1-.07.35A.23.23,0,0,1,46.7,94.73Zm-3.26-4.65a.26.26,0,0,1-.21-.11L41.6,87.64a.25.25,0,1,1,.41-.28l1.63,2.32a.24.24,0,0,1-.06.35A.24.24,0,0,1,43.44,90.08Zm-3.26-4.66a.25.25,0,0,1-.21-.1L38.34,83a.25.25,0,0,1,.41-.29L40.38,85a.25.25,0,0,1-.06.35A.23.23,0,0,1,40.18,85.42Zm-3.27-4.65a.26.26,0,0,1-.2-.11l-.5-.71a.23.23,0,0,1,0-.14l0-2a.25.25,0,0,1,.25-.25h0a.25.25,0,0,1,.25.25l0,1.9.45.64a.25.25,0,0,1-.06.35A.3.3,0,0,1,36.91,80.77Zm-.53-5.53a.25.25,0,0,1-.25-.25l0-2.84a.25.25,0,0,1,.25-.25h0a.25.25,0,0,1,.25.25l0,2.84a.25.25,0,0,1-.25.25Zm0-5.68a.25.25,0,0,1-.25-.25l0-2.84a.26.26,0,0,1,.25-.26h0a.25.25,0,0,1,.25.25l0,2.85a.25.25,0,0,1-.25.25Zm0-5.69a.25.25,0,0,1-.25-.25l0-2.84a.25.25,0,0,1,.25-.25h0a.25.25,0,0,1,.25.25l0,2.84a.25.25,0,0,1-.25.25Z"/><path class="cls-39" d="M52.45,102.94a.26.26,0,0,1-.2-.1l-.86-1.23a.25.25,0,1,1,.41-.29l.58.83.34-1a.25.25,0,1,1,.47.16l-.5,1.42a.24.24,0,0,1-.2.16Z"/><path class="cls-39" d="M54.08,98.33H54a.26.26,0,0,1-.16-.32L55,94.81a.26.26,0,0,1,.32-.16.25.25,0,0,1,.15.32l-1.13,3.2A.24.24,0,0,1,54.08,98.33ZM56.33,92l-.08,0a.24.24,0,0,1-.15-.32l1.12-3.19a.25.25,0,0,1,.32-.15.23.23,0,0,1,.15.31l-1.12,3.2A.26.26,0,0,1,56.33,92Z"/><path class="cls-39" d="M58.59,85.56l-.09,0a.25.25,0,0,1-.15-.32l.46-1.31-.61-1.25a.25.25,0,1,1,.45-.22l.66,1.34a.27.27,0,0,1,0,.2l-.5,1.41A.25.25,0,0,1,58.59,85.56Z"/><path class="cls-39" d="M57.29,80.49a.24.24,0,0,1-.23-.14l-1.14-2.3a.25.25,0,0,1,.12-.34.24.24,0,0,1,.33.12l1.14,2.3a.26.26,0,0,1-.11.34ZM55,75.88a.24.24,0,0,1-.22-.14l-1.14-2.3a.25.25,0,0,1,.12-.34.25.25,0,0,1,.33.11l1.14,2.31a.26.26,0,0,1-.12.34Zm-2.27-4.61a.27.27,0,0,1-.23-.14l-1.13-2.31a.25.25,0,0,1,.11-.33.26.26,0,0,1,.34.11L53,70.91a.25.25,0,0,1-.11.33A.23.23,0,0,1,52.74,71.27Z"/><path class="cls-39" d="M50.47,66.66a.24.24,0,0,1-.23-.14l-.66-1.35a.25.25,0,0,1,.11-.33A.26.26,0,0,1,50,65l.66,1.35a.25.25,0,0,1-.11.33Z"/><path class="cls-39" d="M59.09,84.14a.25.25,0,0,1,0-.5l1.5,0h0a.25.25,0,0,1,.25.25.24.24,0,0,1-.24.25l-1.5,0Z"/><path class="cls-39" d="M63.4,84.06a.25.25,0,0,1,0-.5l2.82-.06h0a.25.25,0,0,1,0,.5l-2.82.06ZM69,83.94a.25.25,0,0,1-.25-.24.25.25,0,0,1,.24-.26l2.82-.06a.27.27,0,0,1,.25.25.23.23,0,0,1-.24.25L69,83.94Zm5.63-.11a.25.25,0,0,1,0-.5l2.82-.06a.26.26,0,0,1,.25.24.24.24,0,0,1-.24.26l-2.82.06Z"/><path class="cls-39" d="M82.61,84.94a.25.25,0,0,1-.21-.12l-.75-1.13-1.36,0a.22.22,0,0,1-.25-.24.25.25,0,0,1,.24-.26l1.5,0a.25.25,0,0,1,.22.12l.82,1.25a.26.26,0,0,1-.07.35A.37.37,0,0,1,82.61,84.94Z"/><path class="cls-39" d="M92,99.35a.22.22,0,0,1-.2-.12l-1.58-2.4a.25.25,0,0,1,.08-.34.24.24,0,0,1,.34.07L92.24,99a.25.25,0,0,1-.07.35A.33.33,0,0,1,92,99.35Zm-3.14-4.81a.26.26,0,0,1-.21-.11L87.11,92a.26.26,0,0,1,.07-.35.25.25,0,0,1,.35.07l1.57,2.41a.24.24,0,0,1-.07.34A.23.23,0,0,1,88.89,94.54Zm-3.14-4.8a.26.26,0,0,1-.21-.11L84,87.23a.25.25,0,0,1,.42-.28L86,89.35a.26.26,0,0,1-.07.35A.23.23,0,0,1,85.75,89.74Z"/><path class="cls-39" d="M93,103.27a.25.25,0,0,1,0-.49l1.1-.2-.61-1a.24.24,0,0,1,.07-.34.24.24,0,0,1,.34.07l.83,1.26a.27.27,0,0,1,0,.23.29.29,0,0,1-.19.15l-1.47.27Z"/><path class="cls-39" d="M84,104.65h0l-3-.16a.26.26,0,0,1-.24-.26.25.25,0,0,1,.27-.24l3,.16a.25.25,0,0,1,.23.26A.24.24,0,0,1,84,104.65Zm3-.29a.25.25,0,0,1-.24-.2.24.24,0,0,1,.2-.29l3-.55a.25.25,0,0,1,.29.21.25.25,0,0,1-.2.29l-3,.54Zm-9,0h0l-3-.17a.23.23,0,0,1-.23-.26c0-.14.09-.23.26-.24l3,.17a.23.23,0,0,1,.23.26A.25.25,0,0,1,78,104.33ZM72,104h0l-3-.16a.26.26,0,0,1-.23-.27.24.24,0,0,1,.26-.23l3,.16a.26.26,0,0,1,.24.26A.25.25,0,0,1,72,104Zm-6-.32h0l-3-.17a.25.25,0,0,1,0-.5l3,.17a.24.24,0,0,1,.24.26A.26.26,0,0,1,66,103.68Zm-6-.33h0l-3-.16a.26.26,0,0,1-.24-.27.25.25,0,0,1,.26-.23l3,.16a.25.25,0,0,1,0,.5Z"/><path class="cls-39" d="M54,103h0l-1.5-.09a.25.25,0,0,1-.22-.33l.5-1.41a.25.25,0,1,1,.47.16l-.39,1.1,1.17.07a.24.24,0,0,1,.23.26A.26.26,0,0,1,54,103Z"/><path class="cls-39" d="M54.08,98.33H54a.26.26,0,0,1-.16-.32L55,94.81a.26.26,0,0,1,.32-.16.25.25,0,0,1,.15.32l-1.13,3.2A.24.24,0,0,1,54.08,98.33ZM56.33,92l-.08,0a.24.24,0,0,1-.15-.32l1.12-3.19a.25.25,0,0,1,.32-.15.23.23,0,0,1,.15.31l-1.12,3.2A.26.26,0,0,1,56.33,92Z"/><path class="cls-39" d="M58.59,85.56l-.09,0a.25.25,0,0,1-.15-.32l.5-1.41a.25.25,0,0,1,.32-.15.24.24,0,0,1,.15.32l-.5,1.41A.25.25,0,0,1,58.59,85.56Z"/><path class="cls-39" d="M85.14,104.79h0l-32.68-1.6A.47.47,0,0,1,52,103L36,80.09a.49.49,0,0,1-.06-.47.5.5,0,0,1,.36-.3L60,74.41a.46.46,0,0,1,.36.06l24.93,15a.51.51,0,0,1,.24.42l.1,14.28a.59.59,0,0,1,0,.14.47.47,0,0,1-.51.5Zm-32.42-2.58,31.92,1.55-.1-13.6L60,75.43,37.26,80.14Z"/><path class="cls-39" d="M85.14,104.79a.47.47,0,0,1-.32-.12.49.49,0,0,1-.18-.38l-.1-14.41a.5.5,0,0,1,.18-.39l21.22-17.86a.51.51,0,0,1,.7.05l7.17,8a.51.51,0,0,1,0,.66l-19,22.58a.51.51,0,0,1-.29.17l-9.29,1.71Zm.4-14.68.1,13.58,8.52-1.57L112.77,80l-6.55-7.29Z"/><path class="cls-39" d="M36.42,80.31a.52.52,0,0,1-.32-.11.53.53,0,0,1-.18-.39l-.17-23.37a.47.47,0,0,1,.12-.32L53.42,35a.49.49,0,0,1,.61-.12l14.11,7.2a.49.49,0,0,1,.25.56L60.59,75a.49.49,0,0,1-.38.38L36.52,80.3Zm.33-23.69.16,22.57L59.7,74.47,67.33,42.8,53.93,36Z"/><path class="cls-39" d="M97.67,44.65h0L67.88,43a.46.46,0,0,1-.2-.05l-14.11-7.2a.51.51,0,0,1,.12-.94l17.13-3.77a.4.4,0,0,1,.19,0L99,35.25a.5.5,0,0,1,.42.57l-1.21,8.4A.51.51,0,0,1,97.67,44.65ZM68,42l29.2,1.59,1.08-7.46L71,32.06,55.27,35.52Z"/><path class="cls-39" d="M113.44,80.49a.51.51,0,0,1-.38-.16l-7.17-8a.57.57,0,0,1-.1-.19L97.2,44.3a.42.42,0,0,1,0-.22l1.21-8.41a.51.51,0,0,1,.42-.42.5.5,0,0,1,.52.27l8.9,18a.56.56,0,0,1,0,.12l5.63,26.11A.6.6,0,0,1,114,80a.52.52,0,0,1-.51.5Zm-6.73-8.73,5.84,6.5-5.24-24.34L99.15,37.41l-1,6.7Z"/><path class="cls-39" d="M85,90.38a.59.59,0,0,1-.26-.07l-24.93-15a.51.51,0,0,1-.23-.55l7.8-32.36a.48.48,0,0,1,.52-.39L97.7,43.65a.49.49,0,0,1,.45.35l8.59,27.87a.5.5,0,0,1-.15.53L85.36,90.26A.49.49,0,0,1,85,90.38ZM60.68,74.66,85,89.26l20.7-17.41L97.3,44.63l-29-1.58Z"/></g></g></g></svg>