<svg id="Layer_1" data-name="Layer 1" xmlns="http://www.w3.org/2000/svg" viewBox="0 0 96 92"><defs><style>.cls-1{fill:#7272fa;}</style></defs><g id="icon"><path id="path" class="cls-1" d="M48.22,46.62a5.89,5.89,0,1,1,5.89-5.89,5.89,5.89,0,0,1-5.89,5.89Zm0-2.14a3.75,3.75,0,1,0-3.75-3.75h0a3.75,3.75,0,0,0,3.75,3.75Zm11.15,7.58a6.81,6.81,0,0,1,.43,1.78c.08.55.14,1.1.19,1.65v.23a2.68,2.68,0,0,1-2.67,2.68H39.11a2.67,2.67,0,0,1-2.67-2.68v-.23c0-.55.11-1.1.19-1.65a6.81,6.81,0,0,1,.43-1.78c.82-1.78,6.89-4.37,11.15-4.37s10.33,2.59,11.15,4.38Zm-2.06.82a4.74,4.74,0,0,0-.62-.46,16,16,0,0,0-2.25-1.16,16.48,16.48,0,0,0-6.22-1.43A16.48,16.48,0,0,0,42,51.26a15.31,15.31,0,0,0-2.24,1.16,5.64,5.64,0,0,0-.63.46L39,53a7.58,7.58,0,0,0-.24,1.15c0,.36-.1.75-.14,1.14,0,.2,0,.36,0,.46a.54.54,0,0,0,.53.51H57.33a.54.54,0,0,0,.53-.51c0-.1,0-.26,0-.46,0-.38-.08-.76-.14-1.14A6.53,6.53,0,0,0,57.44,53l-.13-.12Z"/></g></svg>