<svg id="Layer_1" data-name="Layer 1" xmlns="http://www.w3.org/2000/svg" xmlns:xlink="http://www.w3.org/1999/xlink" viewBox="0 0 105.53 107.23"><defs><style>.cls-1{fill:none;}.cls-2{clip-path:url(#clip-path);}.cls-3{fill:#61c2cb;}.cls-4{fill:#fff;}.cls-5{fill:#4f4840;}.cls-6{fill:#fcc083;}.cls-7{fill:#e8aa63;}.cls-8{fill:#fff7ea;}.cls-9{clip-path:url(#clip-path-2);}.cls-10{fill:#7900ff;}.cls-11{fill:#7272fa;}</style><clipPath id="clip-path"><path class="cls-1" d="M91.74,50.4a39,39,0,1,1-39-39A39,39,0,0,1,91.74,50.4Z"/></clipPath><clipPath id="clip-path-2"><rect class="cls-1" x="9.93" y="60.01" width="85.44" height="31.18"/></clipPath></defs><title>Artboard 6SVG-for-Verto</title><g class="cls-2"><path class="cls-3" d="M91.74,50.4a39,39,0,1,1-39-39A39,39,0,0,1,91.74,50.4Z"/><path class="cls-4" d="M80.64,53.94,57.9,51.09a36.16,36.16,0,0,0-9.18,0L26,53.94l2.64-13.32a37.29,37.29,0,0,0,.53-10.7L27.85,16.67,49.36,19a37.25,37.25,0,0,0,7.9,0l21.5-2.32L77.48,29.92A36.59,36.59,0,0,0,78,40.62Z"/><path class="cls-5" d="M57.85,21a19.6,19.6,0,0,0-5.19-1,19.67,19.67,0,0,0-5.2,1c-4.57,2-4.63,5.86-4.63,11.88H62.48C62.48,26.85,62.42,23,57.85,21Z"/><path class="cls-6" d="M56.57,44.93H49A14.57,14.57,0,0,1,44.57,57l7.82,9.44h.73L61,57A14.53,14.53,0,0,1,56.57,44.93Z"/><path class="cls-7" d="M56.57,44.93H49a14.09,14.09,0,0,1-1,7c3.18-1.24,5.72-3.86,8.52-6.26A7.44,7.44,0,0,1,56.57,44.93Z"/><path class="cls-6" d="M62.79,32.42c-.29-.76-.81-.36-1.21.14.12-5.89-3-8.88-3-8.88H46.93s-3.13,3-3,8.83c-.4-.48-.89-.82-1.17-.09-.53,1.37.71,3.24.47,5.14-.16,1.29.86,1.16,1.5.8a22.75,22.75,0,0,0,1.17,3.46c1.22,2.84,4.72,5.42,6.87,5.42s5.6-2.6,6.87-5.42a16.63,16.63,0,0,0,1.18-3.48c.64.38,1.69.53,1.52-.78C62.08,35.66,63.32,33.79,62.79,32.42Z"/><path class="cls-8" d="M69.41,55C68,52.34,57,49.69,57,49.69a23.9,23.9,0,0,1-1.32,8.84C55.12,60.25,54.5,62,54,63.46l-1.08,3s-1.08-2.39-1.29-3C51,62,50.41,60.25,49.86,58.53a24.17,24.17,0,0,1-1.32-8.84s-11,2.65-12.42,5.28c-.74,1.37-1.45,8.56-1.88,13.79H71.29C70.86,63.53,70.15,56.34,69.41,55Z"/><path class="cls-5" d="M46,23.51S52.49,35.79,62.76,23C62.76,23,53.76,15.88,46,23.51Z"/><path class="cls-5" d="M45.79,37.41c-.42-3.63-.78-12.13,4.66-14.5l-1.66-.8s-4.87,1-5.31,8.49l1.3,7.93h0A1,1,0,0,0,45.79,37.41Z"/><path class="cls-5" d="M60.66,38.53h.05L62,30.65c-.45-7.51-5.31-8.49-5.31-8.49L55,23c5.43,2.37,5.07,10.85,4.65,14.49A1,1,0,0,0,60.66,38.53Z"/><g class="cls-9"><rect class="cls-10" x="9.93" y="60.01" width="85.44" height="31.18"/><polygon class="cls-4" points="16.62 79.46 19.67 81.83 23.5 80.85 22.01 84.26 24.2 87.33 20.23 87.08 17.76 89.95 16.8 86.38 13.08 85.09 16.45 83.14 16.62 79.46"/><polygon class="cls-4" points="30.47 89.95 29.31 88.82 27.64 89.06 28.45 87.69 27.7 86.29 29.35 86.58 30.55 85.48 30.76 87.03 32.26 87.75 30.74 88.41 30.47 89.95"/><polygon class="cls-4" points="42.52 79.92 40.31 78.91 38.16 80.03 38.51 77.77 36.69 76.22 39.12 75.83 40.15 73.75 41.3 75.77 43.75 76.03 42.04 77.68 42.52 79.92"/><polygon class="cls-4" points="91.39 93.89 89.17 92.88 87.02 94 87.37 91.74 85.55 90.19 87.98 89.8 89.01 87.72 90.17 89.74 92.61 90 90.9 91.64 91.39 93.89"/><polygon class="cls-4" points="45.94 91.2 44.53 88.54 41.37 88.12 43.65 86.05 43.11 83.14 45.94 84.51 48.77 83.14 48.23 86.05 50.51 88.12 47.35 88.54 45.94 91.2"/><polygon class="cls-4" points="57.75 81.78 55.83 80.94 53.99 81.94 54.26 79.98 52.67 78.67 54.76 78.3 55.61 76.5 56.64 78.22 58.75 78.42 57.3 79.86 57.75 81.78"/><polygon class="cls-4" points="19.32 72.13 18.05 70.73 16.09 70.9 17.13 69.35 16.35 67.67 18.26 68.11 19.74 66.9 19.88 68.73 21.58 69.66 19.75 70.34 19.32 72.13"/><polygon class="cls-4" points="28.69 74.43 27.27 74.47 26.51 75.58 26.03 74.34 24.66 74.01 25.78 73.21 25.7 71.9 26.87 72.63 28.18 72.16 27.79 73.42 28.69 74.43"/><polygon class="cls-4" points="52.16 72.16 51.27 70.49 49.27 70.22 50.72 68.92 50.38 67.08 52.16 67.95 53.94 67.08 53.6 68.92 55.04 70.22 53.05 70.49 52.16 72.16"/><polygon class="cls-4" points="69 74.43 65.89 74.39 64.09 76.73 63.17 73.98 60.2 73.12 62.75 71.46 62.72 68.58 65.2 70.31 68.15 69.39 67.14 72.11 69 74.43"/><polygon class="cls-4" points="66.62 84.71 65.64 83.69 64.17 83.86 64.92 82.68 64.29 81.45 65.73 81.74 66.8 80.8 66.95 82.16 68.24 82.81 66.89 83.37 66.62 84.71"/><polygon class="cls-4" points="34.63 72.57 33.65 71.55 32.19 71.72 32.93 70.54 32.3 69.31 33.74 69.6 34.81 68.66 34.96 70.02 36.26 70.68 34.91 71.23 34.63 72.57"/><polygon class="cls-4" points="81.2 85.48 77.77 86.48 76.7 89.67 74.62 86.95 71.02 87 73.17 84.32 72 81.17 75.41 82.23 78.29 80.23 78.26 83.56 81.2 85.48"/><polygon class="cls-4" points="82.39 73.31 80.56 72.97 79.22 74.18 79 72.46 77.34 71.65 79.04 70.93 79.36 69.22 80.63 70.49 82.48 70.24 81.56 71.75 82.39 73.31"/><polygon class="cls-4" points="89.64 71.06 88.72 70.07 87.32 70.21 88.05 69.09 87.47 67.89 88.85 68.19 89.9 67.31 90.01 68.62 91.24 69.27 89.94 69.78 89.64 71.06"/><polygon class="cls-4" points="96.82 80.7 92.84 81.08 90.92 84.34 89.3 80.94 85.36 80.26 88.34 77.78 87.83 74.1 91.29 75.96 94.91 74.37 94.07 78 96.82 80.7"/></g><rect class="cls-11" x="9.93" y="60.01" width="85.44" height="5.89"/></g></svg>