<?xml version="1.0" encoding="utf-8"?>
<!-- Generator: Adobe Illustrator 21.0.0, SVG Export Plug-In . SVG Version: 6.00 Build 0)  -->
<svg version="1.1" id="Layer_1" xmlns="http://www.w3.org/2000/svg" xmlns:xlink="http://www.w3.org/1999/xlink" x="0px" y="0px"
	 viewBox="0 0 96 92" style="enable-background:new 0 0 96 92;" xml:space="preserve">
<style type="text/css">
	.st0{fill:#B0B0B0;}
</style>
<g>
	<path class="st0" d="M66.7,36.4c-0.3-0.2-0.7-0.1-0.9,0.2l-1.6,3.3c-1.8-5.4-6.2-9.6-11.8-11.1c-9.1-2.4-18.4,3-20.8,12
		c-0.1,0.3,0.1,0.7,0.5,0.8c0.3,0.1,0.7-0.1,0.8-0.5c1.5-5.7,6.1-10,11.8-11.3c8-1.8,15.9,3,18.3,10.6l-3.6-1.8
		c-0.3-0.1-0.7,0-0.8,0.3c-0.2,0.3,0,0.7,0.3,0.9l4.9,2.4c0,0,0,0,0,0c0,0,0.1,0,0.1,0c0,0,0,0,0,0c0,0,0.1,0,0.1,0
		c0.1,0,0.3-0.1,0.4-0.1c0,0,0,0,0,0c0,0,0.1,0,0.1-0.1c0.1-0.1,0.1-0.1,0.1-0.2l2.4-4.7C67.1,36.9,67,36.5,66.7,36.4z"/>
	<path class="st0" d="M63.9,50.4c-0.3-0.1-0.7,0.1-0.8,0.5c-1.5,5.7-6.1,10-11.8,11.3c-8,1.8-15.9-2.9-18.3-10.6l3.6,1.8
		c0,0,0,0,0.1,0c0.3,0.1,0.7,0,0.8-0.3c0.1-0.3,0-0.7-0.3-0.8l-4.9-2.4c0,0,0,0,0,0c0,0-0.1,0-0.1,0c0,0,0,0,0,0c0,0,0,0-0.1,0
		c0,0,0,0-0.1,0c0,0,0,0-0.1,0c0,0,0,0-0.1,0c0,0,0,0,0,0c0,0,0,0,0,0c0,0,0,0-0.1,0c0,0,0,0,0,0c0,0,0,0-0.1,0c0,0,0,0,0,0
		c0,0,0,0-0.1,0c0,0,0,0,0,0c0,0,0,0,0,0.1c0,0,0,0,0,0.1c0,0,0,0,0,0l-2.4,4.8c0,0.1-0.1,0.2-0.1,0.3c0,0.4,0.3,0.6,0.6,0.6
		c0.2,0,0.5-0.1,0.6-0.3l1.7-3.3C34.2,59,40.6,63.8,48,63.8c7.7,0,14.4-5.2,16.4-12.6C64.5,50.8,64.3,50.5,63.9,50.4z"/>
	<path class="st0" d="M47.8,33.1C47.8,33.1,47.8,33.1,47.8,33.1c-3.3,0-6.5,1.3-8.9,3.7c-2.4,2.4-3.7,5.5-3.7,8.9c0,0.3,0,0.7,0,1
		c0,0.5,0.5,1,1,1c0,0,0,0,0,0l0.1,0c0.6-0.1,1-0.6,0.9-1.1c0-0.3,0-0.6,0-0.9c0-2.9,1.2-5.7,3.4-7.7c4.2-3.9,10.9-3.6,14.8,0.7
		c0.2,0.2,0.4,0.3,0.7,0.3c0.3,0,0.5-0.1,0.7-0.3c0.2-0.2,0.3-0.4,0.3-0.7c0-0.3-0.1-0.5-0.3-0.7C54.7,34.6,51.3,33.1,47.8,33.1z"/>
	<path class="st0" d="M47.8,56.9C47.8,56.9,47.8,56.9,47.8,56.9c-2.9,0-5.6-1.2-7.6-3.3c0,0-0.1-0.1-0.1-0.1
		c-0.4-0.4-1.1-0.4-1.5,0.1c-0.4,0.4-0.4,1.1,0,1.5c2.3,2.5,5.6,3.9,9,3.9c0,0,0,0,0,0c0.5,0,1.1,0,1.6-0.1
		c6.9-0.9,11.7-7.2,10.8-14.1c-0.1-0.6-0.6-0.9-1.1-0.9c-0.3,0-0.5,0.2-0.7,0.4c-0.2,0.2-0.3,0.5-0.2,0.8c0.1,0.5,0.1,0.9,0.1,1.4
		C58.3,52.2,53.6,56.9,47.8,56.9z"/>
	<path class="st0" d="M47.9,53.8l5-4.4c0.1-0.1,0.1-0.2,0.1-0.3v-9c0-0.2-0.2-0.4-0.4-0.4c0,0,0,0,0,0c-0.1,0-0.3,0.1-0.3,0.2
		L49,48.7h-2.9L42.7,40c0,0,0,0,0-0.1c0,0-0.1-0.1-0.1-0.1c0,0-0.1,0-0.1-0.1c0,0-0.1,0-0.1,0c0,0-0.1,0-0.1,0c0,0-0.1,0.1-0.1,0.1
		c0,0,0,0.1-0.1,0.1c0,0,0,0,0,0.1v9c0,0.1,0.1,0.2,0.1,0.3l5.2,4.4L47.9,53.8z M52.3,42.1v6.6h-2.5L52.3,42.1z M49.6,49.4h2.2
		l-3.2,2.9L49.6,49.4z M48.8,49.4l-1.2,3.1l-1.2-3.1H48.8z M42.8,42l2.6,6.7h-2.6V42z M43.4,49.4h2.3l1.1,2.9L43.4,49.4z"/>
</g>
</svg>
