<svg xmlns="http://www.w3.org/2000/svg" width="256" height="256"><path fill-opacity=".016" d="M0 128.004v128.004l128.25-.254 128.25-.254.254-127.75L257.008 0H0v128.004m.485.496c0 70.4.119 99.053.265 63.672.146-35.38.146-92.98 0-128C.604 29.153.485 58.1.485 128.5" fill="#1976D2" fill-rule="evenodd"/><path fill-opacity=".163" d="M33.178 3.869c-.728.461-1.729 2.592-2.226 4.735-1.017 4.382-1.307 151.526-.313 158.775l.638 4.659 38.078 32.231C131.17 256.592 126.676 253 130.313 253c2.85 0 8.742-4.837 48.217-39.581 24.733-21.77 45.533-40.306 46.22-41.191.977-1.258 1.25-19.497 1.25-83.419 0-80.476-.033-81.842-2-83.809-2.615-2.615-5.176-2.532-7.662.25-1.106 1.238-14.962 36.9-30.791 79.25s-29.514 77.581-30.411 78.291c-1.258.996-7.43 1.224-27.016 1l-25.386-.291-5.843-15-30.334-77.875C53.087 36.043 41.366 6.681 40.51 5.375c-1.571-2.397-4.861-3.073-7.332-1.506M46 28.208c0 .297.612 2.285 1.359 4.416.801 2.284 1.035 4.697.57 5.876-.448 1.138-.819 1.389-.859.583-.038-.779-.306-1.181-.594-.893-.933.934.701 3.819 1.783 3.15.627-.388.752-.166.309.55-.693 1.121 21.308 58.567 22.119 57.756.203-.203-.054-1.481-.571-2.841-.559-1.47-.576-3.046-.043-3.888.773-1.222.898-1.222.912 0 .008.779.252 1.179.542.889.481-.481-10.102-28.763-20.509-54.806C47.125 29.255 46 26.837 46 28.208m-2.984 74.155L42.972 163h24.014c13.208 0 24.014-.312 24.014-.692 0-1.985-46.23-118.871-47.529-120.17-.226-.227-.431 26.875-.455 60.225M213.884 47.25c-.101 1.969-.178 2.007-.61.309-.64-2.514.934-6.426-23.208 57.691-11.12 29.533-19.889 54.228-19.487 54.877.458.742.3.916-.424.468-.635-.392-1.155-.236-1.155.346 0 .715 7.479 1.059 23 1.059h23v-58.5c0-32.175-.225-58.5-.5-58.5s-.552 1.013-.616 2.25M46.429 166.868c2.738.591 2.82.741 1.258 2.303-1.563 1.562-1.247 1.717 4.82 2.367 6.263.67 21.301-.339 18.737-1.259-.691-.247-1.002-.861-.691-1.364.311-.503-.024-.968-.744-1.033-.72-.065.041-.462 1.691-.882 1.758-.447-3.417-.763-12.5-.763-8.525 0-14.182.284-12.571.631m1.172 7.96c.606.701.889 2.387.63 3.746-.393 2.054-.747 2.279-2.102 1.332-.896-.626.621.948 3.371 3.497 7.4 6.861 25.331 21.357 22.924 18.533-3.073-3.605-1.738-7.713 1.523-4.686 1.065.988 1.199.989.644.005-.386-.684-1.632-1.742-2.767-2.349-1.611-.862-1.895-.829-1.29.149.506.819.369 1.003-.396.53-.644-.398-.937-1.102-.651-1.565.286-.462-3.869-4.566-9.233-9.119-11.005-9.34-14.255-11.928-12.653-10.073m118.981-.024c-2.775.662-3.354 1.866-11.827 24.569-4.9 13.13-8.526 24.256-8.058 24.724.468.468 13.13-10 28.138-23.262 18.592-16.429 26.961-24.439 26.264-25.136-1.188-1.188-30.139-1.938-34.517-.895m-110.98 2.14c1.044.988 12.698 10.915 25.898 22.061s25.714 21.892 27.809 23.88c2.787 2.646 3.637 3.079 3.168 1.615l-.64-2 1.716 2c2.1 2.447 2.72 4.254-8.68-25.279L95.5 174.943l-20.898.102c-20.147.099-20.83.168-19 1.899m53.154-1.28c.691.279 1.03.873.753 1.321-.761 1.232 18.592 51.442 20.628 53.515.645.657.731.344.252-.914-.436-1.144-.342-1.675.232-1.32.815.503 6.517-13.578 18.837-46.516l2.525-6.75-22.242.079c-12.232.043-21.676.307-20.985.585M147 223.059c0 .582.45.781 1 .441s1-.816 1-1.059-.45-.441-1-.441-1 .477-1 1.059" fill="#1976D2" fill-rule="evenodd"/><path fill-opacity=".343" d="M33 5c-1.967 1.967-2 3.333-2 83.797v81.797l3.75 3.572c6.765 6.444 89.535 76.091 92.343 77.702 2.435 1.397 3.077 1.409 5.747.103 1.654-.809 23.065-19.163 47.58-40.786 31.065-27.399 44.775-40.112 45.235-41.946.363-1.447.394-38.574.068-82.504-.441-59.436-.897-80.239-1.78-81.304-1.449-1.746-6.52-1.889-7.634-.216-.445.668-14.098 36.556-30.341 79.75L156.436 163.5l-27.001.266-27.001.265-5.177-13.265c-2.847-7.296-16.437-42.194-30.2-77.55-13.762-35.356-25.548-65.281-26.19-66.5C38.651 2.507 36.059 1.941 33 5m.627 2.529c-1.063 2.77-.729 160.411.344 162.416.533.997 10.771 10.108 22.75 20.246 31.269 26.465 38.658 32.438 38.079 30.778-.282-.808-.147-2.46.3-3.671.722-1.954-1.234-3.977-17.395-18-10.016-8.689-21.226-18.273-24.914-21.298l-6.704-5.5 24.207-.545c13.313-.299 24.243-.637 24.289-.75.046-.113.084-.776.084-1.473 0-.697.306-2.61.68-4.25.531-2.329.45-2.603-.371-1.253-.967 1.59-3.209 1.691-27.677 1.254-14.644-.262-26.78-.631-26.969-.82-.189-.189-.228-31.353-.087-69.253L40.5 26.5l11.197 28C57.855 69.9 69.4 98.925 77.351 119c14.972 37.8 18.149 45.362 17.246 41.052-.282-1.346-.071-2.98.469-3.631 1.088-1.312-8.127-26.467-34.591-94.421C39.094 7.098 38.862 6.562 36.346 6.197c-1.224-.177-2.352.376-2.719 1.332m8.403 92.721L42 163H91.983l-2.384-6.25C74.666 117.606 44.796 42.251 42.925 39c-.492-.854-.877 25.509-.895 61.25m170.338-55.499c-2.163 5.834-42.657 113.285-43.903 116.499-.635 1.636.853 1.75 22.928 1.75H215v-62c0-34.1-.113-62-.25-61.999-.137 0-1.209 2.588-2.382 5.75M128.469 167.5l-.938 3c-.4 1.282 1.308 1.48 11.75 1.364 6.721-.075 11.207-.331 9.971-.569-1.813-.35-2.062-.781-1.289-2.226.86-1.606.325-1.858-5.149-2.431-9.952-1.04-13.824-.807-14.345.862m-75.433 7.869c.805.752 13.389 11.519 27.964 23.926 14.575 12.407 28.729 24.503 31.452 26.881 3.376 2.947 4.715 3.687 4.207 2.324-.41-1.1-5.319-13.812-10.908-28.25L95.588 174H73.58c-18.671 0-21.786.208-20.544 1.369m56.315-.7c-2.133.44-2.125.504 1.098 8.637 1.785 4.507 6.747 17.194 11.026 28.194 4.278 11 8.075 20.33 8.436 20.734.63.704 22.089-54.558 22.089-56.883 0-.803-5.865-1.13-20.25-1.128-11.138.001-21.217.202-22.399.446m54.275.126c-.27.438-4.533 11.575-9.472 24.75-4.94 13.175-9.493 25.283-10.12 26.907-1.075 2.788-1.038 2.867.664 1.428 5.294-4.479 55.249-48.585 57.783-51.018l2.981-2.862H184.79c-11.37 0-20.893.358-21.164.795m-23.083 38.932c-10.613 27.638-9.937 26.308-11.675 22.987-1.256-2.401-1.354-1.984-1.193 5.085.167 7.338.289 7.715 2.593 8.002 1.783.222 4.231-1.319 9.325-5.87 7.405-6.616 13.024-12.147 10.157-9.998-1.567 1.174-1.75 1.006-1.75-1.611 0-1.607.563-3.543 1.25-4.301.688-.759-1.348.79-4.524 3.442s-5.95 4.645-6.164 4.429c-.214-.215 2.273-7.779 5.526-16.807 3.254-9.028 5.69-16.641 5.414-16.917-.276-.276-.531.136-.565.915-.035.78-.468.412-.962-.816-.603-1.501-.415-3.602.574-6.406.81-2.295 1.307-4.338 1.105-4.54-.202-.202-4.302 9.881-9.111 22.406" fill="#1976D2" fill-rule="evenodd"/><path fill-opacity=".109" d="M32.872 5.653c-1.132 1.364-1.423 15.498-1.663 80.75-.16 43.504-.041 80.486.265 82.184.466 2.587 6.653 8.247 38.262 35 61.516 52.063 56.951 48.414 60.548 48.408 2.807-.005 8.933-5.038 48.216-39.623 24.75-21.789 45.331-40.125 45.735-40.745.404-.62.741-37.882.75-82.806.013-72.933-.153-81.846-1.556-83.25-2.066-2.065-4.752-1.993-6.643.179-.838.963-14.676 36.85-30.752 79.75s-29.748 78.331-30.382 78.735c-.633.404-12.684.741-26.78.75-19.318.011-25.873-.293-26.625-1.235-.548-.687-4.463-10.25-8.699-21.25C70.408 82.411 40.578 6.337 39.73 5.25c-1.384-1.775-5.238-1.548-6.858.403m1.378.009C33.264 6.06 33 23.552 33 88.416v82.248l30.75 25.977c16.912 14.287 35.925 30.186 42.25 35.33 6.325 5.145 13.836 11.531 16.69 14.192 3.135 2.922 6.115 4.837 7.527 4.837 1.619 0 8.626-5.628 22.81-18.322 11.26-10.077 20.947-18.965 21.525-19.75.579-.786.804-2.947.5-4.804l-.552-3.375-14.831 12.875c-8.158 7.082-16.161 13.958-17.785 15.281l-2.953 2.404 2.5-6.904c6.167-17.031 20.182-54.024 20.897-55.155.455-.72 2.85-1.25 5.649-1.25 6.792 0 7.745-.533 7.231-4.038-.397-2.705-.775-2.962-4.353-2.962-2.217 0-4.127-.544-4.399-1.253-.264-.689 1.574-7.08 4.086-14.202 3.805-10.788 4.605-14.325 4.8-21.201.129-4.54.117-8.136-.027-7.992-.144.144-4.071 10.021-8.726 21.949-4.655 11.928-8.744 22.14-9.085 22.693-1.003 1.622-54.979 1.344-56.335-.29-.591-.713-5.983-14.1-11.98-29.75C67.984 79.625 39.704 7.484 38.736 6.25c-1.013-1.29-2.32-1.462-4.486-.588m6.514 91.388l.263 67.95h26.487c15.3 0 26.486-.385 26.486-.913C94 162.198 42.49 31.468 41.088 29.8c-.323-.385-.469 29.877-.324 67.25M42 100.333V164h25c18.754 0 25-.299 25-1.198C92 160.48 43.953 38.62 42.442 37.108c-.243-.243-.442 28.209-.442 63.225M213.882 39.75C206.853 57.836 168 161.455 168 162.115c0 .489 10.741.885 24 .885h24v-63c0-34.65-.236-63-.525-63-.288 0-1.005 1.237-1.593 2.75M48.036 173.383c.805.76 12.489 10.725 25.964 22.143 13.475 11.418 27.875 23.983 32 27.921 8.229 7.857 13.794 12.092 14.7 11.187.878-.879-21.565-58.415-23.943-61.384-.753-.939-7.121-1.25-25.594-1.25-20.972 0-24.376.204-23.127 1.383m57.485-.417c-.342.553 1.456 6.749 3.996 13.77 4.763 13.168 19.348 49.188 20.451 50.51.343.41 6.063-13.54 12.712-31 6.648-17.461 11.803-32.026 11.454-32.369-1.142-1.123-47.94-1.999-48.613-.911m-53.049 1.989c.338.546 11.957 10.634 25.821 22.418 13.864 11.783 28.339 24.15 32.167 27.482 3.829 3.332 7.079 5.939 7.224 5.794.145-.145-4.625-12.837-10.599-28.206L96.223 174.5l-22.182-.269c-14.501-.176-21.97.074-21.569.724m54.533-.205c.005.824 2.228 6.649 14.217 37.25 4.418 11.275 8.354 20.857 8.748 21.293.529.586 14.967-36.173 22.796-58.043.35-.977-4.601-1.25-22.659-1.25-12.709 0-23.105.338-23.102.75m46.076 26.375c-5.59 14.919-10.033 27.457-9.873 27.863.161.406 12.442-10.053 27.292-23.241a46015.513 46015.513 0 0131.391-27.863l4.391-3.884h-43.036l-10.165 27.125" fill="#1976D2" fill-rule="evenodd"/></svg>