<svg xmlns="http://www.w3.org/2000/svg" viewBox="0 0 92 92"><defs><style>.cls-1{fill:#ffd302;}</style></defs><title>Asset 11</title><g id="Layer_2" data-name="Layer 2"><g id="Layer_1-2" data-name="Layer 1"><path class="cls-1" d="M91.93,14.23a1.53,1.53,0,0,0-1.92-1l-2,.64a1.53,1.53,0,1,0,.92,2.92l2-.64a1.53,1.53,0,0,0,1-1.92Z"/><path class="cls-1" d="M87.93,6.61a1.53,1.53,0,0,0-2.16.12L84.38,8.28a1.53,1.53,0,0,0,2.29,2l1.38-1.55a1.53,1.53,0,0,0-.12-2.17Z"/><path class="cls-1" d="M77.81,5.12l-.38,2a1.53,1.53,0,0,0,1.23,1.78l.28,0a1.53,1.53,0,0,0,1.51-1.26l.37-2a1.53,1.53,0,1,0-3-.55Z"/><path class="cls-1" d="M90.47,82.7a1.53,1.53,0,0,0,.46-3l-2-.64A1.53,1.53,0,0,0,88,82l2,.64A1.53,1.53,0,0,0,90.47,82.7Z"/><path class="cls-1" d="M84.51,85.41a1.53,1.53,0,0,0-.12,2.17l1.38,1.55a1.53,1.53,0,0,0,2.29-2l-1.38-1.55a1.53,1.53,0,0,0-2.17-.12Z"/><path class="cls-1" d="M78.67,86.92a1.53,1.53,0,0,0-1.23,1.78l.37,2A1.53,1.53,0,0,0,79.32,92l.28,0a1.53,1.53,0,0,0,1.23-1.78l-.37-2A1.53,1.53,0,0,0,78.67,86.92Z"/><path class="cls-1" d="M4.6,85.87H9.31a1.42,1.42,0,0,1,1,.41C15.53,91.93,24.17,92,24.53,92h36.8a6.29,6.29,0,0,0,6.37-5.67,6.08,6.08,0,0,0-.8-3.53h6.7a6.13,6.13,0,0,0,5.31-9.2h.82a6.13,6.13,0,0,0,0-12.27h-.82A6.11,6.11,0,0,0,74,52.18a6,6,0,0,0-.71-8.74L79.52,41a6.14,6.14,0,0,0,3.92-6.12,5.76,5.76,0,0,0-.4-1.8,6.06,6.06,0,0,0-1.87-2.57l.77-.3a6,6,0,0,0,3.15-2.76,6.12,6.12,0,0,0-7.55-8.7l-.76.29a6.13,6.13,0,0,0-8.28-6.67L41.31,22.88a17.14,17.14,0,0,1-5.25,1.23,1.51,1.51,0,0,1-1.37-.66A1.46,1.46,0,0,1,34.54,22,22.91,22.91,0,0,1,37,17.72l.1-.14c3.48-4.93,7.08-10,5.69-13.64A6,6,0,0,0,37.57,0a4.75,4.75,0,0,0-4.48,3.22c-1.31,2.94-6.9,8-11.83,12.53-1.17,1.07-2.34,2.13-3.44,3.16-4,3.72-7.08,9.68-8.93,14A7.59,7.59,0,0,1,4.66,37l-1.74.67A4.57,4.57,0,0,0,0,42V81.27A4.6,4.6,0,0,0,4.6,85.87ZM76.67,58.28a3.07,3.07,0,0,1-3.07,3.07H47.53a1.53,1.53,0,0,0,0,3.07h32.2a3.07,3.07,0,0,1,0,6.13H47.53a1.53,1.53,0,0,0,0,3.07H73.6a3.07,3.07,0,1,1,0,6.13H46a1.53,1.53,0,1,0,0,3.07H61.59a3.07,3.07,0,0,1,3.06,3.3,3.26,3.26,0,0,1-3.32,2.82H24.53c-.08,0-7.64-.05-11.92-4.73a4.48,4.48,0,0,0-3.3-1.4H4.6a1.53,1.53,0,0,1-1.53-1.53V56.75A1.53,1.53,0,0,1,4.6,55.21h.57A10.7,10.7,0,0,0,12.8,52c2.53-2.59,7.49-7.23,12.31-9.16,3-1.18,17.9-7.28,22-11.36.73-.73,1.4-1,2-.72a3,3,0,0,1,1.51,2.71c0,1.51-3.45,5.34-10.05,9.74a24.84,24.84,0,0,0-4.33,3.62,4.55,4.55,0,0,0-1.1,4.24,4.63,4.63,0,0,0,3,3.26,20,20,0,0,0,6.33.89H73.6A3.07,3.07,0,0,1,76.67,58.28ZM4,40.53l1.71-.66a10.69,10.69,0,0,0,6-5.73c1.42-3.33,4.38-9.45,8.19-13,1.1-1,2.25-2.07,3.42-3.14,5.4-4.93,11-10,12.57-13.56.41-.94,1-1.4,1.59-1.4a3,3,0,0,1,2.39,2c.8,2.07-2.75,7.1-5.33,10.77l-.1.14a25.48,25.48,0,0,0-2.7,4.84l0,.09a17.83,17.83,0,0,0-.77,9.75,1.53,1.53,0,0,0,3-.47,20.14,20.14,0,0,1-.23-3.59,4.69,4.69,0,0,0,2.47.61,20.16,20.16,0,0,0,6.22-1.44L69.6,15.27A3.07,3.07,0,1,1,71.81,21h0L59.22,26.18A1.53,1.53,0,0,0,60.39,29l12.54-5.16,5.7-2.2a3.08,3.08,0,0,1,4,1.75A3,3,0,0,1,82.4,26a3,3,0,0,1-1.56,1.38l-5.68,2.2h0L56.18,36.9a1.53,1.53,0,0,0,1.11,2.86l18.92-7.31h0a3,3,0,0,1,2.31.07,3.07,3.07,0,0,1,1.63,1.72,2.84,2.84,0,0,1,.19.88,3.07,3.07,0,0,1-2,3.07L67.27,42.47l-.05,0-9.29,3.57A1.53,1.53,0,1,0,59,48.92l9.29-3.58h0l0,0a3,3,0,0,1,2.3.08,3.06,3.06,0,0,1,1.69,1.93,3.22,3.22,0,0,1-2.08,3.83L68.16,52a1.4,1.4,0,0,0-.28.17H44.47a17,17,0,0,1-5.35-.73,1.55,1.55,0,0,1-1-1.11,1.47,1.47,0,0,1,.36-1.39,21.81,21.81,0,0,1,3.8-3.16c4.26-2.85,11.42-8.22,11.42-12.3a6,6,0,0,0-3.4-5.54,4.8,4.8,0,0,0-5.35,1.39C42.26,32,32.48,36.59,24,40c-5.08,2-10.07,6.49-13.36,9.87a7.62,7.62,0,0,1-5.43,2.28H4.6a4.54,4.54,0,0,0-1.53.28V42A1.52,1.52,0,0,1,4,40.53Z"/><path class="cls-1" d="M36.8,82.78H27.6a1.53,1.53,0,0,0,0,3.07h9.2a1.53,1.53,0,0,0,0-3.07Z"/><path class="cls-1" d="M21.5,82.78a3.37,3.37,0,0,1-2-1.08,1.53,1.53,0,0,0-2.17,2.17,6.22,6.22,0,0,0,4.15,2A1.51,1.51,0,0,0,23,84.35,1.55,1.55,0,0,0,21.5,82.78Z"/><path class="cls-1" d="M7.67,58.25a1.53,1.53,0,0,0-1.53,1.53v1.53a1.53,1.53,0,0,0,3.07,0V59.79A1.53,1.53,0,0,0,7.67,58.25Z"/><path class="cls-1" d="M7.67,65.92a1.53,1.53,0,0,0-1.53,1.53V78.18a1.53,1.53,0,1,0,3.07,0V67.45A1.53,1.53,0,0,0,7.67,65.92Z"/></g></g></svg>