<svg xmlns="http://www.w3.org/2000/svg" viewBox="0 0 11.75 8.76"><defs><style>.cls-1{fill:#091019;}</style></defs><title>Asset 19</title><g id="Layer_2" data-name="Layer 2"><g id="Layer_1-2" data-name="Layer 1"><path class="cls-1" d="M4.38,8.39A.59.59,0,0,1,4,8.21L.52,4.77l0-.06a.61.61,0,0,1-.11-.34A.59.59,0,0,1,.56,4L4,.55a.59.59,0,0,1,.83.83L2.38,3.79h8.4a.59.59,0,0,1,0,1.18H2.38L4.8,7.38a.59.59,0,0,1-.42,1Z"/><path class="cls-1" d="M4.38.75a.21.21,0,0,1,.15.36L1.48,4.17h9.31a.21.21,0,1,1,0,.43H1.48L4.53,7.65a.21.21,0,0,1-.3.3L.81,4.53h0v0h0v0h0a.21.21,0,0,1,0-.27L4.23.81A.21.21,0,0,1,4.38.75m0-.75A1,1,0,0,0,3.7.28L.29,3.69A1,1,0,0,0,.13,4.86l0,.08,0,0h0l0,0h0l.05.05,3.4,3.4A1,1,0,1,0,5.06,7.12L3.29,5.34h7.5a1,1,0,1,0,0-1.93H3.29L5.06,1.64A1,1,0,0,0,4.38,0Z"/></g></g></svg>