<svg xmlns="http://www.w3.org/2000/svg" viewBox="0 0 70 76.15"><defs><style>.cls-1{fill:#fff;}</style></defs><title>Asset 21</title><g id="Layer_2" data-name="Layer 2"><g id="Layer_1-2" data-name="Layer 1"><path class="cls-1" d="M38.21,38.78,21.78,26.89A1.27,1.27,0,0,0,20,28.67L31.9,45.1a4.51,4.51,0,0,0,3.3,1.85h.35a4.52,4.52,0,0,0,2.66-8.18ZM37,43.84a2,2,0,0,1-3-.23l-7.25-10,10,7.25a2,2,0,0,1,.24,3Z"/><path class="cls-1" d="M68.1,33h0a34.06,34.06,0,0,0-3.39-8.17s0-.05,0-.08l-.06-.06a34.4,34.4,0,0,0-4.53-6.1l2.72-2.72,1.8,1.79L70,12.27,64.62,6.88l-5.39,5.39L61,14.06,58.3,16.79a34.46,34.46,0,0,0-6.1-4.53l-.06-.06-.08,0a34,34,0,0,0-8.17-3.39h0a34,34,0,0,0-5.05-1V6.35h1.9a3.17,3.17,0,1,0,0-6.35H29.29a3.17,3.17,0,1,0,0,6.35h1.9V7.83a34,34,0,0,0-5,1h0a34.08,34.08,0,0,0-8.17,3.39l-.08,0-.06.06a34.45,34.45,0,0,0-6.1,4.53L9,14.06l1.79-1.79L5.38,6.88,0,12.27l5.38,5.38,1.8-1.79L9.9,18.58a34.39,34.39,0,0,0-4.52,6.1l-.06.06s0,.05,0,.08A34,34,0,0,0,1.91,33h0a34.19,34.19,0,0,0,0,17.71h0v0a34,34,0,0,0,3.39,8.17s0,.05,0,.08l.08.1A34.52,34.52,0,0,0,10.72,66s0,.05.05.08l.08.05a34.46,34.46,0,0,0,7,5.34l.06.06.12,0A34.05,34.05,0,0,0,26.12,75h0a34.19,34.19,0,0,0,17.7,0h0A34.08,34.08,0,0,0,52,71.61l.12,0,.06-.06a34.5,34.5,0,0,0,7-5.34l.08-.05s0-.05.05-.08a34.52,34.52,0,0,0,5.32-6.92,1.2,1.2,0,0,0,.08-.1s0-.05,0-.08a34,34,0,0,0,3.39-8.17v0h0A34.21,34.21,0,0,0,68.1,33ZM64.62,10.47l1.79,1.8-1.79,1.79-1.8-1.79Zm-61,1.8,1.79-1.8,1.8,1.8-1.8,1.79Zm59.28,38.4,2.43.65a31.53,31.53,0,0,1-2.22,5.32l-2.17-1.25a1.27,1.27,0,1,0-1.27,2.2l2.16,1.25a31.84,31.84,0,0,1-3.51,4.56l-1.76-1.76a1.27,1.27,0,1,0-1.79,1.79l1.76,1.76a31.84,31.84,0,0,1-4.56,3.51l-1.25-2.16a1.27,1.27,0,1,0-2.2,1.27L49.75,70a31.49,31.49,0,0,1-5.32,2.22l-.65-2.43a1.27,1.27,0,1,0-2.45.66L42,72.83a31.66,31.66,0,0,1-5.71.75V71.07a1.27,1.27,0,0,0-2.54,0v2.51A31.66,31.66,0,0,1,28,72.83l.65-2.42a1.27,1.27,0,0,0-2.45-.66l-.65,2.43A31.53,31.53,0,0,1,20.25,70L21.5,67.8a1.27,1.27,0,1,0-2.2-1.27l-1.25,2.16a31.84,31.84,0,0,1-4.56-3.51l1.76-1.76a1.27,1.27,0,1,0-1.79-1.79L11.7,63.39a31.85,31.85,0,0,1-3.51-4.56l2.16-1.25a1.27,1.27,0,0,0-1.27-2.2L6.92,56.63A31.49,31.49,0,0,1,4.7,51.32l2.43-.65a1.27,1.27,0,0,0-.66-2.45l-2.42.65a31.78,31.78,0,0,1-.75-5.71H5.81a1.27,1.27,0,1,0,0-2.54H3.3a31.66,31.66,0,0,1,.75-5.71l2.42.65a1.29,1.29,0,0,0,.33,0,1.27,1.27,0,0,0,.33-2.5L4.7,32.45a31.53,31.53,0,0,1,2.22-5.32l2.17,1.25a1.25,1.25,0,0,0,.63.17,1.27,1.27,0,0,0,.64-2.37L8.19,24.94a31.85,31.85,0,0,1,3.51-4.56l1.76,1.76a1.27,1.27,0,1,0,1.79-1.79l-1.76-1.76a31.94,31.94,0,0,1,4.56-3.51l1.25,2.16A1.27,1.27,0,1,0,21.5,16L20.25,13.8a31.49,31.49,0,0,1,5.32-2.22L26.22,14a1.27,1.27,0,0,0,1.22.94,1.29,1.29,0,0,0,.33,0,1.27,1.27,0,0,0,.9-1.55L28,10.94a31.49,31.49,0,0,1,4.57-.68l1.09-.07h0v2.51a1.27,1.27,0,0,0,2.54,0V10.19h0l1.09.07a31.64,31.64,0,0,1,4.57.68l-.65,2.42a1.27,1.27,0,0,0,.9,1.55,1.29,1.29,0,0,0,.33,0A1.27,1.27,0,0,0,43.78,14l.65-2.43a31.53,31.53,0,0,1,5.32,2.22L48.5,16a1.27,1.27,0,1,0,2.2,1.27l1.25-2.16a31.94,31.94,0,0,1,4.56,3.51l-1.76,1.76a1.27,1.27,0,1,0,1.79,1.79l1.76-1.76a31.84,31.84,0,0,1,3.51,4.56l-2.16,1.25a1.27,1.27,0,1,0,1.27,2.2l2.17-1.25a31.49,31.49,0,0,1,2.22,5.32l-2.43.65a1.27,1.27,0,0,0,.33,2.5,1.29,1.29,0,0,0,.33,0l2.42-.65a31.66,31.66,0,0,1,.75,5.71H64.19a1.27,1.27,0,0,0,0,2.54H66.7a31.69,31.69,0,0,1-.75,5.71l-2.42-.65a1.27,1.27,0,1,0-.66,2.45Zm-29.14-43V3.81H29.29a.63.63,0,1,1,0-1.27H40.71a.63.63,0,1,1,0,1.27H36.27V7.64L35,7.62Z"/></g></g></svg>