<svg xmlns="http://www.w3.org/2000/svg" viewBox="0 0 28.51 28"><defs><style>.cls-1{fill:#050a11;}.cls-2{fill:#fff;}</style></defs><title>Asset 7</title><g id="Layer_2" data-name="Layer 2"><g id="Layer_1-2" data-name="Layer 1"><path class="cls-1" d="M28.51,11.67H27.3V6.14a2.41,2.41,0,0,0-2.4-2.4H23.27l-1.67-3a1.44,1.44,0,0,0-2-.56L13.26,3.74H6.12a2.41,2.41,0,0,0-2.4,2.4v16.5A2.41,2.41,0,0,0,6.12,25H24.9a2.41,2.41,0,0,0,2.4-2.4V17.79h1.2V11.67Zm-3.6-7A1.44,1.44,0,0,1,26.33,6H24.52L23.81,4.7ZM20.12,1a.49.49,0,0,1,.65.19L23.42,6H11.2Zm6.23,21.62a1.44,1.44,0,0,1-1.44,1.44H6.12a1.44,1.44,0,0,1-1.44-1.44V6.14A1.44,1.44,0,0,1,6.12,4.7h5.41L9.23,6H6.42a.48.48,0,0,0,0,1H26.34v4.73H22.83a3,3,0,0,0-3,3v.21a3,3,0,0,0,3,3h3.51v4.85Zm1.2-5.81H22.83a2,2,0,0,1-2-2v-.21a2,2,0,0,1,2-2h4.72ZM24.3,14.77a1.06,1.06,0,1,1-1.06-1.06A1.06,1.06,0,0,1,24.3,14.77Z"/><path class="cls-2" d="M1,17.52v8.61a1.93,1.93,0,0,0,.51,1.33A1.72,1.72,0,0,0,2.75,28H9.37a1.72,1.72,0,0,0,1.25-.54,1.93,1.93,0,0,0,.51-1.33V17.52a1.34,1.34,0,0,0-.34-2.63H9v-.44a1.37,1.37,0,0,0-1.38-1.38H4.51a1.37,1.37,0,0,0-1.38,1.38v.44H1.34A1.34,1.34,0,0,0,1,17.52Z"/><path class="cls-1" d="M8.12,18.48a.35.35,0,0,0-.35.35v6.61a.35.35,0,1,0,.7,0V18.83A.35.35,0,0,0,8.12,18.48Z"/><path class="cls-1" d="M4,18.48a.35.35,0,0,0-.35.35v6.61a.35.35,0,1,0,.7,0V18.83A.35.35,0,0,0,4,18.48Z"/><path class="cls-1" d="M1,17.52v8.61a1.93,1.93,0,0,0,.51,1.33A1.72,1.72,0,0,0,2.75,28H9.37a1.72,1.72,0,0,0,1.25-.54,1.93,1.93,0,0,0,.51-1.33V17.52a1.34,1.34,0,0,0-.34-2.63H9v-.44a1.37,1.37,0,0,0-1.38-1.38H4.51a1.37,1.37,0,0,0-1.38,1.38v.44H1.34A1.34,1.34,0,0,0,1,17.52ZM9.37,27.3H2.75a1.11,1.11,0,0,1-1.06-1.17V17.55h8.74v8.58A1.11,1.11,0,0,1,9.37,27.3ZM3.82,14.46a.67.67,0,0,1,.69-.68h3.1a.67.67,0,0,1,.69.68v.44H3.82ZM1.34,15.59h9.45a.63.63,0,0,1,0,1.26H1.34a.63.63,0,1,1,0-1.26Z"/><path class="cls-1" d="M6.06,18.48a.35.35,0,0,0-.35.35v6.61a.35.35,0,1,0,.7,0V18.83A.35.35,0,0,0,6.06,18.48Z"/></g></g></svg>