<svg xmlns="http://www.w3.org/2000/svg" viewBox="0 0 39.32 38"><defs><style>.cls-1{fill:#050a11;}.cls-2{fill:#fff;}</style></defs><title>Asset 8</title><g id="Layer_2" data-name="Layer 2"><g id="Layer_1-2" data-name="Layer 1"><path class="cls-1" d="M32.71,15.39H31.13V8.1A3.17,3.17,0,0,0,28,4.93H25.81l-2.2-4A1.9,1.9,0,0,0,21,.24L12.59,4.93H3.17A3.17,3.17,0,0,0,0,8.1V29.87A3.17,3.17,0,0,0,3.17,33H28a3.17,3.17,0,0,0,3.17-3.17V23.48h1.59V15.39ZM28,6.2a1.9,1.9,0,0,1,1.88,1.69H27.45L26.51,6.2ZM21.64,1.35a.65.65,0,0,1,.86.25L26,7.89H9.88Zm8.22,28.52a1.9,1.9,0,0,1-1.9,1.9H3.17a1.9,1.9,0,0,1-1.9-1.9V8.1a1.9,1.9,0,0,1,1.9-1.9h7.14l-3,1.69H3.57a.63.63,0,0,0,0,1.27H29.86v6.24H25.22a3.91,3.91,0,0,0-3.91,3.91v.27a3.91,3.91,0,0,0,3.91,3.91h4.64v6.39Zm1.59-7.66H25.22a2.64,2.64,0,0,1-2.64-2.64V19.3a2.64,2.64,0,0,1,2.64-2.64h6.22Zm-4.28-2.72a1.4,1.4,0,1,1-1.4-1.4A1.4,1.4,0,0,1,27.16,19.49Z"/><path class="cls-2" d="M39.32,20.35H37.74V13.06a3.17,3.17,0,0,0-3.17-3.17H32.42l-2.2-4a1.9,1.9,0,0,0-2.59-.74L19.2,9.89H9.78a3.17,3.17,0,0,0-3.17,3.17V34.83A3.17,3.17,0,0,0,9.78,38H34.56a3.17,3.17,0,0,0,3.17-3.17V28.43h1.59V20.35Zm-4.76-9.2a1.9,1.9,0,0,1,1.88,1.69H34.06l-.94-1.69Zm-.79,13.29a1.4,1.4,0,1,1-1.4-1.4A1.4,1.4,0,0,1,33.77,24.44Z"/><circle class="cls-2" cx="32.06" cy="24.37" r="2.07"/><path class="cls-1" d="M39.32,20.35H37.74V13.06a3.17,3.17,0,0,0-3.17-3.17H32.42l-2.2-4a1.9,1.9,0,0,0-2.59-.74L19.2,9.89H9.78a3.17,3.17,0,0,0-3.17,3.17V34.83A3.17,3.17,0,0,0,9.78,38H34.56a3.17,3.17,0,0,0,3.17-3.17V28.43h1.59V20.35Zm-4.76-9.2a1.9,1.9,0,0,1,1.88,1.69H34.06l-.94-1.69ZM28.25,6.3a.65.65,0,0,1,.86.25l3.5,6.29H16.49Zm8.22,28.52a1.9,1.9,0,0,1-1.9,1.9H9.78a1.9,1.9,0,0,1-1.9-1.9V13.06a1.9,1.9,0,0,1,1.9-1.9h7.14l-3,1.69h-3.7a.63.63,0,0,0,0,1.27H36.47v6.24H31.83a3.91,3.91,0,0,0-3.91,3.91v.27a3.91,3.91,0,0,0,3.91,3.91h4.64v6.39Zm1.59-7.66H31.83a2.64,2.64,0,0,1-2.64-2.64v-.27a2.64,2.64,0,0,1,2.64-2.64h6.22Zm-4.28-2.72a1.4,1.4,0,1,1-1.4-1.4A1.4,1.4,0,0,1,33.77,24.44Z"/></g></g></svg>