<svg xmlns="http://www.w3.org/2000/svg" viewBox="0 0 50 36.68"><defs><style>.cls-1{fill:#fff;}</style></defs><title>Asset 10</title><g id="Layer_2" data-name="Layer 2"><g id="Layer_1-2" data-name="Layer 1"><path class="cls-1" d="M49.17,15H37.5a.83.83,0,0,0-.83.83v2.5H34.61l-1.93-2.89a15.94,15.94,0,0,0-2.89-3.26,16.12,16.12,0,0,0-1.91-1.38l5.35-5.35A3.19,3.19,0,0,0,28.75.92l0,0L26.91,2.76l-2.5,2.5L21.17,8.5a.83.83,0,0,0-.26-.08c-.5,0-1-.07-1.51-.07H10a.83.83,0,0,0-.59.24L1.77,16.23a3.19,3.19,0,0,0,4.48,4.54l0,0,.82-.82.24.8a11.86,11.86,0,0,0,.43,1.18L4.41,25.26,2.74,26.92a.84.84,0,0,0-.2.33l-1.67,5a.83.83,0,0,0,.79,1.1.84.84,0,0,0,.26,0l5-1.67a.83.83,0,0,0,.33-.2l1.67-1.67,2.85-2.85a11.7,11.7,0,0,0,6.94,2.26h7.12l.11,0a7.7,7.7,0,0,0,2.23,1.7,7.79,7.79,0,0,0,3.47.82h5v.83a.83.83,0,0,0,.83.83H49.17a.83.83,0,0,0,.83-.83V15.85A.83.83,0,0,0,49.17,15ZM29.9,2.13a1.52,1.52,0,0,1,2.15,2.16L30.83,5.5,28.68,3.35Zm-2.4,2.4,2.15,2.16L28.33,8,26.18,5.85Zm-22.4,15a1.52,1.52,0,0,1-2.15-2.16l7.4-7.4h9.3l-3.32,3.32H11.67a.83.83,0,0,0-.59.24ZM14.66,15,9.07,20.6c0-.12-.09-.24-.13-.36l-.5-1.66L12,15h2.64ZM6.22,30.12,3,31.2,4.06,28l1.25-1.25a2.49,2.49,0,0,1,2.15,2.15Zm2.6-2.6a4.19,4.19,0,0,0-2.15-2.15L17.25,14.77,25,7l2.15,2.16-8.33,8.33H17.7a3.32,3.32,0,0,0-3.17,4.33l-.13.08Zm9.9,0A10.1,10.1,0,0,1,13,25.73l2.46-2.46a3.35,3.35,0,0,0,2.28.91h5.15l1.9,3.33Zm18,2.5h-5a6.08,6.08,0,0,1-5.28-3.07l-2.29-4a.83.83,0,0,0-.72-.42H17.7a1.67,1.67,0,1,1,0-3.33h8.13a.83.83,0,1,0,0-1.67H21.18L26.67,12a13.86,13.86,0,0,1,4.62,4.36l2.18,3.26a.83.83,0,0,0,.69.37h2.5Zm11.67,1.67h-10v-15h10Z"/><circle class="cls-1" cx="43.33" cy="28.35" r="1.67"/><path class="cls-1" d="M18.33,35H.83a.83.83,0,0,0,0,1.67h17.5a.83.83,0,1,0,0-1.67Z"/><path class="cls-1" d="M22.5,35h-.83a.83.83,0,1,0,0,1.67h.83a.83.83,0,0,0,0-1.67Z"/></g></g></svg>